<?xml version="1.0" encoding="utf-8"?>
<!-- Generator: Adobe Illustrator 24.0.0, SVG Export Plug-In . SVG Version: 6.00 Build 0)  -->
<svg version="1.1" id="Layer_1" xmlns="http://www.w3.org/2000/svg" xmlns:xlink="http://www.w3.org/1999/xlink" x="0px" y="0px"
	 viewBox="0 0 236 236" style="enable-background:new 0 0 236 236;" xml:space="preserve">
<style type="text/css">
	.st0{fill:#EC1C24;}
	.st1{fill:#31A049;}
	.st2{fill:#29A64A;}
	.st3{fill:#399948;}
	.st4{fill:#FFCA05;}
</style>
<g>
	<path class="st0" d="M201.97,117.81c0,46.48-37.68,84.16-84.16,84.16s-84.16-37.68-84.16-84.16c0-46.48,37.68-84.16,84.16-84.16
		S201.97,71.33,201.97,117.81z"/>
	<path class="st1" d="M88.89,204.98l-3.55,7.81l-1.48,3.03l-1.52-0.75c-0.28-0.66-0.79-1.37-1.54-2.1l2.43-5.34
		c-0.79-1.62-1.39-2.52-1.82-2.71c-0.28-0.12-0.77-0.07-1.48,0.17c-0.9,0.33-2.29,0.81-4.15,1.44c-1.82,0.55-3.41,0.52-4.76-0.1
		c-1.42-0.65-2.47-1.94-3.14-3.89l1.65-0.81c0.32,0.36,0.67,0.93,1.04,1.73c0.15,0.33,0.43,0.58,0.85,0.77
		c0.31,0.14,1.06,0.14,2.26,0c1.19-0.14,1.84-0.32,1.94-0.54c0.29-0.65-0.16-1.49-1.34-2.52c-1.03-0.9-2.3-1.7-3.82-2.39
		c0.38-0.71,0.79-1.25,1.22-1.63l-2.33-1.06l-1.54-0.7l0.88-1.94l24.59,11.17l-0.89,1.94L88.89,204.98z M85.27,203.33l-7.91-3.59
		c0.28,1.19,0.25,2.29-0.1,3.32c0.42,0.03,1.21,0,2.37-0.09c0.91-0.07,1.76-0.06,2.56,0.03c0.63,0.72,1.24,1.73,1.86,3.03
		c0.2-0.31,0.35-0.57,0.45-0.8C84.61,204.98,84.86,204.35,85.27,203.33z"/>
	<path class="st1" d="M107.22,208.73l-2.37,11.72l-1.76-0.36c-3.38-3.8-8.19-6.32-14.42-7.56l-0.25-3.33
		c1.71-0.22,4.17-0.36,7.38-0.44c3.42-0.09,5.89-0.19,7.37-0.32l0.11-0.51L87.7,204.8l0.42-2.04l23.77,4.79l-0.41,2.05
		L107.22,208.73z M94.83,219.46c-0.78-0.16-1.47-0.42-2.04-0.77c-0.81-0.52-1.15-1.1-1.01-1.77c0.25-1.25,1.36-1.68,3.32-1.28
		c0.77,0.16,1.42,0.42,1.95,0.81c0.7,0.49,0.98,1.08,0.85,1.73c-0.12,0.59-0.52,0.99-1.22,1.21
		C96.08,219.56,95.47,219.59,94.83,219.46z M102.64,211.09c-2.75,0.02-5.36,0.16-7.84,0.42c2.83,1.59,5.09,3.19,6.79,4.79
		L102.64,211.09z"/>
	<path class="st1" d="M126.39,208.59l0.05,0.85c2.13-0.06,4,0.15,5.6,0.64c2.34,0.72,3.55,1.93,3.65,3.63
		c0.04,0.85-0.48,1.59-1.59,2.21c-0.92,0.49-1.85,0.76-2.81,0.81c-0.71,0.04-1.32-0.05-1.86-0.28c-0.69-0.31-1.05-0.78-1.09-1.42
		c-0.03-0.58,0.15-1.03,0.55-1.37c0.4-0.33,0.9-0.52,1.5-0.55c0.71-0.04,1.54,0.2,2.49,0.73c0.34-0.15,0.5-0.31,0.49-0.49
		c-0.07-1.32-1.86-1.89-5.35-1.69c-0.33,0.01-0.81,0.05-1.44,0.1l0.48,8.58l-1.77,0.1c-2.27-1.51-4.35-2.5-6.26-2.98
		c-1.64-0.42-4.31-0.68-7.99-0.81l-2.02-2.78c4.63-1.17,9.12-2.54,13.47-4.11c-0.03-0.45-0.03-0.77,0-0.96l-15.34,0.86l-0.2-1.99
		l31.56-1.77l0.11,2L126.39,208.59z M122.95,214.26c0.01,0.16-0.04-0.41-0.15-1.71c-3.01,0.71-5.34,1.38-7,2
		c1.88,0.53,4.31,1.38,7.32,2.54L122.95,214.26z"/>
	<path class="st1" d="M141.71,205.81l2.9,11.46l-1.45,0.36c-0.36-0.32-1.27-0.64-2.71-0.95l-2.51-9.92l-3.92,0.99l-0.51-2.03
		l3.99-1.01l-0.59-2.33l1.47-0.43l2.13,2l4.65-1.17l0.51,2.03L141.71,205.81z"/>
	<path class="st1" d="M160.66,198.7l4.67,10.99l-1.65,0.7c-4.93-1.22-10.32-0.58-16.17,1.93l-2.08-2.61
		c1.29-1.14,3.23-2.65,5.83-4.53c2.78-2.01,4.75-3.48,5.9-4.43l-0.2-0.48l-14.62,6.22l-0.82-1.93l22.31-9.49l0.83,1.93L160.66,198.7
		z M158.21,203.21c-2.26,1.57-4.34,3.16-6.23,4.78c3.24-0.29,6.01-0.25,8.31,0.11L158.21,203.21z M156.5,214.54
		c-0.74,0.32-1.44,0.48-2.13,0.52c-0.95,0.03-1.56-0.26-1.82-0.88c-0.5-1.17,0.17-2.15,2.02-2.93c0.72-0.31,1.41-0.45,2.07-0.44
		c0.86,0.01,1.41,0.33,1.67,0.95c0.24,0.55,0.13,1.11-0.32,1.68C157.6,213.91,157.11,214.28,156.5,214.54z"/>
	<path class="st2" d="M18.5,98.66l10.35,1.29l-0.43,3.44c-1.86-0.23-2.8-0.34-2.79-0.35l-2.58-0.32c-1.8-0.23-3.12,0.14-3.97,1.1
		c-0.7,0.78-1.16,2.15-1.41,4.08c-0.22,1.78-0.13,2.69,0.29,2.75c0.05,0.01,0.09-0.02,0.15-0.08l0.09-0.31
		c0.03-0.11,0.05-0.2,0.06-0.29c0.02-0.16,0.03-0.41,0.03-0.76c0.01-0.35,0.01-0.6,0.04-0.76c0.09-0.75,0.39-1.49,0.91-2.23
		c0.6-0.88,1.23-1.28,1.9-1.2c0.95,0.12,1.54,1.04,1.8,2.76c0.19,1.32,0.18,2.92-0.06,4.78l-2.1,1.25c0.05-0.44,0.12-0.88,0.21-1.29
		l0.08-0.69c0.39-3.07,0.14-4.66-0.72-4.76c-0.53-0.07-0.86,0.42-0.99,1.46c-0.13,1.04,0.09,2.15,0.66,3.32
		c-0.82,1.2-1.65,1.74-2.52,1.63c-0.86-0.1-1.51-0.64-1.94-1.59c-0.36-0.84-0.49-1.71-0.38-2.61c0.27-2.13,1.45-4.49,3.55-7.09
		l-2.5-0.31l0.89-7.16l1.86,0.23L18.5,98.66z"/>
	<path class="st2" d="M24.98,77.48l9.85,3.41l-0.63,1.68c-1.91,0.59-3.23,1.1-3.97,1.52c-1.57,0.88-2.7,2.14-3.37,3.78
		c0.09,0.03,0.17,0.06,0.23,0.08c0.71,0.25,1.12,0.77,1.23,1.58c0.1,0.61,0.01,1.31-0.26,2.09c-0.29,0.84-0.73,1.59-1.32,2.26
		c-0.76,0.85-1.49,1.14-2.21,0.9c-0.8-0.28-1.28-1-1.42-2.18c-0.12-0.94-0.02-1.86,0.28-2.74c0.41-1.17,1.38-2.51,2.93-4.02
		c0.8-0.77,1.99-1.79,3.6-3.08l-6.05-2.09L18.85,95.2l-1.76-0.61l7.64-22.09l1.76,0.61L24.98,77.48z"/>
	<path class="st2" d="M35.99,58.38l8.8,5.44l-0.86,1.39l-1.94,1.03l-3.33-2.18c0,0.01-0.44-0.27-1.31-0.81
		c-0.59-0.31-1.09-0.41-1.51-0.31l-0.52,7.64l-2.37,1.92c0.26-1.89,0.26-2.91,0.01-3.05c-0.41-0.25-0.81-0.06-1.21,0.58
		c-0.19,0.3-0.44,0.77-0.77,1.4c-0.33,0.63-0.58,1.1-0.77,1.4c-0.71,1.16-1.5,1.48-2.34,0.96c-0.65-0.4-0.83-1.43-0.52-3.1
		c0.25-1.4,0.61-2.5,1.11-3.29c1.45-2.36,3.54-4.22,6.27-5.6c-0.68-0.42-1.38-0.89-2.11-1.42l3.83-6.21L38,55.12L35.99,58.38z
		 M33.37,66.79l0.09-2.74c-0.93,0.41-1.81,1.27-2.62,2.59c-0.37,0.6-0.64,1.22-0.82,1.83c-0.27,0.9-0.2,1.5,0.2,1.83
		c0.1-0.04,0.19-0.07,0.27-0.12c0.15-0.19,0.67-1,1.56-2.42C32.39,67.18,32.83,66.86,33.37,66.79z"/>
	<path class="st2" d="M44.83,66.29c-1.2,0.13-2.25,0.77-3.15,1.92c-0.58,0.74-1.27,1.96-2.07,3.67c-0.8,1.71-1.5,2.94-2.08,3.69
		c-0.74,0.94-1.66,1.67-2.77,2.19c-1.35,0.66-2.46,0.65-3.32-0.02l-0.54-0.42l1.09-1.39c1.62,0.49,2.85,0.19,3.7-0.9
		c0.48-0.62,1.09-1.65,1.81-3.08c0.72-1.43,1.32-2.46,1.82-3.1c0.8-1.03,1.79-1.93,2.97-2.71l-0.65-0.51l1.86-2.39l2.3,1.8
		L44.83,66.29z"/>
	<path class="st2" d="M49.13,44.13c1.6-0.26,2.87-0.84,3.8-1.73c0.3-0.29,0.74-0.85,1.3-1.68l3.26,0.04
		c-0.62,1.51-0.75,2.82-0.4,3.93c0.25,0.79,0.84,1.67,1.77,2.64c0.23,0.24,1,0.66,2.3,1.24l-0.63,1.32
		c-2.58-0.62-4.3-1.38-5.17-2.29c-0.39-0.4-0.91-1.42-1.56-3.05c-1.34,0.67-2.35,1.07-3.03,1.21c-0.8,0.16-1.67,0.09-2.62-0.22
		c-0.67,1.07-1.13,2.08-1.39,3.02c-0.32,1.11-0.26,1.89,0.16,2.33c0.29,0.3,0.6,0.3,0.92-0.01c0.51-0.49,0.88-1.65,1.12-3.46
		c1.98-0.46,3.49-0.16,4.51,0.9c0.7,0.73,0.97,1.63,0.8,2.71c-0.18,1.2-0.86,2.37-2.04,3.51c-2.18,2.1-4.49,2.91-6.94,2.43
		c-0.92-0.19-2.67-0.98-5.27-2.39l1.37-1.64c1.75,1.17,3.34,1.75,4.76,1.75c1.57-0.02,3.1-0.74,4.58-2.17
		c0.45-0.44,0.79-0.93,1.02-1.48c0.3-0.71,0.25-1.27-0.14-1.68c-0.16-0.16-0.32-0.28-0.49-0.37c-0.26,0.84-0.69,1.55-1.29,2.13
		c-1.15,1.11-2.31,1.64-3.5,1.59c-0.91-0.04-1.7-0.41-2.38-1.11c-0.22-0.23-0.37-0.91-0.43-2.04l-6.09,5.86l-1.28-1.33l20.1-19.37
		l1.28,1.33L49.13,44.13z"/>
	<path class="st2" d="M63.11,33.32l5.77,8.74l-1.11,0.73c-0.4-0.16-1.25-0.16-2.55,0l-5-7.57l-2.97,1.97l-1.03-1.55l3.04-2.01
		l-1.18-1.79l1.1-0.79l2.37,1.06l3.55-2.34l1.03,1.55L63.11,33.32z"/>
	<path class="st2" d="M64.75,31.27l-0.73-1.67l24.34-10.65l0.73,1.67L64.75,31.27z M82.37,35.19c-2.8,1.23-5.42,1.49-7.84,0.8
		c-2.42-0.69-4.52-2.27-6.3-4.73l1.25-0.94c1.7,1.82,3.24,3,4.63,3.54c2.03,0.78,4.33,0.61,6.91-0.52c1.15-0.5,2.2-1.2,3.13-2.08
		c1.24-1.18,1.66-2.25,1.24-3.2c-0.36-0.83-1.07-1.3-2.13-1.41c-0.91-0.09-1.8,0.05-2.68,0.43c-0.95,0.42-1.37,0.75-1.26,1
		c0.04,0.09,0.33,0.17,0.87,0.25c0.54,0.08,0.86,0.24,0.96,0.47c0.26,0.59,0.09,1.2-0.51,1.83c-0.46,0.48-1.03,0.88-1.73,1.18
		c-0.86,0.37-1.65,0.53-2.37,0.48c-0.92-0.08-1.54-0.51-1.88-1.29c-0.39-0.88,0.02-1.9,1.24-3.03c0.9-0.84,1.91-1.5,3.02-1.98
		c1.55-0.68,3.19-0.96,4.91-0.85c2.08,0.13,3.43,0.9,4.05,2.3c0.63,1.45,0.22,3.01-1.26,4.67C85.42,33.45,84.01,34.48,82.37,35.19z"
		/>
	<path class="st2" d="M108.07,17.72l0.93,5.64l-2.85,0.47l-0.63-1.89c-1.44-0.63-3.2-0.94-5.29-0.92c0.12,0.25,0.18,0.43,0.2,0.56
		c0.17,1.04-0.46,1.68-1.9,1.92c-0.7,0.12-1.37,0.09-1.99-0.06c-0.8-0.21-1.25-0.63-1.35-1.25c-0.21-1.27,0.62-2.06,2.49-2.37
		c1.78-0.29,4.21-0.18,7.3,0.36l-0.32-1.9l-15.73,2.61l-0.31-1.83l25.73-4.26l0.31,1.83L108.07,17.72z"/>
	<path class="st2" d="M109.6,28.75l-1.64,0.07l-0.6-0.24c-0.74,0-1.2,0.01-1.38,0.01c-0.74,0.03-1.84,0.17-3.3,0.41
		c-1.46,0.24-2.56,0.38-3.3,0.41c-1.44,0.06-2.65-0.07-3.62-0.4c-1.39-0.47-2.11-1.31-2.17-2.51c0-0.13,0.01-0.45,0.06-0.97
		l2.07-0.14c0.07,1.67,0.83,2.47,2.26,2.4c0.68-0.03,1.68-0.15,3.01-0.37c1.33-0.22,2.33-0.34,3-0.37c0.61-0.03,1.31,0.06,2.1,0.27
		c-0.04-0.27-0.05-0.76-0.02-1.45c0.03-0.55,0.03-1.04,0.01-1.48c-0.05-1.22-0.71-1.81-1.96-1.75c-0.1,0.01-0.26,0.02-0.51,0.05
		l-0.93,0.73c1.52,0.06,2.29,0.34,2.31,0.83c0.02,0.37-0.17,0.7-0.57,0.99c-0.4,0.29-0.79,0.44-1.18,0.46
		c-2.06,0.09-3.11-0.46-3.17-1.66c-0.03-0.7,0.18-1.25,0.63-1.66c0.4-0.38,1.14-0.74,2.2-1.1c2.11-0.06,3.6,0.03,4.48,0.26
		c1.32,0.36,2.01,1.14,2.06,2.35l0.1,2.44c0.04,0.72,0.06,1.09,0.05,1.09C109.61,28.45,109.61,28.89,109.6,28.75z"/>
	<path class="st2" d="M119.16,17.6L119,27.95l-1.38,0.1c-0.25-0.43-0.96-0.99-2.12-1.69c0.07-0.71,0.11-1.12,0.11-1.24
		c0.01-0.76,0.02-2.02,0.04-3.79l0.01-3.79l-3.83-0.06l0.03-1.83l2.75,0.05l1.69,0l1.54-0.95c-1.99-1.66-4.31-2.52-6.94-2.56
		c-2.34-0.04-4.47,0.56-6.38,1.78l-1.25-0.79c4.01-1.9,7.19-2.83,9.54-2.79c1.6,0.03,3.2,0.4,4.81,1.14
		c1.06,0.48,2.34,1.25,3.87,2.3l-3.1,1.92l4.39,0.07l-0.03,1.83L119.16,17.6z"/>
	<path class="st2" d="M148.43,22.27l-2.48,10.23l-1.88-0.46c-2.87-3.5-7.04-5.89-12.53-7.21l-0.07-2.95c1.6-0.14,3.83-0.17,6.68-0.1
		c3.21,0.08,5.46,0.1,6.75,0.05l0.09-0.39l-15.58-3.78l0.43-1.8l22.63,5.48l-0.43,1.8L148.43,22.27z M144.35,24.09
		c-2.97-0.09-5.43-0.08-7.36,0.01c2.71,1.57,4.79,3.1,6.24,4.58L144.35,24.09z"/>
	<path class="st2" d="M156.5,25.67l-3.96,9.63l-1.23-0.5c-0.09-0.42-0.57-1.12-1.43-2.1l3.43-8.34l-3.32-1.36l0.71-1.73l3.37,1.39
		l0.83-2l1.27,0.47l0.45,2.58l3.93,1.62l-0.71,1.73L156.5,25.67z"/>
	<path class="st2" d="M166.35,44.24c-0.58-0.88-1.41-2-2.49-3.37c-1.16-1.47-2.08-2.53-2.76-3.19c-0.72-0.7-1.96-1.69-3.73-2.98
		l2.39-2.37l2.42,2.41c0.73,0.72,1.84,2.31,3.33,4.8c1.43,2.4,2.39,4.17,2.88,5.32L166.35,44.24z M162.55,33.01
		c-0.9-0.5-1.65-1.1-2.23-1.81c-0.77-0.96-0.95-1.83-0.51-2.6c0.51-0.92,1.52-1.36,3.01-1.3c1.22,0.05,2.34,0.36,3.37,0.93
		c0.93,0.52,1.64,1.11,2.14,1.77c0.68,0.87,0.79,1.71,0.34,2.53c-0.52,0.95-1.48,1.42-2.87,1.38
		C164.68,33.9,163.6,33.6,162.55,33.01z M164.27,28.95c-0.16-0.09-0.36-0.12-0.63-0.12c-0.26,0.01-0.42,0.08-0.51,0.22
		c-0.21,0.38-0.19,0.95,0.06,1.71c0.25,0.76,0.58,1.25,0.97,1.47c0.11,0.06,0.35,0.13,0.73,0.2c0.38,0.07,0.58,0.07,0.63-0.01
		c0.12-0.22,0-0.82-0.36-1.8C164.81,29.64,164.51,29.08,164.27,28.95z"/>
	<path class="st2" d="M172.16,42.35c0.48-0.42,1.08-0.57,1.81-0.45c0.64,0.11,1.22,0.39,1.75,0.83c0.53,0.44,0.9,0.95,1.11,1.52
		c0.28,0.7,0.22,1.29-0.2,1.78c-0.91,1.1-2.18,0.99-3.78-0.35c-1.15-0.95-1.96-2.15-2.43-3.59c-0.55-1.65-0.38-3.01,0.51-4.09
		c0.66-0.79,1.48-1.19,2.46-1.19c0.91,0.02,1.76,0.37,2.58,1.05c0.45,0.37,0.97,1.02,1.56,1.95c0.67,1.03,1,1.81,1.01,2.34
		c0.84,0.43,2.17,0.65,4,0.66c-0.22,0.8-0.03,1.78,0.57,2.95l1.67-2c-0.56-0.36-1.49-1.08-2.8-2.16l-9.83-8.16l1.26-1.52l17.71,14.7
		l-1.19,1.43l-2.4-1.99l-6.69,8.05l-1.28-1.22l-0.4-2.38c0.62-0.7,1.15-1.32,1.59-1.85c0.54-0.65,0.87-1.13,1.02-1.45
		c0.31-0.75,0.2-1.43-0.31-2.05c-1.08-0.35-2.18-0.69-3.31-1.03c-0.22-0.41-0.44-0.92-0.66-1.51c-0.18-0.53-0.35-0.92-0.5-1.17
		c-0.27-0.43-0.68-0.89-1.25-1.36c-0.63-0.52-1.26-0.85-1.88-0.99c-0.79-0.18-1.43,0.02-1.92,0.61c-0.34,0.41-0.51,0.85-0.51,1.33
		c0,0.48,0.2,0.89,0.61,1.22L172.16,42.35z"/>
	<path class="st2" d="M193.46,52.93l-7.87,6.89l-0.87-1c0.11-0.41-0.01-1.26-0.35-2.52l6.82-5.97l-2.36-2.7l1.4-1.22l2.4,2.74
		l1.64-1.43l0.93,0.99l-0.75,2.52l2.81,3.21l-1.4,1.22L193.46,52.93z"/>
	<path class="st2" d="M200.26,61.86c-0.65-0.9-2.05-1.43-4.2-1.57c-1.97-0.12-3.34,0.09-4.09,0.63c-0.73,0.52-0.94,1.06-0.6,1.6
		c0.1,0.09,0.53,0.16,1.3,0.23c0.6,0.06,1.17,0.45,1.69,1.17c0.33,0.46,0.51,1,0.51,1.64c0.01,0.64-0.21,1.12-0.66,1.46
		c-0.5,0.36-1.09,0.44-1.76,0.25c-0.74-0.2-1.41-0.73-2.03-1.58c-0.82-1.14-1.17-2.26-1.05-3.35c0.12-1.1,0.73-2.05,1.83-2.85
		c1.88-1.35,3.97-1.86,6.28-1.51l-2.8-3.88l1.52-1.1l7.28,10.08l-1.52,1.1L200.26,61.86z"/>
	<path class="st2" d="M205.08,69.78l-4.01,2.01l-0.1,0.56c2.66,1.8,5.05,3.8,7.15,6l0.06,3.68c-1.95-1.41-3.8-1.68-5.55-0.8
		c-0.91,0.45-1.72,1.26-2.43,2.42l-1-2.11c1.16-1.52,2.31-2.57,3.47-3.15c0.46-0.23,1.07-0.41,1.82-0.56
		c-2.75-2.59-4.96-4.13-6.63-4.61l-0.45-3.66l6.05-3.02l-1.91-3.81l1.67-0.83l10.35,20.69l-1.67,0.84L205.08,69.78z"/>
	<path class="st2" d="M216.25,101.37l-9.89,2.42l-0.47-1.71l0.9-2.24c1.75-0.34,3.05-0.61,3.9-0.82c1.18-0.29,2.03-0.69,2.56-1.22
		c0.72-0.72,1.15-1.88,1.29-3.48c-0.19-0.37-0.32-0.62-0.41-0.74c-0.21-0.3-0.38-0.47-0.52-0.49c-0.26,0.09-0.45,0.39-0.56,0.88
		c-0.21,0.84-0.38,1.43-0.5,1.74c-0.25,0.59-0.59,0.94-1,1.04c-1.05,0.25-1.73-0.26-2.05-1.56c-0.13-0.53-0.16-1.06-0.09-1.6
		c0.31-0.51,0.66-1.17,1.06-2c-0.05-0.12-0.47-0.47-1.25-1.06c-0.73-0.54-1.18-1.16-1.35-1.86c-0.12-0.49-0.12-1.01,0-1.57
		c0.13-0.68,0.42-1.07,0.86-1.18c0.69-0.17,1.49,0.22,2.4,1.15c1.09,1.11,1.74,1.69,1.97,1.73l0.07-0.09l-0.67-2.74
		c0.29-0.32,0.73-1.12,1.32-2.39c0.49,2.04,0.63,3.66,0.42,4.85c-0.11,0.6-0.19,1.14-0.25,1.61c1.28,1.44,2.21,2.68,2.8,3.7
		c-0.99,1.6-1.69,2.98-2.1,4.15l2.47-0.6l1.7,6.97l-1.8,0.44L216.25,101.37z"/>
	<path class="st3" d="M231.99,117.81c0,62.96-51.22,114.17-114.17,114.17c-62.96,0-114.18-51.21-114.18-114.17
		C3.64,54.85,54.86,3.64,117.82,3.64C180.77,3.64,231.99,54.85,231.99,117.81z M117.82,0C52.85,0,0,52.85,0,117.81
		c0,64.96,52.85,117.81,117.82,117.81c64.96,0,117.81-52.85,117.81-117.81C235.62,52.85,182.77,0,117.82,0z"/>
	<path class="st4" d="M85.25,58.78c-0.83-0.47-4.03-1.1-4.95-0.07c-1.06,1.2,0.51,3.79,0.27,5.15c-1.81,0.58-3.44,3.15-4.29,4.73
		c-1.41,2.63-1.08,4.1,1.64,5.62c1.91,1.07,3.74,1.61,5.38,2.86c1.85,1.41,3.7,2.22,6.06,2.96c0.61,1.81,1.38,4.22,0.25,6.02
		c-1.64-0.06-4.15,0.06-5.64,0.71c-1.87,0.82-1.99,2.55-3.29,3.98c-1.37,1.5-2.88,1.66-3.91,3.71c-0.67,1.36-1.58,3.38-1.09,4.88
		c1.18,3.62,7.68,3.51,10.55,5.25c4.25,2.58,1.51,6.43-0.31,9.55c-2.05,3.53-1.36,6.03,0.55,9.77c1.68,3.3,3.72,6.07,4.44,9.7
		c1.44,7.19-1.78,18.4,4.88,23.22c1.61,1.17,3.88,2.08,5.08,0.06c0.93-1.57,1.18,0.54,2.42-0.79c1.77-1.89,0.69-1.73,1.22-0.49
		c1.02,2.39,1.42,0.98,4.14,0.3c2.74-0.68,3.49-1.06,5.61,0.74c1.82,1.54,3.17,3.03,4.82,0.49c1.25-1.94,0.82-4.89,2.07-6.78
		c1.44-2.2,2.7-0.61,4.82-0.1c0.48,0.11,0.4,0.16,0.78,0.44c3.11-0.12,1.92-2.78,3.9-3.83c2.51-1.33,3.96,2.48,5.31-0.71
		c1.61-3.81-1.35-10.86,5.86-9.08c4.42,1.09,6.45,5.92,7.33,9.98c0.58,2.66,0.61,5.38,1.26,8.02c0.64,2.59,1.55,4.97,1.66,7.68
		c0.14,3.52,0.93,5.93,1.76,9.17c3.44-0.18,1.37-4.61,3.36-6.01c2.32-1.63,5.96,0.8,8.5,0.39c0.11-2.12,0.39-4.69,0.05-6.79
		c-0.39-2.36-1.5-4.22-1.72-6.6c-0.41-4.47,0.68-9.22,0-13.65c-0.67-4.33-3.18-8.12-4.21-12.33c-1-4.12-1.26-8.4-2.93-12.31
		c-0.97-2.27-1.99-2.63-4.53-2.4c-1.48,3.93-1.04,7.61-3.27,11.36c-2.15,3.61-4.83,7.38-8.97,2.43c-1.58-1.89-2.34-4.42-3.59-6.53
		c-1-1.67-2.17-4.01-2.27-6.03c-0.25-4.65,3.3-7.57,7.33-8.78c3.55-1.07,3.73-2.15,6.4-4.39c1.79-1.51,4.36-1.96,6.35-3.41
		c3.34-2.42,0.67-4.65,2.08-7.68c0.98-2.11,5.63-2.12,5.38-4.53c-1.67-0.95-2.56-2.54-4.35-3.45c-1.76-0.91-2.96-1.66-5.07-2.01
		c-2.01-0.33-3.22-0.33-5.18,0.29c-1.27,0.4-3.38,1.67-4.63,1.72c-3.89,0.13-5.44-5.93-9.35-1.78c-1.14,1.21-1.33,2.53-2.84,3.54
		c-1.64,1.08-3.45,1.29-5.39,1.41c-2.08,0.13-3.77,0.66-5.6,0.96c-2.1,0.35-3.92-0.47-5.86-1.2c-4.93-1.87-4.38-3.92-4.38-9.09
		c0-3.05,0.06-10.23-3.9-10.43c-2.82-0.14-1.76,1.9-3.34,3c-1.47,1.03-4-0.44-4.67-1.34c-1.73-2.32-0.87-6.53-4.91-6.8
		c-3.83-0.25-4.73,3.99-7.33-0.72"/>
	<polygon class="st0" points="23.41,131.79 25.86,139.33 33.8,139.33 27.38,144 29.83,151.54 23.41,146.88 16.99,151.54 19.44,144 
		13.02,139.33 20.96,139.33 	"/>
	<polygon class="st0" points="39.87,167.28 42.33,174.82 50.26,174.82 43.84,179.48 46.29,187.03 39.87,182.37 33.45,187.03 
		35.91,179.48 29.49,174.82 37.42,174.82 	"/>
	<polygon class="st0" points="195.75,166.91 198.2,174.45 206.14,174.45 199.72,179.12 202.17,186.67 195.75,182 189.33,186.67 
		191.79,179.12 185.36,174.45 193.3,174.45 	"/>
	<polygon class="st0" points="213.68,130.68 216.14,138.23 224.07,138.23 217.65,142.9 220.1,150.44 213.68,145.78 207.26,150.44 
		209.71,142.9 203.29,138.23 211.23,138.23 	"/>
</g>
</svg>
