<?xml version="1.0" encoding="utf-8"?>
<!-- Generator: Adobe Illustrator 24.0.0, SVG Export Plug-In . SVG Version: 6.00 Build 0)  -->
<svg version="1.1" id="Layer_1" xmlns="http://www.w3.org/2000/svg" xmlns:xlink="http://www.w3.org/1999/xlink" x="0px" y="0px"
	 viewBox="0 0 394.9 78.3" style="enable-background:new 0 0 394.9 78.3;" xml:space="preserve">
<style type="text/css">
	.st0{fill:#FFFFFF;}
	.st1{fill:#0D0E94;}
	.st2{fill:#E9FC24;}
	.st3{fill:#FCFDFD;}
	.st4{fill:#F70804;}
</style>
<g>
	<path class="st0" d="M111.1,35.1c0.4-0.2,0.9-0.4,1.4-0.4c1.2,0,2.1,0.5,2.9,1.4s1.3,2.1,1.3,3.5c0,1.9-0.5,3.2-1.4,4.1
		c-1,0.9-2.2,1.3-3.8,1.3c-1.8,0-3.4-0.9-4.5-2.7c-0.5-0.8-0.9-1.7-1.2-2.6c-0.3-0.9-0.4-1.9-0.4-3c0-1.7,0.4-3.4,1.1-5.1
		c0.7-1.7,1.7-3.4,3.2-5.1c1.4-1.7,2.8-3,4.1-3.9c1.4-0.9,2.9-1.4,4.3-1.4c1.7,0,3.3,0.9,4.6,2.6c0.7,0.8,1.3,1.7,1.6,2.6
		c0.4,0.9,0.6,1.9,0.6,2.9v34.8c-0.3,0-0.6-0.1-1-0.2c-0.3-0.2-0.7-0.4-1-0.6c-0.4-0.2-0.8-0.5-1.2-0.8c-0.4-1.7-0.7-3-1-3.9
		s-0.6-1.5-0.9-1.8c-0.3-0.5-0.8-0.8-1.5-1.1s-1.6-0.4-2.7-0.4c-0.5,0-1.1,0-1.6,0.1c-0.7,0.1-1.4,0.1-2.3,0.2
		c-1,0.1-1.7,0.1-2.4,0.2c-0.7,0-1.4,0-1.8,0c-3.9,0-6.8-1.1-8.8-3.4c-2-2.3-3-5.6-3-10.1c0-2.1,0.2-4,0.6-5.8s1.2-3.7,2.1-5.6
		l2.6,3c-0.6,1-1.1,2-1.3,3.2c-0.3,1.2-0.4,2.6-0.4,4.3c0,1.2,0.2,2.2,0.5,3.1c0.3,0.9,0.8,1.7,1.4,2.4s1.3,1.2,2,1.6
		c0.8,0.4,1.6,0.6,2.7,0.6c0.4,0,0.9,0,1.4-0.1s1.3-0.1,2-0.2c0.8-0.1,1.5-0.2,2.1-0.2s1.2-0.1,1.5-0.1c3,0,5.4,1.1,7.4,3.3V29.1
		c0-1.1-0.1-1.8-0.4-2c-0.3-0.3-0.6-0.4-1.1-0.4s-1.1,0.3-1.9,0.8c-0.8,0.6-1.8,1.5-3.1,2.8c-1,1.1-1.7,2-2.2,2.8
		C111.6,33.9,111.3,34.5,111.1,35.1z"/>
	<path class="st0" d="M146.7,26.1v12.8c0,0.5,0.1,0.8,0.3,0.8c0.5,0,1-0.2,1.6-0.7s1.4-1.3,2.1-2.5c1.9-2.7,3.3-4,4.1-4
		c1.2,0,2.1,0.5,2.9,1.4c0.8,1,1.4,2.2,2.1,3.8c0.5,1.3,0.8,2.6,1.1,3.8s0.4,2.5,0.4,3.7c0,4-1.2,7.5-3.6,10.3
		c-2.3,2.8-5.3,4.2-8.9,4.2c-3,0-5.7-1-7.9-3s-4.1-4.9-5.8-8.7c-0.5-1.2-1-2.5-1.4-3.9s-0.9-3.1-1.3-4.9c-0.4-1.8-0.8-3.9-1.2-6.2
		s-0.8-4.9-1.2-7.7l4.1,3.7c1.4,7.3,3,12.5,4.4,15.6c1.3,2.7,2.7,4.7,4.3,5.9c1.6,1.3,3.5,1.9,5.5,1.9c2.3,0,4.3-0.8,6-2.5
		s2.5-3.8,2.5-6.4c0-1.7-0.3-3-1-4c-0.3,0.3-0.7,0.8-1.2,1.4c-0.5,0.6-1.1,1.3-1.7,2.2c-1.6,2.2-3.5,3.3-5.5,3.3
		c-1.1,0-1.9-0.3-2.6-1s-1.3-1.6-1.7-2.8c-0.5-1.2-0.8-2.7-1-4.3c-0.2-1.7-0.3-3.5-0.3-5.5c0-0.6,0-1.3,0-2s0-1.6,0.1-2.5
		c0-0.4,0.1-0.8,0.1-1.1c0-0.3,0-0.6,0.1-0.9h-14.4l-4.1-4.8h40.6l4.1,4.8h-22v-0.2H146.7z"/>
	<path class="st0" d="M171.8,26.1c0.1,0.8,0.1,1.6,0.2,2.4c0,0.8,0.1,1.6,0.1,2.4c0,1.8,0,3.9,0,6.1c0,2.3,0,4.6,0,7s0,4.8,0,7.3
		s0,4.8,0,6.9c0,2.4,0,4.8,0.1,7.1l-4.7-4.7l0.4-34.6h-5.1l-4.1-4.8h8c-0.7-1-1.2-2-1.5-2.9c-0.4-0.9-0.6-1.8-0.6-2.6
		c0-1.7,0.5-3.3,1.4-4.8c1-1.4,2.2-2.7,3.9-3.9c3-2.1,6-3.2,8.7-3.2c3.4,0,6.7,1,9.8,2.9c3.2,2,6.5,4.9,9.7,8.9v4.7
		c-1.8-1.9-3.6-3.6-5.1-4.9s-3.1-2.4-4.5-3.3c-1.4-0.8-2.8-1.5-4.1-1.8c-1.4-0.4-2.6-0.6-3.9-0.6c-2.2,0-4.5,0.8-6.8,2.3
		c-1.4,0.9-2.3,1.8-2.9,2.8s-0.9,1.9-0.9,3c0,1.2,0.4,2.3,1.1,3.4h6.5l4.1,4.8L171.8,26.1L171.8,26.1z"/>
	<path class="st0" d="M202.1,26.1v38c-0.3,0-0.6-0.1-1-0.2c-0.4-0.2-0.7-0.4-1-0.6c-0.4-0.2-0.7-0.5-1.1-0.9c-0.7-3.6-1.6-6.6-3-9
		s-3.1-4.2-5.1-5.5c-0.3,1.1-0.8,2.1-1.5,3c-0.5,0.7-1.2,1.2-1.8,1.5s-1.4,0.5-2.2,0.5c-1.5,0-2.9-0.7-4-2s-1.6-2.9-1.6-4.7
		c0-0.9,0.2-1.8,0.5-2.6s0.8-1.5,1.4-2.1c1.2-1.4,2.5-2.1,4.1-2.1c0.8,0,1.4,0.1,2.1,0.2c0.1-0.5,0.2-1.3,0.2-2.2
		c0-1.4-0.2-2.6-0.6-3.5c-0.4-0.9-1.1-1.8-1.8-2.4c-0.4-0.3-1-0.7-1.7-1.1c-0.8-0.4-1.9-0.9-3.3-1.4c-0.9-0.3-1.6-0.7-2.3-1.1
		s-1.2-1-1.4-1.7h-1.4l-4.1-4.8h35.9l4.1,4.8h-9.3L202.1,26.1L202.1,26.1z M197.8,26.1h-11.3c1.7,1.7,3,3.4,3.8,4.9
		c0.6,1.2,1.1,2.5,1.3,3.9c0.3,1.4,0.4,3,0.4,4.8c0,0.4,0,0.8,0,1.1c0,0.4,0,0.8-0.1,1.3c1.2,1.1,2.3,2.3,3.3,3.6s1.9,2.6,2.7,4
		L197.8,26.1L197.8,26.1z"/>
	<path class="st0" d="M229.8,26.1v39.5l-4.2-4.6c0-3-0.1-5.7-0.4-8.1c-0.3-2.4-0.7-4.5-1.4-6.4c-0.8-2.7-1.8-4.7-3.1-6
		s-2.7-1.9-4.3-1.9c-0.1,0-0.2,0-0.3,0s-0.2,0-0.2,0c1,1.2,1.4,2.5,1.4,4.1c0,1.7-0.5,3.2-1.5,4.4s-2.3,1.8-3.8,1.8s-2.9-0.7-4-2.2
		c-1.1-1.4-1.5-3.1-1.5-5c0-2.7,0.9-5,2.8-6.7c1.7-1.6,3.8-2.4,6-2.4c1.7,0,3.3,0.4,4.6,1.3c1.4,0.9,2.6,2.1,3.8,3.8
		c0.7,1.1,1.4,2.3,1.9,3.6V26.1h-20.1l-4.2-4.8h33.8l4.1,4.8C239.3,26.1,229.8,26.1,229.8,26.1z"/>
	<path class="st0" d="M275.9,16.5l2.9,2.4l0.8,2.4h5.3l4.2,4.8h-9.3c0,1.1,0,2.7,0,4.8s0,4.5,0.1,7.2c0,2.7,0,5.4,0,8.3
		c0,2.9,0,5.6,0,8.2c0,2.6,0,4.9,0,6.8s0,3.4,0,4.2l-4.7-5c0.1-6.2,0.2-10.9,0.3-13.9c0.1-3.1,0.1-4.6,0.1-4.8
		c0-1.2-0.2-2.4-0.6-3.7s-1.1-2.7-1.9-4.1c-1,1.3-2.4,3.1-4.2,5.4c-1.8,2.3-4.1,5.2-6.9,8.6l-6.4-2.6c1-1,1.7-1.9,2.3-2.6
		c0.6-0.7,1.1-1.4,1.4-1.9c0.4-0.5,0.6-1,0.8-1.4c0.1-0.4,0.2-0.7,0.2-0.9c0-0.7-0.3-1.5-0.8-2.3c-0.4-0.6-0.8-0.9-1.4-0.9
		c-0.5,0-0.9,0.2-1.4,0.5c-0.4,0.2-0.7,0.4-1.1,0.7c-0.3,0.2-0.7,0.5-1.1,0.8c-1.3,0-2.1-0.4-2.6-1.3c-0.5-0.9-0.7-2-0.7-3.3
		c0-1.7,0.4-3.3,1.2-4.7c0.8-1.4,1.8-2.7,3.2-3.8c2.4-1.9,5.1-2.9,8-2.9c3.2,0,6.2,1.7,9,5.1c1.2,1.4,2.1,2.9,3,4.6V16.5H275.9z
		 M265,27.2c-1.3,0-2.5,0.4-3.8,1.1c-1,0.6-1.6,1.2-2.1,2c0.4,0.2,0.7,0.4,1.1,0.6s0.7,0.4,1,0.6c0.8,0.5,1.4,1.1,1.7,1.8
		s0.7,1.6,0.9,2.5c1.4-1.8,3.2-4.1,5.3-6.8C267.7,27.8,266.3,27.2,265,27.2z"/>
	<path class="st0" d="M293.7,27.6c-1.1,1-1.6,2.6-1.6,4.6c0,1.1,0.1,2.5,0.2,4.2s0.4,3.6,0.7,5.8c0.7,4.5,1,8,1,10.3
		c0,4-1,7.1-3,9.4c-1.9,2.2-4.7,3.3-8.4,3.3l-3-3.6c1.6,0,3.1-0.2,4.1-0.5c1.2-0.3,2-0.8,2.7-1.5s1.2-1.5,1.4-2.4
		c0.3-1,0.4-2.1,0.4-3.5c0-1-0.1-2.2-0.2-3.7s-0.3-3.2-0.6-5.2c-0.3-2.1-0.5-3.9-0.6-5.4s-0.2-2.8-0.2-3.8c0-2.1,0.5-4.4,1.4-6.6
		c0.5-1.2,1.1-2.2,1.6-2.9h-8.9l-4.2-4.8H296l4.2,4.8c-1.1,0-1.9,0-2.7,0.1s-1.4,0.2-1.8,0.3c-0.5,0.1-1,0.3-1.3,0.5
		C294.3,27.2,294,27.4,293.7,27.6z"/>
	<path class="st0" d="M303.5,26.1c0,1.1,0,2.7,0,4.7s0,4.2,0,6.7c0,2.4,0,5,0,7.6s0,5.2,0.1,7.6c0,2.4,0,4.6,0,6.6s0,3.5,0.1,4.6v1
		l-1-1.1h0.1c0.1,0,0.2,0,0.3,0c0.1,0,0.3,0,0.6,0h0.1l-0.1-0.1c-0.2-0.2-0.4-0.4-0.5-0.6c-0.1-0.2-0.2-0.3-0.3-0.4
		c-0.1-0.1-0.1-0.2-0.1-0.2l-0.5,1.3c-0.2,0-0.4-0.1-0.6-0.4l-0.2-0.2c-0.1-0.1-0.2-0.3-0.4-0.4c-0.2-0.2-0.3-0.3-0.5-0.4
		c-0.2-0.2-0.4-0.4-0.6-0.6c-0.2-0.2-0.4-0.4-0.6-0.6c-0.2-0.2-0.4-0.4-0.6-0.6l0.3-27.5c0-0.7,0-1.3-0.1-1.7c0-0.5-0.1-0.8-0.2-1.1
		c0-0.4-0.2-0.8-0.6-1.3l-1.3-2.2c-0.3-0.3-0.6-0.5-0.9-0.7h-2l-4.1-4.8h5.2c0.8,0.1,1.4,0.3,2,0.6c0.7,0.3,1.2,0.7,1.5,1.3
		c0,0.1,0.1,0.1,0.1,0.2c0,0,0.1,0.1,0.1,0.2l0.1-7.3l2.8,2.5l0.9,2.5h5.2l4.1,4.8C312.3,26.1,303.5,26.1,303.5,26.1z"/>
	<path class="st0" d="M319.5,59.7c-0.4-0.8-0.7-1.7-0.7-2.9c0-0.7,0.1-1.3,0.4-1.9s0.6-1.1,1-1.5c0.9-0.9,1.8-1.3,2.9-1.3
		c1.4,0,2.6,0.5,3.4,1.5s1.2,2.3,1.2,4.1c0,1.9-0.7,3.5-1.9,4.8c-1.3,1.1-2.6,1.7-4.1,1.7c-4.3,0-7.6-2.3-9.8-6.8
		c-1.7-3.7-2.6-8.1-2.6-13.1c0-4,0.9-7.8,2.6-11.4c0.6-1.3,1.3-2.5,2-3.6s1.6-2.1,2.5-3.1H307c-0.1,0-0.4,0-0.7-0.1l-0.2-0.2
		l-0.1-0.1c0,0-0.1-0.1-0.2-0.2c-0.1-0.2-0.3-0.3-0.4-0.5c-0.1-0.1-0.3-0.3-0.4-0.5l-2.8-3.2h24.4l0.5,0.6c0.1,0.2,0.3,0.3,0.5,0.5
		s0.3,0.4,0.5,0.5l0.8,0.9c0.2,0.2,0.3,0.3,0.3,0.3c-0.4,0.7-0.6,1.1-0.7,1.1s-0.2,0-0.3-0.1c0.1,0,0.2-0.1,0.2-0.1
		c0.1,0,0.1,0,0.1-0.1c0,0,0.1-0.1,0.2-0.1s0.2-0.1,0.4-0.2l0.2-0.1V25l1,1.1c-2.9,0.1-5.3,0.6-7.2,1.6c-1.9,1-3.6,2.4-5.1,4.4
		c-2.8,3.8-4.1,8.1-4.1,13.1c0,4.9,0.5,8.4,1.5,10.7C316.4,58.1,317.7,59.4,319.5,59.7z"/>
	<path class="st0" d="M351.2,26.1v39.5L347,61c0-3-0.1-5.7-0.4-8.1c-0.3-2.4-0.8-4.5-1.4-6.4c-0.8-2.7-1.8-4.7-3.1-6
		c-1.3-1.3-2.7-1.9-4.3-1.9c-0.1,0-0.2,0-0.3,0c-0.1,0-0.2,0-0.2,0c1,1.2,1.4,2.5,1.4,4.1c0,1.7-0.5,3.2-1.5,4.4s-2.3,1.8-3.8,1.8
		s-2.9-0.7-4-2.2c-1.1-1.4-1.5-3.1-1.5-5c0-2.7,1-5,2.8-6.7c1.7-1.6,3.8-2.4,6-2.4c1.7,0,3.3,0.4,4.6,1.3c1.4,0.9,2.6,2.1,3.8,3.8
		c0.7,1.1,1.4,2.3,1.9,3.6V26.1h-20l-4.2-4.8h33.8l4.1,4.8C360.7,26.1,351.2,26.1,351.2,26.1z"/>
	<path class="st0" d="M362.5,48.1c-0.3-0.7-0.5-1.5-0.5-2.4c0-1.4,0.5-2.6,1.4-3.5s1.9-1.4,3-1.4c1.3,0,2.3,0.6,3.1,1.8
		c0.8,1.1,1.3,2.4,1.3,3.8c0,2.1-0.7,3.7-2.1,4.8c-0.7,0.5-1.4,0.9-2,1.1c-0.8,0.2-1.4,0.3-2.2,0.3c-2.7,0-4.9-1.3-6.7-4
		c-1.5-2.3-2.3-5.1-2.3-8.3c0-1.6,0.2-3,0.5-4.4c0.4-1.3,1-2.6,1.7-3.7c1.5-2.3,3.8-3.4,6.5-3.4c1.2,0,2.2,0.4,3.4,1.2
		c1.2,0.8,2.2,1.9,3.3,3.4c0.2-0.7,0.5-1.3,1-2c1-1.6,2.1-2.4,3.6-2.4c0.9,0,1.7,0.3,2.4,1c0.8,0.7,1.4,1.6,2.2,2.8V26h-25.4
		l-4.2-4.8h39.3l4.1,4.8h-9.5v38c-0.3,0-0.7-0.2-1.2-0.5s-1-0.7-1.4-1.1c-0.5-0.5-1.1-1-1.7-1.5V43.2c0-1.8-0.3-3.5-1-5.1
		c-0.4-1.1-0.8-1.8-1.3-2.2c-0.4-0.4-0.9-0.6-1.4-0.6c-0.3,0-0.6,0.1-0.8,0.4c-0.2,0.3-0.4,0.8-0.5,1.5s-0.2,1.6-0.2,2.8
		s0,2.6,0.1,4.4l-2.7-1.8c-0.8-2.5-1.8-4.3-3.1-5.4c-1.3-1.1-2.7-1.7-4.3-1.7c-1.5,0-2.8,0.7-3.8,2.1c-1.1,1.4-1.5,3.1-1.5,5
		c0,1.3,0.4,2.5,1.2,3.8C361.4,47.3,361.9,47.8,362.5,48.1z"/>
</g>
<g>
	<path class="st1" d="M78.3,39.4c-0.1,21.7-17.4,37.9-36.9,38.9C18.2,79.4,0.1,61.1,0,39.4C-0.1,17.6,17.3,0.2,38.8,0
		C60.9-0.2,78.4,17.7,78.3,39.4z M39.1,1.4C18.4,1.4,1.5,18.3,1.4,39.2c0,20.6,16.9,37.6,37.5,37.7C59.8,77,76.8,60.2,76.9,39.5
		C77,18.4,60.2,1.5,39.1,1.4z"/>
	<path class="st2" d="M39.1,1.4c21,0,37.8,17,37.7,38.1c-0.1,20.6-17,37.5-37.9,37.4C18.3,76.8,1.4,59.8,1.4,39.2
		C1.5,18.3,18.4,1.4,39.1,1.4z M69.7,27.4c0.1,0,0.1,0,0.2,0c0.4,1,0.9,2,1.2,3.1c0.2,0.9,0,1.2-0.9,1.5c-1.1,0.3-2.2,0.6-3.3,0.9
		c-0.4,0.1-0.8,0.2-1,0.6c0,0.2-0.4,0.3-0.2,0.5c0.1,0.1,0.3,0,0.5,0c1.3-0.3,2.5-0.7,3.8-1c0.5-0.1,1.1-0.4,1.6-0.3
		c0.5,0.1,0.2,0.8,0.4,1.1c0.1,0.1,0.1,0.2,0.2,0.2c0.1,0,0.2-0.1,0.2-0.2c0.1-0.3,0.5-0.6,0.3-1c-0.3-0.5-0.2-0.9,0.4-1.1
		c0.2-0.1,0.2-0.3,0.2-0.5c0-0.1-0.1-0.2-0.2-0.2c-1.1,0.6-1-0.3-1.1-0.9c0-0.2-0.1-0.3-0.2-0.5c-0.6-1.9-1.4-3.7-2.4-5.5
		c-2.1-4.1-5-7.5-8.5-10.5c-0.3-0.3-0.4-0.4-0.2-0.8c0.3-0.7,0.1-1.3-0.4-1.8c-0.5-0.5-1-0.9-1.7-1.2c-0.4-0.2-0.7-0.4-1.1-0.7
		C57.3,9,57,8.8,57.6,8.5c0.2-0.1,0.3-0.3,0.1-0.5c-0.2-0.3-0.4-0.1-0.6,0C56.3,8.3,56.3,9.1,57,10c0.2,0.2,0.7,0.4,0.4,0.8
		c-0.2,0.4-0.4,0.9-0.8,1.2c-0.1-0.3-0.2-0.6-0.3-0.9c-0.6-1.5-2.8-2.1-4-1.2c-0.2,0.2-0.5,0.4-0.4,0.7c0.1,0.3,0.3,0.5,0.6,0.6
		c0.2,0.1,0.6,0,0.6,0.4c0,0.3-0.3,0.4-0.5,0.5c-0.6,0.2-0.4,0.4-0.1,0.7c0.3,0.3,0.6,0.4,0.9,0.3c0.6-0.2,1.1-0.3,1.7-0.4
		c0.4-0.1,0.6,0.1,0.6,0.5c0,0.3-0.2,0.6-0.4,0.9c-0.4,0.6-0.8,1.2-1.2,1.8c-0.2,0.4-0.3,0.9,0,1.1c0.4,0.3,0.5-0.3,0.7-0.5
		c0.8-1.2,1.6-2.3,2.4-3.5c0.4-0.6,0.7-0.3,1.1,0c0.4,0.3,0.6,0.5,0.2,1c-0.8,1-1.6,2.1-2.4,3.1c-0.4,0.5-0.6,1.1-0.2,1.8
		c1.1-1.3,2.2-2.6,3.2-3.9c0.6-0.7,0.7-0.8,1.4-0.2c0.7,0.7,1.4,1.3,2.1,2c0.1,0.1,0.3,0.2,0.1,0.3c0,0.1-0.2,0.1-0.3,0
		c-0.7-0.2-1.4-0.6-2.2-0.7c-1.1-0.2-1.7,0.4-1.1,1.3c0.8,1.3,0.9,2.4,0.3,3.7c0,0,0,0.1,0,0.1c0,0.2-0.1,0.4,0.1,0.5
		c0.2,0.1,0.3-0.1,0.5-0.2c1.2-1,2.3-2,3.5-3.1c0.3-0.3,0.7-0.5,0.9,0c0.2,0.7,0.4,1.4,0.8,2.1c0.2,0.3-0.1,0.6-0.3,0.8
		c-0.4,0.3-0.9,0.2-1.3,0c-0.4-0.1-0.1-0.4,0-0.7c0-0.1,0.1-0.3-0.1-0.3c-0.2-0.1-0.5-0.2-0.6,0c-0.3,0.5-0.5,1-0.4,1.6
		c0.1,0.5,0.5,0.8,1,0.8c0.5,0,1,0.1,1.4,0.1c0.3,0,0.5,0.2,0.6,0.5c0,0.3-0.1,0.5-0.3,0.7c-0.5,0.3-0.9,0.6-1.4,0.9
		c-0.3,0.2-0.7,0.3-0.8,0.8c0,0.2-0.3,0.4,0,0.6c0.1,0.1,0.3-0.1,0.5-0.2c1.4-0.8,2.7-1.6,4.1-2.4c0.3-0.2,0.6-0.4,0.8,0.1
		c0.4,0.8,1,1.5,1.2,2.4c-0.1,0.1-0.1,0.2-0.1,0.3c-0.6-0.3-1.2-0.4-1.6,0.2c-0.4,0.6-0.4,1.3-0.1,1.9c0.3,0.4,0.5,0.9,1,1.1
		c0.4,0.2,0.3,0.4-0.1,0.5c-0.7,0.3-1.6-0.2-1.9-1c-0.6-1.4,0.2-2.4,0.9-3.5c0.2-0.3,0.5-0.6,0.7-0.9c0.1-0.2,0.1-0.4-0.1-0.6
		c-0.1-0.1-0.3,0-0.3,0.1c-1,1.1-2.1,2.2-2.5,3.7c-0.3,1.3,0.4,2.6,1.7,3c1.4,0.4,2.7-0.3,3.1-1.6c0.1-0.2,0.2-0.6-0.1-0.6
		c-0.9-0.2-0.8-0.7-0.5-1.3C69.7,27.8,69.7,27.6,69.7,27.4z M32.3,67.1c0,0,0-0.1,0-0.1c0.9,0.1,1.7,0.3,2.6,0.4
		c0.3,0,0.8,0.3,0.8-0.1c0.1-0.3-0.4-0.5-0.7-0.7c-0.1-0.1-0.3-0.1-0.5-0.1c-2.1-0.3-4.1-1.1-6.2-1.7c-0.4-0.1-0.8-0.3-1-0.6
		c-0.2-0.3,0-1-0.5-1c-0.4,0-0.4,0.6-0.6,1c-0.2,0.4-0.4,0.5-0.6,0c-0.5-1.2-1.4-1.7-2.6-1.9c-0.3,0-0.5-0.1-0.6-0.4
		c-0.1-0.5-0.3-0.8-0.7-1.1c-0.2-0.1-0.3-0.3-0.2-0.5c0.1-0.2,0.3-0.2,0.5-0.2c1.2-0.2,2.1,0.3,2.7,1.3c0.4,0.6,0.8,1.3,1.2,2
		c0.2-0.1,0.2-0.3,0.2-0.5c0-1.2-1.6-3.6-2.8-3.9c-0.8-0.2-1.6-0.3-2.4,0.3c-0.2,0.1-0.1,0.7-0.5,0.4c-0.3-0.2-0.8-0.5-0.5-1
		c0.1-0.1,0.1-0.3,0.1-0.4c0-0.2-0.1-0.5-0.3-0.2c-0.6,0.7-0.9,0.5-1.2-0.3c-0.1-0.2-0.2-0.3-0.3-0.4c-1.1-1.1-1.9-2.4-2.7-3.7
		c-0.4-0.6-0.7-1.4-1.2-1.9c-0.5,0.9,0,1.5,0.4,2.2c0.1,0.2,0.4,0.4,0.2,0.6c-0.1,0.2-0.3,0.2-0.5,0.2c-0.3-0.1-0.4-0.2-0.4-0.5
		c0-0.3-0.1-0.4-0.4-0.4c-0.3,0-0.4,0.2-0.5,0.5c-0.1,0.5,0,1,0.3,1.4c-0.1,0-0.1,0.1-0.1,0.2c-0.4,0.1-0.7,0.2-0.9,0.6
		c-0.1-0.1-0.2-0.1-0.3,0c-0.3-0.2-0.1-0.6-0.4-0.9c-0.2,0.8-1,1.2-0.6,2.1c0.7,1.8,1.4,3.7,1.7,5.6c0,0.2,0,0.5,0.3,0.5
		c0.3,0,0.3-0.3,0.4-0.6c0-0.2,0-0.4,0-0.6c-0.1-0.7-0.2-1.3-0.4-2c-0.2-0.9-0.2-0.9,0.7-0.6c0.6,0.2,1.4,0.4,1.7-0.3
		c0.4-0.7,0.8-1.1,1.6-1.4c0.7-0.2,0.9-0.2,1.1,0.5c0.1,0.5-0.1,0.9-0.5,1.2c-0.8,0.7-1.5,1.5-2.3,2.2c-0.3,0.3-0.4,0.6-0.3,0.9
		c0,0.2,0,0.5,0.2,0.6c0.2,0.1,0.4-0.2,0.5-0.3c1-1,2-2.1,3-3.1c0.5-0.5,0.8-0.3,1.2,0c0.5,0.4,0.3,0.7,0,1
		c-0.8,0.9-1.5,1.7-2.3,2.6c-0.4,0.4-0.4,0.8-0.2,1.3c0.2,0.4,0.3,0.5,0.6,0.1c0.8-1,1.6-1.9,2.4-2.9c0.2-0.2,0.4-0.5,0.6-0.7
		c0.1-0.2,0.3-0.3,0.5-0.1c0.3,0.2,0.6,0.4,0.7,0.6c0.1,0.3-0.3,0.2-0.4,0.3c-0.5,0.3-0.6,0.8-0.1,1.1c0.2,0.1,0.4,0.2,0.6,0.2
		c0.1,0.1,0.3,0.1,0.3,0.3c0,0.2-0.1,0.3-0.3,0.3c-0.3,0.1-0.8,0.1-0.6,0.6c0.2,0.4,0.5,0.8,1.1,0.7c0.5-0.1,1-0.1,1.4-0.2
		c0.3,0,0.7-0.2,1,0.1c0.3,0.4,0.1,0.8-0.1,1.1c-0.3,0.6-0.6,1.2-0.9,1.8c-0.2,0.5,0,1.4,0.4,1.4c0.5,0,0.5-0.5,0.6-0.8
		c0.5-1.1,1-2.1,1.5-3.2c0.2-0.3,0.3-0.8,0.8-0.7c0.6,0.1,0.5,0.6,0.5,1c0,0.7,0,1.4,0.2,2.2c0.4,2.2,2.3,3.4,4.5,2.9
		c1.1-0.3,1.7-1.2,1.4-2.3C33.7,68.2,33,67.7,32.3,67.1z M7,32.4c0.1,0.2,0.3,0.4,0.4,0.6c0.6,0.6,1.2,0.8,2,0.6
		c0.7-0.3,1.1-0.8,1.2-1.6c0-0.3,0-0.8-0.3-0.8c-0.4,0-0.9-0.4-1.3,0c-0.3,0.3-0.3,0.6-0.2,1c0,0.2,0.4,0.3,0.1,0.5
		c-0.2,0.1-0.4-0.2-0.6-0.4c-0.3-0.5,0-1.2,0.6-1.4c0.8-0.3,0.8-0.3,0.2-0.9c-0.1-0.1-0.3-0.2-0.2-0.4c0.1-0.2,0.1-0.3,0.4-0.4
		c0.3-0.1,0.5,0,0.8,0.1c0.7,0.3,1.4,0.5,2.2,0.8c0.6,0.2,1,0.1,1.6-0.3c-1.6-0.7-3.2-1.4-4.8-2c-0.3-0.1-0.8-0.1-0.6-0.6
		c0.1-0.5,0.4-0.9,1-0.9c0.3,0,0.6,0.1,0.8,0.2c1,0.5,2,1,2.9,1.5c0.3,0.1,0.5,0.3,0.8,0.3c0.3,0,0.6,0,0.7-0.3
		c0.1-0.2-0.3-0.3-0.5-0.4c-1.4-0.8-2.8-1.5-4.3-2.3c-0.2-0.1-0.6-0.2-0.4-0.5c0.3-0.5,0.3-1.1,0.9-1.5c0.1,0,0.1,0,0.2,0
		c-0.1,1,0.4,1.6,1.2,2c1.1,0.5,2.6-0.5,2.5-1.6c-0.1-0.6-0.8-0.9-0.7-1.6c0-0.2-0.6-0.4-0.2-0.7c0.3-0.3,0.7-0.1,1,0.1
		c0.6,0.5,1.2,0.9,1.9,1.4c0.2,0.2,0.5,0.4,0.8,0.4c0.2,0,0.5,0,0.6-0.2c0.1-0.3-0.2-0.4-0.3-0.5c-1.2-1-2.5-2-3.7-3
		c-0.1-0.1-0.4-0.2-0.3-0.5c0.1-0.3,0.3-0.5,0.6-0.5c0.5,0,0.9-0.2,1.3-0.5c0.3-0.2,0.5-0.4,0.9-0.4c0.2,0,0.4,0,0.5,0.2
		c0.1,0.2-0.1,0.3-0.2,0.4c-0.3,0.5-0.4,0.9-0.1,1.4c0.2,0.4,0.6,0.6,1.1,0.5c0.6-0.1,1-0.5,1-1.1c0-0.4,0.3-0.5,0.7-0.5
		c0.5,0,0.9,0,1.3,0.4c0.2,0.2,0.5,0.6,0.8,0.3c0.3-0.3-0.2-0.5-0.3-0.8c0-0.1-0.2-0.2-0.3-0.3c-0.9-1.1-1.9-2.1-2.8-3.2
		c-0.1-0.1-0.2-0.3-0.2-0.4c0.3-0.3,0.6-0.6,1-0.8c0.4-0.2,0.5,0.2,0.7,0.4c0.8,1,1.6,2,2.4,3.1c0.2,0.2,0.3,0.4,0.6,0.4
		c0.2,0,0.5,0.2,0.7,0c0.2-0.2-0.1-0.4-0.3-0.6c-0.9-1.2-1.8-2.5-2.7-3.7c-0.3-0.4-0.3-0.6,0.1-0.9c0.7-0.4,1.3-1,2-1.4
		c1.6-1,1.8-1,2.5,0.9c0,0,0,0.1,0,0.1c-0.5,0-0.9-0.2-1.4-0.2c-0.8,0.1-1.5,0.6-1.7,1.4c-0.1,0.7,0.2,1.2,0.8,1.5
		c0.5,0.3,1.1,0.1,1.4-0.4c0.4-0.5,0.2-1.1-0.2-1.6c0.5-0.1,0.8,0,1.2,0.2c0.8,0.4,1.4,1.1,1.9,1.8c0.1,0.2,0.3,0.6,0.6,0.4
		c0.2-0.1-0.1-0.4-0.2-0.5c-0.7-1.4-1.4-2.9-2.1-4.3c-0.1-0.2-0.4-0.6,0-0.8c1.2-0.5,2.3-1.1,3.6-1.4c0.1,0.2-0.1,0.3-0.2,0.4
		c-0.7,0.7-1.4,1.4-2,2.2c-0.1,0.2-0.4,0.5-0.1,0.7c0.4,0.3,0.8,0.7,1.4,0.5c1.3-0.3,2.3,0.1,3.1,1.1c0.2,0.2,0.4,0.5,0.7,0.3
		c0.3-0.2,0-0.5-0.1-0.7c-0.4-1.4-0.8-2.9-1.3-4.3c-0.1-0.2-0.3-0.5,0.1-0.7c0.8-0.2,1.6-0.5,2.4-0.5c0,0.4-0.4,0.4-0.5,0.6
		c-0.4,0.5-0.5,1-0.1,1.4c0.4,0.5,0.9,0.3,1.3-0.2C33.6,9,33.9,8.8,34,8.5c0.1-0.3,0.3-0.4,0.6-0.4c0.3,0.1,0.5,0.2,0.6,0.5
		c0.1,0.3-0.1,0.5-0.3,0.7C34.5,9.7,34,9.9,33.5,10c-0.6,0.1-1.3-0.1-2-0.2c0.6,0.9,1,1.9,2.3,1.8c0.4,0,0.9,0.2,1.4,0.4
		c0.9,0.3,1.6,0.9,2.3,1.5c0.1,0.1,0.2,0.2,0.3,0.1c0.2-0.1,0-0.2-0.1-0.3c-0.2-1.2-1.2-1.7-2.1-2.2c-0.5-0.3-0.7-0.4-0.1-0.8
		c0.9-0.7,1-1.9,0.2-2.6c-0.3-0.3-1.1-0.3-1-0.7c0.1-0.3,0.9-0.2,1.3-0.3c0.9-0.2,1.6,0.4,1.6,1.3c0,1.2,0.1,2.3,0.1,3.5
		c0,0.3,0,0.6,0.2,0.8c0.2,0.2,0.3,0.5,0.5,0.4c0.2-0.1,0.1-0.4,0.1-0.6c0-1.6,0-3.1-0.1-4.7c0-0.6,0.1-0.8,0.7-0.8
		c0.6,0,0.7,0.3,0.6,0.8c-0.1,1-0.1,1.9,0,2.9c0,1.1,0.9,1.8,1.7,1.5c0.8-0.3,1.5-0.8,2-1.5c0.4-0.6,0.7-1.3,0.3-2
		c-0.3-0.5-0.7-0.6-1.2-0.6c-0.4,0-0.7,0.2-0.8,0.6c-0.2,0.4,0,0.8,0.4,1c0.3,0.2,0.2,0.3,0.1,0.5c-0.3,0.3-0.6,0.6-0.9,0.8
		c-0.4,0.2-0.7,0.1-0.7-0.4c0-0.8,0.1-1.7,0.1-2.5c0-1,0.1-1.1,1.1-0.9C43,6.9,44.1,7,45.2,7.2c0.1,0,0.3,0.1,0.4,0
		c0.1-0.2-0.1-0.3-0.2-0.4c-0.1-0.2-0.3-0.4-0.6-0.5c-0.2,0-0.3-0.1-0.4-0.4c-0.3-1.3-1.3-1.5-2.4-1.6c-0.7-0.1-1.3,0-2,0
		c-0.4,0-0.9-0.1-0.8-0.7c0-0.2,0-0.3-0.2-0.4c-0.2-0.1-0.4,0.1-0.5,0.2c-0.4,0.5-0.2,1.2,0.5,1.6c0.8,0.5,1.7,0.6,2.6,0.5
		c0.4,0,0.9,0,1.3,0.1c0.2,0,0.4,0.2,0.4,0.4c0,0.3-0.3,0.1-0.5,0.1c-1.1-0.1-2.2-0.1-3.4-0.2c-0.6,0-1.3,0.1-1.6-0.7
		c0-0.1-0.2-0.3-0.4-0.2c-0.2,0-0.2,0.2-0.1,0.3c0.2,0.9-0.3,0.9-1,0.7c-0.2-0.1-0.5,0-0.7,0c-1.1,0-2.2,0.4-3.3,0.6
		c-3.5,0.6-6.8,1.8-9.8,3.6c-1.2,0.7-2.3,1.5-3.4,2.2c-0.3,0.2-0.7,0.5-0.8-0.1c-0.1-0.4-0.1-0.9,0.2-1.4c0.9-1.2,2.1-1.6,3.4-1.6
		c0.5,0,0.9,0,1.4,0.1c-0.1-0.4-0.4-0.5-0.6-0.6c-1.5-0.5-4.1,0.1-5.1,1.3c-0.9,0.9-1,2.2-0.2,3.2c0.2,0.3-0.1,0.4-0.2,0.5
		c-1,0.9-2,1.8-2.9,2.8c-2.2,2.3-4,4.9-5.5,7.6c-0.2,0.4-0.5,0.7-1,0.6c-0.2,0-0.5,0-0.6,0.2c-0.1,0.3,0.2,0.3,0.4,0.4
		c0.5,0.2,0.7,0.4,0.2,0.8c-0.2,0.2-0.4,0.5-0.5,0.8c-0.8,1.9-1.4,3.9-2,5.9c-0.1,0.3-0.3,0.8,0,0.9c0.4,0.1,0.7-0.3,0.9-0.6
		c0.1-0.2,0.2-0.3,0.2-0.5C6.9,32.7,6.9,32.5,7,32.4z M39.1,15.3c-13-0.1-24,10.8-23.8,24.1C15.4,52.1,26,62.8,38.5,63.1
		C52.1,63.3,62.9,52.2,63,39.4C63.2,26.2,52.3,15.1,39.1,15.3z M58.6,65.3c0-0.3-0.1-0.6-0.3-0.9c-0.7-0.8-1.6-0.9-2.6-0.7
		c-0.7,0.1-1.4,0.4-2.1,0.6c-0.4,0.1-0.7,0.2-0.9-0.3c-0.2-0.4-0.6-0.4-0.9-0.2c-0.3,0.1-0.5,0.3-0.5,0.7c0,0.5,0.2,0.8,0.6,0.9
		c0.7,0.3,1.5,0.2,2.3,0.1c0.8-0.2,1.6-0.4,2.4-0.6c0.3-0.1,0.6,0.1,0.7,0.4c0.1,0.2,0.1,0.5-0.1,0.6c-0.2,0.1-0.5-0.1-0.7-0.3
		c-1.6-0.8-3.3,0.3-3.3,2.1c0,0.8,0.4,1.3,1.1,1.5c0.5,0.1,0.9-0.2,1.2-0.5c0.2-0.2,0.3-0.5,0.1-0.8c-0.3-0.4-0.7-0.2-1-0.2
		c-0.1,0-0.2,0.1-0.3-0.1c-0.3-0.5,0-1.2,0.6-1.2c0.9-0.1,1.3,0.4,1.5,1.1c0.1,0.6,0.4,0.6,0.8,0.2C58.1,67.1,58.5,66.2,58.6,65.3z
		 M70.8,54.7c-0.7-0.3-1.2-0.3-1.8,0.1c-0.5,0.4-1.1,0.6-1.6,0.9c-0.5,0.3-0.6,0.2-0.6-0.4c0.1-1.1-0.4-1.7-1.4-1.7
		c-1.3,0-2.2,0.9-3.3,1.3C61.8,55,61.6,55.6,62,56c0.5,0.5,1,0.4,1.4,0c0.5-0.4,1-0.8,1.6-1.1c0.2-0.1,0.5-0.2,0.8,0
		c0.2,0.2,0.1,0.5,0,0.7c-0.1,0.3-0.2,0.5-0.4,0.8c-0.5,0.6-1.1,1-1.8,1.4c-0.1,0.1-0.4,0.1-0.4,0.3c0,0.2,0.3,0.2,0.4,0.3
		c0.8,0.3,1.7,0.6,2.3-0.4c0.1-0.1,0.2-0.1,0.2-0.2C67.6,56.6,69.2,55.7,70.8,54.7z M49,71.8c0.6,0,1-0.1,1.3-0.4
		c1-0.6,1.8-1.3,1.8-2.5c-0.1-1.2-1.1-1.6-2-2c-0.1,0-0.1-0.1-0.2-0.1c-0.6-0.2-1.3-0.4-1.7-1c-0.4-0.5-0.8-0.4-1.2,0
		c-0.4,0.4-0.3,0.9,0.1,1.3c0.4,0.4,0.8,0.6,1.3,0.7c0.7,0.2,1.4,0.3,2,0.6c0.3,0.2,0.5,0.4,0.5,0.7c-0.1,0.4-0.4,0.3-0.7,0.3
		c-0.7,0-1.3,0.2-1.8,0.8c-0.3,0.3-0.6,0.7-0.4,1.1C48.2,71.8,48.7,71.8,49,71.8z M58,60.8c0,1.3,0.4,1.7,1.5,1.7
		c0.9,0,1.4-0.6,1.9-1.2c0.5-0.6,0.9-0.6,1.4,0c0.2,0.3,0.5,0.5,0.9,0.7c0.4,0.2,0.8,0.1,1.2-0.2c0.3-0.3,0.5-0.6,0.4-1
		c-0.2-0.5-0.6-0.4-1-0.3c-0.3,0.1-0.5-0.1-0.6-0.2c-0.4-0.4-0.9-0.7-1.3-1.2c-0.8-0.9-1.8-0.8-2.8-0.4C58.4,59.1,58,59.9,58,60.8z
		 M47.8,11.9c0,1.3,0.4,2.1,1.2,2.4c0.5,0.2,0.9,0.1,1.2-0.3c0.3-0.4,0.4-0.8,0.1-1.2c-0.3-0.4-0.7-0.4-1.1-0.2
		c-0.6,0.3-0.6-0.1-0.6-0.6c0-1.6,1.5-2.9,3-2.8c0.2,0,0.7,0.3,0.7-0.1c0-0.3-0.2-0.8-0.6-1c-0.2-0.1-0.5-0.1-0.7-0.1
		C49.3,8.2,47.8,9.9,47.8,11.9z M41,73.1c0.4,0,0.7,0,1-0.2c0.5-0.3,0.9-0.7,0.8-1.4c-0.1-0.6-0.5-1-1.1-1.1
		c-0.7-0.2-1.3-0.1-1.9,0.3c-1,0.7-0.8,1.8,0.3,2.2C40.3,73.1,40.6,73.1,41,73.1z M40.8,70c0.9,0,1.7-0.7,1.7-1.5
		c0-0.7-0.7-1.3-1.5-1.4c-0.9,0-1.8,0.7-1.8,1.5C39.1,69.4,39.8,70,40.8,70z M28.4,13.2c-0.1,0.5,0.3,0.7,0.7,0.7
		c0.4,0,0.7-0.2,0.7-0.7c0-0.4-0.2-0.8-0.7-0.8C28.6,12.5,28.3,12.7,28.4,13.2z M58.3,19.6c0,0.5,0.2,0.7,0.7,0.7
		c0.5,0,0.8-0.2,0.8-0.7c0-0.5-0.3-0.7-0.7-0.7C58.5,18.8,58.3,19.1,58.3,19.6z"/>
	<path class="st1" d="M10.5,23.4c-0.5,0.3-0.6,1-0.9,1.5c-0.2,0.3,0.2,0.4,0.4,0.5c1.4,0.8,2.8,1.5,4.3,2.3c0.2,0.1,0.6,0.2,0.5,0.4
		c-0.1,0.2-0.4,0.2-0.7,0.3c-0.3,0-0.6-0.1-0.8-0.3c-1-0.5-2-1-2.9-1.5c-0.3-0.1-0.5-0.2-0.8-0.2c-0.6,0-0.8,0.4-1,0.9
		c-0.2,0.5,0.3,0.5,0.6,0.6c1.6,0.7,3.1,1.3,4.8,2c-0.5,0.4-1,0.5-1.6,0.3c-0.7-0.3-1.4-0.6-2.2-0.8c-0.2-0.1-0.5-0.2-0.8-0.1
		c-0.2,0-0.3,0.2-0.4,0.4c-0.1,0.2,0.1,0.3,0.2,0.4c0.7,0.5,0.7,0.5-0.2,0.9c-0.6,0.2-0.9,0.9-0.6,1.4c0.1,0.2,0.3,0.5,0.6,0.4
		c0.4-0.2,0-0.3-0.1-0.5c-0.1-0.4-0.1-0.7,0.2-1c0.4-0.4,0.9,0,1.3,0c0.3,0,0.4,0.5,0.3,0.8c-0.1,0.7-0.4,1.3-1.2,1.6
		c-0.8,0.3-1.5,0-2-0.6c-0.2-0.2-0.3-0.4-0.4-0.6c0-0.1,0-0.1,0-0.2c0.1-0.4,0-0.9,0.3-1.1c0.6-0.4,0.6-1,0.4-1.6
		C7.8,29.4,8,29.3,8,29.2C8.1,29,8.4,29,8.3,28.7c0,0-0.1-0.1-0.2-0.1c-0.4,0-0.3,0.3-0.4,0.5c-0.1,0.1-0.1,0.3-0.1,0.5l0,0
		c-0.1,0.1-0.1,0.2-0.1,0.3c-0.4,0.5-0.4,1.2-0.6,1.7c-0.1,0.3-0.2,0.7-0.2,1c-0.1,0.2-0.1,0.3-0.2,0.5c-0.2,0.4-0.6,0.8-0.9,0.6
		c-0.3-0.1,0-0.6,0-0.9c0.5-2,1.1-4,2-5.9c0.1-0.3,0.3-0.6,0.5-0.8c0.6-0.5,0.3-0.6-0.2-0.8c-0.2-0.1-0.5-0.1-0.4-0.4
		c0.1-0.2,0.3-0.2,0.6-0.2c0.5,0.1,0.7-0.2,1-0.6c1.5-2.8,3.3-5.3,5.5-7.6c0.9-1,1.9-1.8,2.9-2.8c0.1-0.1,0.5-0.2,0.2-0.5
		c-0.7-1-0.6-2.2,0.2-3.2c1-1.1,3.6-1.8,5.1-1.3c0.3,0.1,0.5,0.2,0.6,0.6c-0.5,0-1-0.1-1.4-0.1c-1.4,0-2.6,0.4-3.4,1.6
		c-0.3,0.4-0.3,0.9-0.2,1.4c0.1,0.5,0.5,0.2,0.8,0.1c1.1-0.7,2.2-1.5,3.4-2.2c3-1.8,6.3-3,9.8-3.6c1.1-0.2,2.2-0.5,3.3-0.6
		c0.2,0,0.5-0.1,0.7,0c0.7,0.2,1.1,0.2,1-0.7c0-0.1,0-0.3,0.1-0.3c0.2,0,0.4,0.1,0.4,0.2c0.3,0.8,0.9,0.7,1.6,0.7
		c1.1,0,2.2,0.1,3.4,0.2c0.2,0,0.4,0.1,0.5-0.1c0-0.2-0.2-0.3-0.4-0.4c-0.4-0.1-0.8-0.1-1.3-0.1c-0.9,0.1-1.8,0-2.6-0.5
		c-0.7-0.4-0.9-1.1-0.5-1.6c0.1-0.1,0.3-0.3,0.5-0.2c0.2,0.1,0.2,0.2,0.2,0.4c-0.1,0.6,0.3,0.7,0.8,0.7c0.7,0,1.3,0,2,0
		c1.1,0.1,2.1,0.3,2.4,1.6c0,0.2,0.2,0.3,0.4,0.4c0.3,0.1,0.5,0.2,0.6,0.5c0.1,0.1,0.3,0.3,0.2,0.4c-0.1,0.2-0.3,0.1-0.4,0
		C44.1,7,43,6.9,41.9,6.7c-1.1-0.1-1.1-0.1-1.1,0.9c0,0.8-0.1,1.7-0.1,2.5c0,0.6,0.3,0.7,0.7,0.4c0.4-0.2,0.7-0.4,0.9-0.8
		c0.2-0.2,0.2-0.4-0.1-0.5c-0.4-0.2-0.6-0.6-0.4-1c0.1-0.4,0.4-0.6,0.8-0.6c0.5,0,0.9,0.1,1.2,0.6c0.4,0.7,0.2,1.4-0.3,2
		c-0.5,0.7-1.3,1.2-2,1.5c-0.8,0.3-1.6-0.4-1.7-1.5c0-1,0-1.9,0-2.9c0-0.5,0-0.8-0.6-0.8c-0.6,0-0.8,0.3-0.7,0.8
		c0.1,1.6,0.1,3.1,0.1,4.7c0,0.2,0.1,0.5-0.1,0.6c-0.3,0.1-0.4-0.2-0.5-0.4c-0.2-0.2-0.2-0.5-0.2-0.8c-0.1-1.2-0.2-2.3-0.1-3.5
		c0-0.9-0.6-1.5-1.6-1.3c-0.5,0.1-1.2-0.1-1.3,0.3c-0.1,0.4,0.6,0.4,1,0.7c0.8,0.7,0.7,1.9-0.2,2.6c-0.6,0.4-0.4,0.5,0.1,0.8
		c0.9,0.5,1.8,1,2.1,2.2c0,0.1,0.3,0.2,0.1,0.3c-0.2,0.1-0.2,0-0.3-0.1c-0.7-0.6-1.4-1.2-2.3-1.5c-0.4-0.2-0.9-0.4-1.4-0.4
		c-1.3,0.1-1.7-0.9-2.3-1.8c0.8,0.1,1.4,0.3,2,0.2c0.6-0.1,1-0.3,1.4-0.7c0.2-0.2,0.4-0.4,0.3-0.7c-0.1-0.3-0.3-0.4-0.6-0.5
		c-0.3-0.1-0.5,0.1-0.6,0.4c-0.1,0.3-0.3,0.5-0.5,0.7c-0.4,0.4-0.9,0.6-1.3,0.2c-0.5-0.5-0.3-1,0.1-1.4c0.2-0.2,0.5-0.2,0.5-0.6
		c-0.8,0-1.6,0.3-2.4,0.5c-0.4,0.1-0.2,0.4-0.1,0.7c0.4,1.4,0.9,2.9,1.3,4.3c0.1,0.2,0.3,0.6,0.1,0.7c-0.2,0.2-0.5-0.1-0.7-0.3
		c-0.8-1-1.8-1.3-3.1-1.1c-0.6,0.1-1-0.3-1.4-0.5c-0.4-0.2,0-0.5,0.1-0.7c0.6-0.8,1.3-1.5,2-2.2c0.1-0.1,0.3-0.1,0.2-0.4
		c-1.3,0.3-2.4,0.9-3.6,1.4c-0.4,0.2-0.1,0.5,0,0.8c0.7,1.4,1.4,2.9,2.1,4.3c0.1,0.2,0.4,0.4,0.2,0.5c-0.3,0.2-0.5-0.1-0.6-0.4
		c-0.5-0.7-1.1-1.4-1.9-1.8c-0.4-0.2-0.7-0.3-1.2-0.2c0.3,0.5,0.6,1.1,0.2,1.6c-0.4,0.5-0.9,0.6-1.4,0.4c-0.6-0.3-0.9-0.8-0.8-1.5
		c0.2-0.8,0.9-1.3,1.7-1.4c0.5,0,0.9,0.2,1.4,0.2c0-0.1,0-0.1,0-0.1c-0.6-1.8-0.9-1.9-2.5-0.9c-0.7,0.4-1.3,1-2,1.4
		c-0.4,0.3-0.4,0.5-0.1,0.9c0.9,1.2,1.8,2.4,2.7,3.7c0.1,0.2,0.4,0.4,0.3,0.6c-0.1,0.2-0.5,0-0.7,0c-0.3,0-0.4-0.2-0.6-0.4
		c-0.8-1-1.6-2.1-2.4-3.1c-0.2-0.2-0.3-0.6-0.7-0.4c-0.4,0.2-0.7,0.5-1,0.8c0,0,0.1,0.2,0.2,0.4c0.9,1.1,1.9,2.1,2.8,3.2
		c0.1,0.1,0.2,0.2,0.3,0.3c0.1,0.3,0.6,0.5,0.3,0.8c-0.3,0.3-0.6-0.1-0.8-0.3c-0.4-0.3-0.9-0.4-1.3-0.4c-0.4,0-0.6,0.1-0.7,0.5
		c-0.1,0.6-0.5,1-1,1.1c-0.5,0.1-0.9-0.1-1.1-0.5c-0.3-0.5-0.2-1,0.1-1.4c0.1-0.1,0.3-0.2,0.2-0.4c-0.1-0.2-0.3-0.2-0.5-0.2
		c-0.3,0-0.6,0.2-0.9,0.4c-0.4,0.3-0.8,0.5-1.3,0.5c-0.3,0-0.5,0.2-0.6,0.5c-0.1,0.3,0.2,0.4,0.3,0.5c1.2,1,2.5,2,3.7,3
		c0.1,0.1,0.4,0.2,0.3,0.5c-0.1,0.2-0.4,0.2-0.6,0.2c-0.3,0-0.5-0.2-0.8-0.4c-0.6-0.5-1.2-0.9-1.9-1.4c-0.3-0.2-0.7-0.4-1-0.1
		c-0.4,0.4,0.2,0.6,0.2,0.7c-0.1,0.7,0.7,1,0.7,1.6c0.1,1.1-1.3,2.1-2.5,1.6c-0.8-0.4-1.3-1-1.2-2c0.2-0.3,0.4-0.6,0.6-0.9
		c0.2-0.1,0.5-0.3,0.7-0.4c0.2-0.1,0.1-0.3,0-0.4c0-0.1,0-0.2,0-0.4c0.1-0.3,0.3-0.5,0.6-0.6c0.1,0,0.5,0,0.2-0.3
		c-0.1-0.2-0.3-0.1-0.5,0c-0.3,0.2-0.5,0.4-0.6,0.8c-0.2,0.3-0.5,0.7-0.7,1C10.7,22.5,10.7,23,10.5,23.4z M12.3,24.4
		c0.1,0.2,0.3,0.3,0.4,0.2c0.2-0.2-0.1-0.3-0.2-0.4c0-0.5,0-1,0.6-1.2c0,0,0.1-0.1,0.1-0.1c-0.1,0-0.2,0-0.2-0.1
		c-0.4-0.2-0.6,0.1-0.8,0.3C12,23.6,11.8,24,12.3,24.4z M19.1,18c-0.5-0.5-0.9-0.9-1.2-1.3c-1.3-1.5-1-1.4-2.3-0.1
		c-0.1,0.1-0.2,0.3-0.4,0.6C16.7,16.5,17.6,18,19.1,18z M30,11.4c-0.2-0.5-0.3-1-0.5-1.4c-0.1-0.2-0.2-0.4-0.4-0.2
		c-0.3,0.3-0.6,0.6-0.9,0.9c-0.1,0.1-0.2,0.3,0,0.4c0.5,0.1,0.9,0.4,1.4,0.6C29.8,11.7,30.1,11.8,30,11.4z"/>
	<path class="st1" d="M39.1,15.3c13.2-0.2,24.1,10.9,24,24.1c-0.1,12.8-10.9,23.9-24.6,23.6c-12.5-0.2-23.1-11-23.2-23.6
		C15.1,26.1,26.1,15.2,39.1,15.3z M39.1,61.9C51.4,62,61.7,52,61.9,39.5c0.2-12.7-10.1-22.8-22.2-23.1
		c-13.2-0.3-23.1,10.5-23.3,22.4C16.2,51.6,26.7,62,39.1,61.9z"/>
	<path class="st1" d="M13.4,55.7c-0.3-0.4-0.4-0.9-0.3-1.4c0-0.2,0.2-0.5,0.5-0.5c0.3,0,0.4,0.2,0.4,0.4c0,0.3,0.1,0.5,0.4,0.5
		c0.2,0,0.4,0,0.5-0.2c0.2-0.3-0.1-0.4-0.2-0.6c-0.4-0.7-0.9-1.3-0.4-2.2c0.5,0.6,0.8,1.3,1.2,1.9c0.8,1.3,1.7,2.5,2.7,3.7
		c0.1,0.1,0.3,0.3,0.3,0.4c0.3,0.7,0.6,1,1.2,0.3c0.3-0.3,0.3,0,0.3,0.2c0,0.1,0,0.3-0.1,0.4c-0.3,0.6,0.2,0.8,0.5,1
		c0.4,0.3,0.3-0.2,0.5-0.4c0.7-0.6,1.6-0.5,2.4-0.3c1.2,0.3,2.8,2.7,2.8,3.9c0,0.1,0,0.3-0.2,0.5c-0.4-0.7-0.7-1.4-1.2-2
		c-0.7-0.9-1.5-1.5-2.7-1.3c-0.2,0-0.4,0-0.5,0.2c-0.1,0.3,0.1,0.4,0.2,0.5c0.4,0.3,0.7,0.6,0.7,1.1c0,0.4,0.3,0.4,0.6,0.4
		c1.2,0.2,2.1,0.7,2.6,1.9c0.2,0.5,0.4,0.4,0.6,0c0.2-0.3,0.2-1,0.6-1c0.5,0,0.3,0.6,0.5,1c0.2,0.3,0.6,0.5,1,0.6
		c2,0.6,4,1.4,6.2,1.7c0.2,0,0.3,0,0.5,0.1c0.3,0.2,0.8,0.4,0.7,0.7c-0.1,0.3-0.6,0.1-0.8,0.1c-0.9-0.1-1.7-0.3-2.6-0.4
		c-0.3-0.2-0.7-0.3-1.1-0.3c-0.7-0.3-1.4-0.5-2.2-0.8c-0.3-0.1-0.6-0.1-0.5,0.3c0.1,1.2,0.2,2.3,1.1,3.2c0.7,0.7,1.9,1,2.7,0.7
		c0.8-0.3,0.9-1.2,0.3-1.6c-0.2-0.2-0.4-0.3-0.5,0.1c-0.1,0.6-0.4,0.8-1,0.8c-0.8-0.1-1.4-0.5-1.5-1.1c-0.1-0.7,0.3-1.1,1.2-1.3
		c0.1,0,0.2-0.1,0.3-0.1c0.4,0.1,0.7,0.2,1.1,0.3c0.7,0.5,1.4,1,1.6,2c0.2,1.1-0.3,2-1.4,2.3c-2.1,0.5-4-0.7-4.5-2.9
		c-0.1-0.7-0.2-1.4-0.2-2.2c0-0.4,0.1-0.9-0.5-1c-0.5-0.1-0.6,0.3-0.8,0.7c-0.5,1.1-1,2.1-1.5,3.2C25,69.5,25,70,24.5,70
		c-0.4,0-0.7-0.9-0.4-1.4c0.3-0.6,0.6-1.2,0.9-1.8c0.2-0.4,0.4-0.8,0.1-1.1c-0.3-0.3-0.7-0.1-1-0.1c-0.5,0.1-1,0.1-1.4,0.2
		c-0.6,0.1-0.9-0.3-1.1-0.7c-0.2-0.4,0.3-0.5,0.6-0.6c0.2-0.1,0.3-0.2,0.3-0.3c0-0.2-0.2-0.3-0.3-0.3c-0.2-0.1-0.4-0.1-0.6-0.2
		c-0.4-0.3-0.4-0.8,0.1-1.1c0.2-0.1,0.6,0,0.4-0.3c-0.1-0.3-0.5-0.4-0.7-0.6c-0.2-0.2-0.4,0-0.5,0.1c-0.2,0.2-0.4,0.5-0.6,0.7
		c-0.8,1-1.6,1.9-2.4,2.9c-0.3,0.3-0.4,0.3-0.6-0.1c-0.2-0.5-0.1-0.9,0.2-1.3c0.8-0.8,1.5-1.7,2.3-2.6c0.3-0.4,0.5-0.6,0-1
		c-0.5-0.4-0.8-0.6-1.2,0c-1,1.1-2,2.1-3,3.1c-0.1,0.1-0.2,0.4-0.5,0.3c-0.2-0.1-0.1-0.4-0.2-0.6c-0.1-0.4,0.1-0.7,0.3-0.9
		c0.8-0.7,1.5-1.5,2.3-2.2c0.3-0.3,0.6-0.7,0.5-1.2c-0.2-0.7-0.5-0.7-1.1-0.5c-0.8,0.3-1.2,0.7-1.6,1.4c-0.4,0.7-1.1,0.5-1.7,0.3
		c-0.8-0.3-0.8-0.3-0.7,0.6c0.1,0.7,0.2,1.3,0.4,2c0,0.2,0.1,0.4,0,0.6c0,0.2-0.1,0.5-0.4,0.6c-0.3,0-0.2-0.3-0.3-0.5
		c-0.4-1.9-1-3.8-1.7-5.6c-0.4-0.9,0.5-1.4,0.6-2.1c0.4,0.3,0.2,0.7,0.4,0.9c0.1,0.6,0.4,1.1,0.8,1.6c0.3,0.5,0.7,0.8,1.3,0.8
		c0.3,0,0.6-0.1,0.6-0.5c0-0.3-0.2-0.4-0.5-0.3c-0.5,0.1-0.8-0.2-1.2-0.3c-0.4-0.4-0.7-0.8-0.7-1.3c0.2-0.4,0.5-0.5,0.9-0.6
		c0.4,0.1,0.8,0.2,1.1,0.5c0.1,0.1,0.2,0.3,0.4,0.2c0.1,0,0.1-0.2,0.1-0.3c0-0.2-0.2-0.2-0.3-0.2C14.1,56,13.7,55.9,13.4,55.7z
		 M23.9,63.7c-0.2-0.2-0.4-0.2-0.6-0.2c-0.1,0.8,0.3,1.1,1,1c0.1,0,0.3,0,0.3-0.1c0.1-0.2,0-0.3-0.2-0.4
		C24.3,63.8,24.1,63.7,23.9,63.7z M15.9,56c-0.2,0.5-0.2,1,0.1,1.3c0.2,0.2,0.4,0.4,0.6,0.2c0.2-0.2,0.2-0.4,0-0.6
		C16.4,56.6,16.2,56.3,15.9,56z"/>
	<path class="st1" d="M69.5,26.5c-0.2-0.9-0.8-1.6-1.2-2.4c-0.2-0.5-0.5-0.3-0.8-0.1c-1.4,0.8-2.7,1.6-4.1,2.4
		c-0.2,0.1-0.3,0.3-0.5,0.2c-0.2-0.2,0-0.4,0-0.6c0.1-0.5,0.5-0.6,0.8-0.8c0.5-0.3,0.9-0.6,1.4-0.9c0.3-0.2,0.3-0.4,0.3-0.7
		c0-0.3-0.3-0.5-0.6-0.5c-0.5-0.1-1-0.1-1.4-0.1c-0.5,0-0.9-0.3-1-0.8c-0.1-0.6,0-1.1,0.4-1.6c0.1-0.2,0.4-0.1,0.6,0
		c0.2,0.1,0.1,0.2,0.1,0.3c-0.1,0.2-0.4,0.5,0,0.7c0.4,0.1,0.9,0.3,1.3,0c0.3-0.2,0.5-0.5,0.3-0.8c-0.4-0.7-0.6-1.4-0.8-2.1
		c-0.2-0.5-0.6-0.3-0.9,0c-1.2,1-2.3,2-3.5,3.1c-0.1,0.1-0.2,0.4-0.5,0.2c-0.2-0.1-0.1-0.3-0.1-0.5c0,0,0-0.1,0-0.1
		c0.6-1.3,0.4-2.5-0.3-3.7c-0.5-0.9,0-1.4,1.1-1.3c0.8,0.1,1.4,0.6,2.2,0.7c0.1,0,0.2,0,0.3,0c0.1-0.1,0-0.2-0.1-0.3
		c-0.7-0.7-1.4-1.4-2.1-2c-0.6-0.6-0.8-0.5-1.4,0.2c-1,1.3-2.1,2.6-3.2,3.9c-0.4-0.7-0.2-1.2,0.2-1.8c0.8-1,1.6-2.1,2.4-3.1
		c0.4-0.5,0.2-0.8-0.2-1c-0.4-0.2-0.7-0.6-1.1,0c-0.8,1.2-1.6,2.4-2.4,3.5c-0.2,0.2-0.3,0.8-0.7,0.5c-0.3-0.2-0.3-0.7,0-1.1
		c0.4-0.6,0.8-1.2,1.2-1.8c0.2-0.3,0.3-0.5,0.4-0.9c0-0.4-0.1-0.6-0.6-0.5c-0.6,0.1-1.1,0.3-1.7,0.4c-0.4,0.1-0.7,0.1-0.9-0.3
		c-0.3-0.3-0.4-0.6,0.1-0.7c0.2-0.1,0.5-0.2,0.5-0.5c0-0.4-0.4-0.3-0.6-0.4c-0.3-0.1-0.5-0.2-0.6-0.6c-0.1-0.4,0.2-0.5,0.4-0.7
		c1.3-0.9,3.4-0.3,4,1.2c0.1,0.3,0.2,0.5,0.3,0.9c0.4-0.4,0.6-0.8,0.8-1.2c0.2-0.5-0.2-0.6-0.4-0.8c-0.7-0.9-0.7-1.7,0.2-2.1
		c0.2-0.1,0.4-0.2,0.6,0c0.2,0.2,0.1,0.4-0.1,0.5C57,8.8,57.3,9,57.7,9.3c0.3,0.3,0.7,0.5,1.1,0.7c0.6,0.3,1.2,0.7,1.7,1.2
		c0.5,0.5,0.7,1.1,0.4,1.8c-0.2,0.4-0.1,0.5,0.2,0.8c3.4,3,6.4,6.4,8.5,10.5c0.9,1.8,1.7,3.6,2.4,5.5c0.1,0.2,0.1,0.3,0.2,0.5
		c0.1,0.7,0,1.5,1.1,0.9c0.1,0,0.2,0,0.2,0.2c0,0.2-0.1,0.4-0.2,0.5c-0.6,0.2-0.7,0.6-0.4,1.1c0.2,0.4-0.2,0.7-0.3,1
		c0,0.1-0.1,0.2-0.2,0.2c-0.1,0-0.1-0.2-0.2-0.2c-0.2-0.4,0.1-1-0.4-1.1c-0.5-0.2-1,0.1-1.6,0.3c-1.3,0.3-2.5,0.7-3.8,1
		c-0.1,0-0.4,0.1-0.5,0c-0.2-0.2,0.1-0.3,0.2-0.5c0.1-0.5,0.6-0.5,1-0.6c1.1-0.3,2.2-0.6,3.3-0.9c0.9-0.3,1.1-0.6,0.9-1.5
		c-0.3-1.1-0.8-2.1-1.2-3.1C69.9,27.1,69.7,26.8,69.5,26.5z M60.7,18.1c0,0.3,0.1,0.8,0.1,1.3c0,0.3,0.2,0.2,0.3,0.1
		c0.4-0.3,0.7-0.6,1.1-1c0.2-0.2,0.2-0.3,0-0.4c-0.4-0.2-0.8-0.3-1.2-0.4C60.7,17.6,60.6,17.7,60.7,18.1z M67.5,22.7
		c-0.4-0.5-0.7-1-1.1-1.5c0-0.1-0.2-0.1-0.2,0c0,0.3-0.6,0.6-0.1,1c0.3,0.2,0.2,0.5,0.3,0.7c0,0.2-0.2,0.6,0.2,0.5
		C66.9,23.2,67.3,23.1,67.5,22.7z M54.5,11.7c0.3-0.1,0.8,0,0.8-0.4c0-0.5-0.6-0.6-1.1-0.7c-0.2,0-0.4,0-0.3,0.3
		C54,11.2,53.8,11.7,54.5,11.7z M59.8,12.4c-0.2-0.6-0.7-0.8-1.2-1.1c-0.1-0.1-0.2-0.3-0.4-0.1c-0.2,0.2-0.1,0.4,0.1,0.5
		c0.4,0.3,0.8,0.6,1.2,0.9C59.6,12.6,59.8,12.7,59.8,12.4z"/>
	<path class="st1" d="M58.6,65.3c-0.2,1-0.5,1.8-1.3,2.5c-0.4,0.4-0.7,0.4-0.8-0.2c-0.2-0.8-0.6-1.3-1.5-1.1
		c-0.5,0.1-0.8,0.8-0.6,1.2c0.1,0.2,0.2,0.1,0.3,0.1c0.3,0,0.7-0.2,1,0.2c0.2,0.3,0.1,0.6-0.1,0.8c-0.3,0.3-0.7,0.6-1.2,0.5
		c-0.7-0.2-1.1-0.7-1.1-1.5c0-1.7,1.8-2.9,3.3-2.1c0.2,0.1,0.4,0.4,0.7,0.3c0.2-0.1,0.2-0.4,0.1-0.6c-0.1-0.3-0.4-0.5-0.7-0.4
		c-0.8,0.2-1.6,0.4-2.4,0.6c-0.8,0.2-1.5,0.3-2.3-0.1c-0.4-0.2-0.6-0.5-0.6-0.9c0-0.3,0.2-0.6,0.5-0.7c0.4-0.1,0.8-0.1,0.9,0.2
		c0.2,0.5,0.5,0.4,0.9,0.3c0.7-0.2,1.4-0.4,2.1-0.6c1-0.2,1.9-0.1,2.6,0.7C58.5,64.6,58.6,64.9,58.6,65.3z"/>
	<path class="st1" d="M70.8,54.7c-1.6,1-3.2,1.9-4.6,3.1c-0.1,0.1-0.2,0.1-0.2,0.2c-0.6,1-1.5,0.7-2.3,0.4c-0.2-0.1-0.4-0.1-0.4-0.3
		c0-0.2,0.2-0.2,0.4-0.3c0.7-0.4,1.3-0.8,1.8-1.4c0.2-0.2,0.3-0.5,0.4-0.8c0.1-0.2,0.2-0.5,0-0.7c-0.2-0.2-0.5-0.1-0.8,0
		c-0.6,0.3-1.1,0.7-1.6,1.1c-0.4,0.4-1,0.5-1.4,0c-0.4-0.4-0.2-1,0.1-1.1c1.1-0.4,2-1.3,3.3-1.3c1,0,1.5,0.6,1.4,1.7
		c0,0.6,0.1,0.7,0.6,0.4c0.5-0.3,1.1-0.6,1.6-0.9C69.6,54.4,70.1,54.3,70.8,54.7z"/>
	<path class="st1" d="M69.7,27.4c0,0.2,0,0.3,0,0.5c-0.3,0.6-0.4,1.1,0.5,1.3c0.3,0.1,0.2,0.4,0.1,0.6c-0.4,1.3-1.8,2-3.1,1.6
		c-1.3-0.4-2.1-1.7-1.7-3c0.4-1.6,1.5-2.6,2.5-3.7c0.1-0.1,0.2-0.2,0.3-0.1c0.2,0.2,0.2,0.4,0.1,0.6c-0.2,0.3-0.5,0.6-0.7,0.9
		c-0.7,1-1.4,2.1-0.9,3.5c0.3,0.8,1.2,1.2,1.9,1c0.4-0.1,0.5-0.3,0.1-0.5c-0.5-0.2-0.7-0.7-1-1.1c-0.4-0.6-0.4-1.3,0.1-1.9
		c0.5-0.6,1-0.5,1.6-0.2C69.5,27,69.6,27.2,69.7,27.4z"/>
	<path class="st1" d="M49,71.8c-0.3,0-0.8-0.1-1-0.5c-0.2-0.5,0.1-0.8,0.4-1.1c0.5-0.5,1.1-0.7,1.8-0.8c0.2,0,0.6,0.1,0.7-0.3
		c0.1-0.4-0.1-0.6-0.5-0.7c-0.6-0.3-1.3-0.5-2-0.6c-0.5-0.1-1-0.3-1.3-0.7c-0.4-0.4-0.5-0.8-0.1-1.3c0.4-0.4,0.8-0.5,1.2,0
		c0.4,0.6,1.1,0.8,1.7,1c0.1,0,0.2,0.1,0.2,0.1c0.9,0.4,1.9,0.8,2,2c0.1,1.2-0.8,1.9-1.8,2.5C50,71.7,49.6,71.8,49,71.8z"/>
	<path class="st1" d="M58,60.8c0.1-0.8,0.4-1.7,1.4-2.1c1-0.4,2-0.5,2.8,0.4c0.4,0.4,0.9,0.8,1.3,1.2c0.2,0.2,0.4,0.4,0.6,0.2
		c0.4-0.2,0.8-0.2,1,0.3c0.2,0.4-0.1,0.7-0.4,1c-0.3,0.4-0.7,0.5-1.2,0.2c-0.3-0.2-0.6-0.4-0.9-0.7c-0.5-0.6-0.9-0.6-1.4,0
		c-0.5,0.6-1,1.1-1.9,1.2C58.4,62.5,57.9,62,58,60.8z M59.1,60.7c0,0.3,0.1,0.7,0.3,0.7c0.7,0,1-0.7,1.4-1.1
		c0.1-0.1,0.3-0.3,0.1-0.5c0,0-0.1,0-0.1-0.1c-0.3-0.3-0.7-0.4-1.1-0.2C59.2,59.8,59.2,60.3,59.1,60.7z"/>
	<path class="st1" d="M47.8,11.9c0-2,1.5-3.7,3.3-3.8c0.2,0,0.5,0,0.7,0.1c0.4,0.2,0.6,0.6,0.6,1c0,0.4-0.5,0.1-0.7,0.1
		c-1.6-0.1-3,1.2-3,2.8c0,0.4,0,0.8,0.6,0.6c0.4-0.2,0.9-0.2,1.1,0.2c0.3,0.4,0.2,0.8-0.1,1.2c-0.3,0.4-0.8,0.5-1.2,0.3
		C48.2,14,47.8,13.2,47.8,11.9z"/>
	<path class="st1" d="M41,73.1c-0.3,0-0.6,0-0.9-0.2c-1.1-0.5-1.2-1.5-0.3-2.2c0.6-0.4,1.2-0.5,1.9-0.3c0.6,0.2,1,0.5,1.1,1.1
		c0.1,0.6-0.3,1-0.8,1.4C41.7,73.1,41.3,73.1,41,73.1z M41.6,71.7c0-0.4-0.2-0.6-0.5-0.5c-0.4,0.1-0.7,0.3-0.7,0.8
		c0,0.3,0.2,0.4,0.5,0.4C41.3,72.3,41.6,72.1,41.6,71.7z"/>
	<path class="st1" d="M40.8,70c-0.9,0-1.7-0.6-1.7-1.4c0-0.7,1-1.5,1.8-1.5c0.8,0,1.5,0.6,1.5,1.4C42.4,69.3,41.7,70,40.8,70z
		 M41.4,68.5c0-0.3-0.2-0.4-0.4-0.4c-0.4,0.1-0.7,0.3-0.7,0.7c0,0.2,0.1,0.3,0.4,0.3C41,69,41.3,68.9,41.4,68.5z"/>
	<path class="st1" d="M28.4,13.2c-0.1-0.5,0.2-0.7,0.7-0.7c0.5,0,0.7,0.4,0.7,0.8c0,0.4-0.3,0.7-0.7,0.7
		C28.7,13.9,28.3,13.7,28.4,13.2z"/>
	<path class="st1" d="M58.3,19.6c0-0.5,0.3-0.7,0.7-0.7c0.5,0,0.8,0.3,0.7,0.7c0,0.5-0.3,0.7-0.8,0.7C58.5,20.2,58.2,20,58.3,19.6z"
		/>
	<path class="st3" d="M13.4,55.7c0.3,0.2,0.7,0.3,1.1,0.4c0.1,0,0.3,0,0.3,0.2c0,0.1,0,0.2-0.1,0.3c-0.2,0.1-0.3-0.1-0.4-0.2
		c-0.3-0.3-0.7-0.4-1.1-0.5C13.3,55.8,13.3,55.7,13.4,55.7z"/>
	<path class="st3" d="M12.4,56.5c0,0.6,0.3,1,0.7,1.3c0,0.1-0.1,0.1-0.1,0.2c-0.4-0.4-0.7-1-0.8-1.6C12.2,56.4,12.3,56.4,12.4,56.5z
		"/>
	<path class="st3" d="M10.5,23.4c0.2-0.4,0.2-0.8,0.6-1.1c0.1,0.1,0.1,0.1,0.2,0.2c-0.2,0.3-0.4,0.6-0.6,0.9
		C10.6,23.4,10.6,23.4,10.5,23.4z"/>
	<path class="st3" d="M7,32.3c0,0.1,0,0.1,0,0.2c-0.1,0.1-0.2,0.3-0.4,0.2c0.1-0.3,0.2-0.7,0.2-1C7.1,31.8,6.9,32,7,32.3z"/>
	<path class="st3" d="M69.7,27.4c-0.1-0.2-0.2-0.4-0.3-0.6c0-0.1,0-0.2,0.1-0.3c0.2,0.3,0.4,0.6,0.4,1
		C69.8,27.5,69.8,27.5,69.7,27.4z"/>
	<path class="st3" d="M32.3,67.1C32,67,31.6,67,31.2,66.9c0,0,0-0.1,0-0.1c0.4,0,0.7,0.1,1.1,0.3C32.3,67.1,32.3,67.1,32.3,67.1z"/>
	<path class="st2" d="M19.1,18c-1.5-0.1-2.4-1.5-3.9-0.8c0.2-0.3,0.3-0.5,0.4-0.6c1.3-1.3,1-1.4,2.3,0.1
		C18.2,17.1,18.6,17.5,19.1,18z"/>
	<path class="st2" d="M30,11.4c0.1,0.4-0.3,0.3-0.4,0.3c-0.5-0.1-0.8-0.5-1.4-0.6c-0.3,0-0.1-0.3,0-0.4c0.3-0.3,0.6-0.6,0.9-0.9
		c0.2-0.2,0.3,0,0.4,0.2C29.7,10.4,29.9,10.9,30,11.4z"/>
	<path class="st2" d="M7,32.3c-0.1-0.2,0.1-0.5-0.1-0.7c0.2-0.6,0.2-1.2,0.6-1.7c0.2,0,0.1-0.2,0.1-0.3c0,0,0,0,0,0c0,0,0.1,0,0.1,0
		l0.1,0c0.2,0.6,0.2,1.1-0.4,1.6C7,31.4,7.1,31.9,7,32.3z"/>
	<path class="st2" d="M12.3,24.4c-0.5-0.4-0.3-0.8-0.1-1.2c0.2-0.2,0.4-0.6,0.8-0.3c0.1,0,0.1,0,0.2,0.1c0,0-0.1,0.1-0.1,0.1
		c-0.6,0.2-0.6,0.6-0.6,1.2C12.4,24.3,12.4,24.3,12.3,24.4z"/>
	<path class="st3" d="M11.8,21.3c0-0.4,0.3-0.6,0.6-0.8c0.2-0.1,0.3-0.2,0.5,0c0.2,0.3-0.1,0.3-0.2,0.3c-0.3,0.1-0.5,0.3-0.6,0.6
		C12,21.3,11.9,21.3,11.8,21.3z"/>
	<path class="st2" d="M11.8,21.3c0.1,0,0.1,0.1,0.2,0.1c0,0.1,0,0.2,0,0.4c0,0.1,0,0.3,0,0.4c-0.2,0.1-0.5,0.3-0.7,0.4
		c-0.1-0.1-0.1-0.1-0.2-0.2C11.4,22,11.6,21.6,11.8,21.3z"/>
	<path class="st3" d="M7.8,29.6L7.8,29.6c-0.1,0-0.1,0-0.1,0c0-0.2,0-0.3,0.1-0.5c0.1-0.2,0-0.5,0.4-0.5c0.1,0,0.2,0,0.2,0.1
		C8.4,29,8.1,29,8,29.2C8,29.3,7.8,29.4,7.8,29.6z"/>
	<path class="st3" d="M12.3,24.4c0.1-0.1,0.1-0.1,0.2-0.2c0.1,0.1,0.4,0.2,0.2,0.4C12.6,24.7,12.4,24.6,12.3,24.4z"/>
	<path class="st3" d="M12,22.1c0-0.1,0-0.3,0-0.4C12.1,21.9,12.2,22,12,22.1z"/>
	<path class="st3" d="M7.6,29.5c0,0.1,0,0.3-0.1,0.3C7.5,29.7,7.5,29.6,7.6,29.5z"/>
	<path class="st3" d="M39.1,61.9C26.7,62,16.2,51.6,16.4,38.8c0.2-11.9,10.1-22.7,23.3-22.4c12.1,0.3,22.4,10.4,22.2,23.1
		C61.7,52,51.4,62,39.1,61.9z M19.6,40.4c1.3,0,1.3,0,1.4,0.9c0,0.4-0.1,0.5-0.5,0.6c-0.5,0.1-1,0.3-1.5,0.4
		c-0.4,0.1-0.6,0.2-0.5,0.7c0.4,1.9,0.4,1.9,2.3,1.5c0.1,0,0.1,0,0.2,0c0.4-0.2,0.6,0,0.7,0.4c0.2,0.6-0.2,0.7-0.6,0.8
		c-1.9,0.8-1.9,0.8-1,2.6c0.2,0.4,0.3,0.4,0.7,0.3c0.4-0.2,0.9-0.4,1.3-0.6c0.4-0.2,0.7-0.4,1,0.1c0.3,0.5-0.1,0.6-0.4,0.9
		c-0.4,0.3-0.8,0.6-1.2,0.9c-0.4,0.2-0.3,0.5,0,0.7c0.5,0.4,0.5,1.4,1.4,1.4c0.2,0,0.3-0.2,0.5-0.4c0.3-0.2,0.6-0.5,0.9-0.7
		c0.3-0.2,0.4-0.2,0.7,0.1c0.4,0.4,0.5,0.7,0.1,1.1c-0.3,0.3-0.6,0.6-0.9,0.9c-0.3,0.3-0.3,0.5,0,0.8c0.5,0.4,0.9,1,1.4,1.1
		c0.5,0.1,0.8-0.7,1.2-1.1c0.4-0.4,0.6-0.4,1-0.1c0.5,0.4,0.2,0.6,0,0.9c-0.3,0.4-0.5,0.8-0.8,1.2c-0.3,0.3-0.2,0.5,0.1,0.7
		c1.7,1.2,1.7,1.2,2.8-0.5c0,0,0.1-0.1,0.1-0.1c0.3-0.7,0.7-0.2,1.1-0.1c0.5,0.2,0.5,0.4,0.3,0.8c-0.2,0.5-0.4,1-0.5,1.4
		c-0.1,0.3,0,0.5,0.3,0.6c1.8,0.9,1.9,0.9,2.6-1c0-0.1,0-0.1,0.1-0.2c0.1-0.6,0.4-0.7,1-0.5c0.6,0.2,0.4,0.5,0.3,0.9
		c-0.4,1.8-0.4,1.8,1.4,2.1c0.1,0,0.2,0,0.2,0c0.5,0.1,0.7,0,0.7-0.5c0-0.6,0.2-1.1,0.3-1.7c0-0.2,0.1-0.4,0.4-0.4
		c1.4-0.2,1.6,0,1.6,1.3c0,0.2,0,0.3,0,0.5c0,0.6,0.2,0.8,0.8,0.7c2.1-0.2,1.8,0.3,1.6-1.9c0-0.5-0.1-0.9,0.6-1
		c0.7-0.1,0.9,0.1,1,0.7c0,0.2,0.2,0.5,0.2,0.7c0.1,0.7,0.4,0.8,1,0.6c1.6-0.5,1.7-0.5,1.1-2.1c-0.2-0.7,0-0.9,0.6-1.1
		c0.7-0.3,0.7,0.2,0.9,0.5c0.1,0.2,0.3,0.4,0.3,0.6c0.2,0.7,0.6,0.6,1.1,0.3c1.5-0.9,1.5-0.9,0.7-2.3c-0.3-0.6-0.1-0.8,0.3-1.1
		c0.4-0.4,0.7-0.2,1,0.2c0.1,0.2,0.4,0.3,0.5,0.5c0.4,0.7,0.8,0.6,1.4,0.1c1.1-1,1.1-1,0.2-2.2c-0.1-0.1-0.2-0.2-0.3-0.3
		c-0.3-0.3-0.2-0.4,0-0.7c0.4-0.7,0.8-0.7,1.4-0.1c0.2,0.2,0.5,0.4,0.8,0.6c0.3,0.2,0.5,0.2,0.7-0.1c1.2-1.5,1.2-1.5-0.2-2.7
		c0,0-0.1-0.1-0.1-0.1c-0.3-0.2-0.3-0.4-0.2-0.7c0.3-0.8,0.7-0.4,1.2-0.2c1.2,0.7,1.2,0.7,1.8-0.5c0.6-1.1,0.6-1.1-0.5-1.6
		c-0.3-0.1-0.5-0.3-0.8-0.4c-0.7-0.3-0.2-0.7-0.1-1.1c0.1-0.5,0.3-0.4,0.7-0.3c1.9,0.4,1.9,0.4,2.3-1.5c0.1-0.5,0-0.6-0.5-0.7
		c-0.4-0.1-0.9-0.2-1.3-0.3c-0.5-0.1-0.5-0.3-0.5-0.8c0-0.5,0.2-0.6,0.7-0.6c0.3,0,0.5,0,0.8,0c0.7,0.1,0.9-0.1,0.9-0.9
		c-0.1-1.6,0-1.6-1.6-1.6c-0.4,0-0.8,0-0.8-0.6c0-0.6,0.3-0.7,0.7-0.7c0.3,0,0.6-0.1,0.9-0.1c0.7,0,0.8-0.3,0.7-0.9
		c-0.4-1.7-0.4-1.7-2.1-1.4c-0.4,0.1-0.7,0.1-0.9-0.4c-0.2-0.5-0.2-0.9,0.4-1.1c0.3-0.1,0.5-0.2,0.7-0.4c0.9-0.6,1-0.3,0.4-1.4
		c-0.7-1.3-0.7-1.3-2.1-0.6c-0.3,0.2-0.6,0.5-1-0.1c-0.3-0.5-0.3-0.8,0.2-1.1c0.3-0.2,0.5-0.4,0.8-0.6c0.5-0.3,0.5-0.6,0.1-1
		c-1.1-1.4-1.1-1.5-2.5-0.3c-0.3,0.2-0.5,0.4-0.8,0c-0.3-0.4-0.5-0.6,0-1c0.2-0.2,0.4-0.4,0.6-0.6c0.6-0.4,0.4-0.8-0.1-1.2
		c-1.2-1.1-1.2-1.1-2.4,0.1c-0.4,0.4-0.6,0.5-1.1,0.1c-0.5-0.4-0.4-0.6-0.1-1c0.1-0.1,0.2-0.3,0.3-0.5c0.6-0.6,0.4-1-0.3-1.4
		c-1.3-0.8-1.3-0.8-2.1,0.5c-0.3,0.5-0.6,0.6-1.1,0.4c-0.6-0.3-0.4-0.6-0.3-1c0.1-0.2,0.1-0.4,0.2-0.5c0.4-0.7,0.2-1-0.6-1.3
		c-1.5-0.4-1.5-0.5-1.9,1c-0.2,0.8-0.6,0.8-1.2,0.6C42,21,42.4,20.4,42.4,20c0-1.2,0.1-1.2-1.1-1.3c0,0-0.1,0-0.1,0
		c-1.2-0.1-1.2-0.1-1.3,1.1c-0.1,1.1-0.1,1.1-1.2,1.1c-0.6,0-1-0.1-0.9-0.8c0-0.3-0.1-0.5-0.1-0.8c0-0.6-0.2-0.7-0.8-0.7
		c-1.8,0.2-1.8,0.2-1.6,1.9c0,0.5-0.1,0.7-0.6,0.9c-0.6,0.1-0.6-0.2-0.7-0.5c-0.1-0.4-0.3-0.8-0.4-1.1c-0.1-0.2-0.1-0.4-0.3-0.4
		c-0.7,0.2-1.5,0.3-2,0.7c-0.4,0.3,0.2,0.8,0.2,1.3c0,0.2,0.1,0.5,0.2,0.7c0.1,0.3,0,0.4-0.2,0.5c-0.8,0.5-0.9,0.5-1.3-0.3
		c-0.1-0.3-0.3-0.5-0.4-0.8c-0.2-0.4-0.4-0.5-0.8-0.3c-1.7,0.9-1.8,0.9-0.9,2.6c0,0,0,0,0,0.1c0.3,0.4,0.2,0.6-0.2,0.9
		c-0.4,0.3-0.6,0.1-0.9-0.1c-0.3-0.3-0.5-0.5-0.8-0.8c-0.3-0.4-0.6-0.5-1,0C24.1,25,24,25,25.2,26.3c0.5,0.5,0.3,0.7,0,1.1
		c-0.4,0.5-0.6,0.1-0.9-0.1c-0.3-0.2-0.6-0.5-0.9-0.7c-0.2-0.2-0.4-0.2-0.7,0c-1.4,1.4-1.4,1.5,0.1,2.8c0,0,0,0,0.1,0.1
		c0.5,0.3,0.4,0.6,0.2,1c-0.3,0.5-0.6,0.3-0.9,0.2c-0.4-0.2-0.8-0.4-1.2-0.5c-1.1-0.4-0.8,0.7-1.1,1.2c-0.2,0.3-0.7,0.9,0.2,1.2
		c0.5,0.2,1,0.5,1.5,0.6c0.4,0.1,0.4,0.4,0.3,0.7c-0.1,0.3-0.3,0.4-0.6,0.3c-0.5-0.1-0.9-0.2-1.4-0.3c-0.4-0.1-0.6-0.1-0.7,0.4
		c-0.5,1.9-0.6,1.9,1.3,2.4c0.5,0.1,0.8,0.2,0.7,0.8c0,0.7-0.4,0.6-0.8,0.7c-0.4,0-0.8,0-1.2,0c-0.5,0-0.7,0.1-0.6,0.6
		c0,0.2,0,0.4,0,0.6C18.4,40.4,18.4,40.4,19.6,40.4z"/>
	<path class="st2" d="M31.2,66.7c0,0,0,0.1,0,0.1c-0.1,0-0.2,0.1-0.3,0.1c-0.9,0.2-1.3,0.7-1.2,1.3c0.1,0.6,0.7,1.1,1.5,1.1
		c0.6,0,0.9-0.2,1-0.8c0.1-0.4,0.3-0.3,0.5-0.1c0.6,0.5,0.5,1.3-0.3,1.6c-0.8,0.4-2,0.1-2.7-0.7c-0.8-0.9-1-2-1.1-3.2
		c0-0.4,0.3-0.4,0.5-0.3C29.8,66.2,30.5,66.5,31.2,66.7z"/>
	<path class="st2" d="M13,58.1c0-0.1,0.1-0.1,0.1-0.2c0.4,0.1,0.8,0.4,1.2,0.3c0.3-0.1,0.5,0,0.5,0.3c0,0.4-0.3,0.5-0.6,0.5
		C13.7,58.8,13.3,58.5,13,58.1z"/>
	<path class="st2" d="M15.9,56c0.3,0.3,0.5,0.6,0.7,0.9c0.2,0.2,0.2,0.5,0,0.6c-0.3,0.2-0.5,0-0.6-0.2C15.7,56.9,15.7,56.5,15.9,56z
		"/>
	<path class="st3" d="M24.4,64c0.2,0.1,0.3,0.2,0.2,0.4c-0.1,0.2-0.2,0.1-0.3,0.1c-0.8,0.1-1.1-0.2-1-1c0.2-0.1,0.4,0,0.6,0.2
		c-0.2,0-0.4,0.1-0.4,0.3c0,0.1,0.1,0.2,0.2,0.3C24.1,64.4,24.3,64.2,24.4,64z"/>
	<path class="st2" d="M24.4,64c-0.2,0.3-0.4,0.4-0.7,0.3c-0.1-0.1-0.2-0.1-0.2-0.3c0-0.2,0.2-0.3,0.4-0.3
		C24.1,63.7,24.3,63.8,24.4,64z"/>
	<path class="st2" d="M60.7,18.1c-0.1-0.4,0.1-0.5,0.3-0.4c0.4,0.1,0.8,0.3,1.2,0.4c0.2,0.1,0.2,0.3,0,0.4c-0.3,0.3-0.7,0.7-1.1,1
		c-0.1,0.1-0.3,0.2-0.3-0.1C60.7,19,60.7,18.5,60.7,18.1z"/>
	<path class="st2" d="M67.5,22.7c-0.2,0.4-0.6,0.6-0.9,0.7c-0.4,0.1-0.2-0.3-0.2-0.5c-0.1-0.2,0-0.5-0.3-0.7c-0.6-0.4,0.1-0.7,0.1-1
		c0-0.1,0.1-0.1,0.2,0C66.7,21.6,67.1,22.1,67.5,22.7z"/>
	<path class="st2" d="M54.5,11.7c-0.6,0-0.5-0.5-0.6-0.8c-0.1-0.3,0.1-0.3,0.3-0.3c0.4,0.1,1,0.2,1.1,0.7
		C55.3,11.7,54.7,11.6,54.5,11.7z"/>
	<path class="st2" d="M59.8,12.4c0,0.3-0.2,0.2-0.3,0.1c-0.4-0.3-0.8-0.6-1.2-0.9c-0.2-0.1-0.2-0.3-0.1-0.5c0.2-0.2,0.3,0,0.4,0.1
		C59.1,11.6,59.6,11.8,59.8,12.4z"/>
	<path class="st2" d="M59.1,60.7c0.1-0.4,0.1-0.9,0.5-1.2c0.4-0.2,0.8-0.1,1.1,0.2c0,0,0.1,0,0.1,0.1c0.2,0.2,0,0.4-0.1,0.5
		c-0.4,0.4-0.7,1.1-1.4,1.1C59.2,61.4,59.1,61,59.1,60.7z"/>
	<path class="st2" d="M41.6,71.7c0,0.4-0.3,0.6-0.8,0.6c-0.3,0-0.5-0.1-0.5-0.4c0-0.5,0.3-0.7,0.7-0.8
		C41.4,71.1,41.6,71.3,41.6,71.7z"/>
	<path class="st2" d="M41.4,68.5c-0.1,0.4-0.4,0.5-0.8,0.6c-0.2,0-0.4,0-0.4-0.3c0-0.4,0.3-0.6,0.7-0.7C41.2,68,41.4,68.2,41.4,68.5
		z"/>
	<path class="st1" d="M19.6,40.4c-1.3,0-1.3,0-1.3-1.2c0-0.2,0-0.4,0-0.6c-0.1-0.5,0.2-0.7,0.6-0.6c0.4,0,0.8,0,1.2,0
		c0.4,0,0.8,0,0.8-0.7c0-0.6-0.3-0.7-0.7-0.8C18.4,36,18.4,36,19,34.1c0.1-0.5,0.3-0.5,0.7-0.4c0.5,0.2,0.9,0.2,1.4,0.3
		c0.3,0.1,0.5,0,0.6-0.3c0.1-0.3,0.1-0.5-0.3-0.7c-0.5-0.2-1-0.5-1.5-0.6c-0.9-0.3-0.4-0.9-0.2-1.2c0.3-0.4,0-1.6,1.1-1.2
		c0.4,0.2,0.8,0.4,1.2,0.5c0.4,0.2,0.6,0.3,0.9-0.2c0.2-0.4,0.3-0.7-0.2-1c0,0,0,0-0.1-0.1c-1.5-1.2-1.5-1.4-0.1-2.8
		c0.3-0.3,0.4-0.2,0.7,0c0.3,0.2,0.6,0.5,0.9,0.7c0.3,0.2,0.5,0.6,0.9,0.1c0.3-0.4,0.5-0.6,0-1.1C24,25,24.1,25,25.3,23.7
		c0.4-0.4,0.7-0.4,1,0c0.2,0.3,0.5,0.5,0.8,0.8c0.3,0.3,0.5,0.4,0.9,0.1c0.4-0.3,0.5-0.5,0.2-0.9c0,0,0,0,0-0.1
		C27.2,22,27.2,22,29,21.2c0.4-0.2,0.6-0.1,0.8,0.3c0.1,0.3,0.3,0.5,0.4,0.8c0.4,0.8,0.6,0.8,1.3,0.3c0.2-0.1,0.3-0.3,0.2-0.5
		c-0.1-0.2-0.2-0.4-0.2-0.7c0-0.5-0.6-1-0.2-1.3c0.5-0.5,1.3-0.6,2-0.7c0.2-0.1,0.3,0.2,0.3,0.4c0.1,0.4,0.3,0.8,0.4,1.1
		c0.1,0.4,0.2,0.7,0.7,0.5c0.5-0.1,0.7-0.3,0.6-0.9c-0.2-1.8-0.1-1.7,1.6-1.9c0.6-0.1,0.8,0.1,0.8,0.7c0,0.3,0.1,0.5,0.1,0.8
		c0,0.7,0.3,0.8,0.9,0.8c1.1-0.1,1.1,0,1.2-1.1c0.1-1.2,0.1-1.2,1.3-1.1c0,0,0.1,0,0.1,0c1.2,0.1,1.2,0.1,1.1,1.3
		c0,0.4-0.4,1,0.3,1.2c0.6,0.2,1,0.2,1.2-0.6c0.4-1.4,0.4-1.4,1.9-1c0.8,0.2,1,0.6,0.6,1.3c-0.1,0.2-0.1,0.4-0.2,0.5
		c-0.2,0.4-0.3,0.7,0.3,1c0.6,0.3,0.8,0.1,1.1-0.4c0.8-1.4,0.8-1.3,2.1-0.5c0.7,0.4,0.9,0.7,0.3,1.4c-0.1,0.1-0.2,0.3-0.3,0.5
		c-0.3,0.4-0.4,0.7,0.1,1c0.5,0.4,0.7,0.3,1.1-0.1c1.1-1.2,1.1-1.1,2.4-0.1c0.5,0.4,0.6,0.7,0.1,1.2c-0.2,0.2-0.4,0.4-0.6,0.6
		c-0.5,0.4-0.3,0.6,0,1c0.3,0.4,0.5,0.3,0.8,0c1.4-1.1,1.4-1.1,2.5,0.3c0.4,0.5,0.3,0.7-0.1,1c-0.3,0.2-0.5,0.5-0.8,0.6
		c-0.5,0.3-0.5,0.6-0.2,1.1c0.4,0.6,0.6,0.2,1,0.1c1.4-0.7,1.4-0.7,2.1,0.6c0.6,1.1,0.5,0.8-0.4,1.4c-0.2,0.1-0.5,0.3-0.7,0.4
		c-0.6,0.2-0.6,0.5-0.4,1.1c0.2,0.6,0.5,0.5,0.9,0.4c1.7-0.3,1.7-0.3,2.1,1.4c0.1,0.6,0,0.9-0.7,0.9c-0.3,0-0.6,0.1-0.9,0.1
		c-0.4,0.1-0.7,0.1-0.7,0.7c0,0.6,0.4,0.6,0.8,0.6c1.6,0,1.6,0,1.6,1.6c0,0.7-0.2,1-0.9,0.9c-0.3,0-0.5,0-0.8,0
		c-0.5-0.1-0.7,0.1-0.7,0.6c0,0.4,0,0.7,0.5,0.8c0.4,0.1,0.9,0.2,1.3,0.3c0.4,0.1,0.6,0.2,0.5,0.7c-0.4,1.9-0.4,1.9-2.3,1.5
		c-0.3-0.1-0.6-0.1-0.7,0.3c0,0.4-0.5,0.8,0.1,1.1c0.3,0.1,0.5,0.3,0.8,0.4c1,0.6,1,0.6,0.5,1.6c-0.6,1.2-0.6,1.2-1.8,0.5
		c-0.4-0.2-0.8-0.7-1.2,0.2c-0.1,0.3-0.2,0.5,0.2,0.7c0,0,0.1,0.1,0.1,0.1c1.5,1.2,1.5,1.2,0.2,2.7c-0.2,0.3-0.4,0.3-0.7,0.1
		c-0.2-0.2-0.5-0.4-0.8-0.6c-0.5-0.5-0.9-0.5-1.4,0.1c-0.2,0.3-0.3,0.5,0,0.7c0.1,0.1,0.2,0.2,0.3,0.3c1,1.2,0.9,1.1-0.2,2.2
		c-0.5,0.5-0.9,0.6-1.4-0.1c-0.1-0.2-0.3-0.3-0.5-0.5c-0.3-0.4-0.5-0.6-1-0.2c-0.4,0.3-0.6,0.5-0.3,1.1c0.9,1.5,0.8,1.5-0.7,2.3
		c-0.5,0.3-0.9,0.4-1.1-0.3c-0.1-0.2-0.2-0.4-0.3-0.6c-0.2-0.3-0.2-0.9-0.9-0.5c-0.5,0.3-0.8,0.5-0.6,1.1c0.5,1.6,0.5,1.6-1.1,2.1
		c-0.6,0.2-0.9,0.1-1-0.6c0-0.2-0.1-0.5-0.2-0.7c-0.1-0.6-0.3-0.8-1-0.7c-0.7,0.1-0.6,0.5-0.6,1c0.1,2.2,0.5,1.7-1.6,1.9
		c-0.6,0.1-0.8-0.2-0.8-0.7c0-0.2,0-0.3,0-0.5c-0.1-1.4-0.2-1.5-1.6-1.3c-0.3,0-0.3,0.2-0.4,0.4c-0.1,0.6-0.2,1.1-0.3,1.7
		c0,0.5-0.3,0.6-0.7,0.5c-0.1,0-0.2,0-0.2,0c-1.8-0.3-1.8-0.3-1.4-2.1c0.1-0.4,0.3-0.7-0.3-0.9c-0.5-0.2-0.9-0.1-1,0.5
		c0,0.1,0,0.1-0.1,0.2c-0.7,1.8-0.8,1.9-2.6,1c-0.3-0.2-0.4-0.3-0.3-0.6c0.2-0.5,0.3-1,0.5-1.4c0.2-0.4,0.2-0.7-0.3-0.8
		c-0.4-0.1-0.8-0.6-1.1,0.1c0,0-0.1,0.1-0.1,0.1c-1.1,1.7-1.1,1.7-2.8,0.5c-0.3-0.2-0.4-0.4-0.1-0.7c0.3-0.4,0.5-0.8,0.8-1.2
		c0.2-0.3,0.5-0.6,0-0.9c-0.4-0.3-0.7-0.3-1,0.1c-0.4,0.4-0.7,1.2-1.2,1.1c-0.5-0.1-0.9-0.7-1.4-1.1c-0.4-0.3-0.4-0.5,0-0.8
		c0.3-0.3,0.6-0.7,0.9-0.9c0.5-0.4,0.3-0.7-0.1-1.1c-0.2-0.2-0.4-0.3-0.7-0.1c-0.3,0.3-0.6,0.5-0.9,0.7c-0.2,0.1-0.3,0.4-0.5,0.4
		c-0.9,0-0.9-1-1.4-1.4c-0.3-0.2-0.3-0.5,0-0.7c0.4-0.3,0.8-0.6,1.2-0.9c0.3-0.2,0.7-0.3,0.4-0.9c-0.3-0.6-0.6-0.3-1-0.1
		c-0.4,0.2-0.9,0.4-1.3,0.6c-0.3,0.2-0.5,0.1-0.7-0.3c-0.9-1.8-0.9-1.8,1-2.6c0.4-0.2,0.8-0.2,0.6-0.8c-0.2-0.4-0.3-0.6-0.7-0.4
		c0,0-0.1,0-0.2,0c-1.9,0.4-1.9,0.4-2.3-1.5c-0.1-0.5,0.1-0.6,0.5-0.7c0.5-0.1,1-0.3,1.5-0.4c0.3-0.1,0.5-0.2,0.5-0.6
		C20.9,40.3,21,40.3,19.6,40.4z M39.1,56.3c9.1,0.2,17.1-7.5,17.2-16.6C56.5,30.1,49,22.2,39.6,22c-9.4-0.2-17.4,7.2-17.6,16.8
		C21.8,48.2,29.3,56.3,39.1,56.3z"/>
	<path class="st3" d="M39.1,56.3c-9.7,0-17.3-8.1-17.1-17.5c0.2-9.6,8.2-17,17.6-16.8c9.4,0.2,16.9,8.1,16.7,17.7
		C56.1,48.8,48.2,56.5,39.1,56.3z M26.4,36c0,0.1,0,0.1,0.1,0.2c0.5,0,1,0,1.5,0c0.7,0,1.4,0,2.2,0c0.3,0,0.5,0.1,0.6,0.5
		c0.6,3.4,1.8,6.6,3.2,9.8c0.3,0.8,0.3,0.9-0.5,0.9c-0.6,0-0.8,0.1-0.8,0.7c0,0.7,0.2,0.9,0.8,0.8c0.5-0.1,1,0,1.5,0
		c0.5,0,0.8,0.1,1.1,0.5c0.7,0.9,1.4,1.9,2.3,2.7c0.4,0.4,0.7,0.4,1,0c0.5-0.6,1.1-1.1,1.5-1.8c0.8-1.2,1.7-1.9,3.2-1.6
		c0.3,0.1,0.7,0,0.6-0.5c-0.1-0.4,0.3-1-0.5-1.1c-0.6-0.1-0.7-0.3-0.5-0.8c1.3-3.2,2.3-6.4,3.1-9.8c0.1-0.5,0.4-0.7,0.9-0.7
		c0.8,0,1.6,0,2.4,0c-0.2-0.3-0.3-0.4-0.5-0.5c-2.4-1.4-4.8-3-7.3-4.3c-1.3-0.7-1.9-1.5-1.7-3c0.2-1.7,0-1.8-1.8-1.7
		c-0.8,0-1.7-0.3-2.3,0.1c-0.5,0.5-0.2,1.5-0.2,2.3c0,0.6-0.2,1-0.8,1.3c-2.3,1.5-4.7,2.9-7,4.4C27.8,35.1,27.1,35.6,26.4,36z"/>
	<path class="st4" d="M26.4,36c0.7-0.5,1.4-0.9,2.1-1.4c2.3-1.5,4.6-3,7-4.4c0.5-0.3,0.8-0.7,0.8-1.3c0-0.8-0.3-1.8,0.2-2.3
		c0.5-0.5,1.5-0.1,2.3-0.1c1.8,0,1.9,0,1.8,1.7c-0.1,1.5,0.4,2.3,1.7,3c2.5,1.3,4.9,2.9,7.3,4.3c0.2,0.1,0.3,0.2,0.5,0.5
		c-0.8,0-1.6,0-2.4,0c-0.5,0-0.8,0.2-0.9,0.7C46,40,45,43.3,43.7,46.5c-0.2,0.5-0.2,0.8,0.5,0.8c0.7,0.1,0.4,0.7,0.5,1.1
		c0.1,0.5-0.3,0.6-0.6,0.5c-1.5-0.3-2.4,0.4-3.2,1.6c-0.4,0.6-1,1.2-1.5,1.8c-0.3,0.4-0.6,0.4-1,0c-0.8-0.8-1.5-1.8-2.3-2.7
		c-0.3-0.4-0.6-0.5-1.1-0.5c-0.5,0-1,0-1.5,0c-0.7,0.1-0.8-0.2-0.8-0.8c0-0.6,0.2-0.8,0.8-0.7c0.9,0,0.9,0,0.5-0.9
		c-1.4-3.2-2.6-6.4-3.2-9.8c-0.1-0.4-0.2-0.5-0.6-0.5c-0.7,0-1.4,0-2.2,0c-0.5,0-1,0-1.5,0C26.4,36.2,26.4,36.1,26.4,36z M37.8,41.8
		C37.8,41.8,37.9,41.8,37.8,41.8c0-1.6,0-3.2,0.1-4.7c0-0.7-0.2-0.9-0.9-0.8c-1.3,0-2.6,0-3.9,0c-1.1,0-1.1,0-0.9,1.1
		c0.6,3.1,1.8,6,3,8.9c0.4,0.9,0.9,1.3,1.8,1.2c0.7-0.1,0.8-0.3,0.8-0.9C37.8,45.1,37.8,43.5,37.8,41.8z M39.9,41.6
		C39.9,41.6,40,41.6,39.9,41.6c0.1,1.7,0.1,3.3,0.1,5c0,0.3-0.1,0.6,0.2,0.7c0.6,0.3,1.8-0.1,2.1-0.7c1.6-3.2,2.4-6.6,3.3-9.9
		c0.1-0.4,0-0.6-0.5-0.6c-1.6,0-3.1,0-4.7,0c-0.5,0-0.7,0.2-0.7,0.7C39.9,38.4,39.9,40,39.9,41.6z M37.7,49.3c0-0.3,0-0.6-0.4-0.5
		c-0.2,0-0.4,0-0.4,0.3c0.1,0.3,0.3,0.5,0.6,0.6C37.8,49.7,37.7,49.4,37.7,49.3z M39.9,49.1c0.1,0.2-0.1,0.5,0.2,0.5
		c0.3,0,0.4-0.4,0.5-0.6c0-0.2-0.1-0.2-0.3-0.3C40,48.7,39.9,48.8,39.9,49.1z"/>
	<path class="st3" d="M37.8,41.8c0,1.6,0,3.2,0,4.8c0,0.6-0.1,0.8-0.8,0.9c-1,0.1-1.5-0.3-1.8-1.2c-1.2-2.9-2.4-5.8-3-8.9
		c-0.2-1.1-0.2-1.1,0.9-1.1c1.3,0,2.6,0,3.9,0c0.6,0,0.9,0.1,0.9,0.8C37.8,38.7,37.9,40.3,37.8,41.8C37.9,41.8,37.8,41.8,37.8,41.8z
		"/>
	<path class="st3" d="M39.9,41.6c0-1.6,0-3.2,0-4.8c0-0.5,0.1-0.7,0.7-0.7c1.6,0,3.1,0,4.7,0c0.5,0,0.6,0.2,0.5,0.6
		c-1,3.4-1.8,6.8-3.3,9.9c-0.3,0.6-1.6,1-2.1,0.7c-0.3-0.2-0.2-0.5-0.2-0.7C40,44.9,40,43.3,39.9,41.6C40,41.6,39.9,41.6,39.9,41.6z
		"/>
	<path class="st3" d="M37.7,49.3c0,0.1,0.1,0.4-0.2,0.3c-0.3-0.1-0.5-0.3-0.6-0.6c-0.1-0.3,0.2-0.2,0.4-0.3
		C37.7,48.7,37.7,49,37.7,49.3z"/>
	<path class="st3" d="M39.9,49.1c0-0.3,0.1-0.4,0.4-0.4c0.2,0,0.4,0,0.3,0.3c-0.1,0.3-0.2,0.6-0.5,0.6C39.8,49.7,40,49.3,39.9,49.1z
		"/>
</g>
</svg>
