<?xml version="1.0" encoding="utf-8"?>
<!-- Generator: Adobe Illustrator 24.0.0, SVG Export Plug-In . SVG Version: 6.00 Build 0)  -->
<svg version="1.1" id="Layer_1" xmlns="http://www.w3.org/2000/svg" xmlns:xlink="http://www.w3.org/1999/xlink" x="0px" y="0px"
	 viewBox="0 0 392.45 73.92" style="enable-background:new 0 0 392.45 73.92;" xml:space="preserve">
<style type="text/css">
	.st0{fill:#009849;}
	.st1{fill:#EB1D25;}
	.st2{fill:none;stroke:#F9EC25;stroke-width:2.0623;stroke-miterlimit:10;}
	.st3{fill:#F9EC25;}
	.st4{fill:#07A64D;}
	.st5{fill:#047545;}
	.st6{fill:#057746;}
	.st7{fill:#077647;}
	.st8{fill:#F80707;}
	.st9{fill:#15879F;}
	.st10{fill:#A11F5F;}
	.st11{fill:#E5322D;}
	.st12{fill:#E55C25;}
	.st13{fill:#F2AF1C;}
	.st14{fill:#039047;}
	.st15{fill:#E5E319;}
	.st16{fill:#E28425;}
	.st17{fill:#D34B27;}
	.st18{fill:#CA2034;}
	.st19{fill:#D11D57;}
	.st20{fill:#482F7E;}
	.st21{fill:#18B1D0;}
	.st22{fill:#104C6E;}
	.st23{fill:#CB1E59;}
	.st24{fill:#F2D113;}
	.st25{fill:#69BC46;}
	.st26{fill:#F3B01B;}
	.st27{fill:#E75248;}
	.st28{fill:#6B2C85;}
	.st29{fill:#038B9A;}
	.st30{fill:#196382;}
	.st31{fill:#D43C6A;}
	.st32{fill:#EB774F;}
	.st33{fill:#D21B65;}
	.st34{fill:#221F1F;}
	.st35{fill:#1687C8;}
</style>
<g>
	<g>
		<g>
			<g>
				<g>
					<path class="st0" d="M196.59,61.97c-6.75,0-13.09-2.63-17.86-7.4c-4.77-4.77-7.4-11.11-7.4-17.86c0-6.75,2.63-13.09,7.4-17.86
						c4.77-4.77,11.11-7.4,17.86-7.4c6.75,0,13.09,2.63,17.86,7.4c4.77,4.77,7.4,11.11,7.4,17.86s-2.63,13.09-7.4,17.86
						C209.68,59.35,203.34,61.97,196.59,61.97z M196.59,11.99c-13.64,0-24.73,11.09-24.73,24.73c0,13.64,11.09,24.73,24.73,24.73
						c13.64,0,24.73-11.09,24.73-24.73C221.32,23.08,210.23,11.99,196.59,11.99z"/>
				</g>
			</g>
			<g>
				<circle class="st1" cx="196.59" cy="36.72" r="16.77"/>
			</g>
			<g>
				<path class="st2" d="M183.61,52.71"/>
			</g>
			<g>
				<g>
					<path class="st0" d="M190.68,55.5l-0.63-0.58c-2.04-0.73-3.96-1.82-5.64-3.19l0.38,0.68c0.03,0.04,0.06,0.08,0.1,0.12
						c0.07,0.18,0.18,0.33,0.3,0.45c0.04,0.03,0.1,0.09,0.19,0.16c0.09,0.07,0.21,0.15,0.36,0.25c0.11,0.08,0.21,0.15,0.29,0.23
						c0.08,0.08,0.14,0.15,0.19,0.22c0.09,0.15,0.11,0.3,0.07,0.45c-0.31-0.01-0.56-0.02-0.73-0.04c-0.18-0.02-0.28-0.05-0.32-0.08
						c-0.08-0.05-0.15-0.16-0.2-0.31c-0.02-0.09-0.02-0.18,0.01-0.27l-0.66-0.16c0.08,0.26,0.16,0.48,0.25,0.65
						c0.08,0.17,0.17,0.29,0.26,0.36c0.07,0.09,0.22,0.2,0.44,0.34c0.09,0.06,0.16,0.1,0.21,0.12c0.1,0.05,0.27,0.08,0.51,0.1
						c0.12,0.01,0.26,0.02,0.42,0.01c0.16,0,0.34-0.01,0.53-0.02c0.18-0.01,0.36,0.02,0.53,0.1c0.12,0.06,0.24,0.15,0.35,0.26
						c0.12,0.12,0.18,0.2,0.19,0.26l-0.47,1.04c0.21,0.23,0.43,0.48,0.65,0.71l0.97-2.41c0.24,0.09,0.48,0.19,0.72,0.28L190.68,55.5
						z M188.23,55.29c-0.15-0.18-0.27-0.34-0.4-0.47c-0.13-0.12-0.25-0.21-0.36-0.27c-0.07-0.04-0.28-0.1-0.63-0.17l0,0
						c0.1-0.18,0.02-0.4-0.22-0.68l0.23,0.14c0.08,0.05,0.16,0.09,0.23,0.13l0.47,0.25c0.16,0.08,0.32,0.16,0.48,0.24
						c0.16,0.08,0.32,0.16,0.48,0.23L188.23,55.29z"/>
				</g>
				<g>
					<path class="st0" d="M195.42,56.37c-0.26-0.14-0.52-0.26-0.77-0.41c-0.93-0.09-1.84-0.25-2.74-0.48
						c-0.9-0.23-1.79-0.51-2.65-0.86l0.62,0.61c1.06,0.39,2.16,0.68,3.28,0.88l-0.01,0.08c-1.12-0.04-2.29-0.08-3.56-0.16
						c0.22,0.25,0.45,0.5,0.68,0.75c0.26,0.08,0.5,0.17,0.74,0.28c0.12,0.05,0.23,0.1,0.35,0.15c0.11,0.05,0.23,0.1,0.34,0.16
						c0.09,0.05,0.18,0.09,0.26,0.14c0.08,0.05,0.16,0.09,0.24,0.14c0.15,0.09,0.28,0.19,0.39,0.29c0.02,0.02,0.07,0.07,0.17,0.17
						c0.1,0.1,0.23,0.23,0.42,0.41l0.44,0.24l0.34-2.53c0.25,0.03,0.49,0.05,0.74,0.08c0.06,0.01,0.12,0.01,0.18,0.02l0.19,0.01
						L195.42,56.37z M191.73,58.04c0.16-0.04,0.22-0.12,0.19-0.21c-0.03-0.07-0.11-0.15-0.24-0.23c-0.13-0.08-0.28-0.14-0.45-0.18
						c-0.19-0.04-0.36-0.07-0.51-0.05c-0.15,0.02-0.24,0.06-0.26,0.14c-0.02,0.08,0.03,0.17,0.16,0.27c0.07,0.05,0.14,0.1,0.23,0.14
						c0.09,0.04,0.19,0.07,0.3,0.1C191.39,58.07,191.58,58.08,191.73,58.04z M192.87,57.73c-0.2-0.19-0.45-0.37-0.75-0.54
						c-0.15-0.09-0.31-0.19-0.48-0.28c-0.09-0.05-0.18-0.09-0.27-0.14c-0.05-0.02-0.09-0.04-0.14-0.07
						c-0.05-0.02-0.1-0.05-0.14-0.07c0.17,0,0.33-0.01,0.5-0.01c0.17,0,0.33,0,0.49,0c0.33,0,0.66,0,0.98,0.02L192.87,57.73z"/>
				</g>
				<g>
					<path class="st0" d="M199.84,57.11c-0.12,0.02-0.25,0.05-0.4,0.09c-0.25,0.13-0.37,0.24-0.35,0.35
						c0.01,0.1,0.11,0.17,0.31,0.21c0.19,0.04,0.41,0.05,0.65,0.01c0.33-0.06,0.59-0.16,0.78-0.31c0.17-0.14,0.24-0.28,0.21-0.41
						c-0.01-0.06-0.05-0.13-0.1-0.2c-0.15-0.17-0.44-0.31-0.86-0.4c-0.22-0.04-0.45-0.08-0.68-0.09c-0.11-0.01-0.23-0.01-0.34,0
						c-0.12,0-0.23,0.01-0.35,0.02l-0.01-0.08c1.06-0.11,2.11-0.31,3.13-0.59c-0.28-0.04-0.56-0.08-0.83-0.14
						c-1.18,0.27-2.38,0.44-3.58,0.49c-1.21,0.05-2.42-0.01-3.61-0.19c0.24,0.16,0.49,0.29,0.74,0.44c1.12,0.12,2.25,0.14,3.38,0.06
						l0.01,0.11c-1.18,0.24-2.27,0.46-3.3,0.72c0.15,0.1,0.29,0.18,0.44,0.27l0.45,0.27c0.13,0.02,0.26,0.03,0.39,0.04
						c0.13,0.01,0.25,0.03,0.38,0.05c0.12,0.02,0.24,0.04,0.36,0.06c0.12,0.02,0.24,0.04,0.35,0.07c0.2,0.05,0.44,0.14,0.72,0.25
						c0.22,0.09,0.38,0.16,0.48,0.23c0.04,0.03,0.14,0.13,0.29,0.27l0.49,0.13l-0.21-2.02c0.1-0.01,0.21-0.02,0.3-0.02
						c0.1,0,0.19-0.01,0.29,0c0.19,0.01,0.36,0.03,0.53,0.08c0.26,0.06,0.41,0.14,0.46,0.24C200.19,57.07,200.03,57.09,199.84,57.11
						z M198.02,57.94c-0.11-0.06-0.24-0.12-0.37-0.17c-0.07-0.03-0.13-0.05-0.21-0.08c-0.07-0.03-0.14-0.05-0.22-0.08
						c-0.3-0.1-0.64-0.18-1.01-0.26c0.19-0.05,0.33-0.09,0.43-0.12c0.1-0.03,0.15-0.05,0.15-0.05c0.16-0.04,0.33-0.09,0.53-0.13
						c0.19-0.04,0.41-0.1,0.64-0.15L198.02,57.94z"/>
				</g>
				<g>
					<path class="st0" d="M200.99,55.55c-0.13,0.02-0.28,0.05-0.47,0.1c-0.19,0.04-0.4,0.08-0.64,0.14l0.41,0.09
						c0.14,0.03,0.28,0.06,0.42,0.09c0.08-0.02,0.14-0.03,0.18-0.04c0.16-0.04,0.31-0.05,0.45-0.05c0.14,0,0.27,0.02,0.4,0.05
						c0.1,0.03,0.17,0.09,0.19,0.19l0.49,1.79c0.31,0.05,0.62,0.07,0.93,0.1l-0.8-2.54c0.25-0.07,0.5-0.17,0.74-0.25
						c0.25-0.08,0.49-0.19,0.73-0.28c-0.29-0.01-0.57-0.02-0.85-0.04l-0.39,0.14c-0.13,0.05-0.26,0.08-0.39,0.13
						c-0.06-0.01-0.1-0.02-0.14-0.03c-0.12-0.1-0.19-0.17-0.22-0.21c-0.15-0.01-0.3-0.02-0.45-0.04c0.07,0.27,0.16,0.5,0.27,0.71
						c-0.11-0.05-0.24-0.07-0.39-0.08c-0.07,0-0.15,0-0.23,0.01C201.16,55.53,201.08,55.54,200.99,55.55z"/>
				</g>
				<g>
					<path class="st0" d="M208.23,52.6c-0.29,0.06-0.57,0.12-0.85,0.18c-1.54,1.04-3.23,1.85-5.01,2.4
						c0.14,0.01,0.29,0.03,0.43,0.04l0.43,0.03c1.07-0.38,2.1-0.86,3.08-1.41l0.04,0.07c-0.89,0.68-1.82,1.4-2.85,2.15
						c0.16,0.03,0.33,0.06,0.5,0.08l0.5,0.07c0.25-0.09,0.5-0.18,0.75-0.26c0.12-0.04,0.25-0.07,0.37-0.1
						c0.12-0.03,0.24-0.07,0.36-0.09c0.4-0.09,0.75-0.14,1.05-0.13c0.02,0,0.1,0.01,0.24,0.02c0.14,0.02,0.33,0.03,0.58,0.05
						c0.16-0.03,0.33-0.06,0.49-0.1L207,53.43l0.62-0.4L208.23,52.6z M206.46,56.23c0.09-0.13,0.1-0.23,0.01-0.28
						c-0.07-0.04-0.18-0.05-0.33-0.03c-0.15,0.02-0.31,0.08-0.46,0.15c-0.18,0.08-0.32,0.18-0.43,0.28c-0.1,0.11-0.14,0.2-0.11,0.27
						c0.03,0.08,0.13,0.11,0.3,0.11c0.17-0.01,0.36-0.05,0.56-0.15C206.21,56.48,206.36,56.36,206.46,56.23z M207.14,55.27
						c-0.27-0.02-0.58,0-0.92,0.06c-0.17,0.02-0.36,0.05-0.55,0.09c-0.1,0.02-0.19,0.04-0.29,0.07c-0.1,0.02-0.21,0.04-0.31,0.07
						c0.51-0.43,1.01-0.85,1.53-1.25L207.14,55.27z"/>
				</g>
			</g>
			<g>
				<g>
					<path class="st0" d="M175.03,33.71c-0.02,0.15-0.03,0.29-0.03,0.42c0.01,0.13,0.03,0.25,0.06,0.37
						c0.05,0.18,0.15,0.35,0.28,0.49c0.14,0.15,0.27,0.22,0.4,0.23c0.19,0.01,0.36-0.11,0.49-0.35c0.03-0.06,0.05-0.12,0.06-0.19
						c0.01-0.09-0.02-0.25-0.08-0.48c-0.05-0.23-0.08-0.37-0.07-0.41c0.01-0.1,0.04-0.15,0.08-0.14c0.06,0.01,0.16,0.16,0.31,0.43
						c0.08,0.15,0.14,0.28,0.2,0.37c0.06,0.1,0.1,0.17,0.12,0.22l0.28-0.28c0.09-0.09,0.19-0.18,0.29-0.27
						c-0.2-0.34-0.37-0.6-0.54-0.77c-0.15-0.17-0.3-0.27-0.43-0.27c-0.18,0-0.34,0.07-0.46,0.22c-0.11,0.15-0.19,0.37-0.23,0.66
						c-0.02,0.11-0.03,0.22-0.02,0.31c-0.18-0.2-0.23-0.5-0.18-0.89c0.01-0.09,0.03-0.17,0.07-0.25c0.04-0.08,0.09-0.17,0.15-0.25
						c0.11-0.15,0.28-0.28,0.49-0.38c0.21-0.11,0.39-0.14,0.51-0.11l1.64,0.4c0.21-0.17,0.42-0.32,0.63-0.48l-3.2-0.8l0.08-0.32
						c0.03-0.11,0.06-0.21,0.09-0.32l0.19-0.64c-0.2,0.16-0.4,0.33-0.6,0.5c-0.03,0.11-0.07,0.21-0.1,0.32
						c-0.02,0.11-0.05,0.21-0.07,0.31c-0.03,0.08-0.06,0.12-0.08,0.13c-0.14,0.06-0.25,0.04-0.31-0.04l-0.42,0.42
						c0.44,0.1,0.78,0.16,0.99,0.18c0.16,0.02,0.3,0.03,0.41,0.05c-0.27,0.07-0.47,0.24-0.65,0.51c-0.09,0.14-0.16,0.3-0.23,0.48
						C175.11,33.26,175.07,33.47,175.03,33.71z"/>
				</g>
				<g>
					<path class="st0" d="M177.26,30.2c-0.12,0.03-0.24,0.03-0.34,0c-0.11-0.04-0.2-0.14-0.27-0.31c-0.07-0.17-0.07-0.37,0.01-0.58
						c0.09-0.24,0.26-0.44,0.49-0.58c0.14-0.08,0.26-0.13,0.39-0.15c0.13-0.02,0.25,0,0.36,0.05l1.58,0.69
						c0.23-0.12,0.45-0.24,0.67-0.35l-2.91-1.37c0.09-0.2,0.2-0.4,0.3-0.6l0.15-0.3c0.05-0.1,0.1-0.2,0.16-0.29
						c-0.12,0.06-0.23,0.12-0.34,0.18l-0.34,0.19c-0.08,0.17-0.17,0.33-0.25,0.5c-0.1,0.09-0.18,0.15-0.22,0.17
						c-0.04,0.02-0.11,0.03-0.2,0.01c-0.05,0-0.15,0.03-0.29,0.11c-0.08,0.05-0.16,0.11-0.24,0.16c0.43,0.22,0.73,0.35,0.9,0.39
						c0.15,0.04,0.29,0.08,0.41,0.11c-0.33,0.07-0.58,0.19-0.76,0.36c-0.03,0.03-0.11,0.11-0.23,0.25
						c-0.06,0.08-0.12,0.19-0.17,0.32c-0.04,0.1-0.07,0.22-0.1,0.36c-0.04,0.18-0.05,0.35-0.04,0.51c0.01,0.16,0.06,0.31,0.13,0.45
						c0.13,0.25,0.31,0.4,0.55,0.47c0.24,0.07,0.47,0.03,0.69-0.1c0.12-0.07,0.22-0.17,0.33-0.29c0.1-0.12,0.18-0.26,0.26-0.43
						c0.04-0.1,0.07-0.2,0.09-0.3c0.02-0.1,0.03-0.2,0.02-0.3c-0.01-0.23-0.09-0.38-0.23-0.44c-0.05-0.02-0.11-0.02-0.17-0.01
						c-0.21,0.03-0.37,0.18-0.47,0.43c-0.11,0.32-0.07,0.51,0.12,0.58c0.03,0.01,0.07,0.03,0.12,0.04
						C177.39,30.15,177.33,30.18,177.26,30.2z"/>
				</g>
				<g>
					<path class="st0" d="M180.61,22.32c-0.18,0.06-0.33,0.16-0.48,0.27c-0.15,0.11-0.29,0.24-0.41,0.39
						c-0.23,0.3-0.39,0.61-0.47,0.92c-0.07,0.32-0.07,0.63,0,0.94c0.02,0.09,0.06,0.15,0.11,0.18c0.07,0.05,0.16,0.05,0.28,0
						c0.12-0.05,0.2-0.12,0.26-0.23c0.12-0.31,0.2-0.48,0.22-0.5c0.08-0.11,0.18-0.11,0.31-0.01c0.05,0.04,0.08,0.08,0.07,0.12
						c0,0.2-0.01,0.39,0,0.58c0.1-0.09,0.22-0.17,0.33-0.26l0.33-0.25c0-0.3,0.03-0.59,0.05-0.89l0.04-0.45
						c0.01-0.15,0.04-0.3,0.06-0.45c0.17-0.06,0.39-0.04,0.66,0.05l1.12,1.15c0.15-0.02,0.28-0.04,0.4-0.06
						c0.12-0.02,0.22-0.04,0.31-0.07l-2.23-2.25c0.16-0.15,0.31-0.3,0.47-0.45l0.48-0.43c-0.25,0.03-0.5,0.07-0.75,0.11
						c-0.05,0.03-0.14,0.12-0.28,0.25c-0.09,0.08-0.15,0.15-0.19,0.19l-0.13,0.05c-0.06,0.01-0.13-0.02-0.22-0.08
						c-0.03,0-0.05,0-0.07-0.01c-0.15,0.05-0.3,0.12-0.45,0.18l0.84,0.71l0.27,0.17C181.23,22.17,180.92,22.21,180.61,22.32z
						 M179.85,24c-0.02-0.13,0-0.26,0.05-0.41c0.05-0.14,0.14-0.3,0.27-0.45c0.12-0.14,0.28-0.25,0.48-0.32
						c-0.04,0.34-0.08,0.67-0.11,1C180.3,23.71,180.06,23.77,179.85,24z"/>
				</g>
				<g>
					<path class="st0" d="M183.97,23.95c-0.18-0.18-0.33-0.3-0.44-0.34c-0.07-0.03-0.15-0.05-0.25-0.06
						c-0.1-0.01-0.23-0.02-0.37-0.01c-0.12-0.01-0.31,0.04-0.59,0.16c-0.07,0.04-0.14,0.09-0.21,0.14c-0.07,0.05-0.13,0.1-0.2,0.16
						c-0.13,0.11-0.25,0.23-0.37,0.36c-0.03,0.03-0.06,0.06-0.09,0.09c-0.03,0.03-0.05,0.06-0.08,0.09
						c-0.05,0.06-0.1,0.12-0.14,0.17c-0.09,0.1-0.17,0.19-0.23,0.27c-0.13,0.14-0.21,0.23-0.24,0.26c-0.29,0.2-0.52,0.24-0.7,0.12
						c-0.03-0.02-0.06-0.07-0.09-0.13c-0.24,0.09-0.38,0.15-0.39,0.18c-0.02,0.02-0.02,0.05-0.01,0.08c0.04,0.04,0.07,0.08,0.1,0.1
						c0.12,0.1,0.21,0.17,0.26,0.2c0.19,0.12,0.39,0.17,0.62,0.15c0.2-0.02,0.41-0.1,0.61-0.26c0.18-0.14,0.36-0.31,0.5-0.51
						c0.25-0.36,0.46-0.61,0.59-0.76c0.13-0.15,0.25-0.27,0.37-0.35c0.12-0.08,0.23-0.13,0.34-0.15c0.05,0,0.19,0.01,0.43,0.05
						C183.64,23.98,183.83,23.99,183.97,23.95z"/>
				</g>
				<g>
					<path class="st0" d="M184.81,19.88c-0.04,0-0.09,0.01-0.13,0.05c-0.03,0.03-0.08,0.1-0.16,0.21c-0.22,0.33-0.37,0.51-0.44,0.57
						c-0.12,0.1-0.21,0.11-0.28,0.03c-0.05-0.06-0.07-0.2-0.05-0.43c0.01-0.23,0.06-0.38,0.13-0.45c0.19,0.01,0.3,0.02,0.33,0.03
						c0.07,0.01,0.16,0,0.27-0.03c0.05-0.01,0.11-0.03,0.18-0.05c0.07-0.02,0.14-0.04,0.22-0.07c0.15-0.06,0.31-0.12,0.46-0.2
						c0.08-0.04,0.15-0.08,0.23-0.12c0.08-0.04,0.16-0.08,0.23-0.13c0.02,0.35,0.1,0.62,0.24,0.84c0.08,0.13,0.23,0.29,0.44,0.46
						c0.17,0.14,0.34,0.29,0.5,0.44c0.03,0.02,0.1,0,0.22-0.03c0.11-0.03,0.18-0.06,0.23-0.09c0.03-0.02,0.05-0.05,0.08-0.11
						c-0.36-0.21-0.61-0.4-0.73-0.6c-0.05-0.09-0.11-0.2-0.16-0.33c-0.08-0.14-0.1-0.34-0.08-0.59c0.03-0.23,0.09-0.45,0.2-0.65
						c-0.18-0.02-0.35-0.04-0.51-0.06c-0.16-0.02-0.3-0.02-0.43-0.03c-0.32,0.31-0.54,0.49-0.65,0.58
						c-0.12,0.09-0.29,0.18-0.52,0.27c-0.25,0.1-0.38,0.13-0.42,0.08c-0.01-0.01-0.01-0.03,0-0.06c0.06-0.1,0.11-0.17,0.15-0.22
						c0.84-0.59,1.73-1.11,2.64-1.57c-0.26-0.04-0.51-0.06-0.77-0.08l-0.35,0.19l-0.17,0.09l-0.17,0.1l-0.67,0.41
						c-0.44,0.29-0.88,0.58-1.3,0.9c-0.84,0.63-1.65,1.31-2.39,2.06c0.26-0.05,0.51-0.1,0.77-0.15c0.2-0.19,0.41-0.37,0.61-0.55
						l0.15-0.14l0.16-0.13l0.32-0.26c-0.01,0.05-0.02,0.09-0.03,0.12c-0.08,0.36-0.05,0.61,0.08,0.76c0.04,0.05,0.09,0.09,0.15,0.13
						c0.21,0.13,0.48,0.16,0.82,0.08c0.08-0.03,0.15-0.06,0.22-0.1c0.07-0.04,0.14-0.08,0.2-0.13c0.15-0.11,0.31-0.29,0.49-0.53
						c0.02-0.02,0.04-0.04,0.05-0.05c0.04-0.03,0.08-0.03,0.13-0.01c0.05,0.02,0.08,0.05,0.1,0.08c0.06,0.09,0.02,0.23-0.12,0.41
						c-0.1,0.14-0.23,0.27-0.38,0.39c-0.09,0.07-0.19,0.13-0.31,0.18c-0.11,0.05-0.24,0.08-0.39,0.1c-0.25,0.03-0.47,0.01-0.67-0.05
						c-0.08-0.03-0.22-0.1-0.44-0.21c-0.15-0.08-0.3-0.21-0.44-0.39c-0.06,0.01-0.2,0.06-0.44,0.16c0.18,0.2,0.35,0.37,0.5,0.52
						c0.15,0.15,0.34,0.27,0.58,0.37c0.25,0.1,0.48,0.16,0.71,0.17c0.26,0.01,0.51-0.01,0.73-0.07c0.11-0.03,0.22-0.08,0.32-0.13
						c0.11-0.05,0.21-0.11,0.31-0.19c0.22-0.16,0.37-0.36,0.48-0.57c0.1-0.22,0.14-0.43,0.09-0.65c-0.02-0.08-0.05-0.15-0.09-0.22
						c-0.13-0.2-0.36-0.32-0.72-0.36C185,19.86,184.89,19.87,184.81,19.88L184.81,19.88z"/>
				</g>
				<g>
					<path class="st0" d="M186.2,17.55c-0.2,0.09-0.49,0.24-0.83,0.49c0.26,0.01,0.51,0.01,0.77,0.03c0.06-0.03,0.1-0.06,0.13-0.07
						c0.23-0.13,0.47-0.16,0.7-0.09c0.1,0.03,0.17,0.1,0.23,0.21l1.05,2.07c0.23,0.06,0.46,0.11,0.68,0.17l-1.41-3.01
						c0.19-0.1,0.39-0.18,0.59-0.26c0.2-0.08,0.39-0.17,0.59-0.25c-0.25-0.06-0.5-0.1-0.76-0.15c-0.21,0.09-0.43,0.18-0.64,0.29
						c-0.05-0.01-0.1-0.03-0.13-0.04c-0.14-0.11-0.22-0.19-0.26-0.24l-0.42-0.01c0.16,0.31,0.32,0.58,0.48,0.82
						c-0.11-0.05-0.24-0.07-0.36-0.07C186.47,17.45,186.34,17.49,186.2,17.55z"/>
				</g>
				<g>
					<path class="st0" d="M193.82,15.52l-0.37-0.17l-0.37-0.15c-1.01,0.15-2,0.4-2.98,0.7c-0.24,0.08-0.49,0.16-0.73,0.24
						l-0.72,0.27c-0.24,0.09-0.47,0.19-0.71,0.29l-0.35,0.15c-0.12,0.05-0.23,0.11-0.35,0.16c0.13,0.02,0.26,0.03,0.39,0.05
						l0.39,0.07c0.92-0.41,1.87-0.74,2.84-1.01l0.36-0.1c0.12-0.03,0.24-0.07,0.37-0.09l0.74-0.16c0.12-0.03,0.25-0.05,0.37-0.07
						l0.37-0.06l0.37-0.06C193.57,15.55,193.7,15.54,193.82,15.52z M192.97,17.17c-0.02-0.13-0.08-0.26-0.16-0.38
						c-0.17-0.23-0.37-0.4-0.6-0.5c-0.12-0.05-0.25-0.09-0.38-0.11c-0.14-0.02-0.28-0.03-0.43-0.01c-0.17,0.02-0.31,0.05-0.42,0.08
						c-0.15,0.04-0.29,0.09-0.41,0.16c-0.12,0.07-0.22,0.16-0.31,0.25c-0.19,0.2-0.25,0.4-0.18,0.6c0.02,0.05,0.04,0.1,0.08,0.15
						c0.1,0.14,0.22,0.22,0.37,0.26c0.08,0.02,0.16,0.02,0.24,0.02c0.09-0.01,0.18-0.03,0.29-0.05c0.48-0.13,0.68-0.36,0.61-0.68
						c-0.03-0.11-0.09-0.2-0.18-0.27c0.05-0.02,0.1-0.04,0.13-0.05c0.18-0.04,0.36-0.01,0.52,0.1c0.14,0.09,0.22,0.21,0.25,0.35
						c0.04,0.17-0.03,0.34-0.2,0.5c-0.24,0.22-0.47,0.38-0.71,0.45c-0.14,0.04-0.27,0.06-0.4,0.07c-0.13,0.01-0.26,0.02-0.38,0.01
						c-0.25-0.02-0.5-0.1-0.75-0.22c-0.21-0.1-0.44-0.23-0.68-0.41c-0.1-0.07-0.3-0.23-0.62-0.47l-0.49,0.07
						c0.16,0.16,0.34,0.32,0.53,0.48c0.1,0.08,0.2,0.17,0.3,0.25c0.11,0.09,0.22,0.18,0.33,0.27c0.15,0.12,0.38,0.25,0.68,0.39
						c0.11,0.05,0.2,0.09,0.28,0.12c0.08,0.03,0.15,0.06,0.21,0.08c0.17,0.05,0.35,0.07,0.56,0.06c0.2-0.02,0.4-0.03,0.57-0.08
						c0.14-0.04,0.28-0.09,0.41-0.17c0.14-0.07,0.28-0.15,0.42-0.26c0.2-0.15,0.35-0.31,0.44-0.49
						C192.98,17.56,193.01,17.37,192.97,17.17z"/>
				</g>
				<g>
					<path class="st0" d="M195.75,16.13c0.19,0.11,0.32,0.18,0.4,0.21l-0.01-0.01c0.06,0.04,0.14,0.07,0.26,0.09
						c0.06,0.01,0.12,0.03,0.2,0.04c0.07,0.01,0.15,0.03,0.24,0.04c0.24-0.17,0.37-0.26,0.38-0.28c0.15-0.12,0.22-0.23,0.23-0.34
						c0-0.07-0.04-0.18-0.12-0.35c-0.09-0.19-0.18-0.29-0.25-0.29l0,0.12c0.59,0,1.17,0.06,1.76,0.1c-0.2-0.16-0.41-0.32-0.62-0.48
						c-1.97-0.15-3.96-0.02-5.9,0.36c0.25,0.09,0.5,0.2,0.75,0.3l0.42-0.07l0.42-0.05l0.42-0.05c0.07-0.01,0.14-0.02,0.21-0.02
						l0.21-0.02c0.28-0.02,0.57-0.04,0.85-0.06l0.85-0.02c0.09,0,0.15,0.01,0.18,0.05c0.09,0.1,0.13,0.18,0.13,0.24
						c0,0.19-0.11,0.31-0.32,0.38c-0.11-0.08-0.32-0.19-0.66-0.32c-0.06-0.03-0.13-0.05-0.19-0.07c-0.06-0.02-0.13-0.03-0.2-0.04
						c-0.13-0.02-0.27-0.02-0.4-0.01c-0.48,0.03-0.76,0.23-0.83,0.55c-0.03,0.17,0.02,0.3,0.16,0.4c0.14,0.1,0.32,0.14,0.56,0.13
						c0.15-0.01,0.28-0.07,0.4-0.18c0.12-0.11,0.17-0.22,0.17-0.34c0-0.05-0.02-0.1-0.06-0.14
						C195.47,16.01,195.6,16.06,195.75,16.13z"/>
				</g>
				<g>
					<path class="st0" d="M196.63,16.47c-0.02,0-0.01,0.03,0.01,0.08c0.04,0.08,0.06,0.14,0.06,0.17l-0.01,1.14
						c-0.03-0.02-0.05-0.04-0.06-0.04c-0.15-0.1-0.37-0.14-0.67-0.13c-0.05,0-0.13,0-0.25,0.01c-0.53,0.08-0.87,0.09-1.01,0.02
						c-0.17-0.07-0.26-0.2-0.28-0.4c-0.01-0.1,0.01-0.23,0.06-0.39l-0.27-0.1c-0.07-0.02-0.12,0.01-0.15,0.07
						c-0.1,0.21-0.14,0.41-0.11,0.59c0.03,0.22,0.15,0.41,0.34,0.58c0.11,0.1,0.28,0.17,0.51,0.21c0.21,0.05,0.41,0.06,0.6,0.04
						c0.04,0,0.09-0.01,0.16-0.03c0.07-0.01,0.15-0.03,0.26-0.05c0.18-0.03,0.32-0.05,0.42-0.05c0.23-0.01,0.4,0.04,0.52,0.16
						c0.08,0.1,0.15,0.19,0.19,0.26l0.28,0.21l0.06-1.78c0.01-0.36,0.01-0.56-0.01-0.6c-0.12-0.27-0.38-0.42-0.76-0.42
						c-0.26,0.01-0.43,0.04-0.52,0.1c-0.18,0.08-0.31,0.14-0.4,0.18c-0.19,0.17-0.31,0.28-0.36,0.34c-0.1,0.13-0.14,0.26-0.13,0.4
						c0.01,0.08,0.03,0.16,0.06,0.24c0.04,0.08,0.12,0.15,0.26,0.21c0.07,0.03,0.13,0.05,0.2,0.06c0.06,0.01,0.13,0.02,0.19,0.02
						c0.16,0,0.3-0.05,0.43-0.12c0.13-0.08,0.19-0.18,0.19-0.3c0-0.09-0.04-0.16-0.12-0.22c-0.08-0.06-0.18-0.09-0.31-0.09
						c-0.02,0-0.05,0-0.09,0c0.03-0.06,0.07-0.12,0.12-0.17c0.13-0.09,0.23-0.15,0.3-0.18c0.09-0.03,0.16-0.04,0.19-0.04l-0.01-0.01
						C196.56,16.45,196.59,16.46,196.63,16.47z"/>
				</g>
				<g>
					<path class="st0" d="M200.63,15.72c-0.18-0.18-0.37-0.36-0.56-0.54c-0.13-0.03-0.26-0.04-0.4-0.06l-0.4-0.05l-0.07-0.26
						c-0.05-0.15-0.15-0.31-0.3-0.51c-0.15-0.18-0.32-0.33-0.49-0.43c-0.16-0.09-0.3-0.17-0.44-0.24c-0.07-0.03-0.14-0.06-0.2-0.08
						c-0.06-0.02-0.13-0.04-0.19-0.05c-0.26-0.06-0.5-0.1-0.72-0.13c-0.11-0.01-0.21-0.03-0.31-0.03c-0.1,0-0.19-0.01-0.27,0
						c-0.23,0.01-0.46,0.03-0.69,0.07c-0.11,0.02-0.23,0.05-0.34,0.08c-0.11,0.03-0.22,0.07-0.33,0.11
						c-0.38,0.14-0.56,0.31-0.54,0.49c0.02,0.19,0.16,0.32,0.42,0.4c0.26,0.08,0.51,0.12,0.76,0.13c0.02,0,0.3,0.01,0.84,0.01
						c0.23,0,0.4,0.03,0.51,0.06c0.11,0.03,0.17,0.07,0.17,0.12c0,0.05-0.14,0.13-0.41,0.27l0.83,0.02
						c0.05-0.09,0.07-0.17,0.08-0.24c0.01-0.4-0.35-0.64-1.09-0.69l-0.12,0c-0.18-0.01-0.36-0.01-0.56-0.01c-0.1,0-0.2,0-0.3,0
						c-0.1,0-0.2,0.01-0.31,0.01c-0.24,0.01-0.36-0.01-0.37-0.07c-0.01-0.08,0.17-0.15,0.52-0.22c0.26-0.05,0.5-0.06,0.73-0.07
						c0.52-0.02,0.97,0.05,1.33,0.14c0.36,0.09,0.64,0.26,0.84,0.45c0.22,0.22,0.34,0.37,0.36,0.46l0.04,0.16l-0.64-0.05l-0.32-0.02
						l-0.32-0.01c0.12,0.08,0.23,0.15,0.35,0.23l0.34,0.24l0.52,0.04l-0.26,2.8c0.17,0.15,0.34,0.33,0.5,0.49l0.39-3.21
						c0.23,0.03,0.47,0.06,0.7,0.09L200.63,15.72z"/>
				</g>
				<g>
					<path class="st0" d="M206.8,17.93c-0.12-0.22-0.24-0.45-0.37-0.67c-1.46-0.74-3.01-1.32-4.61-1.71
						c0.18,0.18,0.35,0.39,0.51,0.58c0.94,0.25,1.86,0.59,2.76,0.97l-0.04,0.1c-0.06-0.01-0.11-0.02-0.17-0.03
						c-0.06-0.01-0.12-0.02-0.18-0.03c-0.12-0.02-0.25-0.03-0.39-0.04c-0.13-0.01-0.27-0.02-0.41-0.03
						c-0.14-0.01-0.29-0.01-0.45-0.01c-0.33,0.01-0.76,0.04-1.27,0.15l0.22,0.39l0.1,0.19l0.1,0.2c0.24,0.1,0.45,0.2,0.63,0.33
						c0.18,0.12,0.34,0.28,0.46,0.43c0.13,0.16,0.23,0.33,0.3,0.51c0.07,0.19,0.11,0.39,0.12,0.6c0.05,0.17,0.11,0.34,0.16,0.51
						l1.41-3c0.19,0.08,0.38,0.18,0.57,0.28L206.8,17.93z M204.27,18.98c-0.08-0.23-0.21-0.44-0.37-0.65
						c-0.08-0.11-0.17-0.21-0.28-0.31c-0.05-0.05-0.1-0.1-0.16-0.15c-0.06-0.05-0.12-0.1-0.18-0.14c0.28-0.03,0.53-0.03,0.79-0.02
						c0.13,0,0.25,0.01,0.37,0.02c0.06,0,0.12,0.01,0.18,0.02c0.06,0.01,0.12,0.02,0.17,0.03L204.27,18.98z"/>
				</g>
				<g>
					<path class="st0" d="M206.39,17.24c-0.09-0.06-0.21-0.13-0.36-0.19c-0.15-0.06-0.32-0.13-0.52-0.21
						c0.14,0.22,0.28,0.43,0.42,0.65c0.06,0.03,0.1,0.05,0.13,0.07c0.24,0.12,0.39,0.3,0.47,0.53c0.03,0.09,0.02,0.2-0.04,0.3
						l-1.11,2.04c0.09,0.22,0.17,0.44,0.24,0.66l1.67-2.88c0.38,0.21,0.73,0.44,1.09,0.67c-0.1-0.23-0.2-0.47-0.31-0.71
						c-0.19-0.13-0.4-0.24-0.6-0.36c-0.02-0.05-0.03-0.1-0.04-0.13c0.01-0.18,0.03-0.29,0.05-0.35c-0.08-0.12-0.15-0.24-0.23-0.36
						c-0.16,0.3-0.3,0.59-0.4,0.86C206.8,17.6,206.65,17.4,206.39,17.24z"/>
				</g>
				<g>
					<path class="st0" d="M209.13,20.55c0.17-0.04,0.29-0.1,0.37-0.2c0.13-0.16,0.16-0.37,0.08-0.64c-0.07-0.27-0.25-0.48-0.49-0.66
						c-0.12-0.08-0.24-0.15-0.37-0.19c-0.13-0.04-0.27-0.05-0.4-0.05c-0.28,0.01-0.47,0.1-0.57,0.26c-0.11,0.18-0.12,0.39-0.02,0.64
						c0.05,0.13,0.12,0.23,0.2,0.34c0.08,0.11,0.18,0.2,0.3,0.29c0.16,0.11,0.3,0.18,0.41,0.21
						C208.8,20.58,208.96,20.59,209.13,20.55z M208.13,23.15l0.28-0.33c-0.04-0.46-0.11-0.83-0.16-1.13
						c-0.06-0.3-0.11-0.52-0.16-0.65c-0.17-0.48-0.33-0.9-0.51-1.22l-0.47,0.72c0.06,0.11,0.12,0.21,0.18,0.32
						c0.05,0.1,0.1,0.2,0.15,0.3c0.09,0.19,0.18,0.36,0.24,0.52c0.04,0.08,0.07,0.15,0.09,0.22c0.03,0.07,0.05,0.14,0.07,0.2
						c0.04,0.12,0.08,0.23,0.1,0.32l0.09,0.37C208.08,22.91,208.11,23.03,208.13,23.15z M209.1,19.82c-0.06,0.08-0.1,0.12-0.13,0.13
						c-0.07,0.02-0.19,0.02-0.37-0.02c-0.18-0.03-0.3-0.08-0.37-0.13c-0.1-0.07-0.11-0.15-0.04-0.24c0.09-0.12,0.21-0.18,0.35-0.17
						c0.23,0.02,0.4,0.06,0.51,0.14C209.16,19.63,209.18,19.72,209.1,19.82z"/>
				</g>
				<g>
					<path class="st0" d="M213.81,24.04c0-0.13-0.02-0.26-0.03-0.4l-0.04-0.4l-0.21-0.27l-0.11-0.14l-0.11-0.13l-0.45-0.52
						l-0.11-0.13l-0.12-0.13l-0.24-0.25l-0.24-0.25l-0.12-0.13l-0.13-0.12l-0.5-0.48l-0.13-0.12l-0.13-0.11l-0.26-0.23l-0.26-0.23
						l-0.13-0.11l-0.14-0.11l-0.55-0.43c0.09,0.25,0.18,0.5,0.26,0.75c0.91,0.74,1.76,1.56,2.54,2.44l-0.39,0.34
						c0-0.03,0-0.06-0.01-0.09c0-0.06,0-0.13,0-0.21c-0.03-0.15-0.11-0.29-0.24-0.44c-0.07-0.08-0.17-0.14-0.29-0.18
						c-0.13-0.04-0.24-0.06-0.33-0.05l-0.01-0.08c-0.06-0.3-0.23-0.58-0.48-0.81c-0.25-0.21-0.52-0.31-0.8-0.29
						c-0.25,0.01-0.45,0.11-0.6,0.28c-0.05,0.07-0.1,0.14-0.13,0.22c-0.09,0.2-0.08,0.43,0.01,0.67c0.09,0.24,0.26,0.45,0.47,0.67
						c0.25,0.24,0.5,0.32,0.74,0.25c0.08-0.02,0.15-0.12,0.2-0.3c0.07-0.22,0-0.42-0.18-0.59c-0.12-0.11-0.25-0.18-0.38-0.2
						c-0.14-0.02-0.24,0.01-0.31,0.1c-0.03,0.04-0.06,0.08-0.07,0.13c-0.11-0.17-0.11-0.32,0-0.45c0.09-0.1,0.21-0.14,0.38-0.11
						c0.09,0.01,0.17,0.04,0.25,0.08c0.08,0.04,0.15,0.09,0.22,0.16c0.17,0.16,0.27,0.33,0.3,0.5c0.01,0.04,0.02,0.15,0.02,0.32
						c-0.01,0.08-0.06,0.13-0.16,0.16l0.38,0.23c0.11-0.16,0.2-0.25,0.27-0.26c0.09-0.01,0.16,0.02,0.22,0.09
						c0.08,0.08,0.13,0.19,0.14,0.32c0.01,0.13-0.01,0.22-0.07,0.27l-1.29,1.15c0.02,0.23,0.03,0.46,0.05,0.69l2.49-2.07
						c0.14,0.16,0.26,0.33,0.4,0.5l0.2,0.25C213.68,23.87,213.75,23.95,213.81,24.04z"/>
				</g>
				<g>
					<path class="st0" d="M213.75,23.26c-0.12-0.18-0.32-0.44-0.62-0.73c0.04,0.26,0.08,0.51,0.1,0.77
						c0.04,0.05,0.07,0.09,0.09,0.12c0.16,0.21,0.23,0.43,0.2,0.68c-0.01,0.1-0.07,0.19-0.17,0.26l-1.87,1.38
						c-0.02,0.24-0.04,0.47-0.06,0.7l2.73-1.9c0.06,0.09,0.13,0.17,0.18,0.26l0.17,0.27l0.35,0.54c0.01-0.25,0.01-0.51,0.02-0.77
						l-0.19-0.29l-0.2-0.29c0.01-0.06,0.01-0.1,0.02-0.14c0.09-0.15,0.15-0.25,0.19-0.3l-0.06-0.42c-0.28,0.2-0.52,0.41-0.73,0.61
						C213.97,23.76,213.91,23.52,213.75,23.26z"/>
				</g>
				<g>
					<path class="st0" d="M216.13,28.01c0.04-0.25,0.08-0.5,0.12-0.75c-0.52-1.07-1.13-2.1-1.81-3.08c0.01,0.26,0.02,0.52,0.01,0.78
						c0.22,0.35,0.45,0.69,0.65,1.05c-0.34-0.12-0.64-0.18-0.93-0.16c-0.28,0.02-0.53,0.1-0.75,0.24c-0.5,0.32-0.74,0.79-0.78,1.4
						c-0.01,0.1,0.01,0.2,0.04,0.31c0.02,0.05,0.04,0.11,0.06,0.16c0.02,0.06,0.05,0.12,0.08,0.18c0.09,0.18,0.22,0.32,0.4,0.41
						c0.17,0.09,0.32,0.11,0.47,0.04c0.08-0.04,0.14-0.09,0.18-0.17c0.04-0.07,0.05-0.16,0.04-0.27c0.01-0.09,0-0.18-0.06-0.29
						c-0.04-0.08-0.1-0.15-0.17-0.22c-0.1-0.09-0.19-0.13-0.28-0.14c-0.09-0.01-0.16,0.01-0.23,0.07c-0.03,0.03-0.06,0.09-0.1,0.18
						c-0.04,0.09-0.06,0.14-0.05,0.13c-0.02,0.01-0.04-0.01-0.07-0.07c0.09,0.1,0.14,0.14,0.16,0.1c0-0.01-0.01-0.03-0.03-0.05
						c-0.07-0.14-0.09-0.31-0.03-0.52c0.05-0.17,0.12-0.31,0.22-0.41c0.06-0.06,0.13-0.12,0.23-0.17c0.22-0.13,0.45-0.21,0.69-0.25
						c0.24-0.04,0.48,0,0.72,0.11c0.13,0.06,0.24,0.13,0.36,0.23c0.12,0.1,0.24,0.21,0.36,0.35
						C215.82,27.43,215.98,27.7,216.13,28.01z"/>
				</g>
				<g>
					<path class="st0" d="M217.46,32.06c0.09-0.24,0.18-0.49,0.27-0.74c-0.42-1.64-1.04-3.23-1.82-4.72
						c-0.03,0.26-0.05,0.53-0.08,0.78c0.06,0.12,0.12,0.25,0.17,0.38l-1.56,0.72c-0.06,0.28-0.12,0.55-0.19,0.82
						c0.33,0.03,0.63,0.13,0.92,0.3c0.29,0.17,0.53,0.42,0.75,0.74c-0.24,0.02-0.47,0.06-0.7,0.14c-0.28,0.09-0.66,0.31-1.16,0.64
						c0,0.15-0.02,0.31-0.04,0.47c0.42-0.23,0.65-0.35,0.7-0.36c0.08-0.04,0.17-0.08,0.25-0.1c0.41-0.12,0.93-0.08,1.58,0.17
						l0.1-0.48c0.03-0.16,0.07-0.33,0.09-0.49c-0.16-0.24-0.31-0.45-0.46-0.63c-0.04-0.04-0.07-0.09-0.11-0.13
						c-0.04-0.04-0.07-0.08-0.11-0.11c-0.07-0.07-0.14-0.14-0.21-0.2c-0.26-0.2-0.45-0.35-0.59-0.45l1.02-0.43
						C216.78,29.56,217.18,30.8,217.46,32.06z"/>
				</g>
				<g>
					<path class="st0" d="M217.96,36.72c0.14-0.22,0.28-0.43,0.41-0.66l-0.01-0.43c0.02-0.1,0.05-0.18,0.1-0.22
						c0.03-0.01,0.05-0.01,0.07,0c0.06-0.01,0.11-0.04,0.15-0.08c0.07-0.12,0.16-0.28,0.26-0.49l-0.72,0.11l-0.69,0.15l0.09-0.11
						c0.43-0.46,0.61-0.83,0.58-1.06c-0.01-0.04-0.03-0.12-0.06-0.23c-0.03-0.1-0.07-0.19-0.11-0.27c-0.04-0.08-0.09-0.16-0.14-0.22
						c-0.1-0.13-0.21-0.23-0.33-0.3c0.05-0.05,0.1-0.13,0.15-0.22c0-0.01,0.04-0.1,0.11-0.28c0.05-0.19,0.04-0.41-0.01-0.64
						l-0.07-0.29c-0.02-0.1-0.04-0.19-0.07-0.29l-0.16-0.58c-0.08,0.25-0.16,0.5-0.24,0.74c0.12,0.5,0.16,0.67,0.12,0.49
						c0.03,0.17,0.04,0.32,0,0.45c-0.05,0.1-0.09,0.17-0.13,0.22c-0.1-0.17-0.23-0.31-0.39-0.42c-0.18-0.13-0.32-0.17-0.45-0.14
						c-0.13,0.03-0.23,0.11-0.3,0.25c-0.08,0.13-0.09,0.29-0.05,0.47c0.03,0.12,0.08,0.25,0.16,0.37c0.08,0.12,0.17,0.21,0.26,0.27
						c-0.15,0.21-0.19,0.43-0.17,0.67c0.04,0.3,0.14,0.48,0.3,0.55c0.12,0.05,0.24,0.05,0.35,0.01c0.1-0.05,0.19-0.14,0.26-0.28
						c0.04-0.07,0.09-0.21,0.17-0.42c0.09,0.02,0.16,0.14,0.2,0.35c0.02,0.13-0.04,0.31-0.2,0.52c-0.16,0.21-0.29,0.31-0.38,0.32
						l-1.94,0.13c-0.13,0.2-0.26,0.4-0.39,0.6l3.22-0.18C217.95,35.93,217.95,36.32,217.96,36.72z"/>
				</g>
			</g>
			<g>
				<polygon class="st1" points="179.79,41.56 174.99,39.05 177.23,43.84 178.25,38.65 174.48,42.26 				"/>
			</g>
			<g>
				<polygon class="st1" points="182.73,47.37 177.42,46.29 180.92,50.27 180.44,45 177.83,49.52 				"/>
			</g>
			<g>
				<polygon class="st1" points="214.46,41.56 219.26,39.05 217.02,43.84 216.01,38.65 219.77,42.26 				"/>
			</g>
			<g>
				<polygon class="st1" points="211.52,47.37 216.83,46.29 213.34,50.27 213.81,45 216.42,49.52 				"/>
			</g>
			<g>
				<path class="st3" d="M200.31,40.01c0.01-0.07,0.02-0.14,0.02-0.21c0-0.13-0.01-0.26-0.01-0.39c0-0.11,0.06-0.14,0.14-0.07
					c0.06,0.04,0.11,0.11,0.14,0.17c0.12,0.25,0.23,0.5,0.34,0.75c0.03,0.07,0.08,0.14,0.12,0.2c0.03,0.05,0.07,0.06,0.11,0.03
					c0.18-0.16,0.36-0.31,0.53-0.48c0.09-0.1,0.07-0.24,0.06-0.37c-0.02-0.14-0.03-0.27-0.05-0.41c-0.02-0.15,0.02-0.28,0.14-0.39
					c0.08-0.08,0.15-0.16,0.23-0.23c0.19-0.16,0.26-0.37,0.26-0.62c0-0.14,0-0.28,0-0.42c0-0.04,0.01-0.08,0.02-0.15
					c0.07,0.06,0.13,0.1,0.18,0.15c0.14,0.12,0.17,0.12,0.31,0c0.08-0.06,0.17-0.12,0.26-0.16c0.06-0.03,0.12-0.02,0.14,0.06
					c0.02,0.08,0.07,0.07,0.12,0.06c0.12-0.03,0.14,0,0.16,0.12c0.03,0.21,0.06,0.43,0.13,0.63c0.11,0.34,0.15,0.68,0.18,1.03
					c0.03,0.39,0.06,0.78,0.1,1.17c0,0.05,0.03,0.11,0.05,0.16c0.2,0.32,0.31,0.67,0.39,1.04c0.03,0.12,0,0.26,0.03,0.38
					c0.07,0.37,0.16,0.74,0.23,1.11c0.02,0.12,0.04,0.25,0.05,0.38c0.01,0.07,0.01,0.14-0.05,0.2c-0.03,0.03-0.02,0.11-0.01,0.16
					c0.1,0.51,0.1,1.02,0.11,1.54c0,0.38,0.02,0.77,0.09,1.14c0.03,0.15,0.04,0.31,0.06,0.46c0,0.04-0.02,0.08-0.04,0.11
					c-0.04,0.07-0.12,0.09-0.18,0.03c-0.05-0.06-0.1-0.12-0.13-0.19c-0.07-0.15-0.17-0.25-0.35-0.23c-0.1,0.01-0.15-0.04-0.17-0.14
					c-0.01-0.04-0.01-0.09-0.02-0.14c-0.02-0.1-0.05-0.12-0.15-0.08c-0.34,0.14-0.53,0.39-0.59,0.76c-0.06,0.32-0.01,0.61,0.13,0.89
					c0.15,0.31,0.26,0.65,0.32,0.99c0,0.02,0.01,0.04,0.01,0.06c0,0.01,0,0.02-0.01,0.06c-0.03-0.04-0.05-0.06-0.07-0.09
					c-0.16-0.27-0.32-0.55-0.48-0.82c-0.11-0.18-0.22-0.36-0.34-0.53c-0.13-0.2-0.21-0.41-0.21-0.65c0-0.17-0.05-0.32-0.17-0.46
					c-0.05-0.06-0.07-0.16-0.08-0.24c-0.01-0.12-0.02-0.16-0.13-0.15c-0.19,0.01-0.2-0.06-0.21-0.22c-0.01-0.18,0-0.37-0.01-0.55
					c-0.01-0.08-0.06-0.15-0.07-0.23c-0.01-0.06-0.03-0.13-0.01-0.19c0.03-0.16,0.04-0.32,0.15-0.46c0.02-0.03,0.02-0.08,0.01-0.11
					c-0.11-0.39-0.22-0.78-0.33-1.17c-0.06-0.2-0.13-0.39-0.19-0.58c-0.14-0.42-0.4-0.76-0.71-1.06c-0.12-0.12-0.27-0.22-0.41-0.32
					c-0.09-0.06-0.19-0.04-0.32-0.02c0.05,0.07,0.1,0.11,0.13,0.16c0.04,0.07,0.09,0.15,0.1,0.23c0.02,0.11-0.04,0.15-0.14,0.11
					c-0.12-0.04-0.34,0.09-0.36,0.22c-0.01,0.06,0.03,0.06,0.07,0.06c0.06-0.01,0.12-0.02,0.18-0.03c-0.02,0.12-0.09,0.17-0.2,0.15
					c-0.1-0.02-0.19,0.01-0.25,0.09c-0.11,0.16-0.22,0.14-0.36,0.04c-0.2-0.14-0.38-0.29-0.57-0.43c-0.22-0.17-0.43-0.36-0.57-0.61
					c-0.09-0.15-0.14-0.33-0.23-0.48c-0.11-0.18-0.24-0.36-0.37-0.53c-0.03-0.04-0.1-0.04-0.15-0.06c-0.02-0.01-0.06-0.04-0.05-0.06
					c0.02-0.1,0.04-0.2,0.08-0.29c0.01-0.03,0.07-0.04,0.11-0.04c0.06,0,0.06-0.02,0.07-0.06c0.01-0.12,0.02-0.24,0.04-0.36
					c0.03-0.13,0.01-0.26-0.03-0.38c-0.08-0.2-0.15-0.4-0.22-0.6c0-0.01-0.01-0.02-0.03-0.06c0.01,0.15,0.03,0.27,0.04,0.4
					c0.01,0.22,0.01,0.22-0.21,0.28c0.06,0.06,0.11,0.11,0.16,0.16c0.17,0.14,0.17,0.17,0.08,0.38c-0.07,0.16-0.14,0.33-0.17,0.5
					c-0.04,0.25,0.11,0.44,0.25,0.63c0.05,0.07,0.1,0.13,0.15,0.19c0.08,0.1,0.12,0.22,0.07,0.35c0.21,0.05,0.27,0.14,0.21,0.29
					c-0.04-0.01-0.09-0.03-0.13-0.04c-0.01,0.01-0.01,0.01-0.02,0.02c0.02,0.06,0.04,0.12,0.07,0.18c0.11,0.18,0.22,0.37,0.35,0.54
					c0.2,0.26,0.27,0.54,0.2,0.87c-0.07,0.35-0.16,0.68-0.42,0.94c-0.06,0.06-0.12,0.11-0.19,0.15c-0.16,0.1-0.29,0.23-0.38,0.41
					c-0.03,0.06-0.07,0.11-0.12,0.15c-0.06,0.05-0.12,0.02-0.11-0.06c0.03-0.13,0.08-0.26,0.12-0.39c0.01-0.02,0.02-0.04,0.02-0.08
					c-0.06,0.06-0.12,0.13-0.19,0.19c-0.16,0.13-0.33,0.26-0.49,0.39c-0.02,0.01-0.04,0.02-0.06,0.03c-0.11,0.04-0.15,0.03-0.2-0.11
					c-0.04,0.04-0.08,0.08-0.11,0.12c-0.14,0.19-0.27,0.25-0.44,0.19c-0.25-0.07-0.43-0.26-0.44-0.47
					c-0.01-0.11,0.05-0.18,0.15-0.23c-0.15-0.05-0.21-0.03-0.26,0.11c-0.02,0.07-0.08,0.07-0.11,0.03
					c-0.07-0.08-0.12-0.17-0.18-0.26c-0.03-0.06-0.06-0.12-0.09-0.18c-0.01-0.02-0.05-0.04-0.07-0.04c-0.02,0-0.04,0.04-0.04,0.07
					c0,0.06,0,0.12,0.01,0.18c0.01,0.05,0.02,0.09,0.03,0.13c0.06,0.32-0.09,0.51-0.4,0.52c-0.07,0-0.14,0.01-0.21,0.02
					c-0.07,0.01-0.09,0.04-0.04,0.11c0.09,0.12,0.07,0.15-0.07,0.21c-0.08,0.04-0.16,0.1-0.23,0.16c-0.07,0.06-0.12,0.07-0.16-0.02
					c-0.05-0.12-0.08-0.25-0.1-0.38c-0.02-0.11-0.01-0.22-0.02-0.33c0-0.04-0.04-0.1-0.06-0.1c-0.05,0-0.13,0.03-0.14,0.06
					c-0.03,0.08-0.03,0.17-0.02,0.25c0.01,0.14,0.02,0.27-0.09,0.38c-0.09,0.09-0.16,0.09-0.24-0.01c-0.08-0.09-0.15-0.19-0.24-0.31
					c-0.01,0.13-0.02,0.23-0.04,0.34c-0.01,0.08-0.03,0.17-0.07,0.24c-0.04,0.1-0.15,0.12-0.24,0.09c0-0.13,0-0.25,0-0.38
					c0-0.04-0.03-0.09-0.06-0.12c-0.03-0.05-0.07-0.11-0.13-0.06c-0.04,0.03-0.05,0.09-0.08,0.14c0,0,0,0.01,0,0.02
					c0,0.05,0,0.09-0.01,0.14c-0.06-0.02-0.12-0.02-0.17-0.05c-0.12-0.11-0.15-0.25-0.15-0.41c0-0.08,0.01-0.16,0.03-0.25
					c0.02,0.06,0.05,0.12,0.07,0.18c0.01,0,0.01,0,0.02,0c0-0.01,0.01-0.02,0.01-0.03c0.01-0.43,0-0.86-0.1-1.29
					c-0.02-0.1-0.06-0.19-0.11-0.28c-0.09-0.18-0.13-0.37-0.13-0.57c0-0.09,0-0.19-0.01-0.28c0-0.04-0.01-0.1-0.04-0.13
					c-0.11-0.14-0.1-0.3-0.1-0.46c-0.01-0.16-0.03-0.32-0.06-0.47c-0.01-0.05-0.02-0.08,0.04-0.11c0.09-0.03,0.09-0.12,0.09-0.2
					c0-0.08-0.01-0.16-0.11-0.18c-0.1-0.03-0.13-0.12-0.15-0.2c-0.05-0.26-0.05-0.52,0.06-0.77c0.03-0.07,0.08-0.13,0.13-0.18
					c0.03-0.04,0.08-0.06,0.12-0.09c-0.01-0.02-0.01-0.03-0.02-0.05c-0.08-0.03-0.16-0.07-0.25-0.08c-0.14-0.02-0.27-0.04-0.41-0.04
					c-0.14-0.01-0.24-0.08-0.24-0.23c0-0.1,0.03-0.21,0.06-0.31c0.03-0.09,0.08-0.18,0.12-0.27c0.04-0.12,0.02-0.18-0.09-0.24
					c-0.06-0.04-0.13-0.07-0.19-0.11c-0.08-0.05-0.14-0.12-0.16-0.22c-0.01-0.06-0.08-0.12-0.13-0.15c-0.08-0.04-0.12-0.1-0.12-0.18
					c-0.01-0.24,0.01-0.48,0.11-0.71c0.02-0.05,0.07-0.09,0.12-0.12c0.13-0.07,0.23-0.17,0.31-0.29c0.06-0.09,0.06-0.19,0.04-0.31
					c-0.05-0.23-0.05-0.47-0.09-0.7c-0.02-0.13-0.05-0.26-0.1-0.38c-0.08-0.19-0.25-0.27-0.45-0.29c-0.15-0.02-0.3-0.03-0.45-0.06
					c-0.09-0.02-0.17-0.09-0.24-0.15c-0.07-0.05-0.13-0.1-0.19-0.15c-0.1-0.07-0.21-0.11-0.33-0.04c-0.02,0.01-0.05,0.02-0.08,0.02
					c-0.1,0.02-0.14-0.01-0.14-0.12c0-0.11,0-0.22,0.01-0.32c0.01-0.18-0.03-0.24-0.2-0.28c-0.25-0.07-0.31-0.21-0.19-0.45
					c0.05-0.09,0.11-0.17,0.17-0.25c0.06-0.09,0.12-0.19,0.16-0.29c0.02-0.05,0.01-0.11,0-0.16c-0.02-0.1,0-0.13,0.09-0.11
					c0.12,0.02,0.24,0.04,0.36,0.08c0.1,0.03,0.18,0.01,0.25-0.06c0.2-0.2,0.3-0.45,0.33-0.73c0.01-0.11,0.06-0.22,0.1-0.32
					c0.01-0.03,0.08-0.07,0.12-0.06c0.3,0.09,0.6,0.07,0.9,0.08c0.17,0.01,0.33,0,0.5-0.01c0.14-0.01,0.17-0.04,0.2-0.18
					c0.01-0.06,0.06-0.11,0.11-0.18c-0.04-0.03-0.09-0.08-0.15-0.12c-0.12-0.08-0.24-0.16-0.3-0.31c-0.03-0.08-0.05-0.16-0.06-0.25
					c-0.02-0.11-0.07-0.17-0.19-0.18c-0.2-0.01-0.4-0.02-0.61-0.04c-0.23-0.02-0.5-0.27-0.57-0.49c-0.03-0.09-0.09-0.17-0.16-0.23
					c-0.18-0.15-0.37-0.29-0.56-0.43c-0.04-0.03-0.11-0.05-0.16-0.05c-0.36-0.03-0.43-0.13-0.38-0.54c0.01-0.09,0.09-0.18,0.13-0.27
					c0.05-0.11,0.12-0.22,0.14-0.34c0.04-0.17,0.12-0.3,0.25-0.4c0.19-0.14,0.36-0.28,0.48-0.5c0.05-0.09,0.16-0.14,0.24-0.21
					c0.01-0.01,0.02-0.01,0.03-0.01c0.09-0.06,0.2-0.09,0.19-0.23c-0.01-0.11-0.15-0.23-0.28-0.24c-0.09,0-0.18,0.02-0.27,0.03
					c-0.02,0-0.04,0-0.07,0c0-0.02-0.01-0.03,0-0.04c0.05-0.19,0.11-0.38,0.16-0.56c0.01-0.02,0.01-0.04,0.03-0.05
					c0.03-0.03,0.06-0.05,0.1-0.07c0.02,0.03,0.06,0.07,0.06,0.1c-0.01,0.19,0.12,0.27,0.25,0.35c0.12,0.08,0.26,0.13,0.37,0.21
					c0.14,0.11,0.27,0.23,0.38,0.37c0.11,0.13,0.09,0.21-0.04,0.35c0.08-0.01,0.14-0.02,0.2-0.03c0.19-0.03,0.2-0.02,0.29,0.16
					c0.01,0.02,0.03,0.04,0.04,0.06c0.01-0.01,0.03-0.01,0.03-0.02c0.13-0.15,0.14-0.15,0.32-0.07c0.08,0.03,0.17,0.07,0.25,0.08
					c0.08,0.02,0.11-0.03,0.07-0.1c-0.05-0.08-0.13-0.15-0.19-0.23c-0.06-0.08-0.13-0.16-0.18-0.25c-0.05-0.1,0-0.17,0.12-0.18
					c0.24-0.01,0.48,0.18,0.54,0.42c0.07,0.28,0.16,0.55,0.31,0.8c0.04,0.06,0.1,0.1,0.16,0.14c0.06,0.05,0.14,0.1,0.2,0.16
					c0.12,0.11,0.25,0.19,0.43,0.16c0.1-0.02,0.2,0.04,0.31,0.06c0.04,0.01,0.07,0.03,0.1,0.05c0.18,0.09,0.2,0.08,0.2-0.12
					c0-0.09,0.06-0.14,0.16-0.15c-0.03-0.05-0.05-0.09-0.07-0.12c-0.06-0.08-0.08-0.16-0.03-0.25c0.05-0.08,0.1-0.17,0.17-0.24
					c0.06-0.07,0.12-0.04,0.13,0.05c0.01,0.03,0,0.07,0.01,0.1c0.01,0.02,0.06,0.06,0.07,0.05c0.08-0.03,0.14,0.01,0.17,0.07
					c0.06,0.1,0.11,0.21,0.14,0.32c0.05,0.18,0.12,0.34,0.25,0.48c0.05,0.06,0.07,0.11,0,0.18c-0.03,0.03-0.05,0.09-0.05,0.14
					c0,0.19,0,0.37,0,0.56c0,0.31,0,0.63,0,0.94c0,0.14-0.04,0.28-0.06,0.43c-0.01,0.06,0,0.13,0.01,0.2
					c0.01,0.11,0.09,0.2,0.19,0.21c0.26,0.02,0.49,0.11,0.72,0.22c0.36,0.17,0.75,0.24,1.14,0.25c0.62,0.01,1.25,0.01,1.87,0
					c0.28,0,0.56-0.04,0.84-0.06c0.27-0.02,0.53,0.01,0.79,0.1c0.4,0.13,0.82,0.13,1.23,0.07c0.29-0.04,0.58-0.09,0.87-0.14
					c0.29-0.04,0.54,0.07,0.79,0.22c0.22,0.13,0.44,0.23,0.67,0.35c0.08,0.04,0.16,0.09,0.18,0.2c0.01,0.06,0.08,0.11,0.13,0.15
					c0.06,0.04,0.14,0.07,0.14,0.16c0,0.09-0.06,0.16-0.13,0.19c-0.13,0.05-0.27,0.09-0.41,0.12c-0.2,0.05-0.21,0.08-0.27,0.28
					c-0.07,0.24-0.17,0.48-0.27,0.71c-0.1,0.23-0.2,0.45-0.23,0.7c-0.01,0.13-0.05,0.15-0.18,0.18c-0.11,0.02-0.22,0.07-0.33,0.11
					c-0.15,0.06-0.22,0.18-0.22,0.35c0,0.11-0.02,0.22-0.04,0.33c-0.01,0.05-0.06,0.08-0.1,0.12c-0.03-0.03-0.08-0.06-0.1-0.1
					c-0.06-0.1-0.16-0.16-0.26-0.15c-0.08,0.01-0.12,0.06-0.09,0.14c0.02,0.07,0.03,0.12-0.06,0.14c-0.08,0.02-0.16-0.02-0.18-0.1
					c-0.01-0.03-0.03-0.06-0.05-0.09c-0.03,0.02-0.08,0.04-0.1,0.07c-0.03,0.05-0.05,0.11-0.06,0.16c-0.03,0.13-0.07,0.17-0.2,0.18
					c-0.09,0-0.19,0-0.28-0.01c-0.08,0-0.17-0.01-0.25-0.01c-0.14,0.01-0.17,0.04-0.18,0.18c-0.01,0.06-0.01,0.12-0.03,0.18
					c-0.01,0.06-0.05,0.09-0.12,0.09c-0.19,0.01-0.3,0.12-0.34,0.29c-0.03,0.15-0.05,0.3-0.06,0.46c-0.01,0.12-0.04,0.16-0.16,0.19
					c-0.04,0.01-0.1,0.05-0.11,0.08c-0.01,0.04,0.02,0.1,0.06,0.13c0.07,0.06,0.11,0.09,0.02,0.17c-0.03,0.02-0.02,0.11-0.01,0.16
					c0.05,0.15,0.1,0.31,0.17,0.46c0.19,0.43,0.33,0.88,0.4,1.34c0.02,0.13,0.05,0.26,0.14,0.37
					C200.29,40.01,200.3,40.01,200.31,40.01z M197.7,42.17c-0.01,0-0.02,0-0.03,0c-0.01,0.04-0.02,0.08-0.03,0.12
					c-0.01,0.12,0,0.24-0.02,0.36c-0.03,0.15-0.04,0.32-0.11,0.45c-0.22,0.4-0.51,0.75-0.85,1.06c-0.04,0.04-0.11,0.05-0.16,0.07
					c-0.02,0.01-0.05,0.02-0.05,0.04c-0.01,0.08-0.02,0.17-0.03,0.25c0.01,0,0.03,0.01,0.04,0.01c0.06-0.07,0.11-0.15,0.18-0.21
					c0.09-0.08,0.18-0.17,0.29-0.22c0.09-0.04,0.14-0.08,0.15-0.17c0.01-0.05,0.05-0.08,0.09-0.12c0.02-0.02,0.05-0.04,0.07-0.07
					c0.04-0.08,0.08-0.16,0.13-0.23c0.05-0.08,0.1-0.19,0.18-0.24c0.08-0.05,0.12-0.11,0.14-0.19c0.06-0.26,0.08-0.52,0.06-0.78
					C197.73,42.26,197.71,42.22,197.7,42.17z M195.14,37.88c0,0,0,0.01-0.01,0.01c0.15,0.07,0.3,0.14,0.45,0.21
					c0.06,0.02,0.12,0.04,0.19,0.04c0.03,0,0.06-0.05,0.09-0.07c-0.03-0.03-0.05-0.09-0.09-0.09
					C195.57,37.93,195.35,37.91,195.14,37.88z M196.05,38.56c0.12,0.05,0.42,0.01,0.51-0.06C196.42,38.35,196.1,38.39,196.05,38.56z
					 M193.51,44.14c0.01,0.14,0.06,0.2,0.14,0.17c0.13-0.05,0.21-0.24,0.15-0.38C193.72,44.02,193.69,44.18,193.51,44.14z
					 M196.81,38.92c0.09-0.08,0.1-0.29,0.03-0.36c-0.04-0.04-0.08-0.03-0.08,0.02C196.74,38.69,196.75,38.81,196.81,38.92z
					 M194.8,43.1c-0.01,0.01-0.03,0.01-0.04,0.02c0.02,0.14,0.03,0.27,0.13,0.38c0.01-0.01,0.03-0.01,0.04-0.02
					C194.89,43.35,194.85,43.23,194.8,43.1z M193.39,43.18c0,0.07,0,0.14,0,0.21C193.45,43.32,193.48,43.25,193.39,43.18z"/>
				<path class="st3" d="M198.81,44.14c0.04-0.11,0.07-0.2,0.11-0.29c0.13-0.25,0.18-0.5,0.19-0.78c0.01-0.14,0.06-0.28,0.11-0.41
					c0.04-0.09,0.09-0.08,0.15-0.01c0.22,0.25,0.26,0.57,0.11,0.89c-0.12,0.25-0.31,0.44-0.56,0.56
					C198.91,44.11,198.87,44.12,198.81,44.14z"/>
				<path class="st3" d="M200.98,42.54c-0.03,0.06-0.05,0.14-0.1,0.16c-0.04,0.02-0.13,0-0.18-0.03c-0.22-0.12-0.36-0.5-0.28-0.74
					c0.03-0.11,0.11-0.14,0.2-0.08C200.77,41.97,200.96,42.34,200.98,42.54z"/>
				<path class="st3" d="M198.57,43.85c0.1-0.33,0.16-0.66,0.3-0.97C199.03,43.1,198.84,43.72,198.57,43.85z"/>
				<path class="st3" d="M198.39,41.97c0.13-0.04,0.39,0.09,0.43,0.21c0.02,0.06,0,0.11-0.06,0.11c-0.1,0-0.34-0.19-0.37-0.29
					C198.39,41.99,198.39,41.98,198.39,41.97z"/>
				<path class="st3" d="M199.11,42.59c-0.04,0.05-0.07,0.12-0.12,0.14c-0.07,0.03-0.15,0.02-0.23,0.03c0,0-0.02-0.06-0.01-0.08
					c0.05-0.07,0.1-0.14,0.17-0.19C199.01,42.43,199.09,42.48,199.11,42.59z"/>
				<path class="st3" d="M197.86,44.3c0.01,0.02,0.03,0.06,0.02,0.08c-0.04,0.12-0.11,0.21-0.22,0.27
					c-0.07,0.03-0.13-0.01-0.12-0.08C197.54,44.48,197.74,44.3,197.86,44.3z"/>
				<path class="st3" d="M198.06,44.5c0.01,0.01,0.03,0.04,0.03,0.06c0.01,0.07-0.07,0.17-0.13,0.16c-0.02,0-0.04-0.03-0.05-0.06
					C197.91,44.6,197.98,44.5,198.06,44.5z"/>
				<path class="st3" d="M197.49,39c0.04,0.06,0.09,0.11,0.12,0.17c0.01,0.01-0.01,0.04-0.01,0.07c-0.02-0.01-0.05-0.01-0.06-0.03
					c-0.03-0.06-0.06-0.12-0.09-0.19C197.47,39.02,197.48,39.01,197.49,39z"/>
			</g>
		</g>
		<g>
			<rect x="232.1" y="13.34" class="st4" width="6.51" height="28.95"/>
			<path class="st4" d="M248.21,27.8c0-6.21,4.03-9.24,9.22-9.24c2.32,0,4.16,0.5,5.49,1.04v-5.51c-1.37-0.4-3.37-0.74-5.79-0.74
				c-8.75,0-15.79,5.3-15.79,14.83c0,7.95,5.15,13.96,15.14,13.96c2.76,0,5.01-0.38,6.44-0.83V36c-1.29,0.5-3.47,0.91-5.45,0.91
				C251.64,36.91,248.21,33.39,248.21,27.8z"/>
			<polygon class="st4" points="265.7,13.34 265.7,18.81 273.32,18.81 273.32,42.13 279.77,42.13 279.77,18.81 287.52,18.81 
				287.52,13.34 			"/>
		</g>
		<g>
			<path class="st4" d="M232.3,46.9c0.77-0.13,1.78-0.2,2.84-0.2c1.76,0,2.91,0.33,3.8,1.02c0.96,0.74,1.57,1.91,1.57,3.6
				c0,1.83-0.65,3.09-1.54,3.87c-0.98,0.84-2.47,1.23-4.29,1.23c-1.09,0-1.86-0.07-2.38-0.14V46.9z M234.41,54.69
				c0.18,0.04,0.47,0.04,0.73,0.04c1.9,0.01,3.14-1.06,3.14-3.34c0.01-1.98-1.12-3.03-2.92-3.03c-0.47,0-0.77,0.04-0.95,0.08V54.69z
				"/>
			<path class="st4" d="M244,46.77v9.55h-2.11v-9.55H244z"/>
			<path class="st4" d="M248.01,56.32l-2.98-9.55h2.3l1.13,4.04c0.32,1.13,0.61,2.22,0.83,3.41h0.04c0.23-1.15,0.52-2.28,0.84-3.37
				l1.19-4.08h2.23l-3.13,9.55H248.01z"/>
			<path class="st4" d="M256.7,46.77v9.55h-2.11v-9.55H256.7z"/>
			<path class="st4" d="M258.58,54.1c0.56,0.3,1.43,0.6,2.33,0.6c0.96,0,1.47-0.41,1.47-1.03c0-0.6-0.44-0.94-1.56-1.35
				c-1.54-0.55-2.55-1.43-2.55-2.82c0-1.63,1.32-2.88,3.51-2.88c1.05,0,1.82,0.23,2.37,0.48l-0.47,1.74
				c-0.37-0.18-1.03-0.45-1.94-0.45c-0.91,0-1.35,0.43-1.35,0.92c0,0.61,0.52,0.88,1.72,1.35c1.64,0.62,2.41,1.5,2.41,2.85
				c0,1.6-1.2,2.96-3.75,2.96c-1.06,0-2.11-0.28-2.63-0.58L258.58,54.1z"/>
			<path class="st4" d="M268.06,46.77v9.55h-2.11v-9.55H268.06z"/>
			<path class="st4" d="M278.39,51.45c0,3.13-1.85,5.03-4.56,5.03c-2.76,0-4.37-2.14-4.37-4.86c0-2.86,1.78-5,4.52-5
				C276.83,46.62,278.39,48.81,278.39,51.45z M271.67,51.58c0,1.87,0.85,3.19,2.26,3.19c1.42,0,2.23-1.39,2.23-3.24
				c0-1.71-0.8-3.19-2.25-3.19C272.5,48.33,271.67,49.72,271.67,51.58z"/>
			<path class="st4" d="M279.76,56.32v-9.55h2.45l1.93,3.5c0.55,1.01,1.1,2.2,1.52,3.27h0.04c-0.14-1.26-0.18-2.55-0.18-3.98v-2.79
				h1.93v9.55h-2.21l-1.98-3.68c-0.55-1.02-1.16-2.25-1.61-3.37l-0.04,0.01c0.06,1.26,0.08,2.61,0.08,4.17v2.88H279.76z"/>
		</g>
		<g>
			<polygon class="st1" points="175.06,74.55 175.98,74.55 175.98,72.02 178.63,72.02 178.63,71.19 175.98,71.19 175.98,69.62 
				179,69.62 179,68.79 175.06,68.79 			"/>
			<path class="st1" d="M187.15,72.79c0,0.21-0.05,0.4-0.13,0.55c-0.21,0.37-0.6,0.55-1.19,0.55c-0.38,0-0.7-0.09-0.95-0.27
				c-0.24-0.19-0.36-0.46-0.36-0.83v-4.01h-0.92v4.01c0.01,0.44,0.12,0.81,0.33,1.12c0.39,0.54,1.03,0.81,1.9,0.81
				c0.55,0,1.03-0.12,1.41-0.36c0.56-0.35,0.84-0.88,0.84-1.57v-4.01h-0.92V72.79z"/>
			<polygon class="st1" points="192.52,69.62 194.35,69.62 194.35,74.55 195.27,74.55 195.27,69.62 197.09,69.62 197.09,68.79 
				192.52,68.79 			"/>
			<path class="st1" d="M205.13,72.79c0,0.21-0.05,0.4-0.13,0.55c-0.21,0.37-0.6,0.55-1.19,0.55c-0.38,0-0.7-0.09-0.95-0.27
				c-0.24-0.19-0.36-0.46-0.36-0.83v-4.01h-0.92v4.01c0.01,0.44,0.12,0.81,0.33,1.12c0.39,0.54,1.03,0.81,1.9,0.81
				c0.55,0,1.03-0.12,1.41-0.36c0.56-0.35,0.84-0.88,0.84-1.57v-4.01h-0.92V72.79z"/>
			<path class="st1" d="M215.52,74.04c-0.05-0.08-0.12-0.31-0.13-0.88c-0.01-0.46-0.05-0.78-0.14-0.98
				c-0.09-0.18-0.25-0.34-0.48-0.47c0.06-0.03,0.11-0.07,0.16-0.1c0.39-0.28,0.59-0.69,0.59-1.22c0-0.22-0.03-0.43-0.09-0.6
				c-0.22-0.65-0.8-0.99-1.71-0.99h-2.67v5.77h0.92v-2.39h1.72c0.11,0,0.2,0.01,0.28,0.03c0.35,0.08,0.53,0.36,0.53,0.86l-0.01,0.5
				c0,0.38,0.06,0.7,0.17,0.95l0.03,0.06h1.04v-0.34l-0.05-0.03C215.61,74.14,215.55,74.09,215.52,74.04z M211.97,69.62h1.61
				c0.34,0,0.59,0.06,0.73,0.19c0.17,0.14,0.25,0.36,0.25,0.67c0,0.1-0.01,0.19-0.03,0.28c-0.08,0.38-0.39,0.57-0.95,0.57h-1.61
				V69.62z"/>
			<polygon class="st1" points="221.36,72.02 224.38,72.02 224.38,71.19 221.36,71.19 221.36,69.62 224.5,69.62 224.5,68.79 
				220.43,68.79 220.43,74.55 224.63,74.55 224.63,73.72 221.36,73.72 			"/>
			<rect x="235.54" y="68.79" class="st1" width="0.93" height="5.77"/>
			<path class="st1" d="M244.48,71.43l-1.39-0.38c-0.2-0.05-0.36-0.11-0.48-0.17c-0.24-0.12-0.35-0.3-0.35-0.55
				c0-0.15,0.04-0.29,0.12-0.41c0.19-0.29,0.52-0.43,1.02-0.43c0.19,0,0.37,0.02,0.52,0.06c0.51,0.13,0.75,0.45,0.76,0.96l0,0.1
				h0.88v-0.11c0-0.35-0.08-0.66-0.23-0.93c-0.34-0.6-0.98-0.9-1.91-0.9c-0.48,0-0.89,0.09-1.23,0.27c-0.56,0.3-0.85,0.8-0.85,1.47
				c0.01,0.73,0.4,1.2,1.17,1.4l1.39,0.37c0.06,0.01,0.12,0.03,0.17,0.05c0.51,0.16,0.76,0.41,0.76,0.74l-0.01,0.09
				c-0.03,0.26-0.14,0.45-0.34,0.6c-0.21,0.14-0.53,0.22-0.96,0.22c-0.56,0-0.96-0.14-1.2-0.43c-0.18-0.22-0.27-0.48-0.26-0.78
				l0-0.11h-0.89l0,0.11c0.01,0.5,0.12,0.9,0.35,1.21c0.41,0.55,1.06,0.84,1.95,0.84c0.69,0,1.24-0.15,1.63-0.45l0.11-0.09
				c0.33-0.31,0.51-0.7,0.54-1.16v-0.11c0-0.15-0.02-0.3-0.06-0.43C245.53,71.96,245.13,71.61,244.48,71.43z"/>
			<polygon class="st1" points="260.02,71.19 257.38,71.19 257.38,68.79 256.46,68.79 256.46,74.55 257.38,74.55 257.38,72.02 
				260.02,72.02 260.02,74.55 260.95,74.55 260.95,68.79 260.02,68.79 			"/>
			<polygon class="st1" points="266.84,72.02 269.87,72.02 269.87,71.19 266.84,71.19 266.84,69.62 269.98,69.62 269.98,68.79 
				265.92,68.79 265.92,74.55 270.12,74.55 270.12,73.72 266.84,73.72 			"/>
			<path class="st1" d="M279.41,74.04c-0.05-0.08-0.12-0.31-0.13-0.88c-0.01-0.46-0.05-0.78-0.14-0.98
				c-0.09-0.18-0.25-0.34-0.48-0.47c0.06-0.03,0.11-0.07,0.16-0.1c0.39-0.28,0.59-0.69,0.59-1.22c0-0.22-0.03-0.43-0.09-0.6
				c-0.22-0.65-0.8-0.99-1.71-0.99h-2.67v5.77h0.92v-2.39h1.72c0.11,0,0.2,0.01,0.28,0.03c0.35,0.08,0.53,0.36,0.53,0.86l-0.01,0.5
				c0,0.38,0.06,0.7,0.17,0.95l0.03,0.06h1.04v-0.34l-0.05-0.03C279.5,74.14,279.45,74.09,279.41,74.04z M275.86,69.62h1.61
				c0.34,0,0.59,0.06,0.73,0.19c0.17,0.14,0.25,0.36,0.25,0.67c0,0.1-0.01,0.19-0.03,0.28c-0.08,0.38-0.39,0.57-0.95,0.57h-1.61
				V69.62z"/>
			<polygon class="st1" points="285.25,73.72 285.25,72.02 288.28,72.02 288.28,71.19 285.25,71.19 285.25,69.62 288.39,69.62 
				288.39,68.79 284.33,68.79 284.33,74.55 288.53,74.55 288.53,73.72 			"/>
		</g>
	</g>
	<g>
		<path class="st5" d="M370.46,35.77c-1.37-1.15-2.28-2.57-2.62-4.36c-0.71-3.78,2.08-7.62,5.89-8.05c4.52-0.52,8.21,2.97,7.83,7.51
			c-0.2,2.4-1.44,4.21-3.53,5.41c-0.31,0.18-0.42,0.36-0.42,0.72c0.01,6.88-0.01,13.75,0.02,20.63c0.01,1.25-0.42,2.18-1.53,2.7
			c-1.21,0.56-2.41,0.48-3.52-0.3c-0.19-0.13-0.35-0.3-0.52-0.45c-0.41-0.59-0.51-1.25-0.51-1.97c0.02-6.91,0.01-13.83,0.02-20.74
			c0-0.35-0.09-0.56-0.43-0.66l-0.03-0.01C370.88,36.05,370.67,35.91,370.46,35.77z M371.45,33.99c0.04-0.12,0.15-0.25,0.12-0.35
			c-0.19-0.66-0.09-1.31,0.05-1.96c0.12-0.55,0.4-0.98,0.84-1.31c0.93-0.71,1.92-0.93,3.08-0.6c1.06,0.3,2.13,1.35,2.06,2.49
			c-0.04,0.64,0.01,1.28,0.02,1.93c0,0.42,0,0.83,0,1.27c2.32-1.13,3.6-4.19,2.88-6.79c-0.78-2.81-3.43-4.72-6.22-4.5
			c-2.93,0.24-5.36,2.49-5.63,5.22c-0.25,2.54,1.13,5.4,2.88,5.91C371.48,34.87,371.66,34.42,371.45,33.99z"/>
		<path class="st6" d="M368.97,60.37c-1.16,0.38-2.33,0.46-3.48,0c-1.04-0.41-1.35-0.88-1.35-1.98c0-5.58,0.01-11.16-0.01-16.75
			c0-0.72,0.19-1.29,0.77-1.71c0.13-0.02,0.23-0.08,0.32-0.17l-0.03,0c0,0,0.03,0.01,0.03,0.01c1.44-0.56,2.85-0.53,4.24,0.17l0,0
			c0.13,0.11,0.25,0.21,0.38,0.32c0,0,0,0,0,0c0.24,0.33,0.38,0.67,0.38,1.09c-0.01,5.79,0,11.57,0,17.36
			c0,0.63-0.28,1.07-0.79,1.39C369.28,60.18,369.13,60.27,368.97,60.37z"/>
		<path class="st6" d="M348.29,27.02c-0.46,0-0.93-0.01-1.39,0c-0.3,0.01-0.36-0.09-0.31-0.38c0.63-4.05,2.03-7.82,4.24-11.26
			c3.58-5.59,8.49-9.57,14.71-11.91c1.82-0.69,3.71-1.17,5.64-1.46c0.34-0.05,0.39,0.04,0.39,0.34c-0.01,0.91-0.02,1.82,0,2.73
			c0.01,0.3-0.12,0.39-0.39,0.43c-10.38,1.83-18.76,9.9-20.92,20.17c-0.09,0.43-0.02,1.01-0.32,1.26c-0.3,0.26-0.86,0.05-1.3,0.08
			C348.52,27.02,348.4,27.02,348.29,27.02C348.29,27.02,348.29,27.02,348.29,27.02z"/>
		<path class="st5" d="M362.82,51.48c0,2.46-0.02,4.92,0.01,7.39c0.01,0.61-0.24,1.04-0.75,1.28c-1.53,0.74-3.09,0.74-4.62-0.01
			c-0.47-0.23-0.71-0.63-0.71-1.2c0.01-4.97,0.01-9.95,0-14.92c0-0.52,0.19-0.87,0.61-1.15c1.23-0.81,3.66-0.81,4.87,0.01
			c0.4,0.27,0.59,0.63,0.58,1.12C362.81,46.49,362.82,48.98,362.82,51.48z"/>
		<path class="st5" d="M386.13,44.49c0.59-0.6,1.17-1.2,1.77-1.8c0.34-0.34,0.77-0.3,1.16-0.15c1.59,0.63,2.7,1.75,3.31,3.35
			c0.17,0.46,0.08,0.87-0.31,1.25c-2.99,2.97-5.95,5.95-8.93,8.94c-0.64,0.64-0.97,0.72-1.8,0.33c-1.31-0.61-2.26-1.59-2.87-2.89
			c-0.36-0.78-0.27-1.12,0.33-1.72c0.33-0.32,0.67-0.64,1-0.96c0.19-0.03,0.6,0.13,0.32-0.35c0,0,0.02-0.02,0.02-0.02
			c0.08,0.02,0.11,0,0.08-0.08c0,0,0.02-0.02,0.02-0.02c0.48,0.28,0.31-0.13,0.35-0.32l0,0c0.76-0.03,0.79-0.06,0.79-0.79l0,0
			c0.19-0.04,0.6,0.13,0.32-0.35c0,0,0.02-0.02,0.02-0.01c0.08,0.02,0.11,0,0.08-0.08c0,0,0.02-0.02,0.02-0.02
			c0.51,0.28,0.3-0.16,0.34-0.34c0-0.06,0.04-0.09,0.1-0.09c0.51,0.18,0.7,0,0.7-0.68l0,0c0.19-0.04,0.6,0.13,0.32-0.35
			c0,0,0.02-0.02,0.02-0.01c0.08,0.02,0.11,0,0.08-0.08c0,0,0.02-0.02,0.02-0.02c0.51,0.28,0.3-0.16,0.34-0.34
			c0-0.06,0.04-0.09,0.1-0.09c0.51,0.18,0.7,0,0.7-0.68l0,0c0.19-0.04,0.6,0.13,0.32-0.35c0,0,0.02-0.02,0.02-0.01
			c0.08,0.02,0.11,0,0.08-0.08c0,0,0.02-0.02,0.02-0.02c0.1,0.04,0.27,0.17,0.29,0.07c0.11-0.36,0.47-0.42,0.69-0.64
			C386.16,44.86,386.19,44.7,386.13,44.49z"/>
		<path class="st6" d="M349.35,54.07c0-1.73,0.02-3.47-0.01-5.2c-0.01-0.59,0.22-0.94,0.75-1.13c1.53-0.54,3.07-0.54,4.61-0.01
			c0.53,0.18,0.76,0.53,0.76,1.12c-0.02,3.42-0.01,6.84-0.01,10.26c0,0.78-0.16,1.02-0.91,1.25c-1.39,0.43-2.8,0.44-4.19,0.01
			c-0.85-0.26-0.99-0.48-0.99-1.35C349.35,57.37,349.35,55.72,349.35,54.07z"/>
		<path class="st7" d="M346.54,69c0-1.7,0.01-3.4-0.01-5.1c0-0.33,0.1-0.42,0.42-0.42c1.7,0.02,3.4-0.02,5.1,0.05
			c2.95,0.12,4.31,1.38,4.68,4.31c0.17,1.34,0.09,2.67-0.32,3.97c-0.55,1.72-1.72,2.65-3.52,2.74c-2,0.11-4,0.04-6,0.06
			c-0.34,0-0.36-0.14-0.36-0.42C346.55,72.47,346.54,70.73,346.54,69C346.54,69,346.54,69,346.54,69z M348.92,69
			c0,1.07,0,2.15,0,3.22c0,0.24,0.01,0.41,0.33,0.4c0.91-0.03,1.82,0.04,2.72-0.06c0.83-0.09,1.49-0.45,1.8-1.26
			c0.56-1.42,0.58-2.86,0.08-4.3c-0.33-0.95-1.02-1.44-2-1.49c-0.86-0.04-1.72-0.03-2.57-0.06c-0.29-0.01-0.37,0.09-0.36,0.37
			C348.93,66.89,348.92,67.94,348.92,69z"/>
		<path class="st7" d="M371.56,10.75c-0.04,0.37,0.18,0.91-0.08,1.2c-0.23,0.26-0.75,0.25-1.14,0.37
			c-7.15,2.26-11.69,7.04-13.65,14.27c-0.09,0.34-0.21,0.45-0.56,0.43c-0.59-0.03-1.19-0.02-1.79,0c-0.32,0.01-0.4-0.1-0.33-0.4
			c0.69-3.19,1.98-6.12,3.95-8.72c3.36-4.44,7.77-7.27,13.22-8.46c0.36-0.08,0.39,0.02,0.37,0.31
			C371.55,10.07,371.56,10.39,371.56,10.75z"/>
		<path class="st8" d="M372.85,65.73c0.9-1.59,2.35-2.19,4.09-2.22c1.3-0.02,2.61-0.01,3.92-0.03c0.26,0,0.4,0.05,0.39,0.35
			c-0.02,0.43-0.02,0.86,0,1.29c0.01,0.29-0.12,0.36-0.38,0.36c-1.01-0.01-2.02,0-3.02,0c-0.61,0-1.22,0.04-1.78,0.33
			c-0.9,0.48-1.12,1.33-1.21,2.24c-0.03,0.34,0,0.69,0,1.04c-0.05,0.94,0.06,1.86,0.62,2.64c0.57,0.81,1.48,0.86,2.36,0.88
			c0.99,0.03,1.98,0.02,2.97,0c0.35-0.01,0.47,0.1,0.44,0.45c-0.03,0.36-0.03,0.73,0,1.09c0.03,0.35-0.11,0.46-0.45,0.45
			c-1.3-0.02-2.61,0-3.91-0.02c-0.56-0.01-1.12-0.07-1.66-0.22c-1.07-0.3-1.78-1.02-2.36-1.91c0,0,0,0,0,0
			c-0.13-0.33-0.26-0.67-0.39-1l0,0C372.08,69.52,372.05,67.6,372.85,65.73z"/>
		<path class="st7" d="M366.48,70.45c0,2.8-1.84,4.46-4.77,4.26c-1.39-0.09-2.58-0.6-3.29-1.87c-0.89-1.59-0.82-4.48,1.16-5.79
			c1.51-0.99,4.62-1,5.9,0.58C366.18,68.52,366.45,69.53,366.48,70.45z M360.16,70.57c0.03,0.28,0.05,0.58,0.1,0.87
			c0.19,1.02,0.95,1.59,2.03,1.56c1.04-0.03,1.67-0.62,1.83-1.65c0.08-0.53,0.09-1.05,0.01-1.58c-0.17-1.07-0.81-1.65-1.86-1.68
			c-1.11-0.03-1.78,0.49-1.99,1.58C360.21,69.96,360.19,70.26,360.16,70.57z"/>
		<path class="st8" d="M387.92,63.48c1.37,0,2.74,0,4.12,0c0.76,0,0.63-0.07,0.64,0.62c0,0.33-0.02,0.66,0.01,0.99
			c0.03,0.32-0.11,0.4-0.4,0.39c-0.93-0.01-1.85,0.01-2.78-0.02c-0.37-0.01-0.51,0.07-0.51,0.48c0.02,2.69,0,5.39,0.02,8.08
			c0,0.49-0.15,0.63-0.61,0.58c-0.41-0.04-0.83-0.04-1.24,0c-0.47,0.05-0.54-0.16-0.54-0.57c0.02-2.68,0-5.36,0.02-8.04
			c0-0.44-0.1-0.57-0.54-0.55c-0.86,0.04-1.72,0-2.58,0.01c-0.32,0.01-0.44-0.1-0.42-0.43c0.03-0.38,0.03-0.76,0-1.14
			c-0.03-0.36,0.1-0.45,0.44-0.44C385.01,63.49,386.47,63.48,387.92,63.48z"/>
		<path class="st7" d="M371.56,16.15c0,0.94,0,0.93-0.89,1.28c-4.36,1.71-7.32,4.78-8.85,9.21c-0.1,0.3-0.23,0.42-0.55,0.39
			c-0.36-0.03-0.73-0.02-1.09,0c-0.37,0.02-0.49-0.04-0.37-0.46c1.29-4.27,3.87-7.53,7.71-9.79c1.11-0.65,2.3-1.13,3.54-1.51
			c0.45-0.14,0.55-0.03,0.49,0.39C371.54,15.82,371.56,15.99,371.56,16.15z"/>
		<path class="st8" d="M370.56,74.26c0,0.06,0,0.13,0,0.19c-0.12,0.19-0.31,0.16-0.49,0.16c-0.46,0-0.93-0.02-1.39,0.01
			c-0.41,0.03-0.53-0.1-0.53-0.52c0.02-3.3,0.01-6.61,0.01-9.91c0-0.18-0.02-0.36-0.03-0.54c0.02-0.05,0.04-0.1,0.05-0.16
			c0.61,0,1.22,0.03,1.83-0.01c0.42-0.02,0.52,0.12,0.52,0.53c-0.02,3.15-0.01,6.3-0.01,9.46C370.53,73.74,370.55,74,370.56,74.26z"
			/>
		<path class="st7" d="M371.56,21.36c0.14,0.44-0.13,0.67-0.56,0.9c-1.77,0.93-3.17,2.27-4.09,4.04c-0.29,0.56-0.6,0.81-1.24,0.74
			c-0.61-0.07-0.62-0.02-0.37-0.56c1.17-2.54,3.01-4.43,5.54-5.65C371.55,20.48,371.55,20.48,371.56,21.36z"/>
		<path class="st7" d="M386.13,44.49c0.06,0.21,0.03,0.37-0.15,0.55c-0.22,0.22-0.58,0.28-0.69,0.64c-0.03,0.09-0.2-0.03-0.29-0.07
			C385.37,45.23,385.71,44.82,386.13,44.49z"/>
		<path class="st7" d="M381.37,49.26c0,0.73-0.04,0.76-0.79,0.79C380.81,49.75,381.07,49.49,381.37,49.26z"/>
		<path class="st7" d="M382.96,47.67c0,0.68-0.19,0.86-0.7,0.68C382.47,48.1,382.69,47.86,382.96,47.67z"/>
		<path class="st7" d="M384.55,46.09c0,0.68-0.19,0.86-0.7,0.68C384.06,46.52,384.28,46.28,384.55,46.09z"/>
		<path class="st7" d="M382.16,48.45c-0.04,0.19,0.17,0.62-0.34,0.34C381.93,48.68,382.05,48.56,382.16,48.45z"/>
		<path class="st7" d="M380.11,50.5c0.28,0.47-0.13,0.31-0.32,0.35C379.9,50.73,380.01,50.61,380.11,50.5z"/>
		<path class="st7" d="M383.29,47.32c0.28,0.48-0.13,0.31-0.32,0.35C383.07,47.56,383.18,47.44,383.29,47.32z"/>
		<path class="st7" d="M383.75,46.86c-0.04,0.19,0.17,0.62-0.34,0.34C383.52,47.09,383.63,46.98,383.75,46.86z"/>
		<path class="st7" d="M380.58,50.05c-0.04,0.19,0.13,0.6-0.35,0.32C380.35,50.27,380.46,50.16,380.58,50.05z"/>
		<path class="st7" d="M381.7,48.91c0.28,0.48-0.13,0.31-0.32,0.35C381.48,49.14,381.59,49.03,381.7,48.91z"/>
		<path class="st7" d="M384.87,45.74c0.28,0.48-0.13,0.31-0.32,0.35C384.66,45.97,384.77,45.85,384.87,45.74z"/>
		<path class="st7" d="M381.8,48.81c0.02,0.08,0,0.11-0.08,0.08C381.75,48.87,381.78,48.84,381.8,48.81z"/>
		<path class="st7" d="M380.22,50.4c0.02,0.08,0,0.11-0.08,0.08C380.16,50.46,380.19,50.43,380.22,50.4z"/>
		<path class="st7" d="M383.39,47.23c0.02,0.08,0,0.11-0.08,0.08C383.34,47.28,383.36,47.25,383.39,47.23z"/>
		<path class="st7" d="M384.98,45.64c0.02,0.08,0,0.11-0.08,0.08C384.92,45.69,384.95,45.67,384.98,45.64z"/>
		<path class="st8" d="M377.63,34.19c-0.01-0.64-0.06-1.29-0.02-1.93c0.07-1.14-1.01-2.19-2.06-2.49c-1.16-0.33-2.15-0.11-3.08,0.6
			c-0.44,0.34-0.72,0.76-0.84,1.31c-0.14,0.66-0.23,1.3-0.05,1.96c0.03,0.1-0.08,0.23-0.12,0.35c-1.14-0.93-1.71-2.16-1.76-3.61
			c-0.13-3.67,3.64-6.2,7.02-4.69c1.63,0.73,2.63,2.04,2.86,3.82C379.82,31.42,379.2,33.02,377.63,34.19z"/>
	</g>
	<g>
		<g>
			<polygon class="st9" points="1.93,61.84 1.93,61.84 0,57.98 3.87,57.98 			"/>
			<polygon class="st10" points="5.81,54.11 5.81,54.11 7.74,57.98 3.87,57.98 			"/>
			<polygon class="st11" points="9.67,54.11 9.67,54.11 11.6,57.98 7.74,57.98 			"/>
			<polygon class="st12" points="13.54,61.84 13.54,61.84 11.6,57.98 15.47,57.98 			"/>
			<polygon class="st13" points="17.4,61.84 17.4,61.84 15.47,57.98 19.33,57.98 			"/>
			<polygon class="st14" points="21.26,54.11 21.26,54.11 23.19,57.98 19.33,57.98 			"/>
			<polygon class="st15" points="25.13,61.84 25.13,61.84 23.19,57.98 27.06,57.98 			"/>
			<polygon class="st16" points="29,54.11 29,54.11 30.93,57.98 27.06,57.98 			"/>
			<polygon class="st17" points="32.86,54.11 32.86,54.11 34.79,57.98 30.93,57.98 			"/>
			<polygon class="st18" points="36.73,54.11 36.73,54.11 38.66,57.98 34.79,57.98 			"/>
			<polygon class="st19" points="40.59,54.11 40.59,54.11 42.53,57.98 38.66,57.98 			"/>
			<polygon class="st10" points="44.46,54.11 44.46,54.11 46.39,57.98 42.53,57.98 			"/>
			<polygon class="st20" points="48.32,54.11 48.32,54.11 50.26,57.98 46.39,57.98 			"/>
			<polygon class="st21" points="52.19,61.84 52.19,61.84 50.26,57.98 54.12,57.98 			"/>
			<polygon class="st22" points="56.05,54.11 56.05,54.11 57.99,57.98 54.12,57.98 			"/>
			<polygon class="st10" points="59.92,54.11 59.92,54.11 61.85,57.98 57.99,57.98 			"/>
			<polygon class="st23" points="63.78,61.84 63.78,61.84 61.85,57.98 65.71,57.98 			"/>
			<polygon class="st11" points="63.78,54.11 63.78,54.11 65.71,57.98 61.85,57.98 			"/>
			<polygon class="st24" points="67.65,54.11 67.65,54.11 69.58,57.98 65.71,57.98 			"/>
			<polygon class="st13" points="71.51,61.84 71.51,61.84 69.58,57.98 73.45,57.98 			"/>
			<polygon class="st10" points="65.71,50.25 65.71,50.25 63.78,54.11 67.65,54.11 			"/>
			<polygon class="st23" points="61.85,57.98 61.85,57.98 63.78,54.11 59.92,54.11 			"/>
			<polygon class="st11" points="61.85,50.25 61.85,50.25 59.92,54.11 63.78,54.11 			"/>
			<polygon class="st11" points="57.99,57.98 57.99,57.98 59.92,54.11 56.05,54.11 			"/>
			<polygon class="st12" points="57.99,50.25 57.99,50.25 56.05,54.11 59.92,54.11 			"/>
			<polygon class="st13" points="54.12,57.98 54.12,57.98 56.05,54.11 52.19,54.11 			"/>
			<polygon class="st13" points="54.12,50.25 54.12,50.25 52.19,54.11 56.05,54.11 			"/>
			<polygon class="st22" points="50.26,57.98 50.26,57.98 52.19,54.11 48.32,54.11 			"/>
			<polygon class="st25" points="50.26,50.25 50.26,50.25 48.32,54.11 52.19,54.11 			"/>
			<polygon class="st15" points="46.39,57.98 46.39,57.98 48.32,54.11 44.46,54.11 			"/>
			<polygon class="st26" points="46.39,50.25 46.39,50.25 44.46,54.11 48.32,54.11 			"/>
			<polygon class="st12" points="42.53,57.98 42.53,57.98 44.46,54.11 40.59,54.11 			"/>
			<polygon class="st13" points="42.53,50.25 42.53,50.25 40.59,54.11 44.46,54.11 			"/>
			<polygon class="st11" points="38.66,57.98 38.66,57.98 40.59,54.11 36.73,54.11 			"/>
			<polygon class="st10" points="38.66,50.25 38.66,50.25 36.73,54.11 40.59,54.11 			"/>
			<polygon class="st27" points="34.79,57.98 34.79,57.98 36.73,54.11 32.86,54.11 			"/>
			<polygon class="st12" points="34.79,50.25 34.79,50.25 32.86,54.11 36.73,54.11 			"/>
			<polygon class="st10" points="30.93,57.98 30.93,57.98 32.86,54.11 29,54.11 			"/>
			<polygon class="st16" points="30.93,50.25 30.93,50.25 29,54.11 32.86,54.11 			"/>
			<polygon class="st28" points="27.06,57.98 27.06,57.98 29,54.11 25.13,54.11 			"/>
			<polygon class="st10" points="27.06,50.25 27.06,50.25 25.13,54.11 29,54.11 			"/>
			<polygon class="st22" points="23.19,57.98 23.19,57.98 25.13,54.11 21.26,54.11 			"/>
			<polygon class="st10" points="23.19,50.25 23.19,50.25 21.26,54.11 25.13,54.11 			"/>
			<polygon class="st21" points="19.33,57.98 19.33,57.98 21.26,54.11 17.4,54.11 			"/>
			<polygon class="st29" points="19.33,50.25 19.33,50.25 17.4,54.11 21.26,54.11 			"/>
			<polygon class="st29" points="15.47,57.98 15.47,57.98 17.4,54.11 13.54,54.11 			"/>
			<polygon class="st21" points="15.47,50.25 15.47,50.25 13.54,54.11 17.4,54.11 			"/>
			<polygon class="st20" points="11.6,57.98 11.6,57.98 13.54,54.11 9.67,54.11 			"/>
			<polygon class="st10" points="11.6,50.25 11.6,50.25 9.67,54.11 13.54,54.11 			"/>
			<polygon class="st11" points="7.74,50.25 7.74,50.25 5.81,54.11 9.67,54.11 			"/>
			<polygon class="st12" points="56.05,46.38 56.05,46.38 57.99,50.25 54.12,50.25 			"/>
			<polygon class="st24" points="56.05,54.11 56.05,54.11 54.12,50.25 57.99,50.25 			"/>
			<polygon class="st13" points="52.19,46.38 52.19,46.38 54.12,50.25 50.26,50.25 			"/>
			<polygon class="st15" points="52.19,54.11 52.19,54.11 50.26,50.25 54.12,50.25 			"/>
			<polygon class="st25" points="48.32,46.38 48.32,46.38 50.26,50.25 46.39,50.25 			"/>
			<polygon class="st14" points="48.32,54.11 48.32,54.11 46.39,50.25 50.26,50.25 			"/>
			<polygon class="st15" points="44.46,46.38 44.46,46.38 46.39,50.25 42.53,50.25 			"/>
			<polygon class="st21" points="44.46,54.11 44.46,54.11 42.53,50.25 46.39,50.25 			"/>
			<polygon class="st12" points="40.59,46.38 40.59,46.38 42.53,50.25 38.66,50.25 			"/>
			<polygon class="st16" points="40.59,54.11 40.59,54.11 38.66,50.25 42.53,50.25 			"/>
			<polygon class="st28" points="36.73,46.38 36.73,46.38 38.66,50.25 34.79,50.25 			"/>
			<polygon class="st17" points="36.73,54.11 36.73,54.11 34.79,50.25 38.66,50.25 			"/>
			<polygon class="st27" points="32.86,46.38 32.86,46.38 34.79,50.25 30.93,50.25 			"/>
			<polygon class="st18" points="32.86,54.11 32.86,54.11 30.93,50.25 34.79,50.25 			"/>
			<polygon class="st10" points="29,46.38 29,46.38 30.93,50.25 27.06,50.25 			"/>
			<polygon class="st19" points="29,54.11 29,54.11 27.06,50.25 30.93,50.25 			"/>
			<polygon class="st28" points="25.13,46.38 25.13,46.38 27.06,50.25 23.19,50.25 			"/>
			<polygon class="st17" points="25.13,54.11 25.13,54.11 23.19,50.25 27.06,50.25 			"/>
			<polygon class="st22" points="21.26,46.38 21.26,46.38 23.19,50.25 19.33,50.25 			"/>
			<polygon class="st20" points="21.26,54.11 21.26,54.11 19.33,50.25 23.19,50.25 			"/>
			<polygon class="st21" points="17.4,46.38 17.4,46.38 19.33,50.25 15.47,50.25 			"/>
			<polygon class="st30" points="17.4,54.11 17.4,54.11 15.47,50.25 19.33,50.25 			"/>
			<polygon class="st22" points="13.54,54.11 13.54,54.11 11.6,50.25 15.47,50.25 			"/>
			<polygon class="st12" points="15.47,50.25 15.47,50.25 13.54,46.38 17.4,46.38 			"/>
			<polygon class="st13" points="19.33,50.25 19.33,50.25 17.4,46.38 21.26,46.38 			"/>
			<polygon class="st15" points="19.33,42.51 19.33,42.51 21.26,46.38 17.4,46.38 			"/>
			<polygon class="st25" points="23.19,50.25 23.19,50.25 21.26,46.38 25.13,46.38 			"/>
			<polygon class="st14" points="23.19,42.51 23.19,42.51 25.13,46.38 21.26,46.38 			"/>
			<polygon class="st15" points="27.06,50.25 27.06,50.25 25.13,46.38 29,46.38 			"/>
			<polygon class="st16" points="27.06,42.51 27.06,42.51 29,46.38 25.13,46.38 			"/>
			<polygon class="st12" points="30.93,50.25 30.93,50.25 29,46.38 32.86,46.38 			"/>
			<polygon class="st26" points="30.93,42.51 30.93,42.51 32.86,46.38 29,46.38 			"/>
			<polygon class="st11" points="34.79,50.25 34.79,50.25 32.86,46.38 36.73,46.38 			"/>
			<polygon class="st10" points="34.79,42.51 34.79,42.51 36.73,46.38 32.86,46.38 			"/>
			<polygon class="st13" points="38.66,50.25 38.66,50.25 36.73,46.38 40.59,46.38 			"/>
			<polygon class="st12" points="38.66,42.51 38.66,42.51 40.59,46.38 36.73,46.38 			"/>
			<polygon class="st10" points="42.53,50.25 42.53,50.25 40.59,46.38 44.46,46.38 			"/>
			<polygon class="st16" points="42.53,42.51 42.53,42.51 44.46,46.38 40.59,46.38 			"/>
			<polygon class="st28" points="46.39,50.25 46.39,50.25 44.46,46.38 48.32,46.38 			"/>
			<polygon class="st12" points="46.39,42.51 46.39,42.51 48.32,46.38 44.46,46.38 			"/>
			<polygon class="st22" points="50.26,50.25 50.26,50.25 48.32,46.38 52.19,46.38 			"/>
			<polygon class="st29" points="50.26,42.51 50.26,42.51 52.19,46.38 48.32,46.38 			"/>
			<polygon class="st21" points="54.12,50.25 54.12,50.25 52.19,46.38 56.05,46.38 			"/>
			<polygon class="st30" points="54.12,42.51 54.12,42.51 56.05,46.38 52.19,46.38 			"/>
			<polygon class="st29" points="57.99,50.25 57.99,50.25 56.05,46.38 59.92,46.38 			"/>
			<polygon class="st15" points="25.13,38.65 25.13,38.65 23.19,42.51 27.06,42.51 			"/>
			<polygon class="st26" points="25.13,46.38 25.13,46.38 27.06,42.51 23.19,42.51 			"/>
			<polygon class="st12" points="29,38.65 29,38.65 27.06,42.51 30.93,42.51 			"/>
			<polygon class="st11" points="29,46.38 29,46.38 30.93,42.51 27.06,42.51 			"/>
			<polygon class="st11" points="32.86,38.65 32.86,38.65 30.93,42.51 34.79,42.51 			"/>
			<polygon class="st17" points="32.86,46.38 32.86,46.38 34.79,42.51 30.93,42.51 			"/>
			<polygon class="st27" points="36.73,38.65 36.73,38.65 34.79,42.51 38.66,42.51 			"/>
			<polygon class="st18" points="36.73,46.38 36.73,46.38 38.66,42.51 34.79,42.51 			"/>
			<polygon class="st10" points="40.59,38.65 40.59,38.65 38.66,42.51 42.53,42.51 			"/>
			<polygon class="st19" points="40.59,46.38 40.59,46.38 42.53,42.51 38.66,42.51 			"/>
			<polygon class="st28" points="44.46,38.65 44.46,38.65 42.53,42.51 46.39,42.51 			"/>
			<polygon class="st10" points="44.46,46.38 44.46,46.38 46.39,42.51 42.53,42.51 			"/>
			<polygon class="st22" points="48.32,38.65 48.32,38.65 46.39,42.51 50.26,42.51 			"/>
			<polygon class="st20" points="48.32,46.38 48.32,46.38 50.26,42.51 46.39,42.51 			"/>
			<polygon class="st11" points="32.86,30.91 32.86,30.91 30.93,27.05 34.79,27.05 			"/>
			<polygon class="st17" points="32.86,23.19 32.86,23.19 34.79,27.05 30.93,27.05 			"/>
			<polygon class="st27" points="36.73,30.91 36.73,30.91 34.79,27.05 38.66,27.05 			"/>
			<polygon class="st18" points="36.73,23.19 36.73,23.19 38.66,27.05 34.79,27.05 			"/>
			<polygon class="st10" points="40.59,30.91 40.59,30.91 38.66,27.05 42.53,27.05 			"/>
			<polygon class="st31" points="40.59,23.19 40.59,23.19 42.53,27.05 38.66,27.05 			"/>
			<polygon class="st28" points="44.46,30.91 44.46,30.91 42.53,27.05 46.39,27.05 			"/>
			<polygon class="st10" points="30.93,27.05 30.93,27.05 32.86,23.19 29,23.19 			"/>
			<polygon class="st19" points="34.79,19.32 34.79,19.32 32.86,23.19 36.73,23.19 			"/>
			<polygon class="st16" points="34.79,27.05 34.79,27.05 36.73,23.19 32.86,23.19 			"/>
			<polygon class="st27" points="38.66,19.32 38.66,19.32 36.73,23.19 40.59,23.19 			"/>
			<polygon class="st28" points="38.66,27.05 38.66,27.05 40.59,23.19 36.73,23.19 			"/>
			<polygon class="st19" points="42.52,27.05 42.52,27.05 44.46,23.19 40.59,23.19 			"/>
			<polygon class="st25" points="50.26,42.51 50.26,42.51 52.19,38.65 48.32,38.65 			"/>
			<polygon class="st15" points="46.39,42.51 46.39,42.51 48.32,38.65 44.46,38.65 			"/>
			<polygon class="st26" points="46.39,34.78 46.39,34.78 44.46,38.65 48.32,38.65 			"/>
			<polygon class="st12" points="42.53,42.51 42.53,42.51 44.46,38.65 40.59,38.65 			"/>
			<polygon class="st16" points="42.53,34.78 42.53,34.78 40.59,38.65 44.46,38.65 			"/>
			<polygon class="st11" points="38.66,42.51 38.66,42.51 40.59,38.65 36.73,38.65 			"/>
			<polygon class="st17" points="38.66,34.78 38.66,34.78 36.73,38.65 40.59,38.65 			"/>
			<polygon class="st16" points="34.79,42.51 34.79,42.51 36.73,38.65 32.86,38.65 			"/>
			<polygon class="st18" points="34.79,34.78 34.79,34.78 32.86,38.65 36.73,38.65 			"/>
			<polygon class="st10" points="30.93,42.51 30.93,42.51 32.86,38.65 29,38.65 			"/>
			<polygon class="st19" points="30.93,34.78 30.93,34.78 29,38.65 32.86,38.65 			"/>
			<polygon class="st28" points="27.06,42.51 27.06,42.51 29,38.65 25.13,38.65 			"/>
			<polygon class="st10" points="27.06,34.78 27.06,34.78 25.13,38.65 29,38.65 			"/>
			<polygon class="st22" points="23.19,42.51 23.19,42.51 25.13,38.65 21.26,38.65 			"/>
			<polygon class="st26" points="25.13,38.65 25.13,38.65 27.06,34.78 23.19,34.78 			"/>
			<polygon class="st16" points="29,38.65 29,38.65 30.93,34.78 27.06,34.78 			"/>
			<polygon class="st11" points="32.86,30.91 32.86,30.91 30.93,34.78 34.79,34.78 			"/>
			<polygon class="st17" points="32.86,38.65 32.86,38.65 34.79,34.78 30.93,34.78 			"/>
			<polygon class="st27" points="36.73,30.91 36.73,30.91 34.79,34.78 38.66,34.78 			"/>
			<polygon class="st11" points="36.73,38.65 36.73,38.65 38.66,34.78 34.79,34.78 			"/>
			<polygon class="st10" points="40.59,30.91 40.59,30.91 38.66,34.78 42.53,34.78 			"/>
			<polygon class="st19" points="40.59,38.65 40.59,38.65 42.53,34.78 38.66,34.78 			"/>
			<polygon class="st28" points="44.46,30.91 44.46,30.91 42.53,34.78 46.39,34.78 			"/>
			<polygon class="st10" points="44.46,38.65 44.46,38.65 46.39,34.78 42.53,34.78 			"/>
			<polygon class="st20" points="48.32,38.65 48.32,38.65 50.26,34.78 46.39,34.78 			"/>
			<polygon class="st26" points="27.06,27.05 27.06,27.05 29,30.91 25.13,30.91 			"/>
			<polygon class="st26" points="50.26,27.05 50.26,27.05 52.19,30.91 48.32,30.91 			"/>
			<polygon class="st12" points="30.93,34.78 30.93,34.78 29,30.91 32.86,30.91 			"/>
			<polygon class="st16" points="30.93,27.05 30.93,27.05 32.86,30.91 29,30.91 			"/>
			<polygon class="st16" points="34.79,34.78 34.79,34.78 32.86,30.91 36.73,30.91 			"/>
			<polygon class="st17" points="34.79,27.05 34.79,27.05 36.73,30.91 32.86,30.91 			"/>
			<polygon class="st19" points="38.66,34.78 38.66,34.78 36.73,30.91 40.59,30.91 			"/>
			<polygon class="st18" points="38.66,27.05 38.66,27.05 40.59,30.91 36.73,30.91 			"/>
			<polygon class="st31" points="42.53,34.78 42.53,34.78 40.59,30.91 44.46,30.91 			"/>
			<polygon class="st19" points="42.53,27.05 42.53,27.05 44.46,30.91 40.59,30.91 			"/>
			<polygon class="st11" points="32.86,23.19 32.86,23.19 30.93,19.33 34.79,19.33 			"/>
			<polygon class="st17" points="30.93,19.33 30.93,19.33 32.86,23.19 29,23.19 			"/>
			<polygon class="st32" points="36.73,23.19 36.73,23.19 34.79,19.33 38.66,19.33 			"/>
			<polygon class="st18" points="36.73,15.47 36.73,15.47 38.66,19.33 34.79,19.33 			"/>
			<polygon class="st10" points="40.59,23.19 40.59,23.19 38.66,19.33 42.53,19.33 			"/>
			<polygon class="st19" points="40.59,15.47 40.59,15.47 42.53,19.33 38.66,19.33 			"/>
			<polygon class="st11" points="38.66,19.33 38.66,19.33 40.59,15.47 36.73,15.47 			"/>
			<polygon class="st17" points="38.66,11.6 38.66,11.6 36.73,15.47 40.59,15.47 			"/>
			<polygon class="st27" points="34.79,19.33 34.79,19.33 36.73,15.47 32.86,15.47 			"/>
			<polygon class="st18" points="34.79,11.6 34.79,11.6 32.86,15.47 36.73,15.47 			"/>
			<polygon class="st33" points="36.73,7.73 36.73,7.73 38.66,11.6 34.79,11.6 			"/>
			<polygon class="st16" points="36.73,15.47 36.73,15.47 34.79,11.6 38.66,11.6 			"/>
			<polygon class="st11" points="34.79,11.59 34.79,11.59 32.86,7.73 36.73,7.73 			"/>
			<polygon class="st27" points="38.66,11.59 38.66,11.59 36.73,7.73 40.59,7.73 			"/>
			<polygon class="st27" points="36.73,0 36.73,0 34.79,3.87 38.66,3.87 			"/>
			<polygon class="st10" points="36.73,7.73 36.73,7.73 38.66,3.87 34.79,3.87 			"/>
		</g>
		<g>
			<path class="st34" d="M67.54,41.7c-0.13,0.31-0.31,0.58-0.55,0.79c-0.24,0.21-0.52,0.37-0.86,0.48
				c-0.33,0.11-0.69,0.16-1.08,0.16h-3.61v-8.93h3.47c0.84,0,1.49,0.22,1.98,0.65c0.48,0.44,0.72,1.03,0.72,1.79
				c0,0.24-0.03,0.46-0.11,0.67c-0.07,0.21-0.16,0.39-0.27,0.56c-0.11,0.16-0.24,0.3-0.38,0.41c-0.15,0.11-0.29,0.19-0.44,0.26
				c0.18,0.07,0.34,0.16,0.5,0.28c0.16,0.12,0.3,0.26,0.42,0.43c0.13,0.17,0.23,0.36,0.3,0.59c0.08,0.23,0.11,0.48,0.11,0.77
				C67.74,41.02,67.67,41.39,67.54,41.7z M65.85,35.75c-0.27-0.22-0.62-0.33-1.05-0.33h-2.01v2.56h2.01c0.43,0,0.78-0.11,1.05-0.33
				c0.27-0.22,0.4-0.54,0.4-0.95C66.25,36.29,66.11,35.97,65.85,35.75z M66.01,39.58c-0.25-0.25-0.61-0.38-1.09-0.38h-2.13v2.72
				h2.13c0.48,0,0.84-0.13,1.09-0.38c0.25-0.25,0.38-0.58,0.38-0.98C66.39,40.15,66.26,39.82,66.01,39.58z"/>
			<path class="st34" d="M74.69,43.13l-0.62-1.79h-3.52l-0.61,1.79h-1.44l3.27-8.93h1.09l3.27,8.93H74.69z M72.34,36.24l-1.39,3.96
				h2.75L72.34,36.24z"/>
			<path class="st34" d="M82.68,43.13l-4.12-6.28v6.28h-1.36v-8.93h1.24l4.12,6.27v-6.27h1.36v8.93H82.68z"/>
			<path class="st34" d="M92.03,41.13c-0.12,0.39-0.33,0.75-0.62,1.06c-0.35,0.36-0.72,0.62-1.13,0.77
				c-0.41,0.16-0.85,0.24-1.33,0.24c-0.47,0-0.9-0.08-1.29-0.25c-0.39-0.16-0.75-0.4-1.06-0.71c-0.22-0.21-0.38-0.45-0.5-0.69
				c-0.12-0.24-0.2-0.51-0.26-0.79c-0.06-0.29-0.09-0.6-0.09-0.95c-0.01-0.34-0.01-0.73-0.01-1.16c0-0.43,0-0.81,0.01-1.16
				c0-0.35,0.04-0.66,0.09-0.95c0.05-0.28,0.14-0.55,0.26-0.79c0.12-0.24,0.28-0.47,0.5-0.69c0.31-0.31,0.66-0.55,1.05-0.71
				c0.39-0.16,0.82-0.25,1.3-0.25c0.48,0,0.9,0.08,1.27,0.22c0.37,0.15,0.69,0.35,0.96,0.6c0.27,0.25,0.49,0.54,0.66,0.88
				c0.16,0.34,0.28,0.69,0.35,1.08h-1.36c-0.12-0.49-0.34-0.87-0.66-1.15c-0.32-0.27-0.72-0.41-1.23-0.41
				c-0.27,0-0.51,0.05-0.74,0.15c-0.22,0.1-0.42,0.23-0.58,0.4c-0.11,0.12-0.19,0.25-0.27,0.38c-0.07,0.14-0.12,0.31-0.17,0.51
				c-0.03,0.21-0.06,0.46-0.08,0.75c-0.01,0.3-0.03,0.67-0.03,1.13c0,0.45,0.01,0.82,0.03,1.13c0.02,0.3,0.05,0.55,0.08,0.76
				c0.04,0.2,0.1,0.38,0.17,0.51c0.07,0.14,0.16,0.26,0.27,0.38c0.16,0.17,0.35,0.3,0.58,0.4c0.23,0.1,0.48,0.15,0.74,0.15
				c0.29,0,0.56-0.05,0.82-0.16c0.25-0.11,0.46-0.26,0.64-0.46c0.16-0.19,0.28-0.4,0.35-0.63c0.07-0.22,0.1-0.49,0.1-0.78v-0.5
				h-1.91v-1.14h3.26v1.36C92.21,40.26,92.15,40.74,92.03,41.13z"/>
			<path class="st34" d="M94.02,43.13v-8.93h1.36v7.71h4.3v1.22H94.02z"/>
			<path class="st34" d="M106.15,43.13l-0.61-1.79h-3.53l-0.61,1.79h-1.44l3.27-8.93h1.09l3.27,8.93H106.15z M103.81,36.24
				l-1.39,3.96h2.75L103.81,36.24z"/>
			<path class="st34" d="M115.01,39.6c-0.01,0.34-0.03,0.66-0.08,0.98c-0.05,0.32-0.14,0.62-0.26,0.91
				c-0.13,0.29-0.31,0.56-0.55,0.8c-0.29,0.28-0.62,0.49-1.01,0.63c-0.39,0.14-0.82,0.21-1.29,0.21h-3.13v-8.93h3.13
				c0.47,0,0.9,0.07,1.29,0.21c0.39,0.13,0.73,0.35,1.01,0.63c0.24,0.24,0.43,0.5,0.55,0.79c0.12,0.28,0.21,0.57,0.26,0.88
				c0.05,0.3,0.08,0.61,0.08,0.93c0,0.32,0.01,0.64,0.01,0.97C115.02,38.94,115.01,39.27,115.01,39.6z M113.6,37.05
				c-0.04-0.42-0.18-0.76-0.41-1.02c-0.37-0.4-0.88-0.6-1.52-0.6h-1.65v6.5h1.65c0.64,0,1.15-0.2,1.52-0.6
				c0.23-0.26,0.37-0.62,0.41-1.08c0.04-0.46,0.06-1.01,0.06-1.62C113.66,37.99,113.64,37.47,113.6,37.05z"/>
			<path class="st34" d="M116.83,43.13v-8.93h5.7v1.21h-4.35v2.61h3.71v1.2h-3.71v2.68h4.35v1.22H116.83z"/>
			<path class="st34" d="M129.54,41.69c-0.16,0.33-0.38,0.6-0.67,0.83c-0.28,0.23-0.62,0.4-1.01,0.51
				c-0.39,0.12-0.82,0.18-1.29,0.18c-0.68,0-1.26-0.09-1.77-0.27c-0.5-0.17-0.96-0.48-1.39-0.91l0.9-0.89
				c0.32,0.33,0.67,0.55,1.04,0.67c0.37,0.12,0.78,0.18,1.24,0.18c0.58,0,1.04-0.12,1.36-0.36c0.32-0.24,0.49-0.58,0.49-1.01
				c0-0.41-0.12-0.71-0.36-0.92c-0.12-0.11-0.24-0.19-0.38-0.24c-0.13-0.05-0.34-0.1-0.6-0.14l-1.05-0.15
				c-0.72-0.1-1.29-0.34-1.69-0.71c-0.44-0.41-0.65-0.98-0.65-1.71c0-0.38,0.07-0.73,0.2-1.06c0.14-0.32,0.34-0.6,0.59-0.83
				c0.26-0.23,0.57-0.41,0.93-0.54c0.37-0.12,0.79-0.19,1.25-0.19c0.59,0,1.11,0.08,1.54,0.24c0.44,0.16,0.85,0.42,1.23,0.78
				L128.61,36c-0.28-0.27-0.58-0.45-0.9-0.55c-0.32-0.1-0.67-0.14-1.04-0.14c-0.53,0-0.93,0.13-1.21,0.39
				c-0.28,0.26-0.42,0.6-0.42,1c0,0.17,0.03,0.32,0.08,0.46c0.05,0.13,0.14,0.26,0.26,0.37c0.23,0.21,0.57,0.34,1,0.41l1.02,0.15
				c0.42,0.07,0.75,0.15,1,0.26c0.25,0.11,0.47,0.24,0.67,0.41c0.24,0.21,0.42,0.48,0.54,0.79c0.12,0.31,0.18,0.66,0.18,1.04
				C129.78,41,129.7,41.37,129.54,41.69z"/>
			<path class="st34" d="M136.39,43.13v-3.9h-3.63v3.9h-1.35v-8.93h1.35v3.81h3.63v-3.81h1.35v8.93H136.39z"/>
		</g>
		<g>
			<path class="st35" d="M9.84,71.46c-0.12,0.26-0.3,0.48-0.54,0.66c-0.22,0.18-0.49,0.32-0.81,0.41c-0.31,0.1-0.66,0.15-1.03,0.15
				c-0.55,0-1.02-0.07-1.42-0.21c-0.4-0.14-0.77-0.38-1.11-0.73l0.72-0.71c0.27,0.26,0.54,0.44,0.84,0.53
				c0.29,0.1,0.63,0.15,0.99,0.15c0.47,0,0.83-0.09,1.09-0.28c0.25-0.2,0.39-0.46,0.39-0.81c0-0.33-0.1-0.58-0.29-0.75
				c-0.09-0.09-0.19-0.15-0.3-0.19c-0.11-0.04-0.27-0.07-0.49-0.11l-0.84-0.12c-0.58-0.09-1.03-0.27-1.35-0.58
				c-0.35-0.32-0.53-0.78-0.53-1.36c0-0.3,0.06-0.59,0.17-0.84c0.11-0.26,0.26-0.48,0.47-0.67c0.2-0.19,0.45-0.33,0.75-0.43
				c0.3-0.1,0.62-0.15,1-0.15c0.47,0,0.88,0.06,1.23,0.19c0.35,0.13,0.67,0.33,0.98,0.62l-0.69,0.69c-0.22-0.22-0.46-0.36-0.71-0.44
				c-0.26-0.07-0.53-0.12-0.84-0.12c-0.42,0-0.74,0.11-0.97,0.32c-0.22,0.21-0.34,0.48-0.34,0.8c0,0.13,0.03,0.25,0.07,0.36
				c0.05,0.11,0.11,0.21,0.2,0.3c0.19,0.16,0.46,0.27,0.81,0.33l0.81,0.12c0.33,0.06,0.61,0.13,0.8,0.21
				c0.2,0.08,0.38,0.19,0.53,0.32c0.19,0.17,0.34,0.39,0.43,0.63c0.1,0.25,0.15,0.52,0.15,0.83C10.03,70.91,9.97,71.21,9.84,71.46z"
				/>
			<path class="st35" d="M14.32,72.62l-1.43-2.35l-0.75,0.86v1.49h-1.02v-7.14h1.02v4.4l1.98-2.35h1.23l-1.76,1.99l1.99,3.09H14.32z
				"/>
			<path class="st35" d="M16.34,66.54v-1.08h1.08v1.08H16.34z M16.37,72.62v-5.08h1.02v5.08H16.37z"/>
			<path class="st35" d="M20.14,72.62c-0.24,0-0.45-0.04-0.62-0.12c-0.18-0.07-0.32-0.18-0.43-0.3c-0.12-0.13-0.2-0.28-0.25-0.45
				c-0.06-0.17-0.08-0.35-0.08-0.53v-5.73h1.02v5.67c0,0.2,0.04,0.35,0.11,0.44c0.08,0.1,0.23,0.15,0.43,0.15h0.45v0.88H20.14z"/>
			<path class="st35" d="M23.01,72.62c-0.24,0-0.45-0.04-0.63-0.12c-0.17-0.07-0.32-0.18-0.43-0.3c-0.11-0.13-0.19-0.28-0.25-0.45
				c-0.05-0.17-0.08-0.35-0.08-0.53v-5.73h1.02v5.67c0,0.2,0.04,0.35,0.12,0.44c0.09,0.1,0.22,0.15,0.43,0.15h0.45v0.88H23.01z"/>
			<path class="st35" d="M25.03,70.37c0,0.44,0.12,0.78,0.33,1.04c0.22,0.26,0.54,0.38,0.96,0.38c0.29,0,0.52-0.04,0.71-0.13
				c0.17-0.08,0.35-0.21,0.53-0.39l0.65,0.61c-0.13,0.14-0.26,0.25-0.4,0.34c-0.13,0.1-0.27,0.18-0.42,0.24
				c-0.15,0.07-0.31,0.13-0.49,0.15c-0.17,0.04-0.37,0.06-0.6,0.06c-0.32,0-0.62-0.05-0.9-0.14c-0.27-0.09-0.52-0.24-0.72-0.44
				c-0.21-0.2-0.37-0.47-0.5-0.8c-0.12-0.34-0.18-0.74-0.18-1.23c0-0.83,0.2-1.47,0.59-1.92c0.39-0.45,0.91-0.67,1.57-0.67
				c0.34,0,0.65,0.06,0.91,0.18c0.27,0.12,0.49,0.29,0.67,0.51c0.19,0.21,0.33,0.47,0.42,0.77c0.1,0.3,0.15,0.63,0.15,0.99v0.46
				H25.03z M27.29,69.28c-0.02-0.1-0.06-0.2-0.11-0.32c-0.08-0.19-0.2-0.35-0.38-0.47c-0.17-0.12-0.39-0.17-0.62-0.17
				c-0.24,0-0.45,0.06-0.62,0.17c-0.18,0.12-0.31,0.27-0.39,0.47c-0.05,0.11-0.09,0.22-0.09,0.32c-0.02,0.1-0.02,0.22-0.04,0.38
				h2.29C27.32,69.51,27.3,69.39,27.29,69.28z"/>
			<path class="st35" d="M32.35,72.62v-0.54c-0.19,0.23-0.39,0.39-0.6,0.47c-0.21,0.09-0.46,0.13-0.74,0.13
				c-0.25,0-0.49-0.04-0.71-0.12c-0.22-0.08-0.39-0.19-0.54-0.33c-0.13-0.13-0.23-0.27-0.32-0.44c-0.07-0.17-0.13-0.35-0.17-0.53
				c-0.04-0.2-0.06-0.39-0.07-0.59c-0.01-0.21-0.03-0.4-0.03-0.59c0-0.19,0.02-0.39,0.03-0.59c0.01-0.2,0.03-0.39,0.07-0.58
				c0.04-0.19,0.1-0.37,0.17-0.53c0.08-0.17,0.18-0.31,0.32-0.44c0.14-0.14,0.31-0.25,0.53-0.33c0.21-0.08,0.45-0.12,0.69-0.12
				c0.28,0,0.52,0.04,0.74,0.12c0.21,0.08,0.42,0.23,0.6,0.45v-2.57h1.02v7.14H32.35z M32.3,69.43c-0.03-0.21-0.07-0.39-0.15-0.54
				c-0.07-0.16-0.18-0.28-0.32-0.37c-0.14-0.09-0.32-0.13-0.54-0.13c-0.24,0-0.42,0.05-0.56,0.13c-0.14,0.09-0.24,0.22-0.32,0.37
				c-0.08,0.15-0.14,0.33-0.16,0.54c-0.02,0.2-0.03,0.42-0.03,0.64c0,0.22,0.01,0.44,0.03,0.65c0.02,0.21,0.08,0.39,0.16,0.54
				c0.08,0.16,0.18,0.28,0.32,0.37c0.14,0.09,0.32,0.14,0.56,0.14c0.22,0,0.4-0.05,0.54-0.14c0.14-0.09,0.25-0.21,0.32-0.37
				c0.08-0.15,0.12-0.34,0.15-0.54c0.02-0.2,0.04-0.42,0.04-0.65C32.33,69.85,32.32,69.63,32.3,69.43z"/>
			<path class="st35" d="M34.71,72.62V71.4h1.23v1.22H34.71z"/>
			<path class="st35" d="M39.56,72.62v-7.14h4.56v0.97h-3.47v2.09h2.96v0.96h-2.96v2.15h3.47v0.97H39.56z"/>
			<path class="st35" d="M48.14,74.67v-2.58c-0.19,0.22-0.38,0.37-0.59,0.45c-0.22,0.09-0.46,0.13-0.73,0.13
				c-0.26,0-0.49-0.04-0.7-0.12c-0.21-0.08-0.39-0.19-0.52-0.33c-0.13-0.13-0.24-0.27-0.32-0.44c-0.07-0.17-0.13-0.35-0.17-0.53
				c-0.04-0.2-0.07-0.39-0.08-0.59c0-0.21-0.01-0.4-0.01-0.59c0-0.19,0.01-0.39,0.01-0.59c0.01-0.2,0.04-0.39,0.08-0.58
				c0.04-0.19,0.1-0.37,0.17-0.53c0.08-0.17,0.18-0.31,0.32-0.44c0.13-0.14,0.31-0.25,0.53-0.33c0.21-0.08,0.46-0.12,0.7-0.12
				c0.28,0,0.53,0.04,0.74,0.12c0.22,0.09,0.41,0.24,0.61,0.48v-0.54h1v7.14H48.14z M48.11,69.43c-0.03-0.21-0.08-0.39-0.15-0.54
				c-0.07-0.16-0.18-0.28-0.32-0.37c-0.14-0.09-0.33-0.13-0.55-0.13c-0.24,0-0.42,0.05-0.56,0.13c-0.13,0.09-0.24,0.22-0.32,0.37
				c-0.07,0.15-0.12,0.33-0.15,0.54c-0.03,0.2-0.04,0.42-0.04,0.64c0,0.22,0.01,0.44,0.04,0.65c0.02,0.21,0.07,0.39,0.15,0.54
				c0.08,0.16,0.19,0.28,0.32,0.37c0.14,0.09,0.32,0.14,0.56,0.14c0.22,0,0.41-0.05,0.55-0.14c0.14-0.09,0.25-0.21,0.32-0.37
				c0.07-0.15,0.12-0.34,0.15-0.54c0.02-0.2,0.03-0.42,0.03-0.65C48.14,69.85,48.13,69.63,48.11,69.43z"/>
			<path class="st35" d="M53.61,72.62v-0.51c-0.17,0.19-0.38,0.34-0.62,0.42c-0.23,0.1-0.48,0.15-0.74,0.15
				c-0.26,0-0.5-0.04-0.7-0.12c-0.21-0.08-0.39-0.19-0.55-0.34c-0.19-0.19-0.33-0.41-0.4-0.65c-0.07-0.24-0.11-0.5-0.11-0.79v-3.25
				h1.02v3.1c0,0.39,0.1,0.68,0.3,0.86c0.2,0.18,0.44,0.27,0.73,0.27c0.14,0,0.27-0.03,0.4-0.07c0.13-0.04,0.25-0.11,0.34-0.2
				c0.09-0.1,0.16-0.21,0.22-0.36c0.06-0.15,0.08-0.31,0.08-0.51v-3.1h1.02v5.08H53.61z"/>
			<path class="st35" d="M55.97,66.54v-1.08h1.08v1.08H55.97z M56,72.62v-5.08h1.02v5.08H56z"/>
			<path class="st35" d="M62.55,70.67c-0.01,0.2-0.04,0.39-0.08,0.59c-0.04,0.19-0.11,0.37-0.18,0.53c-0.08,0.16-0.18,0.31-0.3,0.44
				c-0.14,0.14-0.32,0.25-0.54,0.33c-0.21,0.08-0.44,0.12-0.7,0.12c-0.28,0-0.52-0.04-0.73-0.13c-0.21-0.08-0.41-0.23-0.6-0.45v2.58
				H58.4v-7.14h1v0.54c0.19-0.24,0.4-0.39,0.61-0.48c0.21-0.09,0.45-0.12,0.73-0.12c0.25,0,0.49,0.04,0.71,0.12
				c0.21,0.08,0.4,0.19,0.54,0.33c0.12,0.13,0.23,0.27,0.3,0.44c0.07,0.17,0.14,0.34,0.18,0.53c0.04,0.19,0.06,0.38,0.08,0.58
				c0.01,0.2,0.01,0.4,0.01,0.59C62.56,70.26,62.56,70.46,62.55,70.67z M61.5,69.43c-0.02-0.21-0.07-0.39-0.14-0.54
				c-0.07-0.16-0.18-0.28-0.32-0.37c-0.14-0.09-0.33-0.13-0.55-0.13c-0.23,0-0.41,0.05-0.56,0.13c-0.13,0.09-0.24,0.22-0.31,0.37
				c-0.08,0.15-0.13,0.33-0.15,0.54c-0.03,0.2-0.04,0.42-0.04,0.64c0,0.22,0.01,0.44,0.04,0.65c0.02,0.21,0.07,0.39,0.15,0.54
				c0.08,0.16,0.18,0.28,0.31,0.37c0.15,0.09,0.33,0.14,0.56,0.14c0.22,0,0.41-0.05,0.55-0.14c0.14-0.09,0.24-0.21,0.32-0.37
				c0.07-0.15,0.12-0.34,0.14-0.54c0.03-0.2,0.04-0.42,0.04-0.65C61.53,69.85,61.53,69.63,61.5,69.43z"/>
			<path class="st35" d="M67.84,70.67c-0.01,0.2-0.03,0.39-0.07,0.59c-0.04,0.19-0.09,0.37-0.17,0.53
				c-0.08,0.16-0.18,0.31-0.31,0.44c-0.14,0.14-0.32,0.25-0.53,0.33c-0.21,0.08-0.45,0.12-0.7,0.12c-0.27,0-0.52-0.04-0.73-0.13
				c-0.22-0.08-0.41-0.23-0.6-0.45v2.58H63.7v-7.14h1.01v0.54c0.19-0.24,0.39-0.39,0.6-0.48c0.21-0.09,0.46-0.12,0.74-0.12
				c0.25,0,0.49,0.04,0.7,0.12c0.22,0.08,0.4,0.19,0.54,0.33c0.12,0.13,0.23,0.27,0.31,0.44c0.08,0.17,0.13,0.34,0.17,0.53
				c0.04,0.19,0.07,0.38,0.07,0.58c0.01,0.2,0.02,0.4,0.02,0.59C67.86,70.26,67.85,70.46,67.84,70.67z M66.8,69.43
				c-0.02-0.21-0.06-0.39-0.15-0.54c-0.07-0.16-0.18-0.28-0.31-0.37c-0.15-0.09-0.33-0.13-0.56-0.13c-0.24,0-0.42,0.05-0.56,0.13
				c-0.13,0.09-0.24,0.22-0.32,0.37c-0.08,0.15-0.13,0.33-0.15,0.54c-0.03,0.2-0.03,0.42-0.03,0.64c0,0.22,0,0.44,0.03,0.65
				c0.02,0.21,0.07,0.39,0.15,0.54c0.08,0.16,0.18,0.28,0.32,0.37c0.14,0.09,0.32,0.14,0.56,0.14c0.23,0,0.41-0.05,0.56-0.14
				c0.13-0.09,0.24-0.21,0.31-0.37c0.08-0.15,0.13-0.34,0.15-0.54c0.03-0.2,0.04-0.42,0.04-0.65C66.83,69.85,66.83,69.63,66.8,69.43
				z"/>
			<path class="st35" d="M69.77,70.37c0,0.44,0.1,0.78,0.33,1.04c0.21,0.26,0.54,0.38,0.96,0.38c0.29,0,0.52-0.04,0.7-0.13
				c0.18-0.08,0.35-0.21,0.54-0.39l0.65,0.61c-0.13,0.14-0.26,0.25-0.4,0.34c-0.13,0.1-0.27,0.18-0.42,0.24
				c-0.15,0.07-0.32,0.13-0.5,0.15c-0.17,0.04-0.37,0.06-0.59,0.06c-0.32,0-0.62-0.05-0.9-0.14c-0.28-0.09-0.52-0.24-0.72-0.44
				c-0.21-0.2-0.38-0.47-0.5-0.8c-0.12-0.34-0.18-0.74-0.18-1.23c0-0.83,0.2-1.47,0.59-1.92c0.4-0.45,0.92-0.67,1.57-0.67
				c0.34,0,0.64,0.06,0.91,0.18c0.27,0.12,0.5,0.29,0.68,0.51c0.18,0.21,0.32,0.47,0.42,0.77c0.1,0.3,0.15,0.63,0.15,0.99v0.46
				H69.77z M72.01,69.28c-0.01-0.1-0.05-0.2-0.11-0.32c-0.08-0.19-0.2-0.35-0.38-0.47c-0.17-0.12-0.38-0.17-0.62-0.17
				c-0.24,0-0.45,0.06-0.62,0.17c-0.18,0.12-0.32,0.27-0.39,0.47c-0.06,0.11-0.09,0.22-0.1,0.32c-0.02,0.1-0.03,0.22-0.03,0.38h2.28
				C72.04,69.51,72.02,69.39,72.01,69.28z"/>
			<path class="st35" d="M77.07,72.62v-0.54c-0.19,0.23-0.39,0.39-0.6,0.47c-0.21,0.09-0.46,0.13-0.74,0.13
				c-0.25,0-0.49-0.04-0.7-0.12c-0.22-0.08-0.4-0.19-0.54-0.33c-0.13-0.13-0.24-0.27-0.31-0.44c-0.08-0.17-0.13-0.35-0.17-0.53
				c-0.04-0.2-0.07-0.39-0.08-0.59c-0.01-0.21-0.02-0.4-0.02-0.59c0-0.19,0.01-0.39,0.02-0.59c0.01-0.2,0.04-0.39,0.08-0.58
				c0.04-0.19,0.09-0.37,0.17-0.53c0.07-0.17,0.18-0.31,0.31-0.44c0.14-0.14,0.31-0.25,0.52-0.33c0.21-0.08,0.45-0.12,0.7-0.12
				c0.27,0,0.52,0.04,0.73,0.12c0.22,0.08,0.42,0.23,0.6,0.45v-2.57h1.03v7.14H77.07z M77.02,69.43c-0.02-0.21-0.07-0.39-0.14-0.54
				c-0.07-0.16-0.18-0.28-0.32-0.37c-0.14-0.09-0.32-0.13-0.56-0.13c-0.23,0-0.42,0.05-0.55,0.13c-0.14,0.09-0.24,0.22-0.32,0.37
				c-0.08,0.15-0.13,0.33-0.15,0.54c-0.02,0.2-0.03,0.42-0.03,0.64c0,0.22,0.01,0.44,0.03,0.65c0.02,0.21,0.07,0.39,0.15,0.54
				c0.08,0.16,0.18,0.28,0.32,0.37c0.13,0.09,0.32,0.14,0.55,0.14c0.24,0,0.41-0.05,0.56-0.14c0.14-0.09,0.25-0.21,0.32-0.37
				c0.07-0.15,0.12-0.34,0.14-0.54c0.02-0.2,0.04-0.42,0.04-0.65C77.05,69.85,77.04,69.63,77.02,69.43z"/>
			<path class="st35" d="M79.43,72.62V71.4h1.22v1.22H79.43z"/>
			<path class="st35" d="M89.35,69.79c0,0.26-0.03,0.53-0.07,0.78c-0.04,0.25-0.11,0.5-0.21,0.73c-0.1,0.24-0.24,0.45-0.44,0.64
				c-0.23,0.23-0.5,0.4-0.82,0.51c-0.31,0.11-0.65,0.17-1.03,0.17h-2.51v-7.14h2.51c0.38,0,0.72,0.06,1.03,0.17
				c0.31,0.11,0.59,0.28,0.82,0.5c0.19,0.19,0.34,0.4,0.44,0.63c0.11,0.22,0.17,0.46,0.21,0.7c0.04,0.25,0.07,0.49,0.07,0.75
				c0.01,0.26,0.01,0.51,0.01,0.77C89.36,69.26,89.36,69.52,89.35,69.79z M88.22,67.75c-0.03-0.34-0.14-0.61-0.34-0.82
				c-0.29-0.32-0.69-0.48-1.21-0.48h-1.31v5.19h1.31c0.52,0,0.92-0.16,1.21-0.48c0.2-0.21,0.3-0.5,0.34-0.87
				c0.04-0.36,0.05-0.8,0.05-1.29C88.28,68.5,88.27,68.09,88.22,67.75z"/>
			<path class="st35" d="M90.57,66.54v-1.08h1.09v1.08H90.57z M90.6,72.62v-5.08h1.02v5.08H90.6z"/>
			<path class="st35" d="M96.73,73.44c-0.09,0.26-0.25,0.49-0.43,0.68c-0.19,0.19-0.41,0.33-0.68,0.44
				c-0.27,0.11-0.58,0.16-0.91,0.16c-0.39,0-0.72-0.05-0.99-0.15c-0.27-0.1-0.54-0.28-0.8-0.52l0.65-0.65
				c0.16,0.15,0.32,0.26,0.47,0.34c0.16,0.07,0.37,0.1,0.62,0.1c0.21,0,0.4-0.03,0.54-0.1c0.15-0.07,0.28-0.16,0.37-0.28
				c0.09-0.12,0.17-0.26,0.22-0.41c0.04-0.16,0.06-0.32,0.06-0.49v-0.66c-0.19,0.22-0.39,0.37-0.6,0.46
				c-0.21,0.08-0.45,0.12-0.71,0.12c-0.26,0-0.49-0.04-0.69-0.12c-0.21-0.09-0.38-0.19-0.52-0.33c-0.25-0.25-0.4-0.55-0.47-0.9
				c-0.07-0.35-0.1-0.73-0.1-1.17c0-0.43,0.04-0.82,0.1-1.17c0.07-0.35,0.22-0.64,0.47-0.89c0.29-0.3,0.69-0.44,1.22-0.44
				c0.27,0,0.52,0.04,0.72,0.12c0.22,0.09,0.42,0.24,0.61,0.48v-0.54h0.99v5.05C96.88,72.9,96.83,73.19,96.73,73.44z M95.83,69.4
				c-0.02-0.19-0.06-0.36-0.13-0.51c-0.07-0.15-0.18-0.28-0.31-0.37c-0.14-0.09-0.33-0.13-0.56-0.13c-0.23,0-0.41,0.05-0.55,0.13
				c-0.14,0.09-0.24,0.22-0.31,0.37c-0.07,0.15-0.12,0.32-0.14,0.51c-0.02,0.19-0.04,0.39-0.04,0.59c0,0.2,0.01,0.4,0.04,0.59
				c0.02,0.19,0.07,0.36,0.14,0.51c0.07,0.15,0.17,0.28,0.31,0.36c0.14,0.09,0.32,0.14,0.55,0.14c0.23,0,0.41-0.05,0.56-0.14
				c0.13-0.09,0.24-0.21,0.31-0.36c0.08-0.15,0.12-0.32,0.13-0.51c0.02-0.19,0.04-0.39,0.04-0.59
				C95.86,69.79,95.85,69.58,95.83,69.4z"/>
			<path class="st35" d="M98.23,66.54v-1.08h1.08v1.08H98.23z M98.27,72.62v-5.08h1.02v5.08H98.27z"/>
			<path class="st35" d="M102.18,72.62c-0.24,0-0.45-0.04-0.62-0.12c-0.17-0.08-0.32-0.19-0.43-0.31c-0.12-0.13-0.2-0.29-0.26-0.45
				c-0.05-0.17-0.08-0.35-0.08-0.53v-2.8h-0.58v-0.79h0.58v-1.54h1.03v1.54h0.98v0.79h-0.98v2.74c0,0.19,0.04,0.34,0.13,0.44
				c0.09,0.11,0.23,0.15,0.43,0.15h0.42v0.88H102.18z"/>
			<path class="st35" d="M106.54,72.62v-0.46c-0.19,0.18-0.38,0.31-0.59,0.4c-0.2,0.08-0.45,0.12-0.77,0.12
				c-0.32,0-0.59-0.04-0.81-0.12c-0.22-0.07-0.4-0.19-0.56-0.34c-0.26-0.28-0.4-0.65-0.4-1.09c0-0.43,0.15-0.78,0.44-1.06
				c0.29-0.27,0.73-0.41,1.32-0.41h1.34V69.3c0-0.32-0.08-0.57-0.26-0.72c-0.16-0.16-0.45-0.24-0.85-0.24
				c-0.28,0-0.5,0.04-0.66,0.11c-0.17,0.07-0.31,0.2-0.45,0.38l-0.67-0.63c0.24-0.28,0.5-0.48,0.78-0.58
				c0.27-0.1,0.62-0.15,1.05-0.15c1.4,0,2.1,0.58,2.1,1.74v3.4H106.54z M106.52,70.37h-1.19c-0.31,0-0.53,0.06-0.68,0.19
				c-0.16,0.13-0.24,0.31-0.24,0.54c0,0.23,0.08,0.41,0.23,0.53c0.15,0.12,0.38,0.19,0.7,0.19c0.19,0,0.36-0.01,0.51-0.05
				c0.16-0.03,0.31-0.11,0.44-0.24c0.15-0.15,0.22-0.4,0.22-0.75V70.37z"/>
			<path class="st35" d="M110.24,72.62c-0.24,0-0.45-0.04-0.63-0.12c-0.17-0.07-0.32-0.18-0.44-0.3c-0.11-0.13-0.2-0.28-0.25-0.45
				c-0.06-0.17-0.09-0.35-0.09-0.53v-5.73h1.03v5.67c0,0.2,0.04,0.35,0.12,0.44c0.08,0.1,0.22,0.15,0.43,0.15h0.45v0.88H110.24z"/>
			<path class="st35" d="M115.81,72.62l-1.5-3.01h-1.35v3.01h-1.08v-7.14h2.76c0.34,0,0.65,0.05,0.92,0.16
				c0.27,0.11,0.5,0.24,0.69,0.43c0.19,0.19,0.34,0.41,0.45,0.66c0.11,0.26,0.16,0.54,0.16,0.84c0,0.51-0.14,0.93-0.42,1.25
				c-0.27,0.31-0.61,0.53-1.02,0.65l1.65,3.16H115.81z M115.43,66.75c-0.22-0.2-0.51-0.29-0.88-0.29h-1.6v2.25h1.6
				c0.37,0,0.66-0.1,0.88-0.29c0.22-0.2,0.34-0.47,0.34-0.83C115.77,67.22,115.65,66.95,115.43,66.75z"/>
			<path class="st35" d="M118.83,70.37c0,0.44,0.12,0.78,0.33,1.04c0.22,0.26,0.54,0.38,0.97,0.38c0.29,0,0.51-0.04,0.7-0.13
				c0.18-0.08,0.35-0.21,0.53-0.39l0.65,0.61c-0.14,0.14-0.26,0.25-0.4,0.34c-0.12,0.1-0.26,0.18-0.41,0.24
				c-0.16,0.07-0.32,0.13-0.49,0.15c-0.18,0.04-0.37,0.06-0.6,0.06c-0.31,0-0.62-0.05-0.89-0.14c-0.28-0.09-0.53-0.24-0.73-0.44
				c-0.2-0.2-0.36-0.47-0.49-0.8c-0.12-0.34-0.18-0.74-0.18-1.23c0-0.83,0.2-1.47,0.59-1.92c0.39-0.45,0.91-0.67,1.57-0.67
				c0.35,0,0.65,0.06,0.91,0.18c0.27,0.12,0.5,0.29,0.68,0.51c0.19,0.21,0.32,0.47,0.42,0.77c0.1,0.3,0.15,0.63,0.15,0.99v0.46
				H118.83z M121.08,69.28c-0.02-0.1-0.05-0.2-0.1-0.32c-0.09-0.19-0.21-0.35-0.39-0.47c-0.16-0.12-0.38-0.17-0.62-0.17
				c-0.23,0-0.45,0.06-0.62,0.17c-0.18,0.12-0.31,0.27-0.39,0.47c-0.06,0.11-0.09,0.22-0.1,0.32c-0.01,0.1-0.03,0.22-0.04,0.38h2.29
				C121.12,69.51,121.1,69.39,121.08,69.28z"/>
			<path class="st35" d="M125.97,72.62v-0.46c-0.19,0.18-0.38,0.31-0.58,0.4c-0.2,0.08-0.46,0.12-0.78,0.12
				c-0.32,0-0.59-0.04-0.8-0.12c-0.21-0.07-0.4-0.19-0.56-0.34c-0.27-0.28-0.39-0.65-0.39-1.09c0-0.43,0.14-0.78,0.43-1.06
				c0.3-0.27,0.73-0.41,1.32-0.41h1.34V69.3c0-0.32-0.09-0.57-0.25-0.72c-0.17-0.16-0.46-0.24-0.85-0.24
				c-0.28,0-0.51,0.04-0.66,0.11c-0.16,0.07-0.31,0.2-0.44,0.38l-0.67-0.63c0.24-0.28,0.5-0.48,0.77-0.58
				c0.28-0.1,0.63-0.15,1.05-0.15c1.39,0,2.1,0.58,2.1,1.74v3.4H125.97z M125.95,70.37h-1.19c-0.3,0-0.53,0.06-0.68,0.19
				c-0.15,0.13-0.23,0.31-0.23,0.54c0,0.23,0.07,0.41,0.22,0.53c0.15,0.12,0.39,0.19,0.7,0.19c0.2,0,0.37-0.01,0.53-0.05
				c0.15-0.03,0.29-0.11,0.43-0.24c0.15-0.15,0.22-0.4,0.22-0.75V70.37z"/>
			<path class="st35" d="M131.22,72.62v-0.54c-0.2,0.23-0.39,0.39-0.61,0.47c-0.21,0.09-0.46,0.13-0.73,0.13
				c-0.26,0-0.49-0.04-0.71-0.12c-0.22-0.08-0.39-0.19-0.53-0.33c-0.13-0.13-0.23-0.27-0.31-0.44c-0.08-0.17-0.14-0.35-0.18-0.53
				c-0.04-0.2-0.07-0.39-0.08-0.59c-0.01-0.21-0.01-0.4-0.01-0.59c0-0.19,0-0.39,0.01-0.59c0.01-0.2,0.04-0.39,0.08-0.58
				c0.04-0.19,0.1-0.37,0.18-0.53c0.08-0.17,0.17-0.31,0.31-0.44c0.14-0.14,0.32-0.25,0.53-0.33c0.21-0.08,0.44-0.12,0.7-0.12
				c0.28,0,0.52,0.04,0.73,0.12c0.21,0.08,0.42,0.23,0.6,0.45v-2.57h1.02v7.14H131.22z M131.16,69.43
				c-0.03-0.21-0.07-0.39-0.14-0.54c-0.08-0.16-0.19-0.28-0.32-0.37c-0.14-0.09-0.33-0.13-0.55-0.13c-0.23,0-0.41,0.05-0.56,0.13
				c-0.14,0.09-0.24,0.22-0.32,0.37c-0.07,0.15-0.13,0.33-0.15,0.54c-0.03,0.2-0.03,0.42-0.03,0.64c0,0.22,0.01,0.44,0.03,0.65
				c0.02,0.21,0.08,0.39,0.15,0.54c0.08,0.16,0.19,0.28,0.32,0.37c0.14,0.09,0.32,0.14,0.56,0.14c0.22,0,0.41-0.05,0.55-0.14
				c0.14-0.09,0.24-0.21,0.32-0.37c0.07-0.15,0.12-0.34,0.14-0.54c0.02-0.2,0.03-0.42,0.03-0.65
				C131.2,69.85,131.18,69.63,131.16,69.43z"/>
			<path class="st35" d="M135.19,73.63c-0.09,0.27-0.21,0.48-0.37,0.63c-0.14,0.14-0.3,0.23-0.48,0.29
				c-0.18,0.05-0.36,0.08-0.56,0.08h-0.41v-0.91h0.26c0.22,0,0.37-0.04,0.47-0.11c0.11-0.07,0.19-0.22,0.27-0.42l0.28-0.8
				l-1.77-4.85h1.08l1.21,3.58l1.19-3.58h1.1L135.19,73.63z"/>
			<path class="st35" d="M137.37,72.62V71.4h1.22v1.22H137.37z"/>
		</g>
		<g>
			<path class="st34" d="M62.22,27.38c0,0.34-0.03,0.66-0.08,0.98c-0.05,0.32-0.14,0.62-0.26,0.92c-0.13,0.29-0.31,0.56-0.55,0.8
				c-0.28,0.29-0.62,0.5-1.02,0.63c-0.4,0.14-0.82,0.2-1.29,0.2h-3.13v-8.92h3.13c0.47,0,0.9,0.07,1.29,0.21
				c0.39,0.14,0.73,0.35,1.02,0.63c0.24,0.24,0.42,0.51,0.55,0.79c0.13,0.28,0.22,0.57,0.26,0.88c0.05,0.3,0.08,0.61,0.08,0.93
				c0,0.32,0,0.64,0,0.97C62.22,26.72,62.22,27.05,62.22,27.38z M60.81,24.83c-0.04-0.42-0.18-0.76-0.42-1.02
				c-0.37-0.4-0.87-0.6-1.52-0.6h-1.64v6.49h1.64c0.64,0,1.15-0.2,1.52-0.6c0.24-0.26,0.37-0.62,0.42-1.08
				c0.04-0.47,0.07-1.01,0.07-1.62C60.87,25.77,60.85,25.25,60.81,24.83z"/>
			<path class="st34" d="M64.04,30.91v-8.92h1.36v8.92H64.04z"/>
			<path class="st34" d="M73.5,28.92c-0.12,0.39-0.33,0.74-0.62,1.06c-0.34,0.36-0.72,0.62-1.13,0.78
				c-0.41,0.16-0.85,0.24-1.33,0.24c-0.47,0-0.9-0.08-1.29-0.25c-0.39-0.16-0.74-0.4-1.05-0.71c-0.22-0.22-0.39-0.45-0.5-0.69
				c-0.12-0.24-0.2-0.51-0.26-0.79c-0.05-0.28-0.09-0.6-0.09-0.95c-0.01-0.35-0.01-0.73-0.01-1.16c0-0.43,0-0.81,0.01-1.16
				c0.01-0.35,0.04-0.66,0.09-0.95c0.06-0.29,0.14-0.55,0.26-0.79c0.12-0.24,0.28-0.47,0.5-0.69c0.31-0.31,0.66-0.55,1.05-0.71
				c0.39-0.16,0.82-0.24,1.3-0.24c0.47,0,0.9,0.07,1.27,0.22c0.37,0.15,0.69,0.35,0.97,0.6c0.27,0.25,0.49,0.54,0.66,0.88
				c0.17,0.33,0.28,0.69,0.35,1.08H72.3c-0.11-0.49-0.33-0.88-0.65-1.15c-0.32-0.27-0.73-0.41-1.23-0.41
				c-0.27,0-0.52,0.05-0.74,0.15c-0.23,0.1-0.42,0.23-0.58,0.4c-0.11,0.12-0.2,0.24-0.27,0.38c-0.07,0.14-0.13,0.31-0.16,0.51
				c-0.04,0.2-0.07,0.45-0.08,0.75c-0.02,0.29-0.03,0.67-0.03,1.12c0,0.45,0.01,0.83,0.03,1.13c0.01,0.3,0.04,0.55,0.08,0.76
				c0.04,0.2,0.09,0.37,0.16,0.51c0.07,0.14,0.16,0.27,0.27,0.38c0.16,0.17,0.35,0.3,0.58,0.4c0.23,0.09,0.47,0.14,0.74,0.14
				c0.29,0,0.56-0.05,0.81-0.16c0.25-0.11,0.46-0.26,0.64-0.46c0.17-0.19,0.28-0.4,0.35-0.63c0.07-0.23,0.1-0.48,0.1-0.78v-0.51
				h-1.9V26.1h3.26v1.36C73.68,28.04,73.62,28.53,73.5,28.92z"/>
			<path class="st34" d="M75.49,30.91v-8.92h1.36v8.92H75.49z"/>
			<path class="st34" d="M82.01,23.21v7.71h-1.35v-7.71H78.2v-1.22h6.26v1.22H82.01z"/>
			<path class="st34" d="M90.19,30.91l-0.61-1.79h-3.52l-0.62,1.79H84l3.27-8.92h1.09l3.27,8.92H90.19z M87.85,24.02l-1.39,3.96
				h2.74L87.85,24.02z"/>
			<path class="st34" d="M92.71,30.91v-8.92h1.36v7.71h4.3v1.21H92.71z"/>
		</g>
	</g>
</g>
</svg>
