<?xml version="1.0" encoding="utf-8"?>
<!-- Generator: Adobe Illustrator 24.0.0, SVG Export Plug-In . SVG Version: 6.00 Build 0)  -->
<svg version="1.1" id="Layer_1" xmlns="http://www.w3.org/2000/svg" xmlns:xlink="http://www.w3.org/1999/xlink" x="0px" y="0px"
	 viewBox="0 0 800 105" style="enable-background:new 0 0 800 105;" xml:space="preserve">
<style type="text/css">
	.st0{fill:#FFF200;fill-opacity:0;}
	.st1{fill:#079558;}
	.st2{fill:#FFFFFF;}
	.st3{fill:#ECE95C;}
	.st4{font-family:'Montserrat-SemiBold';}
	.st5{font-size:49px;}
</style>
<g>
	<rect x="6.13" y="3.6" class="st0" width="800" height="105"/>
	<g>
		<path class="st1" d="M105.01,52.52c-0.03,29.07-23.54,52.46-52.38,52.48C23.43,105.03-0.06,81.53,0,52.38
			C0.05,23.56,23.24,0.41,51.69,0.01C81.37-0.42,105.04,23.51,105.01,52.52z M8.8,53.76c0.2,0.11,0.3-0.07,0.43-0.16
			c0.72-0.51,1.46-0.99,2.13-1.55c0.47-0.4,0.78-0.32,1.21,0.02c0.8,0.63,1.64,1.21,2.5,1.83c0.06-0.29-0.05-0.46-0.1-0.63
			c-0.29-0.91-0.57-1.82-0.89-2.72c-0.1-0.28-0.06-0.43,0.19-0.61c0.75-0.52,1.49-1.07,2.22-1.61c0.19-0.14,0.41-0.24,0.56-0.52
			c-1.14,0-2.21-0.03-3.27,0.01c-0.47,0.02-0.67-0.14-0.8-0.58c-0.3-1.04-0.65-2.07-1.03-3.26c-0.4,1.21-0.75,2.25-1.07,3.31
			c-0.12,0.39-0.29,0.54-0.72,0.53c-1.09-0.03-2.19-0.01-3.29-0.01c0.86,0.76,1.74,1.42,2.64,2.05c0.32,0.22,0.4,0.42,0.27,0.8
			C9.43,51.69,9.13,52.73,8.8,53.76c0,0.02-0.02,0.04-0.02,0.05c0,0,0.01,0.02,0.02,0.03C8.8,53.8,8.8,53.78,8.8,53.76z
			 M32.12,87.73c-0.02-0.02-0.04-0.04-0.06-0.06c-0.01-0.21-0.02-0.42-0.04-0.62c-0.1-0.89-0.69-1.31-1.52-1.01
			c-0.42,0.15-0.51,0.11-0.61-0.33c-0.33-1.45-1.65-1.98-2.92-1.2c-0.65,0.4-1.06,0.99-1.26,1.71c-0.33,1.2,0.5,2.56,1.67,2.79
			c0.44,0.08,0.86,0.04,1.11-0.38c0.29-0.48,0.42-1,0.1-1.52c-0.19-0.31-0.51-0.45-0.89-0.43c-0.38,0.03-0.63,0.23-0.79,0.58
			c-0.06,0.13-0.01,0.3-0.17,0.4c-0.37-0.33-0.51-0.72-0.34-1.19c0.19-0.52,0.56-0.86,1.12-0.95c1.15-0.17,1.98,0.62,2.01,1.92
			c0.01,0.22-0.22,0.56,0.1,0.66c0.34,0.11,0.32-0.3,0.44-0.48c0.39-0.58,0.97-0.58,1.33,0.02c0.28,0.47,0.24,0.94-0.07,1.4
			c-0.69,1.03-1.32,2.1-2.06,3.1c-0.45,0.61-0.5,1.17-0.19,1.83c0.19-0.08,0.24-0.26,0.33-0.39c1.42-2.15,2.83-4.31,4.23-6.47
			c0.24-0.37,0.41-0.45,0.78-0.17c0.39,0.3,0.8,0.59,1.27,0.78c0.03-0.86-0.38-1.38-1.1-1.73c-0.27-0.13-0.52-0.32-0.77-0.5
			c-2.12-1.61-4.69-2.58-6.47-4.67c-0.5-0.58-0.57-0.68-0.19-1.38c0.11-0.2,0.34-0.39,0.15-0.7c-0.71,0.62-1.22,1.42-1.89,2.19
			c0.23-1.64,0.13-2.05-0.88-2.79c-0.5-0.37-0.41-0.65-0.08-1.01c0.24-0.26,0.38-0.55,0.23-0.97c-0.99,0.84-1.94,1.65-2.9,2.47
			c0.21-0.84,0.44-1.6,0.62-2.37c0.12-0.5-0.02-0.87-0.47-1.17c-0.61-0.39-1.26-0.5-2.03-0.42c0.45-0.83,0.64-1.67,0.08-2.38
			c-0.78-0.98-1.21-2.1-1.62-3.24c-0.92-2.6-2.44-4.98-2.72-7.81c-0.06-0.59,0.39-1.08,0.97-0.92c1.36,0.38,2.28,1.18,2.54,2.64
			c0.17,0.91,0.1,1.79-0.24,2.64c-0.24,0.6-0.51,1.2-0.77,1.8c0.25,0.07,0.39-0.06,0.51-0.25c0.73-1.16,1.26-2.4,1.36-3.79
			c0.14-1.92-0.63-3.29-2.25-3.98c-1.12-0.48-1.65-0.32-2.12,0.58c-0.03,0.06-0.1,0.11-0.21,0.22c-0.16-0.7-0.3-1.34-0.45-2.01
			c-0.52,0.52-0.82,1.05-0.54,1.73c0.17,0.41-0.01,0.5-0.39,0.58c-2.15,0.46-4.28,0.98-6.43,1.39C6.89,62,6.49,62.36,6.26,63.02
			C6.4,63.09,6.52,63.03,6.65,63c2.52-0.55,5.03-1.1,7.55-1.66c0.41-0.09,0.63-0.03,0.69,0.44c0.13,1.09,0.34,2.16,0.83,3.16
			c0.28,0.56,0.48,1.17,0.72,1.74c0.91,2.12,1.49,4.4,2.95,6.27c0.26,0.33,0.2,0.72,0.05,1.09c-0.09,0.23-0.18,0.34-0.46,0.2
			c-0.46-0.24-0.97-0.2-1.46-0.15c-0.67,0.07-1.2,0.62-1.23,1.24c-0.02,0.55,0.39,1.04,1.1,1.09c0.62,0.04,0.66,0.24,0.55,0.78
			c-0.12,0.61,0.33,1.21,0.84,1.33c0.52,0.11,1.12-0.25,1.36-0.83c0.14-0.34,0.15-0.71,0.17-1.07c0.02-0.51,0.15-0.59,0.62-0.41
			c0.38,0.15,0.62,0.42,0.59,0.82c-0.07,0.9-0.29,1.72-1.1,2.28c-1.14,0.8-2.23,1.67-3.4,2.43c-0.64,0.42-0.82,0.93-0.76,1.68
			c0.23-0.16,0.43-0.3,0.62-0.44c2.03-1.5,4.05-3,6.07-4.51c0.28-0.21,0.43-0.22,0.63,0.09c0.21,0.34,0.47,0.65,0.72,0.97
			c0.05,0.06,0.12,0.23,0.19,0.12c0.26-0.43,0.29,0.02,0.33,0.1c0.32,0.61,0.18,1.35-0.37,1.94c-1.32,1.41-2.61,2.84-3.97,4.21
			c-0.49,0.5-0.47,1-0.34,1.62c0.1-0.04,0.13-0.14,0.19-0.21c1.83-1.95,3.68-3.88,5.49-5.85c0.37-0.4,0.55-0.34,0.93-0.03
			c0.54,0.45,0.85,1.09,1.47,1.48c1.56,0.96,3.07,2,4.61,2.99c0.3,0.19,0.35,0.34,0.13,0.62C32.67,86.91,32.47,87.37,32.12,87.73z
			 M27.11,20.01c-0.98-0.25-1.96-0.5-2.97-0.61c-0.92-0.1-1.16,0.05-1.57,0.87c-0.4,0.8-0.4,1.64-0.22,2.51
			c-1.61-0.57-2.34-0.43-3.56,0.66c-0.52,0.46-0.94,0.94-1.25,1.61c-0.48,1.05-1.24,1.97-1.87,2.94c-1.25,1.92-2.5,3.83-3.8,5.83
			c0.57-0.09,0.46,0.14,0.33,0.44c-0.25,0.53-1.17,0.68-1.56,0.19c-1.01-1.26-1.51-2.65-0.9-4.26c0.59-1.56,1.69-2.65,3.13-3.44
			c0.52-0.29,1.03-0.59,1.61-0.92c-0.53-0.14-0.53-0.15-0.8-0.05c-1.74,0.67-3.29,1.62-4.46,3.1c-1.59,1.99-1.66,4.1-0.21,6.11
			c0.55,0.76,1.1,0.93,1.98,0.61c0.2-0.07,0.4-0.22,0.7-0.17c-0.34,0.8-0.67,1.58-1.02,2.4c0.97-0.16,1.68-0.51,1.87-1.49
			c0.09-0.44,0.33-0.43,0.7-0.26c2.63,1.17,5.3,2.27,7.9,3.49c0.87,0.41,1.5,0.17,2.26-0.29c-1.51-0.66-2.96-1.29-4.41-1.92
			c-1.78-0.78-3.57-1.55-5.35-2.34c-0.18-0.08-0.5-0.11-0.33-0.46c0.46-0.96,0.75-2,1.34-2.9c1.3-2,2.61-4,3.91-6
			c0.45-0.69,0.88-1.38,1.55-1.89c0.51-0.39,1.03-0.44,1.62-0.27c0.27,0.08,0.34,0.19,0.24,0.49c-0.23,0.73-0.17,1.47,0.08,2.19
			c0.24,0.69,1.01,1.17,1.71,1.1c0.59-0.06,1.04-0.54,1.17-1.31c0.04-0.24,0.07-0.5,0.02-0.74c-0.07-0.33,0.02-0.42,0.33-0.33
			c0.13,0.04,0.26,0.05,0.4,0.06c0.76,0.05,1.56-0.5,1.71-1.17c0.15-0.68-0.36-1.44-1.14-1.7c-0.28-0.09-0.56-0.1-0.85-0.1
			s-0.57,0.01-0.86,0.04c-0.26,0.02-0.39-0.08-0.42-0.34c-0.05-0.54,0.35-1.2,0.87-1.26c1.11-0.12,2.2-0.01,3.02,0.87
			c1.32,1.43,2.66,2.85,3.9,4.35c0.6,0.73,1.29,0.57,2.14,0.61c-1.24-1.34-2.37-2.58-3.51-3.81c-1.28-1.39-2.56-2.78-3.84-4.17
			c-0.13-0.14-0.37-0.29-0.07-0.49c1.39-0.92,2.69-0.66,3.5,0.63c1.23,1.96,2.54,3.86,3.71,5.85c0.5,0.85,1.13,1.27,2.07,1.32
			c0.03-0.14-0.08-0.23-0.15-0.34c-0.77-1.21-1.54-2.42-2.31-3.62c-1.14-1.79-2.29-3.57-3.43-5.36c-0.11-0.17-0.35-0.34-0.01-0.55
			c0.76-0.48,1.46-1.09,2.24-1.46c1.98-0.95,4.04-1.72,6.06-2.56c0.11-0.05,0.22-0.12,0.34,0.05c0.2,0.28,0.73,1.83,0.71,2.2
			c-1.79-1.35-2.81-0.65-3,1.06c-0.29-0.11-0.56-0.24-0.85-0.33c-1.09-0.34-2.2,0.02-2.75,0.87c-0.72,1.12-0.49,2.88,0.53,4.05
			c0.85,0.96,2.26,1.2,3.52,0.58c0.6-0.3,1.07-0.76,1.04-1.45c-0.02-0.71-0.51-1.18-1.13-1.47c-0.52-0.25-1.11-0.08-1.48,0.39
			c-0.34,0.44-0.32,1.01,0.05,1.48c0.09,0.11,0.27,0.16,0.25,0.35c-0.91,0.15-1.5-0.17-1.78-0.94c-0.33-0.94,0.13-2.01,1.05-2.46
			c1.08-0.52,1.96-0.11,2.8,0.55c0.13,0.1,0.23,0.34,0.47,0.13c0.22-0.19,0.06-0.33-0.03-0.49c-0.07-0.13-0.16-0.26-0.21-0.4
			c-0.28-0.71,0.07-1.26,0.84-1.32c0.69-0.05,1.27,0.35,1.58,1.09c0.64,1.55,1.35,3.08,1.91,4.66c0.31,0.88,0.96,1.05,1.77,1.28
			c-0.1-0.25-0.16-0.43-0.23-0.6c-1.29-3.1-2.57-6.21-3.88-9.3c-0.17-0.4-0.15-0.59,0.29-0.75c0.65-0.23,1.27-0.52,2.02-0.84
			c-0.48-0.2-0.82-0.33-1.15-0.47c-0.22-0.1-0.42-0.09-0.65,0c-3.61,1.51-7.22,3-10.83,4.5c-0.08,0.03-0.16,0.09-0.23,0.13
			c0.07,0.18,0.34,0.11,0.37,0.29c-0.34,0.47-0.72,0.39-1.1,0.11c-0.23-0.17-0.46-0.35-0.64-0.56c-0.18-0.2-0.36-0.25-0.67-0.16
			c0.66,0.95,1.3,1.89,1.99,2.9c-0.4-0.02-0.57-0.22-0.78-0.33c-0.79-0.42-1.7-0.35-2.37,0.25c-0.42,0.37-0.8,0.29-1.18-0.02
			c-0.38-0.31-0.79-0.39-1.37-0.25c1.25,1.19,2.45,2.32,3.65,3.45C27.16,19.95,27.14,19.98,27.11,20.01z M62.03,99.17l0.02,0.02
			L62.03,99.17c-0.39-2.77-0.8-5.55-1.2-8.32c-0.02-0.15-0.15-0.41,0.11-0.42c0.83-0.02,1.67-0.63,2.51,0.04
			c0.29,0.23,0.68,0.21,1.05,0.18c0.42-0.04,0.84-0.07,1.26-0.06c0.61,0.02,1.08,0.33,1.43,0.83c0.18,0.26,0.28,0.45-0.16,0.53
			c-0.3,0.05-0.57,0.22-0.81,0.41c-0.68,0.53-0.79,1.29-0.31,2.02c0.43,0.65,1.17,0.8,1.91,0.38c0.38-0.22,0.62-0.55,0.81-0.94
			c0.06-0.13,0.09-0.31,0.31-0.26c0.97,0.21,1.9,0.46,2.55,1.32c0.23,0.31,0.4,0.78,0.97,0.83c-0.06-0.18-0.1-0.3-0.15-0.42
			c-0.94-2.39-1.87-4.79-2.85-7.17c-0.2-0.5-0.07-0.66,0.37-0.81c0.49-0.16,1.02-0.3,1.41-0.6c1.43-1.11,2.98-2.06,4.44-3.12
			c0.19-0.14,0.32-0.14,0.46,0.08c0.71,1.06,1.43,2.12,2.14,3.18c-0.03,0.03-0.07,0.07-0.1,0.1c-0.16-0.06-0.32-0.12-0.48-0.19
			c-0.8-0.34-1.61-0.63-2.5-0.42s-1.5,0.74-1.72,1.65c-0.2,0.84,0.15,1.5,0.78,2.02c0.65,0.52,1.75,0.25,2.25-0.53
			c0.35-0.54,0.07-1.2-0.68-1.63c-0.17-0.1-0.4-0.12-0.53-0.33c0.62-0.52,1.31-0.51,2-0.29c1.53,0.49,2.8,1.38,3.78,2.65
			c0.15,0.2,0.28,0.41,0.58,0.39c0.02-0.18-0.12-0.28-0.2-0.39c-1.31-1.91-2.62-3.81-3.92-5.71c-0.28-0.41-0.82-0.82-0.74-1.23
			s0.74-0.58,1.13-0.89c0.15-0.12,0.43-0.16,0.4-0.41c-0.05-0.36,0.24-0.46,0.43-0.57c0.2-0.12,0.31,0.15,0.43,0.28
			c1.53,1.6,3.08,3.19,4.56,4.83c0.49,0.54,0.99,0.58,1.62,0.5c-0.05-0.26-0.24-0.37-0.38-0.52c-1.73-1.83-3.47-3.66-5.2-5.49
			c-0.1-0.11-0.37-0.24-0.21-0.4c0.42-0.43,0.77-1.08,1.38-1.14c0.82-0.08,1.29-0.5,1.78-1.07c0.78-0.89,2.22-0.55,2.58,0.57
			c0.1,0.31,0.2,0.62,0.27,0.93c0.17,0.8-0.05,1.03-0.85,0.92c-0.08-0.01-0.15-0.03-0.22-0.05c-0.26-0.09-0.34-0.02-0.32,0.26
			c0.02,0.3,0.14,0.46,0.45,0.47c0.32,0.01,0.65,0.05,0.97,0.06c1.25,0.02,1.75-0.63,1.41-1.82c-0.19-0.7-0.51-1.36-0.6-2.09
			c-0.05-0.4-0.04-0.79,0.38-0.99c0.45-0.22,0.9-0.43,1.39-0.05c0.8,0.62,1.65,1.17,2.42,1.83c0.57,0.48,1.15,0.49,1.88,0.34
			c-0.26-0.21-0.46-0.38-0.68-0.54c-2.02-1.51-4.04-3.02-6.07-4.51c-0.27-0.2-0.28-0.34-0.08-0.59c0.33-0.41,0.63-0.84,0.97-1.29
			c-0.73-0.07-1.28,0.1-1.66,0.66c-0.27,0.4-0.53,0.82-0.84,1.19c-1.72,2.08-2.93,4.58-5.18,6.23c-0.45,0.33-1.12,0.22-1.27-0.32
			c-0.33-1.2-0.26-2.35,0.66-3.31c0.72-0.75,1.59-1.25,2.63-1.41c0.69-0.11,1.38-0.21,2.12-0.32c-0.18-0.18-0.33-0.25-0.51-0.26
			c-1.8-0.05-3.5,0.23-4.97,1.37c-1.12,0.87-1.53,2.01-1.34,3.39c0.17,1.26,0.4,1.46,1.69,1.53c0.05,0,0.09,0.04,0.19,0.09
			c-0.77,0.63-1.35,1.4-2.14,1.94c-0.86,0.58-1.68,1.2-2.55,1.75c-1.4,0.88-2.62,2.03-4.22,2.61c-1.61,0.58-3.19,1.26-4.8,1.87
			c-0.82,0.31-1.59,0.77-2.46,0.91c-1.96,0.32-3.93,0.57-5.9,0.85c-0.83,0.12-1.67,0.35-2.49,0.31c-2.08-0.1-4.15-0.32-6.23-0.48
			c-0.9-0.07-1.81-0.13-2.78-0.2c0.24,0.51,0.68,0.78,0.86,1.23c0.18,0.48,0.55,0.76,1.02,0.94c0.36,0.13,0.72,0.26,1.06,0.43
			c0.62,0.31,0.98,0.83,1.07,1.53c0.04,0.3-0.03,0.43-0.36,0.35c-0.32-0.08-0.64-0.07-0.96,0c-0.79,0.18-1.26,0.81-1.16,1.59
			c0.1,0.8,0.65,1.28,1.47,1.28c0.45,0,0.83-0.17,1.15-0.46c0.29-0.26,0.48-0.16,0.73,0.04c0.82,0.66,1.4,1.45,1.55,2.52
			c0.04,0.27,0.05,0.57,0.42,0.75c0.05-0.66,0.1-1.28,0.15-1.91c0.17-2.11,0.33-4.23,0.5-6.34c0.01-0.17-0.07-0.46,0.22-0.44
			c0.76,0.03,1.54-0.03,2.25,0.26c0.47,0.19,0.92,0.35,1.43,0.33c0.44-0.01,0.87,0.06,1.29,0.21c0.33,0.12,0.43,0.25,0.13,0.54
			c-0.39,0.39-0.75,0.81-1.11,1.24c-0.85,1.01-0.85,1.01,0.11,1.91c0.2,0.18,0.34,0.44,0.71,0.4c1.79-0.22,3,0.74,4.04,2.03
			C61.45,98.6,61.6,99.01,62.03,99.17z M63.02,22.67c1.17-3.5,2.32-6.93,3.45-10.38c0.13-0.39,0.25-0.47,0.68-0.36
			c2.37,0.64,4.43,1.94,6.59,3.04c0.17,0.09,0.5,0.09,0.34,0.46c-0.13,0.31-0.3,0.41-0.65,0.35c-2.18-0.38-4.37-0.31-6.57-0.06
			c-0.26,0.03-0.37,0.09-0.31,0.39c0.11,0.56,0.19,1.13,0.25,1.7c0.03,0.28,0.15,0.45,0.38,0.59c0.8,0.52,1.38,1.25,1.86,2.06
			c0.58,0.99,0.79,2.05,0.76,3.18c-0.02,0.63-0.06,1.27,0.2,1.97c0.14-0.25,0.24-0.4,0.33-0.57c1.53-2.93,3.05-5.86,4.59-8.78
			c0.09-0.18,0.14-0.56,0.4-0.44c0.38,0.18,1.02,0.19,1.03,0.75c0.02,0.65,0.3,1.08,0.74,1.48c0.2,0.18,0.39,0.37,0.56,0.57
			c0.67,0.8,0.43,2.64-0.43,2.94c-0.73,0.26-1.5,0.45-2.29,0.45c-0.56,0.01-0.78-0.22-0.71-0.77c0.04-0.36,0.16-0.7,0.25-1.09
			c-0.33,0.1-0.8-0.27-0.96,0.28c-0.2,0.66-0.3,1.35-0.26,2.04c0.05,0.97,0.84,1.61,1.79,1.45c0.55-0.09,1.08-0.25,1.62-0.36
			c0.48-0.1,0.97-0.23,1.46-0.28c0.53-0.06,1.06-0.01,1.3,0.58c0.25,0.61,0.43,1.22-0.1,1.82c-0.87,0.97-1.64,2.02-2.56,2.93
			c-0.69,0.69-0.61,1.43-0.53,2.33c2.17-2.54,4.28-5,6.4-7.46c0.31-0.36,0.61-1.02,0.96-0.96c0.51,0.08,0.92,0.62,1.28,1.08
			c0.07,0.09,0.13,0.19,0.2,0.28c1.73,2.47,3.49,4.92,5.17,7.43c0.95,1.43,0.82,2.96-0.98,3.77c-2.21,1-4.39,2.05-6.62,3.01
			c-0.81,0.35-0.97,1-1.22,1.75c0.21-0.09,0.33-0.14,0.45-0.19c3.17-1.46,6.35-2.9,9.52-4.38c0.46-0.22,0.62-0.1,0.78,0.32
			c0.25,0.63,0.56,1.23,0.86,1.88c0.65-1.19,0.65-1.26,0.22-2.21c-0.37-0.82-0.35-0.94,0.35-1.54c0.12-0.1,0.24-0.19,0.36-0.28
			c0.2-0.15,0.32-0.32,0.23-0.6c-1.17,0.45-2.2,1.18-3.34,1.67c0.41-0.33,0.53-0.89,1.05-1.13c0.28-0.13,0.2-1.4-0.02-1.72
			c-1.74-2.49-3.45-5-5.23-7.46c-0.72-0.99-1.33-2-2.39-2.81c-2.66-2.02-5.11-4.3-7.66-6.47c-0.11-0.09-0.3-0.31-0.35-0.24
			c-0.3,0.45-0.53,0.03-0.72-0.06c-2.41-1.23-4.81-2.5-7.22-3.74c-0.16-0.08-0.36-0.34-0.52-0.12c-0.24,0.33-0.44,0.07-0.61,0
			c-0.27-0.12-0.02-0.29,0.04-0.41c0.58-1.36,0.24-2.47-1.03-3.24c-0.43-0.26-0.89-0.44-1.37-0.58c-1.06-0.31-2.13-0.59-3.18-0.94
			c-1.23-0.41-1.44-1.31-0.53-2.23c0.22-0.22-0.01-0.3-0.05-0.43c-0.04-0.12-0.12-0.15-0.26-0.06c-1.31,0.84-1.42,2.43-0.23,3.47
			c0.71,0.62,1.56,0.94,2.43,1.24c0.9,0.31,1.81,0.6,2.7,0.94c0.38,0.15,0.67,0.45,0.66,0.92c-0.01,0.34-0.12,0.69-0.45,0.8
			c-0.38,0.13-0.83-0.04-1.04-0.31c-0.35-0.45-0.8-0.47-1.26-0.53c-0.69-0.09-0.96-0.31-1.04-0.99c-0.05-0.4-0.24-0.64-0.61-0.82
			c-0.28,1.9-0.38,3.76-0.46,5.63c-0.09-0.19-0.15-0.38-0.2-0.57c-0.19-0.74-0.47-1.45-0.91-2.09c-1.92-2.74-5.54-2.26-7.32,0.36
			c-0.22,0.32-0.16,0.65,0.03,0.97c0.21,0.34,0.51,0.45,0.88,0.37c0.28-0.06,0.56-0.14,0.84-0.18c0.55-0.09,0.87,0.18,0.91,0.74
			c0.04,0.56-0.17,1-0.62,1.34c-0.23,0.18-0.51,0.31-0.69,0.6c0.31,0.17,0.62,0.3,0.88,0.48c0.41,0.29,0.71,0.24,1.1-0.08
			c1.1-0.89,2.24-1.73,3.36-2.58c0.15-0.12,0.33-0.36,0.51-0.06c0.44,0.7,0.87,1.41,0.73,2.29c-0.24,1.53-0.44,3.07-0.78,4.57
			c-0.22,0.97,0.34,1.46,0.86,2.07c0.06-0.09,0.09-0.11,0.1-0.14c0.47-3.42,0.94-6.85,1.41-10.27c0.08-0.57,0.53-0.82,0.96-0.44
			c0.4,0.36,0.86,0.49,1.32,0.6c0.53,0.14,0.57,0.36,0.4,0.84c-0.92,2.69-1.75,5.41-2.73,8.08C62.19,21.1,62.4,21.85,63.02,22.67z
			 M52.42,23.37C36.51,23.31,23.43,36.39,23.37,52.4c-0.06,16,12.92,29.12,28.85,29.25c16.16,0.13,29.18-12.88,29.43-28.67
			C81.9,36.64,68.59,23.28,52.42,23.37z M25.36,30.96c0,0.05,0,0.1,0,0.15c-1.26,0.24-2.07,1.05-2.69,2.08
			c-0.23,0.37-0.42,0.77-0.62,1.16c-0.23,0.44-0.48,0.87-0.85,1.22c-0.69,0.67-1.43,0.82-2.31,0.41c-0.76-0.36-1.42-0.86-1.8-1.62
			c-0.23-0.46-0.56-0.39-0.84-0.21c-0.31,0.2-0.05,0.53,0.09,0.66c0.63,0.56,1.15,1.22,1.85,1.7c2.03,1.36,3.76,1.03,5.06-1.04
			c0.51-0.8,0.87-1.69,1.33-2.53c0.65-1.2,1.27-1.47,2.59-1.12c0.42,0.11,0.78,0.06,1.16-0.21c-0.09-0.08-0.16-0.15-0.23-0.2
			c-2.4-1.57-4.79-3.14-7.19-4.7c-1.26-0.81-2.79-0.25-3.16,1.2c-0.41,1.62-0.16,3.21,0.7,4.63c0.48,0.79,1.26,1.24,2.22,1.17
			c0.8-0.06,1.21-0.66,1.51-1.33c0.23-0.52,0.08-0.97-0.35-1.33c-0.71-0.6-1.35-0.46-2.02,0.49c-0.78-1.12-0.9-2.33-0.65-3.61
			c0.01-0.07,0.07-0.14,0.1-0.2c0.18-0.33,0.44-0.42,0.76-0.23c0.31,0.18,0.62,0.38,0.92,0.58C22.42,29.04,23.89,30,25.36,30.96z
			 M83.72,23.88c-0.25,0.33-0.47,0.61-0.68,0.9c-1.12,1.56-2.32,3.09-2.93,4.95c-0.74,2.24-0.13,4.45,1.63,5.54
			c1.57,0.98,3.21,0.9,4.78-0.01c1.49-0.87,1.85-2.43,2.18-3.97c0.07-0.31-0.1-0.42-0.44-0.37c-0.75,0.1-1.49-0.01-2.21-0.21
			c-0.3-0.08-0.61-0.18-0.81-0.52c0.23-0.02,0.42-0.03,0.6-0.07c0.54-0.12,0.96-0.39,1.08-0.97c0.15-0.72-0.18-1.27-0.72-1.69
			c-0.5-0.39-1.06-0.41-1.62-0.14c-1.11,0.53-1.58,1.79-1.04,2.97c0.62,1.34,1.61,2.25,3.18,2.36c0.67,0.05,0.71,0.21,0.32,0.76
			c-1.43,2.02-4.24,1.08-5.05-0.47c-0.58-1.1-0.74-2.23-0.52-3.44c0.32-1.71,1.16-3.18,2.2-4.54C83.94,24.59,84.03,24.3,83.72,23.88
			z M87.82,47.72c-0.01,0.04-0.02,0.08-0.03,0.12c0.83,0.6,1.64,1.24,2.5,1.8c0.49,0.32,0.57,0.62,0.36,1.16
			c-0.37,0.96-0.64,1.96-0.96,2.94c0.96-0.57,1.83-1.18,2.68-1.83c0.37-0.28,0.63-0.33,1.02-0.01c0.84,0.67,1.74,1.28,2.73,1.99
			c-0.37-1.15-0.67-2.17-1.03-3.16c-0.17-0.47-0.12-0.74,0.32-1.03c0.88-0.58,1.72-1.24,2.57-1.87c-1.13-0.11-2.23-0.13-3.33-0.1
			c-0.39,0.01-0.57-0.1-0.69-0.49c-0.32-1.07-0.69-2.12-1.09-3.34c-0.4,1.24-0.76,2.32-1.1,3.4c-0.09,0.3-0.22,0.42-0.55,0.41
			C90.09,47.71,88.96,47.72,87.82,47.72z M100.77,60.63c-2.08,0.14-3.5,1.5-4.99,2.84c-0.12-0.45-0.22-0.83-0.32-1.21
			c-0.23-0.92-0.73-1.62-1.7-1.81c-0.98-0.2-1.81,0.12-2.46,0.88c-0.2,0.23-0.36,0.49-0.53,0.75s-0.45,0.37-0.69,0.27
			c-0.2-0.08-0.01-0.33,0.03-0.5c0.34-1.31,0.67-2.61,1.03-3.97c-0.69,0.25-1.15,0.56-1.28,1.33c-0.15,0.92-0.46,1.81-0.69,2.72
			c-0.4,1.54-0.81,3.09-1.23,4.69c0.71-0.26,1.19-0.59,1.29-1.34c0.06-0.47,0.24-0.92,0.34-1.39c0.07-0.33,0.27-0.53,0.54-0.7
			c0.26-0.16,0.37-0.1,0.4,0.2c0.05,0.49,0.12,0.99,0.36,1.44c0.26,0.51,0.88,0.79,1.34,0.63s0.75-0.72,0.64-1.27
			c-0.11-0.57-0.4-1.03-0.89-1.35c-0.17-0.11-0.3-0.19-0.27-0.44c0.08-0.58,0.63-1.2,1.17-1.27c0.58-0.08,1.02,0.24,1.26,0.93
			c0.34,0.98,0.32,1.94-0.11,2.9c-0.25,0.56-0.63,1.03-1.12,1.6c0.86-0.11,1.57-0.2,2.28-0.29c0.18-0.02,0.23-0.18,0.31-0.31
			C96.73,63.65,98.56,61.97,100.77,60.63z M9.57,73.6c0.1-0.02,0.16-0.02,0.21-0.04c2.12-0.86,4.23-1.75,6.36-2.58
			c0.8-0.31,1.31-1.51,0.67-2.36c-0.92-1.22-2.22-1.87-3.75-1.77c-1.37,0.09-1.98,1.35-1.26,2.42c0.3,0.45,0.74,0.55,1.25,0.3
			c0.5-0.25,0.68-0.59,0.48-1.11c-0.13-0.33,0-0.37,0.27-0.34c0.83,0.11,1.53,0.5,2.12,1.05c0.44,0.41,0.35,0.76-0.21,1
			c-0.93,0.4-1.87,0.77-2.81,1.15c-0.51,0.2-0.99,0.46-1.66,0.61c0.37-0.96,0.26-1.83-0.13-2.66c-0.25-0.53-0.57-1.04-0.78-1.59
			c-0.4-1.05-0.05-1.82,0.98-2.28c0.48-0.21,0.98-0.34,1.5-0.28c0.33,0.04,0.48-0.09,0.5-0.38c0.03-0.36-0.28-0.23-0.45-0.23
			c-0.67,0.02-1.33,0.14-1.96,0.39c-1.43,0.56-2.06,1.53-1.85,2.79c0.09,0.55,0.31,1.06,0.58,1.55c0.27,0.5,0.57,1,0.8,1.52
			c0.4,0.89,0.3,1.35-0.43,1.97C9.74,72.95,9.58,73.2,9.57,73.6z M51.76,19.47c-1.54-0.09-2.14-1.04-2.55-2.16
			c-1.05-2.89,0.35-7.35,3.86-8.08c-0.96-1.18-1.56-1.26-2.77-0.37c-0.79,0.58-1.32,1.37-1.76,2.23c-1.32,2.57-0.98,6.05,0.79,8.1
			c0.58,0.67,1.29,1.06,2.17,1.14c1.24,0.1,2.28-0.86,2.19-2.01C53.63,17.55,53,17,52.27,17.08c-0.93,0.1-1.34,0.58-1.23,1.43
			C51.1,18.9,51.34,19.16,51.76,19.47z M88.97,71.68c1.08,0,2.05-0.88,2.04-1.85c-0.02-1.01-1.02-1.96-2.08-1.97
			c-1.12-0.01-1.96,0.77-1.95,1.8C86.99,70.8,87.87,71.69,88.97,71.68z M97.78,70.2c-0.37-0.31-0.69-0.33-1.07-0.23
			c-1.42,0.37-2.84,0.74-4.22,1.24c-0.64,0.23-1.3,0.45-1.95,0.84c0.54,0.26,1,0.47,1.46,0.7c0.21,0.11,0.39,0.07,0.59-0.05
			C94.24,71.75,95.95,70.92,97.78,70.2z M35.91,96.01c-0.01-0.1-0.02-0.24-0.05-0.37c-0.13-0.52-0.8-0.96-1.38-0.89
			c-0.52,0.06-0.75,0.45-0.8,0.9c-0.07,0.61,0.34,0.89,0.88,0.99c0.41,0.08,0.37,0.31,0.22,0.58c-0.17,0.29-0.42,0.49-0.71,0.63
			s-0.6,0.24-0.92,0.28c-0.16,0.02-0.24,0.1-0.22,0.26c0.02,0.12,0.1,0.13,0.21,0.14C34.32,98.71,35.91,97.27,35.91,96.01z
			 M68.27,21.9c0-0.64-0.48-1.16-1.08-1.18c-0.62-0.01-1.13,0.49-1.12,1.11c0.01,0.63,0.5,1.18,1.07,1.19
			C67.75,23.03,68.27,22.51,68.27,21.9z M58.46,99.19c0.48-0.01,0.85-0.4,0.85-0.89c0-0.52-0.43-0.93-0.96-0.92
			c-0.49,0-0.88,0.38-0.88,0.86C57.45,98.79,57.88,99.2,58.46,99.19z"/>
		<path class="st2" d="M63.02,22.67c-0.63-0.83-0.83-1.57-0.46-2.58c0.98-2.67,1.81-5.39,2.73-8.08c0.16-0.47,0.12-0.7-0.4-0.84
			c-0.46-0.12-0.92-0.25-1.32-0.6c-0.43-0.39-0.88-0.14-0.96,0.44c-0.47,3.42-0.94,6.85-1.41,10.27c0,0.03-0.04,0.06-0.1,0.14
			c-0.51-0.61-1.08-1.09-0.86-2.07c0.34-1.51,0.54-3.04,0.78-4.57c0.14-0.88-0.29-1.59-0.73-2.29c-0.18-0.29-0.36-0.05-0.51,0.06
			c-1.13,0.85-2.27,1.69-3.36,2.58c-0.39,0.32-0.7,0.37-1.1,0.08c-0.26-0.19-0.56-0.31-0.88-0.48c0.17-0.29,0.45-0.42,0.69-0.6
			c0.45-0.34,0.66-0.78,0.62-1.34s-0.36-0.83-0.91-0.74c-0.28,0.05-0.56,0.13-0.84,0.18c-0.38,0.08-0.68-0.03-0.88-0.37
			c-0.2-0.32-0.25-0.65-0.03-0.97c1.79-2.62,5.4-3.1,7.32-0.36c0.44,0.63,0.72,1.34,0.91,2.09c0.05,0.19,0.11,0.39,0.2,0.57
			c0.08-1.87,0.18-3.73,0.46-5.63c0.37,0.2,0.55,0.44,0.6,0.84c0.09,0.68,0.36,0.89,1.04,0.99c0.46,0.06,0.91,0.09,1.26,0.53
			c0.21,0.27,0.66,0.43,1.04,0.31c0.33-0.11,0.44-0.46,0.45-0.8c0.01-0.47-0.28-0.77-0.66-0.92c-0.89-0.35-1.8-0.64-2.7-0.94
			c-0.87-0.29-1.73-0.62-2.43-1.24c-1.19-1.04-1.07-2.63,0.23-3.47c0.14-0.09,0.22-0.06,0.26,0.06c0.04,0.13,0.26,0.21,0.05,0.43
			c-0.91,0.92-0.7,1.82,0.53,2.23c1.05,0.35,2.12,0.63,3.18,0.94c0.48,0.14,0.94,0.32,1.37,0.58c1.27,0.77,1.62,1.88,1.03,3.24
			c-0.05,0.13-0.31,0.3-0.04,0.41c0.17,0.07,0.37,0.33,0.61,0c0.16-0.22,0.36,0.04,0.52,0.12c2.41,1.25,4.81,2.51,7.22,3.74
			c0.19,0.09,0.42,0.52,0.72,0.06c0.05-0.07,0.24,0.14,0.35,0.24c2.54,2.17,5,4.45,7.66,6.47c1.06,0.8,1.68,1.82,2.39,2.81
			c1.78,2.46,3.49,4.97,5.23,7.46c0.22,0.31,0.3,1.59,0.02,1.72c-0.52,0.24-0.64,0.8-1.05,1.13c1.14-0.5,2.17-1.22,3.34-1.67
			c0.09,0.28-0.03,0.46-0.23,0.6c-0.12,0.09-0.25,0.18-0.36,0.28c-0.7,0.61-0.73,0.72-0.35,1.54c0.43,0.95,0.43,1.02-0.22,2.21
			c-0.3-0.65-0.61-1.25-0.86-1.88c-0.17-0.42-0.32-0.54-0.78-0.32c-3.16,1.48-6.34,2.93-9.52,4.38c-0.12,0.06-0.24,0.1-0.45,0.19
			c0.26-0.75,0.41-1.4,1.22-1.75c2.23-0.96,4.41-2.01,6.62-3.01c1.8-0.81,1.93-2.34,0.98-3.77c-1.67-2.51-3.44-4.96-5.17-7.43
			c-0.07-0.09-0.13-0.19-0.2-0.28c-0.35-0.46-0.77-0.99-1.28-1.08c-0.35-0.06-0.66,0.61-0.96,0.96c-2.12,2.46-4.22,4.93-6.4,7.46
			c-0.08-0.9-0.16-1.64,0.53-2.33c0.92-0.91,1.7-1.97,2.56-2.93c0.53-0.6,0.35-1.2,0.1-1.82c-0.24-0.6-0.77-0.64-1.3-0.58
			c-0.49,0.06-0.98,0.18-1.46,0.28c-0.54,0.12-1.07,0.27-1.62,0.36c-0.95,0.16-1.73-0.48-1.79-1.45c-0.04-0.69,0.06-1.38,0.26-2.04
			c0.16-0.55,0.63-0.18,0.96-0.28c-0.09,0.39-0.21,0.74-0.25,1.09c-0.07,0.55,0.15,0.78,0.71,0.77c0.79-0.01,1.56-0.2,2.29-0.45
			c0.87-0.3,1.11-2.14,0.43-2.94c-0.17-0.2-0.36-0.39-0.56-0.57c-0.44-0.4-0.72-0.83-0.74-1.48C76.35,16,75.71,16,75.33,15.81
			c-0.26-0.13-0.31,0.26-0.4,0.44c-1.54,2.92-3.06,5.85-4.59,8.78c-0.09,0.16-0.19,0.32-0.33,0.57c-0.27-0.7-0.22-1.34-0.2-1.97
			c0.03-1.13-0.18-2.2-0.76-3.18c-0.48-0.82-1.06-1.54-1.86-2.06c-0.22-0.15-0.35-0.32-0.38-0.59c-0.06-0.57-0.14-1.14-0.25-1.7
			c-0.06-0.3,0.05-0.36,0.31-0.39c2.19-0.25,4.38-0.32,6.57,0.06c0.36,0.06,0.52-0.04,0.65-0.35c0.16-0.37-0.17-0.37-0.34-0.46
			c-2.16-1.09-4.22-2.4-6.59-3.04c-0.42-0.11-0.55-0.04-0.68,0.36C65.34,15.74,64.19,19.18,63.02,22.67z M68.3,17.35
			c1.27,1.53,1.96,3.21,2.11,5.12c0.89-1.7,1.78-3.4,2.67-5.11C72.17,17.05,69.99,17.04,68.3,17.35z M78.24,21.39
			c0.12,0.06,0.17,0.1,0.22,0.11c0.13,0.02,0.26,0.04,0.4,0.05c1.13,0.1,1.37,0.36,1.4,1.5c0.01,0.46,0,0.93,0,1.51
			c0.8-0.93,1.51-1.78,2.24-2.6c0.25-0.28,0.12-0.42-0.09-0.59c-0.77-0.65-1.54-1.32-2.31-1.97c-0.34-0.28-0.64-0.63-1.1-0.86
			C79.05,19.6,79.19,20.62,78.24,21.39z M56.52,13.1c0.88-0.66,1.67-1.28,2.49-1.86c0.37-0.26,0.24-0.43,0.01-0.66
			c-0.82-0.82-2.49-0.86-3.42-0.07c-0.15,0.13-0.33,0.25-0.38,0.47C56.24,11.32,56.53,12.07,56.52,13.1z"/>
		<path class="st2" d="M78.26,86.84c-0.72-1.06-1.44-2.11-2.14-3.18c-0.14-0.21-0.26-0.22-0.46-0.08c-1.46,1.07-3.01,2.01-4.44,3.12
			c-0.39,0.3-0.93,0.44-1.41,0.6c-0.44,0.15-0.57,0.31-0.37,0.81c0.98,2.38,1.9,4.78,2.85,7.17c0.05,0.12,0.09,0.24,0.15,0.42
			c-0.56-0.05-0.73-0.52-0.97-0.83c-0.65-0.86-1.58-1.11-2.55-1.32c-0.21-0.05-0.24,0.13-0.31,0.26c-0.18,0.39-0.42,0.73-0.81,0.94
			c-0.73,0.41-1.48,0.26-1.91-0.38c-0.49-0.74-0.38-1.49,0.31-2.02c0.24-0.19,0.51-0.36,0.81-0.41c0.45-0.08,0.35-0.27,0.16-0.53
			c-0.35-0.5-0.82-0.8-1.43-0.83c-0.42-0.02-0.84,0.02-1.26,0.06c-0.37,0.03-0.76,0.05-1.05-0.18c-0.84-0.66-1.68-0.05-2.51-0.04
			c-0.26,0.01-0.13,0.26-0.11,0.42c0.4,2.78,0.8,5.55,1.2,8.32H62c-0.42-0.16-0.58-0.58-0.83-0.89c-1.04-1.29-2.26-2.24-4.04-2.03
			c-0.36,0.04-0.51-0.22-0.71-0.4c-0.96-0.89-0.96-0.9-0.11-1.91c0.36-0.42,0.72-0.85,1.11-1.24c0.3-0.3,0.2-0.42-0.13-0.54
			C56.87,92,56.44,91.92,56,91.94c-0.51,0.01-0.96-0.14-1.43-0.33c-0.71-0.29-1.5-0.22-2.25-0.26c-0.29-0.01-0.2,0.28-0.22,0.44
			c-0.17,2.11-0.34,4.23-0.5,6.34c-0.05,0.62-0.1,1.24-0.15,1.91c-0.37-0.18-0.38-0.48-0.42-0.75c-0.15-1.07-0.72-1.87-1.55-2.52
			c-0.25-0.2-0.44-0.3-0.73-0.04c-0.31,0.29-0.7,0.46-1.15,0.46c-0.83,0-1.37-0.48-1.47-1.28c-0.1-0.77,0.37-1.41,1.16-1.59
			c0.32-0.07,0.64-0.09,0.96,0c0.32,0.08,0.4-0.05,0.36-0.35c-0.09-0.7-0.45-1.21-1.07-1.53c-0.34-0.17-0.7-0.3-1.06-0.43
			c-0.47-0.17-0.84-0.46-1.02-0.94c-0.17-0.45-0.61-0.72-0.86-1.23c0.97,0.07,1.87,0.12,2.78,0.2c2.08,0.17,4.15,0.39,6.23,0.48
			c0.82,0.04,1.66-0.19,2.49-0.31c1.97-0.28,3.94-0.53,5.9-0.85c0.87-0.14,1.64-0.6,2.46-0.91c1.6-0.61,3.18-1.29,4.8-1.87
			c1.6-0.57,2.83-1.72,4.22-2.61c0.87-0.55,1.7-1.17,2.55-1.75c0.8-0.54,1.37-1.3,2.14-1.94c-0.1-0.05-0.15-0.09-0.19-0.09
			c-1.28-0.08-1.51-0.28-1.69-1.53c-0.19-1.38,0.22-2.52,1.34-3.39c1.47-1.14,3.17-1.43,4.97-1.37c0.17,0.01,0.32,0.08,0.51,0.26
			c-0.74,0.11-1.43,0.2-2.12,0.32c-1.04,0.17-1.9,0.66-2.63,1.41c-0.92,0.96-0.99,2.11-0.66,3.31c0.15,0.55,0.81,0.66,1.27,0.32
			c2.25-1.65,3.46-4.14,5.18-6.23c0.31-0.37,0.57-0.79,0.84-1.19c0.38-0.57,0.92-0.74,1.66-0.66c-0.34,0.46-0.64,0.89-0.97,1.29
			c-0.2,0.25-0.2,0.39,0.08,0.59c2.03,1.49,4.05,3,6.07,4.51c0.21,0.16,0.41,0.33,0.68,0.54c-0.73,0.15-1.31,0.15-1.88-0.34
			c-0.77-0.66-1.62-1.21-2.42-1.83c-0.49-0.37-0.94-0.16-1.39,0.05c-0.42,0.2-0.44,0.59-0.38,0.99c0.1,0.73,0.41,1.39,0.6,2.09
			c0.33,1.2-0.17,1.85-1.41,1.82c-0.32-0.01-0.65-0.05-0.97-0.06c-0.31-0.01-0.43-0.17-0.45-0.47c-0.02-0.27,0.06-0.35,0.32-0.26
			c0.07,0.03,0.15,0.04,0.22,0.05c0.79,0.11,1.02-0.12,0.85-0.92c-0.07-0.32-0.16-0.63-0.27-0.93c-0.37-1.12-1.8-1.46-2.58-0.57
			c-0.5,0.56-0.97,0.99-1.78,1.07c-0.61,0.06-0.96,0.71-1.38,1.14c-0.16,0.16,0.1,0.29,0.21,0.4c1.73,1.83,3.47,3.66,5.2,5.49
			c0.14,0.15,0.33,0.26,0.38,0.52c-0.63,0.08-1.13,0.04-1.62-0.5c-1.48-1.65-3.03-3.23-4.56-4.83c-0.12-0.12-0.23-0.4-0.43-0.28
			c-0.19,0.11-0.48,0.22-0.43,0.57c0.03,0.25-0.25,0.29-0.4,0.41c-0.39,0.31-1.05,0.48-1.13,0.89c-0.07,0.41,0.46,0.82,0.74,1.23
			c1.31,1.91,2.62,3.81,3.92,5.71c0.08,0.12,0.22,0.21,0.2,0.39c-0.3,0.02-0.43-0.19-0.58-0.39c-0.99-1.27-2.25-2.16-3.78-2.65
			c-0.69-0.22-1.39-0.23-2,0.29c0.13,0.22,0.36,0.23,0.53,0.33c0.75,0.43,1.02,1.09,0.68,1.63c-0.5,0.78-1.6,1.05-2.25,0.53
			c-0.64-0.52-0.98-1.17-0.78-2.02c0.22-0.91,0.84-1.44,1.72-1.65c0.88-0.21,1.7,0.08,2.5,0.42c0.16,0.07,0.32,0.13,0.48,0.19
			c0.04,0.07,0.12,0.12,0.18,0.07C78.41,86.93,78.31,86.88,78.26,86.84z M56.82,91.03c0.75,0.43,1.28,0.87,1.83,1.27
			c0.39,0.29,0.52,0.52,0.13,0.93c-0.36,0.37-0.65,0.8-0.95,1.22c-0.43,0.61-0.42,0.61,0.27,0.82c0.27,0.08,0.53,0.21,0.8,0.32
			c0.73,0.3,1.27,0.87,1.94,1.47c-0.31-2.16-0.61-4.19-0.9-6.23c-0.03-0.19-0.12-0.26-0.31-0.23
			C58.73,90.74,57.85,90.87,56.82,91.03z M70.47,93.36c0.04-0.03,0.08-0.06,0.11-0.09c-0.68-1.72-1.36-3.45-2.05-5.17
			c-0.09-0.23-0.25-0.18-0.42-0.11c-0.53,0.21-1.06,0.43-1.59,0.64c-0.55,0.22-1.11,0.44-1.8,0.71c0.47,0.16,0.77,0.29,1.08,0.37
			c1.12,0.29,2.01,0.9,2.46,1.96C68.72,92.7,69.72,92.83,70.47,93.36z M47.53,90.97c-0.03,0.06-0.05,0.12-0.08,0.17
			c0.26,0.24,0.52,0.49,0.79,0.72c0.82,0.72,1.31,1.64,1.25,2.71c-0.07,1.17,0.84,1.72,1.31,2.55c0.2-1.85,0.35-3.67,0.48-5.49
			c0.01-0.18,0.07-0.38-0.24-0.4C49.87,91.16,48.7,91.06,47.53,90.97z M82.69,76.84c0.72,0,1.36-0.2,1.89,0.19
			c0.42,0.31,0.5,0.24,0.5-0.25c0-0.8,0.18-0.99,0.98-1.09c0.38-0.05,0.77-0.05,1.3-0.09c-0.82-0.61-1.52-1.12-2.21-1.65
			C85,73.83,84.9,73.84,84.78,74C84.11,74.91,83.44,75.83,82.69,76.84z"/>
		<path class="st2" d="M27.19,19.91c-1.2-1.13-2.4-2.27-3.65-3.45c0.58-0.14,0.99-0.06,1.37,0.25c0.37,0.31,0.76,0.39,1.18,0.02
			c0.67-0.6,1.58-0.67,2.37-0.25c0.21,0.11,0.38,0.31,0.78,0.33c-0.69-1.01-1.34-1.94-1.99-2.9c0.3-0.09,0.49-0.05,0.67,0.16
			c0.19,0.21,0.42,0.39,0.64,0.56c0.38,0.29,0.76,0.36,1.1-0.11c-0.02-0.18-0.3-0.11-0.37-0.29c0.07-0.04,0.15-0.09,0.23-0.13
			c3.61-1.5,7.22-3,10.83-4.5c0.23-0.1,0.43-0.1,0.65,0c0.33,0.15,0.67,0.28,1.15,0.47c-0.74,0.31-1.37,0.61-2.02,0.84
			c-0.44,0.16-0.46,0.35-0.29,0.75c1.31,3.09,2.59,6.2,3.88,9.3c0.07,0.17,0.13,0.35,0.23,0.6c-0.8-0.23-1.45-0.4-1.77-1.28
			c-0.56-1.58-1.26-3.11-1.91-4.66c-0.31-0.74-0.89-1.14-1.58-1.09c-0.77,0.06-1.12,0.61-0.84,1.32c0.06,0.14,0.14,0.27,0.21,0.4
			c0.09,0.16,0.25,0.29,0.03,0.49c-0.24,0.21-0.34-0.03-0.47-0.13c-0.84-0.66-1.72-1.07-2.8-0.55c-0.91,0.44-1.38,1.51-1.05,2.46
			c0.27,0.78,0.86,1.09,1.78,0.94c0.03-0.19-0.16-0.24-0.25-0.35c-0.37-0.47-0.4-1.04-0.05-1.48c0.36-0.47,0.96-0.64,1.48-0.39
			c0.62,0.3,1.11,0.76,1.13,1.47c0.02,0.7-0.44,1.15-1.04,1.45c-1.26,0.62-2.67,0.38-3.52-0.58c-1.02-1.16-1.25-2.92-0.53-4.05
			c0.54-0.85,1.66-1.2,2.75-0.87c0.29,0.09,0.56,0.21,0.85,0.33c0.19-1.71,1.21-2.41,3-1.06c0.01-0.37-0.52-1.91-0.71-2.2
			c-0.12-0.17-0.23-0.09-0.34-0.05c-2.03,0.84-4.09,1.61-6.06,2.56c-0.78,0.38-1.49,0.99-2.24,1.46c-0.34,0.22-0.1,0.39,0.01,0.55
			c1.14,1.79,2.29,3.57,3.43,5.36c0.77,1.21,1.54,2.41,2.31,3.62c0.07,0.1,0.18,0.2,0.15,0.34c-0.94-0.05-1.57-0.48-2.07-1.32
			c-1.17-1.99-2.48-3.9-3.71-5.85c-0.81-1.29-2.11-1.54-3.5-0.63c-0.31,0.2-0.06,0.35,0.07,0.49c1.28,1.39,2.56,2.78,3.84,4.17
			c1.14,1.23,2.27,2.47,3.51,3.81c-0.85-0.04-1.54,0.12-2.14-0.61c-1.24-1.5-2.58-2.92-3.9-4.35c-0.82-0.88-1.91-0.99-3.02-0.87
			c-0.53,0.06-0.93,0.72-0.87,1.26c0.03,0.26,0.15,0.36,0.42,0.34c0.28-0.03,0.57-0.04,0.86-0.04s0.57,0.01,0.85,0.1
			c0.78,0.26,1.29,1.02,1.14,1.7c-0.15,0.67-0.94,1.22-1.71,1.17c-0.13-0.01-0.27-0.03-0.4-0.06c-0.32-0.09-0.4,0-0.33,0.33
			c0.05,0.24,0.02,0.5-0.02,0.74c-0.14,0.77-0.58,1.25-1.17,1.31c-0.7,0.07-1.47-0.41-1.71-1.1c-0.25-0.72-0.31-1.46-0.08-2.19
			c0.1-0.31,0.02-0.41-0.24-0.49c-0.58-0.17-1.11-0.11-1.62,0.27c-0.67,0.51-1.11,1.2-1.55,1.89c-1.31,2-2.61,3.99-3.91,6
			c-0.58,0.9-0.88,1.94-1.34,2.9c-0.17,0.35,0.15,0.38,0.33,0.46c1.78,0.79,3.56,1.56,5.35,2.34c1.45,0.63,2.9,1.26,4.41,1.92
			c-0.76,0.46-1.39,0.7-2.26,0.29c-2.61-1.22-5.27-2.32-7.9-3.49c-0.38-0.17-0.62-0.18-0.7,0.26c-0.19,0.98-0.9,1.33-1.87,1.49
			c0.35-0.81,0.68-1.6,1.02-2.4c-0.3-0.06-0.5,0.09-0.7,0.17c-0.9,0.31-1.44,0.15-2-0.61c-1.45-2-1.38-4.11,0.21-6.11
			c1.18-1.48,2.73-2.43,4.46-3.1c0.26-0.1,0.27-0.09,0.8,0.05c-0.57,0.33-1.09,0.64-1.61,0.92c-1.44,0.79-2.54,1.89-3.13,3.44
			c-0.61,1.61-0.11,3,0.9,4.26c0.4,0.49,1.32,0.35,1.56-0.19c0.14-0.3,0.24-0.53-0.33-0.44c1.3-1.99,2.55-3.91,3.8-5.83
			c0.64-0.97,1.39-1.89,1.87-2.94c0.31-0.67,0.73-1.15,1.25-1.61c1.22-1.09,1.95-1.23,3.56-0.66c-0.18-0.88-0.19-1.71,0.22-2.51
			c0.42-0.82,0.65-0.97,1.57-0.87c1.01,0.11,1.99,0.36,2.97,0.61c0.06,0.03,0.12,0.07,0.17-0.01C27.29,20,27.22,19.94,27.19,19.91z"
			/>
		<path class="st2" d="M52.42,23.37c16.17-0.09,29.48,13.27,29.23,29.61c-0.25,15.79-13.27,28.8-29.43,28.67
			C36.29,81.52,23.31,68.4,23.37,52.41C23.44,36.39,36.51,23.32,52.42,23.37z M52.61,24.05C36.92,23.93,24.17,36.77,24.04,52.2
			C23.9,68.15,36.77,80.63,51.81,80.97C67.96,81.34,81,68.22,80.98,52.47C80.95,36.95,68.31,24.06,52.61,24.05z"/>
		<path class="st2" d="M32.12,87.73c0.35-0.36,0.56-0.81,0.86-1.2c0.22-0.28,0.17-0.43-0.13-0.62c-1.54-0.99-3.05-2.03-4.61-2.99
			c-0.62-0.38-0.93-1.03-1.47-1.48c-0.38-0.32-0.56-0.37-0.93,0.03c-1.81,1.97-3.66,3.9-5.49,5.85c-0.06,0.07-0.09,0.17-0.19,0.21
			c-0.13-0.62-0.15-1.12,0.34-1.62c1.36-1.37,2.66-2.8,3.97-4.21c0.55-0.59,0.69-1.34,0.37-1.94c-0.04-0.08-0.07-0.53-0.33-0.1
			c-0.07,0.11-0.14-0.06-0.19-0.12c-0.25-0.32-0.5-0.63-0.72-0.97c-0.19-0.3-0.34-0.3-0.63-0.09c-2.02,1.51-4.04,3.01-6.07,4.51
			c-0.19,0.14-0.39,0.28-0.62,0.44c-0.06-0.74,0.12-1.26,0.76-1.68c1.17-0.76,2.26-1.64,3.4-2.43c0.81-0.56,1.03-1.39,1.1-2.28
			c0.03-0.41-0.22-0.68-0.59-0.82c-0.47-0.18-0.6-0.1-0.62,0.41c-0.02,0.36-0.03,0.73-0.17,1.07c-0.23,0.57-0.84,0.94-1.36,0.83
			s-0.96-0.72-0.84-1.33c0.11-0.53,0.07-0.73-0.55-0.78c-0.72-0.05-1.13-0.55-1.1-1.09c0.03-0.61,0.55-1.17,1.23-1.24
			c0.49-0.05,1.01-0.08,1.46,0.15c0.28,0.15,0.37,0.03,0.46-0.2c0.14-0.37,0.2-0.77-0.05-1.09c-1.46-1.87-2.04-4.14-2.95-6.27
			c-0.25-0.58-0.44-1.18-0.72-1.74c-0.5-1-0.71-2.07-0.83-3.16c-0.05-0.46-0.28-0.53-0.69-0.44C11.68,61.9,9.17,62.45,6.65,63
			c-0.13,0.03-0.25,0.09-0.39,0.02c0.23-0.66,0.63-1.02,1.37-1.16c2.15-0.41,4.29-0.93,6.43-1.39c0.37-0.08,0.56-0.17,0.39-0.58
			c-0.28-0.68,0.02-1.21,0.54-1.73c0.15,0.68,0.29,1.31,0.45,2.01c0.11-0.12,0.18-0.16,0.21-0.22c0.47-0.9,0.99-1.06,2.12-0.58
			c1.63,0.69,2.4,2.06,2.25,3.98c-0.1,1.39-0.63,2.62-1.36,3.79c-0.12,0.19-0.26,0.33-0.51,0.25c0.26-0.6,0.52-1.2,0.77-1.8
			c0.34-0.85,0.41-1.73,0.24-2.64c-0.27-1.45-1.19-2.26-2.54-2.64c-0.58-0.16-1.02,0.33-0.97,0.92c0.28,2.82,1.8,5.21,2.72,7.81
			c0.4,1.14,0.84,2.26,1.62,3.24c0.56,0.71,0.37,1.55-0.08,2.38c0.77-0.08,1.43,0.04,2.03,0.42c0.46,0.29,0.59,0.66,0.47,1.17
			c-0.18,0.77-0.41,1.53-0.62,2.37c0.95-0.81,1.91-1.63,2.9-2.47c0.15,0.42,0.01,0.71-0.23,0.97c-0.34,0.37-0.42,0.65,0.08,1.01
			c1.01,0.75,1.11,1.15,0.88,2.79c0.67-0.77,1.17-1.57,1.89-2.19c0.19,0.31-0.04,0.49-0.15,0.7c-0.37,0.71-0.3,0.8,0.19,1.38
			c1.78,2.09,4.35,3.06,6.47,4.67c0.24,0.18,0.49,0.37,0.77,0.5c0.72,0.34,1.13,0.87,1.1,1.73c-0.46-0.19-0.87-0.48-1.27-0.78
			c-0.37-0.28-0.54-0.2-0.78,0.17c-1.39,2.17-2.81,4.32-4.23,6.47c-0.09,0.14-0.14,0.31-0.33,0.39c-0.31-0.66-0.26-1.22,0.19-1.83
			c0.73-1,1.37-2.07,2.06-3.1c0.31-0.46,0.35-0.93,0.07-1.4c-0.35-0.6-0.94-0.59-1.33-0.02c-0.12,0.18-0.1,0.59-0.44,0.48
			c-0.32-0.11-0.09-0.44-0.1-0.66c-0.04-1.29-0.86-2.09-2.01-1.92c-0.57,0.09-0.93,0.43-1.12,0.95c-0.17,0.46-0.02,0.86,0.34,1.19
			c0.16-0.1,0.11-0.27,0.17-0.4c0.16-0.34,0.41-0.55,0.79-0.58c0.37-0.03,0.69,0.11,0.89,0.43c0.32,0.52,0.19,1.04-0.1,1.52
			c-0.25,0.42-0.67,0.47-1.11,0.38c-1.17-0.22-2-1.59-1.67-2.79c0.2-0.72,0.61-1.31,1.26-1.71c1.27-0.78,2.59-0.25,2.92,1.2
			c0.1,0.44,0.19,0.49,0.61,0.33c0.83-0.3,1.42,0.12,1.52,1.01c0.02,0.21,0.03,0.42,0.04,0.62c-0.01,0.04-0.02,0.08-0.03,0.12
			C32.06,87.77,32.09,87.75,32.12,87.73z"/>
		<path class="st2" d="M25.36,30.96c-1.47-0.96-2.94-1.92-4.4-2.88c-0.3-0.2-0.61-0.4-0.92-0.58c-0.33-0.19-0.58-0.09-0.76,0.23
			c-0.04,0.07-0.09,0.13-0.1,0.2c-0.25,1.28-0.12,2.48,0.65,3.61c0.67-0.95,1.31-1.09,2.02-0.49c0.43,0.36,0.58,0.81,0.35,1.33
			c-0.29,0.67-0.71,1.27-1.51,1.33c-0.96,0.07-1.74-0.39-2.22-1.17c-0.86-1.43-1.12-3.01-0.7-4.63c0.37-1.46,1.9-2.02,3.16-1.2
			c2.4,1.56,4.8,3.13,7.19,4.7c0.07,0.05,0.14,0.12,0.23,0.2c-0.38,0.27-0.74,0.32-1.16,0.21c-1.31-0.35-1.93-0.08-2.59,1.12
			c-0.46,0.84-0.82,1.73-1.33,2.53c-1.3,2.07-3.03,2.4-5.06,1.04c-0.7-0.47-1.23-1.14-1.85-1.7c-0.15-0.13-0.41-0.46-0.09-0.66
			c0.28-0.18,0.61-0.25,0.84,0.21c0.38,0.76,1.04,1.26,1.8,1.62c0.87,0.41,1.61,0.27,2.31-0.41c0.36-0.35,0.62-0.77,0.85-1.22
			c0.2-0.39,0.39-0.79,0.62-1.16c0.62-1.03,1.43-1.84,2.69-2.08C25.36,31.06,25.36,31.01,25.36,30.96z"/>
		<path class="st2" d="M83.72,23.88c0.32,0.42,0.23,0.72-0.05,1.07c-1.05,1.36-1.89,2.83-2.2,4.54c-0.22,1.21-0.06,2.34,0.52,3.44
			c0.81,1.55,3.62,2.49,5.05,0.47c0.39-0.55,0.34-0.71-0.32-0.76c-1.58-0.11-2.56-1.02-3.18-2.36c-0.55-1.18-0.08-2.43,1.04-2.97
			c0.56-0.27,1.12-0.25,1.62,0.14c0.54,0.42,0.88,0.97,0.72,1.69c-0.12,0.58-0.55,0.85-1.08,0.97c-0.18,0.04-0.37,0.04-0.6,0.07
			c0.2,0.35,0.51,0.44,0.81,0.52c0.72,0.2,1.46,0.31,2.21,0.21c0.34-0.05,0.51,0.06,0.44,0.37c-0.33,1.54-0.69,3.1-2.18,3.97
			c-1.56,0.92-3.2,0.99-4.78,0.01c-1.76-1.1-2.38-3.3-1.63-5.54c0.62-1.86,1.81-3.39,2.93-4.95C83.24,24.48,83.47,24.2,83.72,23.88z
			"/>
		<path class="st2" d="M87.82,47.72c1.14,0,2.28-0.02,3.41,0.01c0.34,0.01,0.46-0.11,0.55-0.41c0.34-1.08,0.7-2.16,1.1-3.4
			c0.4,1.22,0.77,2.27,1.09,3.34c0.12,0.39,0.3,0.5,0.69,0.49c1.1-0.03,2.19-0.01,3.33,0.1c-0.85,0.63-1.69,1.28-2.57,1.87
			c-0.44,0.29-0.49,0.56-0.32,1.03c0.36,1,0.66,2.02,1.03,3.16c-0.99-0.72-1.89-1.32-2.73-1.99c-0.4-0.32-0.66-0.28-1.02,0.01
			c-0.84,0.65-1.72,1.26-2.68,1.83c0.31-0.98,0.59-1.98,0.96-2.94c0.21-0.55,0.13-0.84-0.36-1.16c-0.86-0.56-1.67-1.2-2.5-1.8
			C87.8,47.81,87.81,47.77,87.82,47.72z"/>
		<path class="st2" d="M8.81,53.76c0.32-1.04,0.63-2.08,0.97-3.11c0.13-0.38,0.05-0.58-0.27-0.8c-0.9-0.63-1.78-1.29-2.64-2.05
			c1.1,0,2.19-0.02,3.29,0.01c0.43,0.01,0.6-0.14,0.72-0.53c0.32-1.06,0.68-2.1,1.07-3.31c0.38,1.19,0.73,2.22,1.03,3.26
			c0.13,0.44,0.32,0.6,0.8,0.58c1.06-0.04,2.13-0.01,3.27-0.01c-0.15,0.28-0.38,0.38-0.56,0.52c-0.74,0.54-1.47,1.09-2.22,1.61
			c-0.25,0.17-0.29,0.33-0.19,0.61c0.31,0.9,0.6,1.81,0.89,2.72c0.06,0.17,0.17,0.35,0.1,0.63c-0.86-0.63-1.71-1.2-2.5-1.83
			c-0.44-0.35-0.75-0.42-1.21-0.02c-0.67,0.57-1.41,1.04-2.13,1.55c-0.12,0.09-0.22,0.28-0.43,0.16L8.81,53.76z"/>
		<path class="st2" d="M100.77,60.63c-2.21,1.34-4.04,3.02-5.28,5.3c-0.07,0.13-0.13,0.29-0.31,0.31c-0.71,0.09-1.42,0.18-2.28,0.29
			c0.5-0.57,0.88-1.04,1.12-1.6c0.42-0.96,0.45-1.92,0.11-2.9c-0.24-0.69-0.69-1.01-1.26-0.93c-0.54,0.07-1.1,0.69-1.17,1.27
			c-0.03,0.25,0.1,0.33,0.27,0.44c0.49,0.32,0.78,0.78,0.89,1.35c0.1,0.56-0.19,1.11-0.64,1.27c-0.46,0.16-1.08-0.12-1.34-0.63
			c-0.23-0.45-0.3-0.94-0.36-1.44c-0.03-0.3-0.15-0.36-0.4-0.2c-0.27,0.17-0.47,0.37-0.54,0.7c-0.1,0.47-0.29,0.92-0.34,1.39
			c-0.09,0.76-0.58,1.09-1.29,1.34c0.42-1.6,0.82-3.14,1.23-4.69c0.24-0.9,0.55-1.8,0.69-2.72c0.12-0.77,0.59-1.07,1.28-1.33
			c-0.35,1.36-0.69,2.67-1.03,3.97c-0.04,0.17-0.23,0.42-0.03,0.5c0.24,0.1,0.52,0,0.69-0.27c0.16-0.26,0.33-0.52,0.53-0.75
			c0.65-0.76,1.49-1.08,2.46-0.88s1.47,0.89,1.7,1.81c0.1,0.38,0.2,0.76,0.32,1.21C97.28,62.14,98.7,60.78,100.77,60.63z"/>
		<path class="st2" d="M9.57,73.6c0.01-0.41,0.17-0.65,0.44-0.88c0.73-0.62,0.83-1.07,0.43-1.97c-0.23-0.52-0.53-1.01-0.8-1.52
			c-0.27-0.49-0.49-1-0.58-1.55c-0.21-1.26,0.42-2.23,1.85-2.79c0.62-0.24,1.29-0.36,1.96-0.39c0.16-0.01,0.47-0.14,0.45,0.23
			c-0.02,0.29-0.18,0.42-0.5,0.38c-0.52-0.06-1.02,0.07-1.5,0.28c-1.03,0.46-1.39,1.23-0.98,2.28c0.21,0.55,0.52,1.06,0.78,1.59
			c0.39,0.84,0.5,1.71,0.13,2.66c0.67-0.14,1.15-0.41,1.66-0.61c0.94-0.37,1.88-0.75,2.81-1.15c0.56-0.24,0.65-0.58,0.21-1
			c-0.59-0.55-1.29-0.94-2.12-1.05c-0.26-0.03-0.39,0.01-0.27,0.34c0.2,0.51,0.03,0.86-0.48,1.11c-0.51,0.25-0.95,0.15-1.25-0.3
			c-0.72-1.07-0.11-2.34,1.26-2.42c1.54-0.1,2.83,0.55,3.75,1.77c0.64,0.85,0.13,2.05-0.67,2.36c-2.13,0.83-4.24,1.71-6.36,2.58
			C9.73,73.58,9.67,73.59,9.57,73.6z"/>
		<path class="st2" d="M51.76,19.47c-0.42-0.31-0.66-0.56-0.71-0.95c-0.1-0.85,0.31-1.33,1.23-1.43c0.73-0.08,1.35,0.47,1.42,1.24
			c0.1,1.16-0.95,2.12-2.19,2.01c-0.88-0.07-1.6-0.47-2.17-1.14c-1.77-2.05-2.11-5.53-0.79-8.1c0.44-0.86,0.96-1.65,1.76-2.23
			c1.22-0.89,1.81-0.81,2.77,0.37c-3.51,0.72-4.91,5.19-3.86,8.08C49.62,18.43,50.22,19.38,51.76,19.47z"/>
		<path class="st2" d="M88.97,71.68c-1.1,0-1.98-0.88-1.99-2.02c-0.01-1.03,0.83-1.81,1.95-1.8c1.06,0.01,2.06,0.96,2.08,1.97
			C91.02,70.8,90.05,71.68,88.97,71.68z M89.85,70.09c-0.03-0.16-0.06-0.48-0.16-0.79c-0.14-0.44-0.87-0.87-1.23-0.71
			c-0.5,0.23-0.48,0.7-0.39,1.13c0.09,0.43,0.32,0.81,0.69,1.08c0.24,0.17,0.51,0.3,0.8,0.15C89.83,70.81,89.85,70.52,89.85,70.09z"
			/>
		<path class="st2" d="M97.78,70.2c-1.83,0.72-3.54,1.54-5.19,2.51c-0.2,0.12-0.37,0.15-0.59,0.05c-0.46-0.23-0.92-0.45-1.46-0.7
			c0.65-0.4,1.31-0.61,1.95-0.84c1.38-0.5,2.8-0.87,4.22-1.24C97.09,69.87,97.41,69.9,97.78,70.2z"/>
		<path class="st2" d="M35.91,96.01c0.01,1.26-1.59,2.7-2.79,2.54c-0.1-0.01-0.19-0.03-0.21-0.14c-0.02-0.16,0.06-0.24,0.22-0.26
			c0.32-0.04,0.63-0.14,0.92-0.28c0.3-0.14,0.55-0.35,0.71-0.63c0.15-0.26,0.19-0.5-0.22-0.58c-0.54-0.1-0.95-0.38-0.88-0.99
			c0.05-0.46,0.28-0.84,0.8-0.9c0.58-0.07,1.25,0.37,1.38,0.89C35.89,95.77,35.89,95.91,35.91,96.01z"/>
		<path class="st2" d="M68.27,21.9c0,0.61-0.52,1.13-1.12,1.12c-0.57,0-1.07-0.55-1.07-1.19c-0.01-0.63,0.5-1.13,1.12-1.11
			C67.79,20.73,68.27,21.26,68.27,21.9z"/>
		<path class="st2" d="M58.46,99.19c-0.57,0.01-1.01-0.4-1-0.95c0.01-0.48,0.4-0.86,0.88-0.86c0.53,0,0.96,0.41,0.96,0.92
			C59.31,98.8,58.93,99.19,58.46,99.19z"/>
		<path class="st2" d="M8.8,53.76c0,0.02,0,0.05,0,0.07c-0.01-0.01-0.02-0.02-0.02-0.03C8.79,53.78,8.8,53.77,8.8,53.76
			C8.81,53.76,8.8,53.76,8.8,53.76z"/>
		<path class="st2" d="M62.03,99.17l0.01,0.02L62.03,99.17z"/>
		<path class="st1" d="M68.3,17.35c1.69-0.31,3.86-0.3,4.78,0.02c-0.89,1.71-1.78,3.41-2.67,5.11
			C70.26,20.55,69.57,18.87,68.3,17.35z"/>
		<path class="st1" d="M78.24,21.39c0.96-0.77,0.82-1.79,0.76-2.84c0.46,0.23,0.76,0.57,1.1,0.86c0.77,0.65,1.54,1.31,2.31,1.97
			c0.21,0.18,0.34,0.32,0.09,0.59c-0.74,0.82-1.44,1.67-2.24,2.6c0-0.58,0.01-1.04,0-1.51c-0.03-1.14-0.28-1.39-1.4-1.5
			c-0.13-0.01-0.27-0.03-0.4-0.05C78.4,21.49,78.36,21.46,78.24,21.39z"/>
		<path class="st1" d="M56.52,13.1c0.01-1.03-0.28-1.78-1.29-2.11c0.05-0.23,0.23-0.35,0.38-0.47c0.93-0.79,2.6-0.75,3.42,0.07
			c0.23,0.23,0.35,0.4-0.01,0.66C58.19,11.82,57.4,12.44,56.52,13.1z"/>
		<path class="st1" d="M56.82,91.03c1.04-0.16,1.92-0.29,2.8-0.43c0.19-0.03,0.28,0.04,0.31,0.23c0.29,2.03,0.59,4.07,0.9,6.23
			c-0.66-0.6-1.21-1.16-1.94-1.47c-0.26-0.11-0.52-0.23-0.8-0.32c-0.69-0.21-0.7-0.21-0.27-0.82c0.3-0.42,0.59-0.85,0.95-1.22
			c0.4-0.41,0.27-0.64-0.13-0.93C58.09,91.9,57.57,91.46,56.82,91.03z"/>
		<path class="st1" d="M70.47,93.36c-0.75-0.54-1.75-0.66-2.19-1.69c-0.45-1.05-1.35-1.67-2.46-1.96c-0.31-0.08-0.61-0.21-1.08-0.37
			c0.69-0.27,1.25-0.49,1.8-0.71c0.53-0.21,1.06-0.42,1.59-0.64c0.17-0.07,0.33-0.12,0.42,0.11c0.68,1.72,1.36,3.45,2.05,5.17
			C70.55,93.3,70.51,93.33,70.47,93.36z"/>
		<path class="st1" d="M47.53,90.97c1.17,0.09,2.35,0.19,3.52,0.28c0.31,0.02,0.25,0.22,0.24,0.4c-0.14,1.82-0.28,3.64-0.48,5.49
			c-0.47-0.83-1.38-1.38-1.31-2.55c0.06-1.07-0.43-1.99-1.25-2.71c-0.27-0.24-0.53-0.48-0.79-0.72
			C47.47,91.08,47.5,91.03,47.53,90.97z"/>
		<path class="st1" d="M82.69,76.84c0.75-1.01,1.42-1.92,2.09-2.84c0.12-0.16,0.21-0.17,0.37-0.05c0.69,0.53,1.4,1.04,2.21,1.65
			c-0.53,0.03-0.92,0.04-1.3,0.09c-0.8,0.1-0.99,0.29-0.98,1.09c0,0.5-0.08,0.56-0.5,0.25C84.05,76.63,83.41,76.84,82.69,76.84z"/>
		<path class="st1" d="M78.26,86.84c0.04,0.05,0.15,0.09,0.08,0.16c-0.06,0.06-0.13,0.01-0.18-0.07
			C78.2,86.9,78.23,86.87,78.26,86.84z"/>
		<path class="st1" d="M27.19,19.91c0.03,0.03,0.09,0.08,0.09,0.09c-0.05,0.08-0.11,0.04-0.17,0.01
			C27.14,19.98,27.16,19.95,27.19,19.91z"/>
		<path class="st3" d="M52.61,24.05c15.7,0.02,28.34,12.9,28.36,28.43c0.02,15.75-13.01,28.86-29.17,28.5
			C36.77,80.63,23.9,68.15,24.04,52.2C24.17,36.77,36.92,23.93,52.61,24.05z M52.5,78.88L52.5,78.88c1.26-0.01,2.52-0.02,3.78,0
			c0.44,0.01,0.48-0.11,0.31-0.49c-0.28-0.61-0.45-1.25-0.44-1.94c0.01-0.31,0.1-0.41,0.42-0.47c0.73-0.12,1.46-0.27,2.18-0.47
			c2.57-0.72,4.97-1.8,7.18-3.32c0.72-0.49,0.73-0.48,1.26,0.18c0.32,0.39,0.59,0.8,0.72,1.29c0.12,0.42,0.27,0.5,0.6,0.16
			c1.76-1.78,3.53-3.54,5.31-5.31c0.3-0.3,0.28-0.48-0.12-0.59c-0.6-0.17-1.09-0.54-1.57-0.92c-0.27-0.21-0.42-0.43-0.14-0.76
			c0.18-0.22,0.32-0.47,0.48-0.71c1.78-2.74,2.95-5.72,3.52-8.93c0.06-0.32,0.18-0.44,0.52-0.45c0.69-0.03,1.32,0.2,1.93,0.47
			c0.3,0.13,0.45,0.12,0.45-0.28c-0.01-2.56-0.01-5.12,0-7.68c0-0.4-0.15-0.38-0.45-0.25c-0.58,0.24-1.17,0.46-1.82,0.45
			c-0.39,0-0.58-0.09-0.65-0.51c-0.11-0.69-0.27-1.38-0.45-2.06c-0.71-2.68-1.88-5.14-3.48-7.4c-0.27-0.38-0.27-0.62,0.11-0.89
			c0.5-0.36,0.98-0.74,1.57-0.93c0.42-0.13,0.36-0.31,0.11-0.56c-0.22-0.21-0.43-0.43-0.65-0.65c-1.55-1.55-3.11-3.1-4.66-4.66
			c-0.31-0.32-0.49-0.31-0.61,0.14c-0.15,0.59-0.54,1.04-0.89,1.52c-0.26,0.36-0.5,0.4-0.89,0.12c-1.25-0.91-2.59-1.67-4.02-2.28
			c-1.72-0.73-3.48-1.36-5.34-1.63c-0.45-0.07-0.67-0.24-0.62-0.74c0.06-0.6,0.17-1.17,0.43-1.71c0.17-0.36,0.15-0.5-0.3-0.49
			c-2.52,0.01-5.04,0.01-7.57,0c-0.36,0-0.5,0.06-0.3,0.45c0.26,0.51,0.37,1.07,0.44,1.64c0.08,0.56-0.15,0.78-0.68,0.87
			c-3.42,0.59-6.53,1.92-9.36,3.92c-0.28,0.2-0.52,0.21-0.75-0.07c-0.4-0.49-0.81-0.98-0.96-1.6c-0.12-0.48-0.32-0.43-0.61-0.14
			c-1.77,1.77-3.53,3.54-5.31,5.31c-0.31,0.31-0.22,0.48,0.15,0.59c0.44,0.13,0.84,0.37,1.2,0.65c0.77,0.59,0.77,0.6,0.23,1.4
			c-1.9,2.82-3.16,5.9-3.74,9.25c-0.06,0.36-0.21,0.47-0.56,0.47c-0.67,0.01-1.29-0.15-1.87-0.44c-0.35-0.17-0.46-0.11-0.46,0.29
			c0.01,2.54,0.01,5.08,0,7.62c0,0.35,0.08,0.44,0.43,0.29c0.61-0.26,1.23-0.51,1.93-0.46c0.32,0.02,0.49,0.07,0.54,0.42
			c0.07,0.49,0.19,0.97,0.3,1.45c0.68,2.95,1.92,5.65,3.65,8.12c0.26,0.37,0.2,0.64-0.12,0.88c-0.45,0.35-0.91,0.69-1.47,0.86
			c-0.49,0.15-0.53,0.28-0.16,0.65c1.75,1.76,3.51,3.51,5.26,5.27c0.28,0.28,0.47,0.31,0.6-0.1c0.18-0.57,0.53-1.05,0.88-1.53
			c0.27-0.38,0.53-0.42,0.9-0.14c0.79,0.61,1.65,1.09,2.53,1.56c2.21,1.16,4.54,1.97,7,2.39c0.37,0.06,0.47,0.22,0.46,0.57
			c-0.01,0.62-0.15,1.21-0.42,1.77c-0.23,0.46-0.09,0.58,0.39,0.57C50.05,78.87,51.28,78.88,52.5,78.88z"/>
		<path class="st1" d="M32.12,87.73c-0.03,0.02-0.06,0.04-0.09,0.06c0.01-0.04,0.02-0.08,0.03-0.12
			C32.08,87.69,32.1,87.71,32.12,87.73z"/>
		<path class="st1" d="M89.85,70.09c0,0.44-0.02,0.72-0.29,0.86c-0.28,0.15-0.56,0.02-0.8-0.15c-0.38-0.26-0.61-0.64-0.69-1.08
			c-0.09-0.43-0.11-0.9,0.39-1.13c0.35-0.16,1.09,0.27,1.23,0.71C89.78,69.6,89.82,69.93,89.85,70.09z"/>
		<path class="st2" d="M52.5,78.88c-1.22,0-2.45-0.02-3.67,0.01c-0.49,0.01-0.62-0.12-0.39-0.57c0.27-0.55,0.41-1.14,0.42-1.77
			c0-0.34-0.09-0.5-0.46-0.57c-2.46-0.42-4.8-1.23-7-2.39c-0.88-0.46-1.74-0.95-2.53-1.56c-0.37-0.28-0.63-0.24-0.9,0.14
			c-0.35,0.48-0.7,0.95-0.88,1.53c-0.13,0.41-0.32,0.39-0.6,0.1c-1.75-1.76-3.51-3.51-5.26-5.27c-0.36-0.36-0.33-0.5,0.16-0.65
			c0.56-0.17,1.02-0.51,1.47-0.86c0.31-0.24,0.38-0.51,0.12-0.88c-1.73-2.47-2.98-5.17-3.65-8.12c-0.11-0.48-0.23-0.96-0.3-1.45
			c-0.05-0.35-0.23-0.4-0.54-0.42c-0.7-0.04-1.31,0.2-1.93,0.46c-0.35,0.15-0.43,0.06-0.43-0.29c0.01-2.54,0.01-5.08,0-7.62
			c0-0.4,0.12-0.46,0.46-0.29c0.59,0.29,1.21,0.45,1.87,0.44c0.35,0,0.5-0.1,0.56-0.47c0.59-3.35,1.85-6.43,3.74-9.25
			c0.54-0.8,0.54-0.8-0.23-1.4c-0.36-0.28-0.76-0.51-1.2-0.65c-0.37-0.11-0.46-0.28-0.15-0.59c1.77-1.76,3.54-3.53,5.31-5.31
			c0.29-0.29,0.49-0.34,0.61,0.14c0.16,0.63,0.56,1.12,0.96,1.6c0.23,0.28,0.47,0.26,0.75,0.07c2.83-1.99,5.95-3.33,9.36-3.92
			c0.53-0.09,0.76-0.3,0.68-0.87c-0.08-0.57-0.19-1.13-0.44-1.64c-0.2-0.39-0.05-0.45,0.3-0.45c2.52,0.01,5.04,0.01,7.57,0
			c0.45,0,0.47,0.13,0.3,0.49c-0.25,0.54-0.37,1.11-0.43,1.71c-0.05,0.5,0.17,0.68,0.62,0.74c1.86,0.27,3.62,0.9,5.34,1.63
			c1.43,0.61,2.77,1.36,4.02,2.28c0.39,0.29,0.63,0.24,0.89-0.12c0.35-0.48,0.74-0.93,0.89-1.52c0.11-0.45,0.29-0.46,0.61-0.14
			c1.55,1.56,3.1,3.11,4.66,4.66c0.22,0.22,0.43,0.43,0.65,0.65c0.26,0.25,0.31,0.43-0.11,0.56c-0.59,0.19-1.07,0.57-1.57,0.93
			c-0.38,0.27-0.38,0.51-0.11,0.89c1.6,2.26,2.77,4.72,3.48,7.4c0.18,0.68,0.34,1.37,0.45,2.06c0.07,0.42,0.26,0.51,0.65,0.51
			c0.65,0.01,1.24-0.21,1.82-0.45c0.3-0.12,0.45-0.15,0.45,0.25c-0.01,2.56-0.01,5.12,0,7.68c0,0.39-0.15,0.41-0.45,0.28
			c-0.61-0.27-1.23-0.49-1.93-0.47c-0.34,0.01-0.46,0.13-0.52,0.45c-0.57,3.21-1.74,6.19-3.52,8.93c-0.16,0.24-0.29,0.49-0.48,0.71
			c-0.28,0.33-0.13,0.55,0.14,0.76c0.48,0.38,0.96,0.75,1.57,0.92c0.4,0.11,0.42,0.3,0.12,0.59c-1.78,1.76-3.54,3.53-5.31,5.31
			c-0.33,0.33-0.48,0.26-0.6-0.16c-0.14-0.48-0.41-0.9-0.72-1.29c-0.54-0.65-0.55-0.67-1.26-0.18c-2.2,1.52-4.61,2.61-7.18,3.32
			c-0.71,0.2-1.44,0.35-2.18,0.47c-0.31,0.05-0.41,0.15-0.42,0.47c-0.01,0.69,0.16,1.33,0.44,1.94c0.17,0.38,0.13,0.5-0.31,0.49
			C55.02,78.87,53.76,78.88,52.5,78.88L52.5,78.88z M52.51,33.14c-10.81,0.14-19.06,8.48-19.33,18.75
			c-0.3,11.36,8.52,19.75,18.91,19.94c11.12,0.21,19.62-8.51,19.75-19.06C71.98,41.86,63.35,33.25,52.51,33.14z"/>
		<path class="st3" d="M52.51,33.14c10.84,0.11,19.48,8.72,19.34,19.63c-0.13,10.56-8.64,19.27-19.75,19.06
			c-10.4-0.19-19.21-8.58-18.91-19.94C33.45,41.62,41.69,33.28,52.51,33.14z M57.52,57.84c1.76-0.23,2.82,0.42,3.88,1.02
			c0.3,0.17,0.57,0.46,0.51,0.83c-0.06,0.38-0.47,0.34-0.75,0.4c-1.31,0.27-2.63,0.44-3.95,0.56c-0.35,0.03-0.7,0.1-0.85,0.47
			c-0.27,0.65-0.51,1.31-0.78,1.96c-0.12,0.28-0.11,0.55,0.1,0.75c1.06,1.03,2.26,1.65,3.81,1.39c1.77-0.3,3.54-0.56,5.26-1.04
			c1.15-0.32,2.33-0.61,3.35-1.29c0.86-0.57,0.87-1.18,0-1.79c-1.07-0.74-2.32-0.94-3.56-1.14c-0.34-0.06-0.7-0.04-0.98-0.25
			c-1.15-0.87-2.31-1.74-3.44-2.64c-1.85-1.47-3.78-2.83-5.69-4.22c-0.51-0.37-0.52-0.46,0.02-0.81c1.23-0.8,2.46-1.61,3.68-2.42
			c1.92-1.28,3.83-2.57,5.74-3.85c1.03-0.69,2.06-1.37,3.09-2.07c0.23-0.16,0.4-0.37,0.33-0.68c-0.06-0.24-0.21-0.41-0.45-0.46
			c-0.29-0.07-0.52,0.11-0.74,0.25c-0.91,0.59-1.8,1.2-2.7,1.8c-3.4,2.28-6.81,4.55-10.19,6.85c-0.32,0.22-0.5,0.15-0.74-0.03
			c-1.24-0.92-2.48-1.84-3.73-2.74c-2.73-1.98-5.46-3.96-8.18-5.95c-0.25-0.18-0.42-0.17-0.67-0.04c-1.05,0.58-2.11,1.15-3.18,1.7
			c-0.41,0.21-0.33,0.36,0,0.57c2.38,1.51,4.75,3.03,7.13,4.55c1.94,1.24,3.88,2.49,5.83,3.73c0.4,0.25,0.34,0.39-0.02,0.63
			c-1.45,0.95-2.88,1.91-4.32,2.88c-2.11,1.41-4.21,2.82-6.32,4.22c-0.35,0.23-0.39,0.39-0.08,0.69c0.89,0.83,1.76,1.69,2.63,2.53
			c1.29,1.25,2.57,2.5,3.86,3.74c0.17,0.17,0.32,0.41,0.61,0.15c1.12-0.98,2.24-1.95,3.37-2.92c0.28-0.24,0.29-0.4-0.03-0.67
			c-1.89-1.54-3.75-3.11-5.65-4.65c-0.37-0.3-0.22-0.45,0.06-0.63c2.33-1.56,4.65-3.12,6.98-4.69c0.31-0.21,0.56-0.21,0.88,0
			c1.17,0.78,2.36,1.54,3.55,2.29C56.03,57.38,56.86,58,57.52,57.84z M51.68,46.53c0.13-0.22,0.17-0.28,0.2-0.35
			c0.28-0.69,0.57-1.37,0.84-2.07c0.46-1.23,0.53-1.27,1.86-1.07c0.04,0.01,0.07,0.02,0.11,0.03c0.71,0.04,1.41,0.08,2.13,0.12
			c-0.01-0.26-0.16-0.33-0.27-0.43c-0.69-0.57-1.37-1.16-2.08-1.7c-0.32-0.24-0.38-0.46-0.23-0.82c0.37-0.88,0.71-1.77,1.06-2.65
			c0.04-0.1,0.11-0.21-0.05-0.32c-0.84,0.37-1.55,1-2.36,1.46c-0.79,0.45-0.78,0.42-1.45-0.17c-0.69-0.61-1.42-1.17-2.13-1.75
			c0.17,1.09,0.41,2.12,0.7,3.14c0.11,0.39,0.04,0.63-0.32,0.84c-0.75,0.45-1.49,0.93-2.22,1.4c-0.13,0.09-0.32,0.14-0.28,0.44
			c0.91-0.06,1.81,0.14,2.72,0.14c0.82,0,0.91,0.11,1.09,0.91C51.2,44.58,51.42,45.48,51.68,46.53z"/>
		<path class="st2" d="M57.52,57.84c-0.65,0.15-1.49-0.47-2.34-1.01c-1.19-0.76-2.37-1.51-3.55-2.29c-0.32-0.21-0.57-0.21-0.88,0
			c-2.32,1.57-4.65,3.13-6.98,4.69c-0.27,0.18-0.42,0.33-0.06,0.63c1.89,1.54,3.75,3.11,5.65,4.65c0.32,0.26,0.31,0.42,0.03,0.67
			c-1.13,0.97-2.25,1.94-3.37,2.92c-0.29,0.26-0.44,0.01-0.61-0.15c-1.29-1.25-2.58-2.5-3.86-3.74c-0.88-0.85-1.74-1.7-2.63-2.53
			c-0.32-0.3-0.27-0.46,0.08-0.69c2.11-1.4,4.21-2.81,6.32-4.22c1.44-0.96,2.87-1.93,4.32-2.88c0.36-0.23,0.42-0.37,0.02-0.63
			c-1.95-1.23-3.88-2.48-5.83-3.73c-2.38-1.52-4.75-3.04-7.13-4.55c-0.32-0.21-0.41-0.36,0-0.57c1.07-0.55,2.12-1.12,3.18-1.7
			c0.24-0.13,0.42-0.14,0.67,0.04c2.72,1.99,5.45,3.96,8.18,5.95c1.25,0.91,2.49,1.83,3.73,2.74c0.24,0.18,0.42,0.25,0.74,0.03
			c3.39-2.3,6.79-4.57,10.19-6.85c0.9-0.6,1.8-1.21,2.7-1.8c0.22-0.14,0.45-0.32,0.74-0.25c0.24,0.05,0.4,0.22,0.45,0.46
			c0.07,0.31-0.1,0.52-0.33,0.68c-1.02,0.7-2.06,1.38-3.09,2.07c-1.91,1.28-3.83,2.57-5.74,3.85c-1.22,0.81-2.45,1.62-3.68,2.42
			c-0.54,0.35-0.53,0.44-0.02,0.81c1.91,1.39,3.84,2.76,5.69,4.22c1.13,0.9,2.29,1.77,3.44,2.64c0.28,0.22,0.65,0.2,0.98,0.25
			c1.24,0.2,2.49,0.4,3.56,1.14c0.86,0.6,0.86,1.21,0,1.79c-1.02,0.67-2.19,0.97-3.35,1.29c-1.73,0.48-3.5,0.75-5.26,1.04
			c-1.55,0.26-2.75-0.36-3.81-1.39c-0.21-0.2-0.22-0.47-0.1-0.75c0.27-0.65,0.51-1.31,0.78-1.96c0.15-0.37,0.5-0.43,0.85-0.47
			c1.33-0.13,2.65-0.29,3.95-0.56c0.28-0.06,0.68-0.02,0.75-0.4c0.06-0.38-0.21-0.66-0.51-0.83C60.34,58.26,59.28,57.62,57.52,57.84
			z"/>
		<path class="st2" d="M51.68,46.53c-0.26-1.05-0.48-1.95-0.69-2.85c-0.18-0.8-0.27-0.9-1.09-0.91c-0.91,0-1.81-0.2-2.72-0.14
			c-0.04-0.29,0.15-0.35,0.28-0.44c0.74-0.47,1.47-0.95,2.22-1.4c0.36-0.21,0.43-0.45,0.32-0.84c-0.29-1.02-0.53-2.05-0.7-3.14
			c0.71,0.58,1.44,1.15,2.13,1.75c0.67,0.59,0.66,0.61,1.45,0.17c0.81-0.46,1.51-1.08,2.36-1.46c0.16,0.11,0.09,0.22,0.05,0.32
			c-0.35,0.88-0.7,1.77-1.06,2.65c-0.15,0.35-0.09,0.58,0.23,0.82c0.71,0.54,1.39,1.12,2.08,1.7c0.11,0.09,0.26,0.17,0.27,0.43
			c-0.72-0.04-1.42-0.08-2.13-0.12c-0.04,0-0.07-0.02-0.11-0.03c-1.33-0.2-1.4-0.16-1.86,1.07c-0.26,0.69-0.55,1.38-0.84,2.07
			C51.85,46.24,51.8,46.31,51.68,46.53z"/>
	</g>
	<text transform="matrix(1 0 0 1 126.7784 75.6378)" class="st2 st4 st5">Trishal Paurashava</text>
</g>
</svg>
