<?xml version="1.0" encoding="utf-8"?>
<!-- Generator: Adobe Illustrator 24.0.0, SVG Export Plug-In . SVG Version: 6.00 Build 0)  -->
<svg version="1.1" id="Layer_1" xmlns="http://www.w3.org/2000/svg" xmlns:xlink="http://www.w3.org/1999/xlink" x="0px" y="0px"
	 viewBox="0 0 394.9 78.3" style="enable-background:new 0 0 394.9 78.3;" xml:space="preserve">
<style type="text/css">
	.st0{fill:#FFFFFF;}
	.st1{fill:#F6D168;}
	.st2{fill:#1CBFD2;}
	.st3{fill:#272626;}
	.st4{fill:#D43827;}
	.st5{fill:#DF2F2E;}
	.st6{opacity:0.56;fill:#EBAC43;enable-background:new    ;}
	.st7{fill:#428F42;}
	.st8{fill:none;stroke:#010101;stroke-width:0.75;stroke-miterlimit:10;}
	.st9{fill:#30B4D4;}
	.st10{fill:#CFBC2F;}
	.st11{fill:#DDEEE8;}
	.st12{fill:#494E21;}
	.st13{fill:#ECF1ED;}
	.st14{fill:url(#SVGID_1_);}
	.st15{fill:#A93124;}
	.st16{fill:url(#SVGID_2_);}
	.st17{fill:url(#SVGID_3_);}
	.st18{fill:#CD6F66;}
	.st19{fill:none;stroke:#DC2A26;stroke-width:5;stroke-miterlimit:10;}
	.st20{fill:none;stroke:#69CCE4;stroke-width:2;stroke-miterlimit:10;}
	.st21{fill:none;stroke:#48C7F0;stroke-width:2;stroke-miterlimit:10;}
	.st22{fill:url(#SVGID_4_);}
	.st23{fill:url(#SVGID_5_);}
	.st24{opacity:0.8;fill:#ECE7D3;enable-background:new    ;}
	.st25{fill:#6CC4EF;}
	.st26{fill:none;stroke:#010101;stroke-width:0.5;stroke-miterlimit:10;}
	.st27{fill:#EAF2F1;stroke:#010101;stroke-width:0.75;stroke-miterlimit:10;}
	.st28{fill:#EAF2F1;}
	.st29{fill:#CF4B3E;}
	.st30{fill:#EAF1F3;}
	.st31{fill:url(#SVGID_6_);}
	.st32{fill:#EAF2F1;stroke:#010101;stroke-width:0.5;stroke-miterlimit:10;}
	.st33{fill:#B36753;}
	.st34{fill:#C5D5D8;}
	.st35{fill:#D0CFCB;}
	.st36{fill:#DDCFC9;}
	.st37{fill:none;}
	.st38{fill:#B8DBEA;}
	.st39{fill:#99CDDC;}
	.st40{fill:#E9DDD7;}
	.st41{fill:url(#SVGID_7_);stroke:#010101;stroke-width:0.25;stroke-miterlimit:10;}
	.st42{fill:url(#SVGID_8_);stroke:#010101;stroke-width:0.25;stroke-miterlimit:10;}
	.st43{fill:#862F1D;}
	.st44{fill:#EAF2F1;stroke:#010101;stroke-width:0.25;stroke-miterlimit:10;}
	.st45{fill:none;stroke:#010101;stroke-width:0.25;stroke-miterlimit:10;}
	.st46{fill:none;stroke:#9B9B9B;stroke-width:0.25;stroke-miterlimit:10;}
</style>
<g>
	<path class="st0" d="M111.1,35.1c0.4-0.2,0.9-0.4,1.4-0.4c1.2,0,2.1,0.5,2.9,1.4s1.3,2.1,1.3,3.5c0,1.9-0.5,3.2-1.4,4.1
		c-1,0.9-2.2,1.3-3.8,1.3c-1.8,0-3.4-0.9-4.5-2.7c-0.5-0.8-0.9-1.7-1.2-2.6c-0.3-0.9-0.4-1.9-0.4-3c0-1.7,0.4-3.4,1.1-5.1
		c0.7-1.7,1.7-3.4,3.2-5.1c1.4-1.7,2.8-3,4.1-3.9c1.4-0.9,2.9-1.4,4.3-1.4c1.7,0,3.3,0.9,4.6,2.6c0.7,0.8,1.3,1.7,1.6,2.6
		c0.4,0.9,0.6,1.9,0.6,2.9v34.8c-0.3,0-0.6-0.1-1-0.2c-0.3-0.2-0.7-0.4-1-0.6c-0.4-0.2-0.8-0.5-1.2-0.8c-0.4-1.7-0.7-3-1-3.9
		c-0.3-0.9-0.6-1.5-0.9-1.8c-0.3-0.5-0.8-0.8-1.5-1.1c-0.7-0.3-1.6-0.4-2.7-0.4c-0.5,0-1.1,0-1.6,0.1c-0.7,0.1-1.4,0.1-2.3,0.2
		c-1,0.1-1.7,0.1-2.4,0.2c-0.7,0-1.4,0-1.8,0c-3.9,0-6.8-1.1-8.8-3.4c-2-2.3-3-5.6-3-10.1c0-2.1,0.2-4,0.6-5.8
		c0.4-1.8,1.2-3.7,2.1-5.6l2.6,3c-0.6,1-1.1,2-1.3,3.2c-0.3,1.2-0.4,2.6-0.4,4.3c0,1.2,0.2,2.2,0.5,3.1c0.3,0.9,0.8,1.7,1.4,2.4
		c0.6,0.7,1.3,1.2,2,1.6c0.8,0.4,1.6,0.6,2.7,0.6c0.4,0,0.9,0,1.4-0.1s1.3-0.1,2-0.2c0.8-0.1,1.5-0.2,2.1-0.2c0.6,0,1.2-0.1,1.5-0.1
		c3,0,5.4,1.1,7.4,3.3V29.1c0-1.1-0.1-1.8-0.4-2c-0.3-0.3-0.6-0.4-1.1-0.4c-0.5,0-1.1,0.3-1.9,0.8c-0.8,0.6-1.8,1.5-3.1,2.8
		c-1,1.1-1.7,2-2.2,2.8C111.6,33.9,111.3,34.5,111.1,35.1z"/>
	<path class="st0" d="M146.7,26.1v12.8c0,0.5,0.1,0.8,0.3,0.8c0.5,0,1-0.2,1.6-0.7c0.6-0.5,1.4-1.3,2.1-2.5c1.9-2.7,3.3-4,4.1-4
		c1.2,0,2.1,0.5,2.9,1.4c0.8,1,1.4,2.2,2.1,3.8c0.5,1.3,0.8,2.6,1.1,3.8c0.3,1.2,0.4,2.5,0.4,3.7c0,4-1.2,7.5-3.6,10.3
		c-2.3,2.8-5.3,4.2-8.9,4.2c-3,0-5.7-1-7.9-3s-4.1-4.9-5.8-8.7c-0.5-1.2-1-2.5-1.4-3.9s-0.9-3.1-1.3-4.9c-0.4-1.8-0.8-3.9-1.2-6.2
		c-0.4-2.3-0.8-4.9-1.2-7.7l4.1,3.7c1.4,7.3,3,12.5,4.4,15.6c1.3,2.7,2.7,4.7,4.3,5.9c1.6,1.3,3.5,1.9,5.5,1.9c2.3,0,4.3-0.8,6-2.5
		s2.5-3.8,2.5-6.4c0-1.7-0.3-3-1-4c-0.3,0.3-0.7,0.8-1.2,1.4c-0.5,0.6-1.1,1.3-1.7,2.2c-1.6,2.2-3.5,3.3-5.5,3.3
		c-1.1,0-1.9-0.3-2.6-1s-1.3-1.6-1.7-2.8c-0.5-1.2-0.8-2.7-1-4.3c-0.2-1.7-0.3-3.5-0.3-5.5c0-0.6,0-1.3,0-2s0-1.6,0.1-2.5
		c0-0.4,0.1-0.8,0.1-1.1c0-0.3,0-0.6,0.1-0.9h-14.4l-4.1-4.8h40.6l4.1,4.8h-22V26.1z"/>
	<path class="st0" d="M171.8,26.1c0.1,0.8,0.1,1.6,0.2,2.4c0,0.8,0.1,1.6,0.1,2.4c0,1.8,0,3.9,0,6.1c0,2.3,0,4.6,0,7s0,4.8,0,7.3
		s0,4.8,0,6.9c0,2.4,0,4.8,0.1,7.1l-4.7-4.7l0.4-34.6h-5.1l-4.1-4.8h8c-0.7-1-1.2-2-1.5-2.9c-0.4-0.9-0.6-1.8-0.6-2.6
		c0-1.7,0.5-3.3,1.4-4.8c1-1.4,2.2-2.7,3.9-3.9c3-2.1,6-3.2,8.7-3.2c3.4,0,6.7,1,9.8,2.9c3.2,2,6.5,4.9,9.7,8.9v4.7
		c-1.8-1.9-3.6-3.6-5.1-4.9s-3.1-2.4-4.5-3.3c-1.4-0.8-2.8-1.5-4.1-1.8c-1.4-0.4-2.6-0.6-3.9-0.6c-2.2,0-4.5,0.8-6.8,2.3
		c-1.4,0.9-2.3,1.8-2.9,2.8s-0.9,1.9-0.9,3c0,1.2,0.4,2.3,1.1,3.4h6.5l4.1,4.8L171.8,26.1L171.8,26.1z"/>
	<path class="st0" d="M202.1,26.1v38c-0.3,0-0.6-0.1-1-0.2c-0.4-0.2-0.7-0.4-1-0.6c-0.4-0.2-0.7-0.5-1.1-0.9c-0.7-3.6-1.6-6.6-3-9
		c-1.4-2.4-3.1-4.2-5.1-5.5c-0.3,1.1-0.8,2.1-1.5,3c-0.5,0.7-1.2,1.2-1.8,1.5s-1.4,0.5-2.2,0.5c-1.5,0-2.9-0.7-4-2s-1.6-2.9-1.6-4.7
		c0-0.9,0.2-1.8,0.5-2.6c0.3-0.8,0.8-1.5,1.4-2.1c1.2-1.4,2.5-2.1,4.1-2.1c0.8,0,1.4,0.1,2.1,0.2c0.1-0.5,0.2-1.3,0.2-2.2
		c0-1.4-0.2-2.6-0.6-3.5c-0.4-0.9-1.1-1.8-1.8-2.4c-0.4-0.3-1-0.7-1.7-1.1c-0.8-0.4-1.9-0.9-3.3-1.4c-0.9-0.3-1.6-0.7-2.3-1.1
		s-1.2-1-1.4-1.7h-1.4l-4.1-4.8h35.9l4.1,4.8h-9.3V26.1z M197.8,26.1h-11.3c1.7,1.7,3,3.4,3.8,4.9c0.6,1.2,1.1,2.5,1.3,3.9
		c0.3,1.4,0.4,3,0.4,4.8c0,0.4,0,0.8,0,1.1c0,0.4,0,0.8-0.1,1.3c1.2,1.1,2.3,2.3,3.3,3.6c1,1.3,1.9,2.6,2.7,4L197.8,26.1L197.8,26.1
		z"/>
	<path class="st0" d="M229.8,26.1v39.5l-4.2-4.6c0-3-0.1-5.7-0.4-8.1c-0.3-2.4-0.7-4.5-1.4-6.4c-0.8-2.7-1.8-4.7-3.1-6
		c-1.3-1.3-2.7-1.9-4.3-1.9c-0.1,0-0.2,0-0.3,0s-0.2,0-0.2,0c1,1.2,1.4,2.5,1.4,4.1c0,1.7-0.5,3.2-1.5,4.4s-2.3,1.8-3.8,1.8
		c-1.5,0-2.9-0.7-4-2.2c-1.1-1.4-1.5-3.1-1.5-5c0-2.7,0.9-5,2.8-6.7c1.7-1.6,3.8-2.4,6-2.4c1.7,0,3.3,0.4,4.6,1.3
		c1.4,0.9,2.6,2.1,3.8,3.8c0.7,1.1,1.4,2.3,1.9,3.6V26.1h-20.1l-4.2-4.8h33.8l4.1,4.8C239.3,26.1,229.8,26.1,229.8,26.1z"/>
	<path class="st0" d="M275.9,16.5l2.9,2.4l0.8,2.4h5.3l4.2,4.8h-9.3c0,1.1,0,2.7,0,4.8s0,4.5,0.1,7.2c0,2.7,0,5.4,0,8.3
		c0,2.9,0,5.6,0,8.2c0,2.6,0,4.9,0,6.8s0,3.4,0,4.2l-4.7-5c0.1-6.2,0.2-10.9,0.3-13.9c0.1-3.1,0.1-4.6,0.1-4.8
		c0-1.2-0.2-2.4-0.6-3.7s-1.1-2.7-1.9-4.1c-1,1.3-2.4,3.1-4.2,5.4c-1.8,2.3-4.1,5.2-6.9,8.6l-6.4-2.6c1-1,1.7-1.9,2.3-2.6
		c0.6-0.7,1.1-1.4,1.4-1.9c0.4-0.5,0.6-1,0.8-1.4c0.1-0.4,0.2-0.7,0.2-0.9c0-0.7-0.3-1.5-0.8-2.3c-0.4-0.6-0.8-0.9-1.4-0.9
		c-0.5,0-0.9,0.2-1.4,0.5c-0.4,0.2-0.7,0.4-1.1,0.7c-0.3,0.2-0.7,0.5-1.1,0.8c-1.3,0-2.1-0.4-2.6-1.3c-0.5-0.9-0.7-2-0.7-3.3
		c0-1.7,0.4-3.3,1.2-4.7c0.8-1.4,1.8-2.7,3.2-3.8c2.4-1.9,5.1-2.9,8-2.9c3.2,0,6.2,1.7,9,5.1c1.2,1.4,2.1,2.9,3,4.6V16.5H275.9z
		 M265,27.2c-1.3,0-2.5,0.4-3.8,1.1c-1,0.6-1.6,1.2-2.1,2c0.4,0.2,0.7,0.4,1.1,0.6c0.4,0.2,0.7,0.4,1,0.6c0.8,0.5,1.4,1.1,1.7,1.8
		s0.7,1.6,0.9,2.5c1.4-1.8,3.2-4.1,5.3-6.8C267.7,27.8,266.3,27.2,265,27.2z"/>
	<path class="st0" d="M293.7,27.6c-1.1,1-1.6,2.6-1.6,4.6c0,1.1,0.1,2.5,0.2,4.2s0.4,3.6,0.7,5.8c0.7,4.5,1,8,1,10.3
		c0,4-1,7.1-3,9.4c-1.9,2.2-4.7,3.3-8.4,3.3l-3-3.6c1.6,0,3.1-0.2,4.1-0.5c1.2-0.3,2-0.8,2.7-1.5c0.7-0.7,1.2-1.5,1.4-2.4
		c0.3-1,0.4-2.1,0.4-3.5c0-1-0.1-2.2-0.2-3.7s-0.3-3.2-0.6-5.2c-0.3-2.1-0.5-3.9-0.6-5.4c-0.1-1.5-0.2-2.8-0.2-3.8
		c0-2.1,0.5-4.4,1.4-6.6c0.5-1.2,1.1-2.2,1.6-2.9h-8.9l-4.2-4.8H296l4.2,4.8c-1.1,0-1.9,0-2.7,0.1s-1.4,0.2-1.8,0.3
		c-0.5,0.1-1,0.3-1.3,0.5C294.3,27.2,294,27.4,293.7,27.6z"/>
	<path class="st0" d="M303.5,26.1c0,1.1,0,2.7,0,4.7s0,4.2,0,6.7c0,2.4,0,5,0,7.6s0,5.2,0.1,7.6c0,2.4,0,4.6,0,6.6s0,3.5,0.1,4.6v1
		l-1-1.1h0.1c0.1,0,0.2,0,0.3,0c0.1,0,0.3,0,0.6,0h0.1l-0.1-0.1c-0.2-0.2-0.4-0.4-0.5-0.6c-0.1-0.2-0.2-0.3-0.3-0.4
		c-0.1-0.1-0.1-0.2-0.1-0.2l-0.5,1.3c-0.2,0-0.4-0.1-0.6-0.4l-0.2-0.2c-0.1-0.1-0.2-0.3-0.4-0.4c-0.2-0.2-0.3-0.3-0.5-0.4
		c-0.2-0.2-0.4-0.4-0.6-0.6c-0.2-0.2-0.4-0.4-0.6-0.6c-0.2-0.2-0.4-0.4-0.6-0.6l0.3-27.5c0-0.7,0-1.3-0.1-1.7c0-0.5-0.1-0.8-0.2-1.1
		c0-0.4-0.2-0.8-0.6-1.3l-1.3-2.2c-0.3-0.3-0.6-0.5-0.9-0.7h-2l-4.1-4.8h5.2c0.8,0.1,1.4,0.3,2,0.6c0.7,0.3,1.2,0.7,1.5,1.3
		c0,0.1,0.1,0.1,0.1,0.2c0,0,0.1,0.1,0.1,0.2l0.1-7.3l2.8,2.5l0.9,2.5h5.2l4.1,4.8C312.3,26.1,303.5,26.1,303.5,26.1z"/>
	<path class="st0" d="M319.5,59.7c-0.4-0.8-0.7-1.7-0.7-2.9c0-0.7,0.1-1.3,0.4-1.9s0.6-1.1,1-1.5c0.9-0.9,1.8-1.3,2.9-1.3
		c1.4,0,2.6,0.5,3.4,1.5c0.8,1,1.2,2.3,1.2,4.1c0,1.9-0.7,3.5-1.9,4.8c-1.3,1.1-2.6,1.7-4.1,1.7c-4.3,0-7.6-2.3-9.8-6.8
		c-1.7-3.7-2.6-8.1-2.6-13.1c0-4,0.9-7.8,2.6-11.4c0.6-1.3,1.3-2.5,2-3.6s1.6-2.1,2.5-3.1h-9.4c-0.1,0-0.4,0-0.7-0.1l-0.2-0.2
		l-0.1-0.1c0,0-0.1-0.1-0.2-0.2c-0.1-0.2-0.3-0.3-0.4-0.5c-0.1-0.1-0.3-0.3-0.4-0.5l-2.8-3.2h24.4l0.5,0.6c0.1,0.2,0.3,0.3,0.5,0.5
		c0.2,0.2,0.3,0.4,0.5,0.5l0.8,0.9c0.2,0.2,0.3,0.3,0.3,0.3c-0.4,0.7-0.6,1.1-0.7,1.1s-0.2,0-0.3-0.1c0.1,0,0.2-0.1,0.2-0.1
		c0.1,0,0.1,0,0.1-0.1c0,0,0.1-0.1,0.2-0.1c0.1,0,0.2-0.1,0.4-0.2l0.2-0.1V25l1,1.1c-2.9,0.1-5.3,0.6-7.2,1.6
		c-1.9,1-3.6,2.4-5.1,4.4c-2.8,3.8-4.1,8.1-4.1,13.1c0,4.9,0.5,8.4,1.5,10.7C316.4,58.1,317.7,59.4,319.5,59.7z"/>
	<path class="st0" d="M351.2,26.1v39.5l-4.2-4.6c0-3-0.1-5.7-0.4-8.1c-0.3-2.4-0.8-4.5-1.4-6.4c-0.8-2.7-1.8-4.7-3.1-6
		c-1.3-1.3-2.7-1.9-4.3-1.9c-0.1,0-0.2,0-0.3,0c-0.1,0-0.2,0-0.2,0c1,1.2,1.4,2.5,1.4,4.1c0,1.7-0.5,3.2-1.5,4.4s-2.3,1.8-3.8,1.8
		c-1.5,0-2.9-0.7-4-2.2c-1.1-1.4-1.5-3.1-1.5-5c0-2.7,1-5,2.8-6.7c1.7-1.6,3.8-2.4,6-2.4c1.7,0,3.3,0.4,4.6,1.3
		c1.4,0.9,2.6,2.1,3.8,3.8c0.7,1.1,1.4,2.3,1.9,3.6V26.1H327l-4.2-4.8h33.8l4.1,4.8C360.7,26.1,351.2,26.1,351.2,26.1z"/>
	<path class="st0" d="M362.5,48.1c-0.3-0.7-0.5-1.5-0.5-2.4c0-1.4,0.5-2.6,1.4-3.5c0.9-0.9,1.9-1.4,3-1.4c1.3,0,2.3,0.6,3.1,1.8
		c0.8,1.1,1.3,2.4,1.3,3.8c0,2.1-0.7,3.7-2.1,4.8c-0.7,0.5-1.4,0.9-2,1.1c-0.8,0.2-1.4,0.3-2.2,0.3c-2.7,0-4.9-1.3-6.7-4
		c-1.5-2.3-2.3-5.1-2.3-8.3c0-1.6,0.2-3,0.5-4.4c0.4-1.3,1-2.6,1.7-3.7c1.5-2.3,3.8-3.4,6.5-3.4c1.2,0,2.2,0.4,3.4,1.2
		c1.2,0.8,2.2,1.9,3.3,3.4c0.2-0.7,0.5-1.3,1-2c1-1.6,2.1-2.4,3.6-2.4c0.9,0,1.7,0.3,2.4,1c0.8,0.7,1.4,1.6,2.2,2.8V26h-25.4
		l-4.2-4.8h39.3l4.1,4.8h-9.5v38c-0.3,0-0.7-0.2-1.2-0.5c-0.5-0.3-1-0.7-1.4-1.1c-0.5-0.5-1.1-1-1.7-1.5V43.2c0-1.8-0.3-3.5-1-5.1
		c-0.4-1.1-0.8-1.8-1.3-2.2c-0.4-0.4-0.9-0.6-1.4-0.6c-0.3,0-0.6,0.1-0.8,0.4c-0.2,0.3-0.4,0.8-0.5,1.5s-0.2,1.6-0.2,2.8
		s0,2.6,0.1,4.4l-2.7-1.8c-0.8-2.5-1.8-4.3-3.1-5.4c-1.3-1.1-2.7-1.7-4.3-1.7c-1.5,0-2.8,0.7-3.8,2.1c-1.1,1.4-1.5,3.1-1.5,5
		c0,1.3,0.4,2.5,1.2,3.8C361.4,47.3,361.9,47.8,362.5,48.1z"/>
</g>
<g>
	<path class="st1" d="M39.2,0C17.5,0,0,17.5,0,39.2s17.5,39.2,39.2,39.2s39.2-17.5,39.2-39.2S60.8,0,39.2,0z M66.2,66.2
		c-3.5,3.5-7.6,6.3-12.1,8.2c-4.7,2-9.7,3-14.9,3s-10.2-1-14.9-3c-4.6-1.9-8.6-4.7-12.1-8.2C8.6,62.7,5.9,58.6,3.9,54
		c-2-4.7-3-9.7-3-14.9s1-10.2,3-14.9c1.9-4.6,4.7-8.6,8.2-12.1s7.6-6.3,12.1-8.2c4.7-2,9.7-3,14.9-3s10.2,1,14.9,3
		c4.6,1.9,8.6,4.7,12.1,8.2s6.3,7.6,8.2,12.1c2,4.7,3,9.7,3,14.9s-1,10.2-3,14.9C72.4,58.6,69.7,62.7,66.2,66.2z"/>
	<path class="st0" d="M74.4,24.3c-1.9-4.6-4.7-8.6-8.2-12.1C62.7,8.6,58.6,5.9,54,3.9c-4.7-2-9.7-3-14.9-3S29,2,24.3,3.9
		c-4.6,1.9-8.6,4.7-12.1,8.2S5.9,19.7,4,24.2c-2,4.7-3,9.7-3,14.9S2,49.3,4,54c1.9,4.6,4.7,8.6,8.2,12.1s7.6,6.3,12.1,8.2
		c4.7,2,9.7,3,14.9,3s10.2-1,14.9-3c4.6-1.9,8.6-4.7,12.1-8.2s6.3-7.6,8.2-12.1c2-4.7,3-9.7,3-14.9S76.4,29,74.4,24.3z M73.5,53.7
		c-1.9,4.4-4.6,8.4-8,11.9c-3.4,3.4-7.4,6.1-11.9,8c-4.6,1.9-9.5,2.9-14.5,2.9s-9.9-1-14.5-2.9c-4.4-1.9-8.4-4.6-11.9-8
		c-3.4-3.4-6.1-7.4-8-11.9c-1.9-4.6-2.9-9.5-2.9-14.5s1-9.9,2.9-14.5c1.9-4.4,4.6-8.4,8-11.9c3.4-3.4,7.4-6.1,11.9-8
		c4.6-1.9,9.5-2.9,14.5-2.9s9.9,1,14.5,2.9c4.4,1.9,8.4,4.6,11.9,8c3.4,3.4,6.1,7.4,8,11.9c1.9,4.6,2.9,9.5,2.9,14.5
		S75.5,49.1,73.5,53.7z"/>
	<path class="st2" d="M73.5,24.6c-1.9-4.4-4.6-8.4-8-11.9c-3.4-3.4-7.4-6.1-11.9-8C49,2.8,44.1,1.8,39.1,1.8s-9.9,1-14.5,2.9
		c-4.4,1.9-8.4,4.6-11.9,8c-3.4,3.4-6.1,7.4-8,11.9c-1.9,4.6-2.9,9.5-2.9,14.5s1,9.9,2.9,14.5c1.9,4.4,4.6,8.4,8,11.9
		c3.4,3.4,7.4,6.1,11.9,8c4.6,1.9,9.5,2.9,14.5,2.9s9.9-1,14.5-2.9c4.4-1.9,8.4-4.6,11.9-8c3.4-3.4,6.1-7.4,8-11.9
		c1.9-4.6,2.9-9.5,2.9-14.5S75.5,29.2,73.5,24.6z M65.9,40.7c-0.2,3.1-0.9,6.1-2.1,8.9c-1.4,3.2-3.3,6.1-5.8,8.5
		c-2.5,2.5-5.3,4.4-8.5,5.8C49.4,64,49.2,64,49,64.1c-0.1,0-0.2,0.1-0.3,0.1c-3,1.1-6.2,1.7-9.4,1.7h-0.1c-0.1,0-0.2,0-0.3,0
		c-0.2,0-0.3,0-0.5,0l0,0c-0.1,0-0.1,0-0.2,0c-0.1,0-0.2,0-0.2,0h-0.1c-0.1,0-0.1,0-0.2,0c-0.1,0-0.2,0-0.3,0h-0.1
		c-0.1,0-0.1,0-0.2,0c-0.1,0-0.3,0-0.4,0c-0.1,0-0.1,0-0.2,0c-0.1,0-0.2,0-0.3,0s-0.2,0-0.3,0s-0.2,0-0.3,0l0,0c-0.1,0-0.2,0-0.3,0
		l0,0c-0.1,0-0.1,0-0.2,0c-0.1,0-0.1,0-0.2,0l0,0c-0.1,0-0.1,0-0.2,0h-0.2c-0.1,0-0.1,0-0.2,0c-0.1,0-0.2,0-0.3-0.1
		c-0.1,0-0.1,0-0.2,0h-0.1c-0.1,0-0.1,0-0.2,0c-0.1,0-0.1,0-0.2,0h-0.1h-0.1c-0.1,0-0.1,0-0.2,0h-0.1c-0.1,0-0.1,0-0.2,0h-0.1
		c-0.1,0-0.1,0-0.2,0c0,0,0,0-0.1,0s-0.2,0-0.3-0.1c-0.1,0-0.2-0.1-0.3-0.1c-0.1,0-0.2,0-0.2-0.1c-0.1,0-0.1,0-0.2-0.1
		c-0.3-0.1-0.5-0.2-0.8-0.3c-0.1,0-0.1,0-0.2-0.1h-0.1c-0.1,0-0.2-0.1-0.2-0.1s0,0-0.1,0s-0.1,0-0.2-0.1l0,0l0,0
		c-0.1,0-0.2-0.1-0.3-0.1c-0.2-0.1-0.4-0.2-0.6-0.3c-3.2-1.4-6.1-3.3-8.5-5.8c-2.5-2.5-4.4-5.3-5.8-8.5c-1.2-2.8-1.9-5.8-2.1-8.9
		c0-0.5,0-1,0-1.5c0-3.6,0.7-7.1,2.1-10.4c1.4-3.2,3.3-6.1,5.8-8.5c2.5-2.5,5.3-4.4,8.5-5.8c3.3-1.4,6.8-2.1,10.4-2.1
		s7.1,0.7,10.4,2.1c3.2,1.4,6.1,3.3,8.5,5.8c2.5,2.5,4.4,5.3,5.8,8.5c1.5,2.7,2.2,6.2,2.2,9.9C66,39.7,66,40.2,65.9,40.7z"/>
	<g>
		<path class="st0" d="M8.4,36.2c0.2,0.1,0.3,0.3,0.3,0.4c0.1,0.2,0.1,0.3,0.1,0.5s-0.1,0.3-0.1,0.4c-0.1,0.1-0.2,0.2-0.3,0.3
			s-0.2,0.1-0.3,0.1c-0.1,0-0.2,0-0.4,0c-0.1,0-0.2-0.1-0.3-0.1c-0.1-0.1-0.2-0.1-0.3-0.3C7,37.4,7,37.3,6.9,37.1c0-0.1,0-0.3,0-0.5
			v-0.1v-0.1l0,0l0,0c-0.3,0-0.5,0.1-0.6,0.2C6.2,36.7,6,36.9,6,37c-0.1,0.1-0.1,0.2-0.1,0.3s-0.1,0.2-0.1,0.3
			c-0.1,0.2-0.2,0.3-0.2,0.4c0,0.1-0.1,0.1-0.1,0.1l-0.1,0.1c0,0-0.1,0-0.1,0.1c0,0-0.1,0-0.1,0.1l-0.1,0.1L5,38.6
			c-0.1,0-0.1,0.1-0.2,0.1c-0.1,0.1-0.2,0.1-0.3,0.3l0.6-5.4l0.8-0.7l-0.1,1.3l5.2,0.6c0,0,0,0.1-0.1,0.1L10.8,35
			c0,0.1-0.1,0.1-0.2,0.2c-0.1,0-0.2,0-0.4,0.1c-0.1,0-0.2,0-0.4,0.1c-0.1,0-0.2,0.1-0.3,0.1s-0.2,0.1-0.3,0.2
			C9.1,35.8,9,35.9,8.9,36C8.5,36,8.4,36.1,8.4,36.2z M5.3,34.8l-0.2,1.9c0.1-0.1,0.2-0.2,0.3-0.3c0.1-0.1,0.2-0.2,0.3-0.3
			C5.8,36.2,6,36,6.2,36c0.2-0.1,0.3-0.1,0.5-0.2c0.1,0,0.3,0,0.5-0.1c0.2,0,0.3,0,0.5,0c0.1-0.1,0.3-0.2,0.4-0.3
			c0.1-0.1,0.3-0.2,0.4-0.3L5.3,34.8z"/>
		<path class="st0" d="M5.9,32l5.2,1.1c0,0,0,0.1-0.1,0.1c-0.1,0.1-0.2,0.1-0.3,0.2c-0.1,0.1-0.2,0.2-0.4,0.2l-3.8-0.8
			c-0.3-0.1-0.5-0.1-0.7,0S5.5,33,5.5,33.3l-0.9,0.4c0-0.1,0-0.2,0.1-0.2c0-0.1,0-0.1,0-0.1v-0.1v-0.1c0-0.2,0.1-0.4,0.2-0.5
			s0.2-0.2,0.4-0.3c-0.1,0-0.1,0-0.2,0s-0.2,0-0.3,0c-0.1,0-0.2,0-0.4,0c-0.1,0-0.3,0-0.5-0.1l0.4-0.4c0.1,0,0.2,0,0.2,0h0.1
			C5,32,5,32,5,32l0.1-0.1l0.2-0.7l0.9-0.6L5.9,32z"/>
		<path class="st0" d="M6.5,29.8l1.7,0.6C8.1,30.2,8.1,30,8,29.8c-0.1-0.2-0.1-0.3-0.2-0.5s-0.1-0.4-0.2-0.6c0-0.2-0.1-0.5-0.1-0.8
			l1-0.7c0.3,0.3,0.7,0.6,1,0.9s0.7,0.4,1.1,0.6c0.2,0.1,0.5,0.1,0.8,0.2c0.3,0,0.6,0.1,0.9,0.2l-0.4,0.5c-0.4,0-0.8-0.1-1.1-0.1
			c-0.4-0.1-0.7-0.1-1-0.3c-0.4-0.1-0.7-0.3-1.1-0.5c0,0.4,0.2,0.9,0.4,1.3s0.5,0.8,0.9,1.1l-1.1,0.5l-2.7-0.9L6,31.1l-0.9,0.5
			l1.8-5.4l0.9-0.5L6.5,29.8z"/>
		<path class="st0" d="M8.4,24.9l4.9,2.3c0,0-0.1,0.1-0.2,0.1c-0.1,0-0.2,0.1-0.3,0.1c-0.1,0.1-0.3,0.1-0.4,0.2L8.9,26
			c-0.3-0.1-0.5-0.2-0.7-0.2S7.9,26,7.8,26.2l-0.9,0.2c0-0.1,0.1-0.2,0.1-0.2c0,0,0,0,0-0.1V26c0,0,0,0,0-0.1
			c0.1-0.2,0.2-0.3,0.3-0.4c0.1-0.1,0.3-0.1,0.5-0.2c-0.1,0-0.1,0-0.2-0.1c-0.1,0-0.2,0-0.3-0.1C7.2,25.1,7.1,25,7,25
			c-0.1,0-0.3-0.1-0.5-0.2L7,24.5c0.1,0,0.2,0,0.2,0.1h0.1h0.1l0.1-0.1L8,24l1-0.4L8.4,24.9z"/>
		<path class="st0" d="M10.6,20.9l4.5,2.7c-0.1,0.1-0.2,0.1-0.2,0.1h-0.1c0,0-0.1,0-0.2,0c-0.1,0-0.2,0-0.3,0s-0.2,0-0.4,0
			c-0.1,0-0.3,0-0.4,0c-0.1,0-0.3,0-0.4,0c-0.3,0.1-0.5,0.2-0.8,0.3c-0.3,0.2-0.5,0.4-0.8,0.8L10.2,25c0-0.6-0.1-1.2,0-1.8
			c0-0.6,0.1-1.1,0.2-1.7l-0.1-0.1L8.7,24l-1,0.3l2.6-4.3l1-0.3L10.6,20.9z M11.2,22.1c-0.1,0.3-0.1,0.6-0.1,0.9s0,0.6,0,0.9
			c0.3-0.2,0.6-0.4,1-0.5c0.3-0.1,0.7-0.2,1.1-0.2L11.2,22.1z M13.7,25c0,0.1-0.1,0.1-0.2,0.2c-0.1,0.1-0.1,0.1-0.2,0.1
			c-0.1,0-0.2,0-0.3,0s-0.2,0-0.2-0.1c-0.1-0.1-0.2-0.2-0.3-0.4c0-0.2,0-0.3,0.1-0.5c0.1-0.1,0.2-0.2,0.4-0.3c0.2,0,0.3,0,0.5,0.1
			c0.1,0.1,0.2,0.2,0.3,0.4C13.8,24.8,13.8,24.9,13.7,25z"/>
		<path class="st0" d="M13.7,16.9l4.1,3.3h-0.2c0.1,0,0.1,0,0.1,0.1v0.1l0,0l0,0h-0.1h-0.1c-0.1,0-0.1,0-0.2,0s-0.1,0-0.1,0
			s-0.1,0-0.2,0l-2.2-1.8c-0.1-0.1-0.3-0.2-0.5-0.3c-0.2-0.1-0.4-0.1-0.6-0.1c-0.2,0-0.4,0-0.6,0.1c-0.2,0.1-0.3,0.1-0.4,0.3
			c-0.3,0.3-0.3,0.7-0.2,1c0.1-0.1,0.1-0.2,0.2-0.3c0.1-0.1,0.2-0.2,0.3-0.3c0.1-0.1,0.2-0.1,0.4-0.2c0.1,0,0.3,0,0.4,0
			c0.1,0,0.3,0.1,0.4,0.2c0.1,0.1,0.2,0.2,0.3,0.4c0.1,0.2,0.1,0.3,0.2,0.5c0.1,0.2,0.1,0.4,0.1,0.5c0,0.2,0.1,0.4,0.1,0.5L13.8,21
			c0-0.1,0-0.2,0-0.4c0-0.2,0-0.3-0.1-0.5c0-0.2-0.1-0.3-0.1-0.5c0-0.1-0.1-0.2-0.1-0.3c-0.1,0-0.1,0-0.2,0.1c0,0,0,0.1-0.1,0.2v0.1
			c0,0.1,0,0.1,0,0.2s0,0.2-0.1,0.3c0,0.1-0.1,0.2-0.1,0.2c-0.1,0.1-0.1,0.1-0.2,0.2c-0.1,0-0.2,0-0.3,0s-0.2,0-0.3-0.1
			c-0.1,0-0.2-0.1-0.2-0.1c-0.2-0.1-0.3-0.3-0.4-0.5c-0.1-0.2-0.1-0.4-0.1-0.6s0-0.4,0.1-0.6s0.2-0.4,0.3-0.5
			c0.2-0.2,0.4-0.4,0.6-0.6c0.2-0.1,0.4-0.2,0.5-0.3c0.2-0.1,0.4-0.1,0.5-0.1c0.2,0,0.4,0.1,0.6,0.1c-0.3-0.2-0.6-0.4-0.9-0.6
			c-0.3-0.2-0.6-0.5-1-0.8l0.8-0.1c0,0.1,0,0.1,0.1,0.1l0,0c0.1,0.1,0.2,0.1,0.2,0.1h0.1l0.1-0.1l0.1-0.1l0.1-0.1l0.1-0.1l1-0.1
			L13.7,16.9z"/>
		<path class="st0" d="M18.9,15.5c-0.1,0.1-0.3,0.2-0.5,0.2s-0.4,0.1-0.6,0.1s-0.4,0-0.6-0.1c-0.2,0-0.3-0.1-0.5-0.2
			c0,0-0.1,0.1-0.1,0.2c0,0.1,0,0.2,0,0.3s0.1,0.2,0.1,0.3c0,0.1,0.1,0.2,0.1,0.2c0.1,0.1,0.2,0.1,0.3,0c0,0,0.1-0.1,0.1-0.2
			s0-0.1,0-0.2c0,0,0,0,0-0.1c0,0,0,0,0-0.1s0-0.1,0-0.2c0-0.1,0-0.1,0.1-0.2c0,0,0,0,0.1,0l0,0l0,0c0.1,0,0.2,0,0.3,0
			c0.1,0,0.3,0,0.5,0.1s0.3,0.1,0.5,0.2c0.1,0.1,0.3,0.2,0.3,0.3c0.2,0.2,0.2,0.4,0.3,0.6c0,0.2,0,0.4,0,0.6
			c-0.1,0.2-0.1,0.4-0.3,0.6c-0.1,0.2-0.3,0.3-0.5,0.4s-0.5,0.2-0.7,0.2c-0.3,0-0.6,0-0.9-0.2c-0.3-0.1-0.7-0.3-1-0.6
			c-0.4-0.3-0.7-0.7-1.1-1.1c0.1,0,0.2-0.1,0.3-0.1s0.2,0,0.2,0l0.2,0.2c0.1,0.1,0.2,0.3,0.4,0.4c0.1,0.1,0.3,0.2,0.5,0.3
			c0.2,0.1,0.3,0.2,0.5,0.2c0.2,0.1,0.4,0.1,0.5,0.1s0.3,0,0.4,0s0.3-0.1,0.4-0.2s0.1-0.1,0.2-0.2s0.1-0.2,0.2-0.3
			c0.1-0.1,0.1-0.2,0.1-0.3c0-0.1,0-0.2-0.1-0.3c-0.1-0.1-0.1-0.1-0.2-0.1s-0.1,0-0.1,0s0,0-0.1,0.1c0,0.1-0.1,0.1-0.1,0.2
			S18,16.8,18,16.8c0,0.1-0.1,0.2-0.2,0.2c-0.1,0.1-0.2,0.2-0.4,0.2c-0.1,0.1-0.3,0.1-0.4,0.1s-0.3,0-0.4-0.1s-0.3-0.2-0.4-0.3
			c-0.2-0.2-0.3-0.4-0.3-0.6c-0.1-0.2-0.1-0.5-0.1-0.7c0-0.1,0-0.2,0-0.3s0-0.2,0-0.2c0-0.1,0-0.1,0-0.2v-0.1l-0.1-0.1
			c-0.1,0-0.1,0-0.1,0c-0.1,0.1-0.1,0.1-0.1,0.2c0,0.1,0,0.2,0,0.2c0.2,0,0.3,0.1,0.4,0.2c0.1,0.1,0.1,0.1,0.1,0.2
			c0,0.1,0.1,0.3,0,0.4c0,0.1-0.1,0.3-0.2,0.4c-0.2,0.2-0.3,0.2-0.5,0.2s-0.4-0.1-0.5-0.3c-0.1-0.1-0.2-0.3-0.3-0.5
			s-0.1-0.3-0.1-0.5s0-0.4,0.1-0.5c0.1-0.2,0.2-0.3,0.3-0.4c0.1-0.1,0.3-0.2,0.4-0.2c0.2,0,0.3-0.1,0.4-0.1c0.1,0,0.1,0,0.2,0
			c0.1,0,0.1,0,0.1,0l0,0l0,0c0-0.2,0.1-0.4,0.1-0.6c0.1-0.2,0.2-0.4,0.3-0.5c0.2-0.2,0.4-0.4,0.6-0.5s0.4-0.1,0.6,0
			c0.2,0,0.3,0.2,0.5,0.3c0.1,0.2,0.2,0.4,0.2,0.7c0.1,0,0.3,0,0.4,0.1c0.1,0,0.2,0.1,0.3,0.2c0.1,0.1,0.1,0.2,0.2,0.3
			c0,0.1,0.1,0.2,0,0.4h0.6c0,0.1-0.1,0.3-0.1,0.5s0,0.3,0,0.5s0,0.3,0.1,0.4c0,0.1,0.1,0.2,0.2,0.3s0.1,0.1,0.2,0.1
			s0.1,0.1,0.2,0.1s0.1,0.1,0.2,0.1s0.2,0.1,0.3,0.1l0.2,0.9c-0.3-0.1-0.6-0.2-0.9-0.3c-0.3-0.1-0.5-0.3-0.7-0.5
			c-0.1-0.1-0.1-0.2-0.2-0.3c-0.1-0.1-0.1-0.2-0.1-0.3c0-0.1-0.1-0.1-0.1-0.2C19,15.7,19,15.6,18.9,15.5z M18.7,14.4
			C18.6,14.4,18.6,14.4,18.7,14.4c-0.1,0.1-0.1,0.1-0.1,0.2l-0.1,0.1l-0.1,0.1C18.2,14.9,18,15,17.8,15s-0.3-0.1-0.5-0.3
			c-0.1-0.1-0.2-0.3-0.2-0.5s0.1-0.3,0.2-0.4c0.1-0.1,0.1-0.1,0.2-0.1s0.1,0,0.2,0v-0.1l-0.1-0.1c0,0-0.1,0-0.2,0s-0.1,0-0.2,0.1
			s-0.1,0.2-0.2,0.3c0.1,0,0,0.1,0,0.3c0,0.1-0.1,0.3-0.1,0.4c0,0.1,0,0.2,0.1,0.3l0,0c0.1,0.1,0.3,0.2,0.4,0.2
			c0.1,0.1,0.2,0.1,0.4,0.1c0.1,0,0.2,0,0.4,0c0.1,0,0.2-0.1,0.4-0.2l0.1-0.1c0-0.1,0-0.1,0.1-0.2c0-0.1,0-0.1,0-0.2
			C18.6,14.5,18.6,14.4,18.7,14.4C18.6,14.4,18.6,14.4,18.7,14.4C18.6,14.4,18.6,14.4,18.7,14.4L18.7,14.4z"/>
		<path class="st0" d="M24.5,13.8c-0.1-0.1-0.2-0.1-0.3-0.2c-0.1-0.1-0.1-0.3-0.1-0.4c0-0.1,0-0.2,0.1-0.3c0-0.1,0.1-0.2,0.2-0.2
			c0.1-0.1,0.2-0.1,0.3-0.2c0.1,0,0.2-0.1,0.2-0.1c0.1,0,0.2,0,0.3,0.1c0.1,0,0.2,0.1,0.2,0.1c0.1,0.1,0.1,0.1,0.1,0.2
			c0.1,0.1,0.1,0.2,0.1,0.4c0,0.1,0,0.3,0,0.4c0,0.1-0.1,0.2-0.2,0.3s-0.2,0.2-0.3,0.3c-0.3,0.2-0.6,0.2-0.9,0.2s-0.6-0.1-0.8-0.3
			c-0.3-0.2-0.5-0.3-0.7-0.6c-0.2-0.2-0.4-0.5-0.5-0.7c0-0.1-0.1-0.2-0.1-0.2c0-0.1-0.1-0.2-0.1-0.2c-0.1-0.2-0.2-0.5-0.2-0.8
			c-0.1-0.3-0.1-0.7,0-1c0-0.3,0.1-0.6,0.3-0.9c0.1-0.3,0.4-0.5,0.6-0.7l1,0.3C23.3,9.4,23,9.7,22.9,10c-0.2,0.3-0.3,0.6-0.3,0.9
			c0,0.3,0,0.6,0.1,1c0.1,0.3,0.2,0.6,0.3,0.9c0.1,0.1,0.2,0.3,0.3,0.4c0.1,0.1,0.2,0.3,0.4,0.4c0.1,0.1,0.3,0.2,0.4,0.2
			C24.2,13.8,24.3,13.8,24.5,13.8z"/>
		<path class="st0" d="M27.9,7.4l2,4.8c-0.2,0-0.3-0.1-0.4-0.1s-0.2,0-0.2-0.1c-0.1,0-0.1-0.1-0.2-0.1s-0.1-0.1-0.2-0.1
			c-0.2-0.5-0.3-0.9-0.5-1.2c-0.1-0.2-0.1-0.3-0.2-0.4c-0.1-0.1-0.1-0.3-0.2-0.4c0-0.1-0.1-0.2-0.1-0.3s0-0.1,0-0.1
			s-0.1-0.1-0.1-0.2c-0.1-0.1-0.1-0.1-0.2-0.2c0,0-0.1,0-0.2-0.1c-0.1,0-0.1-0.1-0.2-0.1l-0.9,2.3h-1c0-0.1,0.1-0.2,0.1-0.2
			s0-0.1,0.1-0.1v-0.1v-0.1c0-0.1,0-0.1,0-0.2c0-0.1,0-0.1,0-0.2c0,0,0-0.1-0.1-0.1L25.3,10l-0.1-0.1h-0.1c0,0-0.1,0-0.1,0.1
			l-0.1,0.1c0,0,0,0-0.1,0.1c0,0,0,0-0.1,0.1s-0.1,0.1-0.2,0.1s-0.1,0-0.2,0s-0.1,0-0.2-0.1c-0.1,0-0.1-0.1-0.2-0.1
			C24,10.1,24,10.1,24,10c-0.1-0.2-0.1-0.4,0-0.7c0.1-0.2,0.2-0.5,0.3-0.7c0.2-0.2,0.3-0.4,0.5-0.6c0.2-0.2,0.4-0.3,0.5-0.3
			c0.2-0.1,0.4-0.1,0.5-0.1c0.2,0,0.4,0,0.6,0s0.4,0.1,0.5,0.2c0.2,0.1,0.3,0.2,0.5,0.3c-0.1-0.1-0.1-0.3-0.2-0.4S27.1,7.4,27,7.2
			s-0.1-0.3-0.2-0.5s-0.2-0.4-0.2-0.6l0.6,0.1l0.1,0.1c0.1,0.1,0.1,0.2,0.2,0.2c0,0,0.1,0.1,0.2,0.1L28,6.5l0.2-0.1L29,6.9L27.9,7.4
			z M25,9.2c0.2,0,0.3,0,0.5,0.1s0.3,0.2,0.4,0.3l0.5-1.2c-0.2-0.1-0.4-0.1-0.7,0C25.3,8.6,25.1,8.8,25,9.2z"/>
		<path class="st0" d="M30.1,6.7l1.5,5.3c-0.1,0-0.2-0.1-0.2-0.1c-0.1,0-0.1-0.1-0.2-0.1s-0.1-0.1-0.2-0.1l-0.1-0.1
			c0,0-0.1,0-0.1-0.1h-0.1l0,0v-0.1l-1.3-4.5l-0.8,0.2l-0.9-0.5l1.5-0.4c0-0.1,0-0.1,0-0.2c-0.1-0.2-0.3-0.3-0.7-0.2
			c-0.1,0-0.2,0-0.3,0.1C28.1,5.9,28,6,27.9,6s-0.2,0.1-0.3,0.1c-0.1,0-0.1,0.1-0.2,0.1c-0.3,0.1-0.6,0.1-0.9,0.1s-0.6-0.1-0.8-0.2
			c-0.2-0.1-0.4-0.3-0.4-0.6c-0.1-0.3,0-0.6,0.1-1l0.5,0.2C25.8,4.9,25.8,5,25.7,5c0,0.1,0,0.1,0,0.2c0.1,0.2,0.1,0.3,0.3,0.3
			c0.1,0,0.3,0,0.5,0c0.3-0.1,0.5-0.2,0.8-0.2C27.5,5.2,27.7,5.1,28,5c0.2-0.1,0.5-0.1,0.7-0.1s0.4,0,0.6,0.1s0.3,0.2,0.4,0.4
			c0.1,0.2,0.2,0.4,0.2,0.7l0.8-0.2l0.9,0.5L30.1,6.7z"/>
		<path class="st0" d="M34.8,5.7l0.9,5.2c-0.1,0-0.2-0.1-0.2-0.1h-0.1c0,0-0.1-0.1-0.2-0.2c-0.1-0.1-0.1-0.2-0.2-0.3
			c-0.1-0.1-0.1-0.2-0.2-0.3c-0.1-0.1-0.2-0.2-0.3-0.3s-0.2-0.2-0.3-0.3C34,9.2,33.7,9.1,33.4,9c-0.3,0-0.6,0-1.1,0l-0.9-0.9
			c0.4-0.4,0.9-0.8,1.3-1.2c0.4-0.4,0.9-0.7,1.4-0.9V5.9l-3,0.5l-0.9-0.6l5-0.9l0.9,0.6L34.8,5.7z M34.3,7c-0.3,0.2-0.5,0.3-0.8,0.5
			c-0.2,0.2-0.5,0.4-0.7,0.6c0.4,0.1,0.7,0.2,1,0.4s0.6,0.4,0.9,0.7L34.3,7z M33.6,10.8c-0.1,0-0.2,0-0.3,0s-0.2-0.1-0.2-0.1
			c-0.1,0-0.1-0.1-0.2-0.2c-0.1-0.1-0.1-0.2-0.1-0.2c0-0.2,0-0.3,0.1-0.5c0.1-0.1,0.2-0.2,0.4-0.2s0.3,0,0.5,0.1s0.2,0.2,0.3,0.4
			c0,0.2,0,0.3-0.1,0.5C33.9,10.7,33.8,10.8,33.6,10.8z"/>
		<path class="st0" d="M40.1,5.5l0.2,5.2c0,0-0.1,0-0.2-0.1c-0.1-0.1-0.2-0.1-0.2-0.2c-0.1-0.1-0.2-0.2-0.3-0.3l-0.1-2.4
			c0,0,0-0.1-0.1-0.1c0-0.1-0.1-0.1-0.2-0.2c-0.1,0-0.1-0.1-0.2-0.1c-0.1,0-0.1,0-0.2,0c-0.1,0-0.3,0.1-0.4,0.2l-0.1,0.1l-0.1,0.1
			c0,0-0.1,0.1-0.1,0.2S38,8,38,8.1c0,0,0,0.1-0.1,0.2s-0.1,0.2-0.2,0.3c-0.1,0.1-0.2,0.2-0.3,0.2c-0.1,0.1-0.2,0.1-0.3,0.1
			c-0.2,0-0.4,0-0.5-0.1s-0.2-0.2-0.3-0.3c0-0.1-0.1-0.1-0.1-0.2c0-0.1-0.1-0.1-0.1-0.2C36,8.1,36,8,35.9,8c0-0.1-0.1-0.2-0.2-0.3
			l0.5-0.6c0,0.1,0,0.2,0.1,0.3c0,0.1,0.1,0.2,0.1,0.3c0,0.1,0.1,0.1,0.1,0.2L36.6,8c0.1,0,0.1,0,0.2-0.1C36.9,7.8,37,7.7,37,7.6
			c0.1-0.1,0.1-0.2,0.2-0.3C37.5,7.1,37.5,7,37.5,7c0-0.2-0.1-0.4-0.1-0.5s-0.1-0.2-0.2-0.3c-0.1-0.1-0.1-0.1-0.2-0.1
			c-0.1,0-0.2,0-0.2,0h-0.1c-0.1,0-0.1,0-0.1,0c-0.1,0-0.1,0-0.2,0c-0.1,0-0.1,0-0.2,0C36.1,6.1,36,6,35.9,6
			c-0.1-0.1-0.2-0.1-0.3-0.3c0,0-0.1-0.1-0.2-0.1c-0.1,0-0.1-0.1-0.2-0.1c-0.1-0.1-0.1-0.1-0.2-0.2c0-0.2-0.1-0.3-0.2-0.4l5.8-0.2
			l0.8,0.7L40.1,5.5z M39.4,5.5l-1.9,0.1c0.1,0.1,0.3,0.2,0.4,0.4C38,6.1,38,6.2,38.1,6.4c0.1-0.1,0.2-0.1,0.2-0.2
			c0.1,0,0.2-0.1,0.2-0.1c0.1,0,0.2,0,0.4,0.1c0.1,0.1,0.2,0.2,0.3,0.3c0.1,0.1,0.2,0.2,0.3,0.3L39.4,5.5z"/>
		<path class="st0" d="M41,5.4l-0.6-0.8l6.2,0.8l0.7,0.8L41,5.4z M43.9,7.2c0.1,0,0.2-0.1,0.3-0.2s0.2-0.1,0.3-0.2s0.2-0.2,0.2-0.2
			c0.1-0.1,0.1-0.2,0.2-0.2L45,6.3c0.2,0.2,0.4,0.3,0.5,0.5s0.3,0.4,0.3,0.5C46,7.5,46,7.7,46,7.8c0,0.2,0,0.3,0,0.4
			c0,0.3-0.1,0.6-0.3,0.8c-0.1,0.3-0.3,0.5-0.5,0.7s-0.5,0.3-0.7,0.4c-0.3,0.1-0.6,0.1-0.9,0.1c-0.3,0-0.5-0.1-0.7-0.2
			c-0.2-0.1-0.4-0.2-0.5-0.4c-0.2-0.2-0.3-0.3-0.4-0.5c-0.1-0.2-0.2-0.4-0.3-0.6c-0.1-0.2-0.2-0.4-0.2-0.7c-0.1-0.2-0.1-0.5-0.2-0.7
			c-0.1-0.2-0.1-0.5-0.1-0.7C41,6.2,41,5.9,41,5.6l0.5,0.3c0.1,0.4,0.1,0.7,0.2,1.1c0.1,0.4,0.3,0.7,0.4,1c0.2,0.3,0.4,0.6,0.7,0.8
			s0.6,0.3,1,0.4c0.2,0,0.3,0,0.5,0s0.3-0.1,0.4-0.2c0.1-0.1,0.3-0.2,0.4-0.3c0.1-0.1,0.2-0.3,0.2-0.4V8.2c0-0.1,0-0.1,0-0.2
			c0-0.1,0-0.1,0-0.2s0-0.1-0.1-0.1s-0.1,0.1-0.1,0.1L45,7.9c-0.1,0.1-0.2,0.2-0.3,0.2c-0.1,0.1-0.2,0.1-0.4,0.1c-0.1,0-0.3,0-0.4,0
			c-0.1,0-0.3,0-0.4,0c-0.2,0-0.3-0.1-0.5-0.1c-0.1-0.1-0.3-0.2-0.4-0.3c-0.1-0.1-0.2-0.2-0.2-0.4c-0.1-0.1-0.1-0.3,0-0.5
			c0-0.3,0.1-0.5,0.3-0.6C42.9,6,43.1,6,43.4,6c0.2,0,0.4,0.1,0.5,0.3c0.1,0.1,0.2,0.3,0.2,0.6C44.1,7,44,7.1,43.9,7.2z"/>
		<path class="st0" d="M48.1,6.7l-1.3,5.2l-0.1-0.1c-0.1-0.1-0.1-0.2-0.2-0.3c-0.1-0.1-0.2-0.2-0.2-0.4l1-3.8c0.1-0.3,0.1-0.5,0-0.7
			s-0.2-0.3-0.5-0.3l-0.4-0.9c0.1,0,0.2,0.1,0.2,0.1c0.1,0,0.1,0,0.1,0h0.1h0.1c0.2,0.1,0.4,0.1,0.5,0.2s0.2,0.3,0.2,0.4
			c0-0.1,0-0.1,0-0.2s0-0.2,0-0.3c0-0.1,0-0.2,0-0.4c0-0.1,0-0.3,0.1-0.5L48,5.1c0,0.1,0,0.2,0,0.2v0.1v0.1l0.1,0.1l0.7,0.2L49.4,7
			L48.1,6.7z"/>
		<path class="st0" d="M48.6,13.4c0.1,0,0.2,0,0.4-0.1c0.1,0,0.2-0.1,0.3-0.1c0.1-0.1,0.2-0.1,0.3-0.2c0.1-0.1,0.1-0.1,0.2-0.2
			c0,0,0,0,0-0.1l0,0c0,0-0.1,0-0.2,0c-0.1,0-0.1,0-0.2,0c-0.2-0.1-0.3-0.2-0.4-0.3s-0.1-0.3,0-0.5s0.2-0.4,0.4-0.4
			c0.2-0.1,0.3-0.1,0.6,0c0.2,0.1,0.3,0.1,0.4,0.2c0.1,0.1,0.2,0.2,0.2,0.3s0,0.2,0,0.4c0,0.1,0,0.3-0.1,0.4
			c-0.1,0.2-0.1,0.3-0.3,0.4c-0.1,0.1-0.3,0.2-0.4,0.3c-0.2,0.1-0.3,0.2-0.5,0.2c-0.2,0.1-0.4,0.1-0.5,0.1L48.6,13.4z"/>
		<path class="st0" d="M57.9,11C57.8,11,57.8,11,57.9,11c-0.1,0-0.2,0-0.2,0h-0.1c0,0,0,0-0.1,0c0,0.1,0,0.2,0,0.3
			c0.1,0.1,0.2,0.2,0.3,0.3s0.2,0.2,0.3,0.3s0.2,0.2,0.3,0.2s0.1,0.1,0.2,0.1c0.1,0,0.2,0.1,0.3,0.1s0.2,0.1,0.3,0.1s0.2,0,0.3,0.1
			c0,0.2,0.1,0.4,0.1,0.6c0,0.2,0.1,0.4,0.1,0.7c-0.3,0-0.6,0.1-0.9,0.3c-0.3,0.2-0.6,0.4-0.8,0.7s-0.4,0.6-0.6,0.9
			c-0.2,0.3-0.3,0.6-0.3,0.9l-0.2-0.1c-0.1-0.1-0.1-0.1-0.2-0.2c-0.1-0.1-0.1-0.2-0.2-0.3c0.3-0.7,0.6-1.3,1-1.9
			c0.1-0.2,0.3-0.4,0.5-0.6c0.2-0.2,0.3-0.3,0.5-0.5c-0.5-0.3-0.8-0.6-1-0.9c-0.2-0.3-0.3-0.6-0.4-0.9c-0.1,0-0.1,0-0.2,0
			c-0.1,0-0.2,0-0.3,0.1c-0.1,0-0.2,0.1-0.3,0.1c-0.1,0.1-0.2,0.1-0.2,0.2c-0.1,0.1-0.1,0.2,0.1,0.3c0,0,0.1,0,0.2,0.1
			c0.1,0,0.2,0,0.3,0.1c0.1,0,0.2,0,0.4,0c0.1,0,0.2,0,0.3,0l0.1,0.1c0.1,0.1,0.1,0.2,0.1,0.3c0,0.2,0,0.3,0,0.5s0,0.3-0.1,0.5
			c0,0.2-0.1,0.3-0.1,0.4c-0.1,0.2-0.2,0.3-0.4,0.4c-0.2,0.1-0.3,0.2-0.5,0.2s-0.4,0-0.6,0c-0.2,0-0.4-0.1-0.6-0.2
			c-0.3-0.2-0.4-0.4-0.6-0.6s-0.2-0.5-0.3-0.7c0-0.3-0.1-0.5,0-0.8c0-0.3,0.1-0.5,0.1-0.8c0-0.1,0.1-0.3,0.2-0.5
			c0.1-0.2,0.2-0.3,0.2-0.5c0.1-0.2,0.2-0.3,0.3-0.5s0.2-0.3,0.3-0.5c0.1,0.1,0.1,0.2,0.2,0.3c0,0.1,0.1,0.1,0.1,0.2l-0.2,0.2
			c-0.1,0.2-0.3,0.4-0.3,0.6c-0.1,0.2-0.2,0.5-0.2,0.7s0,0.5,0,0.7s0.1,0.5,0.2,0.7c0.1,0.1,0.2,0.2,0.3,0.3
			c0.2,0.1,0.3,0.2,0.5,0.2s0.3,0.1,0.5,0c0.2,0,0.3-0.1,0.3-0.2c0-0.1,0.1-0.1,0.1-0.2c0-0.1,0-0.1,0-0.1h-0.1h-0.1h-0.1
			c-0.1,0-0.2,0-0.3-0.1c-0.1,0-0.2-0.1-0.3-0.1c-0.2-0.1-0.3-0.2-0.4-0.4c-0.1-0.2-0.1-0.3-0.2-0.5c0-0.2,0-0.4,0-0.5
			c0-0.2,0.1-0.3,0.2-0.5c0.1-0.1,0.2-0.2,0.3-0.3s0.2-0.1,0.3-0.2c0.2-0.1,0.3-0.1,0.5-0.2l-1.5-1l-0.2-1l5.8,3.7l0.2,1L57.9,11z"
			/>
		<path class="st0" d="M61.5,13.8L58,17.9c0,0-0.1-0.1-0.1-0.2s0-0.2-0.1-0.3c0-0.1,0-0.3,0-0.4l2.5-3c0.2-0.2,0.3-0.4,0.3-0.6
			c0-0.2-0.1-0.4-0.3-0.5v-1c0.1,0.1,0.1,0.1,0.2,0.2l0.1,0.1c0,0,0.1,0,0.1,0.1c0,0,0,0,0.1,0.1c0.2,0.1,0.3,0.3,0.3,0.4
			c0.1,0.1,0.1,0.3,0,0.5c0-0.1,0.1-0.1,0.1-0.2c0-0.1,0.1-0.1,0.1-0.2c0.1-0.1,0.1-0.2,0.2-0.3c0.1-0.1,0.2-0.3,0.3-0.4l0.1,0.6
			c0.1-0.1,0.1,0,0.1,0v0.1V13v0.1l0.6,0.5l0.1,1L61.5,13.8z"/>
		<path class="st0" d="M61.7,18.3c-0.2,0-0.4,0-0.5,0c-0.2-0.1-0.3-0.1-0.4-0.3c-0.1-0.1-0.2-0.2-0.2-0.4c0-0.1-0.1-0.3-0.1-0.4
			s0-0.2,0.1-0.3c0.1-0.1,0.1-0.2,0.2-0.3c0.1-0.1,0.2-0.1,0.3-0.2c0.1,0,0.2-0.1,0.4-0.1c0.1,0,0.3,0,0.4,0.1
			c0.1,0.1,0.3,0.2,0.4,0.3c0,0,0,0,0.1,0.1l0.1,0.1l0,0l0,0c0.2-0.2,0.3-0.4,0.3-0.6s0-0.4-0.1-0.5c0-0.1-0.1-0.2-0.1-0.3
			c-0.1-0.1-0.1-0.2-0.1-0.2c-0.1-0.2-0.1-0.3-0.1-0.4c0-0.1,0-0.1,0-0.2c0-0.1,0-0.1,0-0.2c0-0.1,0-0.1,0-0.1v-0.1
			c0-0.1,0-0.1,0-0.2c0-0.1,0-0.1,0-0.2c0-0.1,0-0.1,0-0.2c0-0.1,0-0.2,0-0.4l3.8,3.9v1l-0.9-0.9l-3.8,3.6c0,0,0-0.1-0.1-0.1
			c0-0.1,0-0.1,0-0.2s0-0.1,0-0.2c0.1-0.1,0.1-0.2,0.2-0.3c0.1-0.1,0.1-0.2,0.2-0.3c0-0.1,0.1-0.2,0.1-0.3c0-0.1,0-0.2,0-0.3
			c0-0.1,0-0.3,0-0.5C61.7,18.5,61.7,18.4,61.7,18.3z M64.6,16.8l-1.4-1.4c0,0.1,0,0.3,0,0.4c0,0.1,0,0.3,0,0.4c0,0.2,0,0.4-0.1,0.5
			c0,0.2-0.1,0.3-0.2,0.5c-0.1,0.1-0.2,0.3-0.3,0.4s-0.2,0.3-0.3,0.4c0,0.2,0,0.3,0,0.5s0,0.3-0.1,0.5L64.6,16.8z"/>
		<path class="st0" d="M66.5,19l-4.2,3.3c0,0,0-0.1,0-0.2s0-0.2,0-0.3c0-0.1,0-0.3,0-0.4l3.1-2.4c0.2-0.2,0.4-0.4,0.5-0.5
			c0.1-0.2,0-0.4-0.2-0.6l0.2-0.9c0.1,0.1,0.1,0.2,0.1,0.2l0.1,0.1c0,0,0,0.1,0.1,0.1c0,0,0,0,0.1,0.1c0.1,0.2,0.2,0.3,0.2,0.5
			s0,0.3-0.1,0.5c0,0,0.1-0.1,0.1-0.2c0.1-0.1,0.1-0.1,0.2-0.2s0.2-0.2,0.3-0.3c0.1-0.1,0.2-0.2,0.4-0.3v0.6
			c-0.1,0.1-0.1,0.1-0.1,0.2c0,0,0,0.1-0.1,0.1v0.1v0.1l0.5,0.6l-0.1,1L66.5,19z"/>
		<path class="st0" d="M69.5,23.7l-4.6,2.8c0-0.1,0.1-0.3,0.1-0.4s0.1-0.2,0.1-0.3c0-0.1,0-0.2,0.1-0.2l2.4-1.5
			c0.1,0,0.1-0.1,0.1-0.1c0-0.1,0.1-0.1,0.1-0.2s0-0.1,0-0.2s0-0.1-0.1-0.2s-0.1-0.1-0.2-0.1s-0.2,0-0.3,0.1c0,0,0,0-0.1,0
			c0,0,0,0-0.1,0.1c0,0,0,0-0.1,0.1l-0.1,0.1l-0.3-0.3c0.1-0.1,0.2-0.2,0.3-0.3c0.1-0.1,0.1-0.2,0.1-0.4c0-0.1,0-0.2,0-0.4
			c0-0.1-0.1-0.2-0.1-0.3c-0.1-0.2-0.2-0.4-0.4-0.5c-0.2-0.1-0.4-0.1-0.6,0s-0.3,0.2-0.4,0.4l0.1-0.1c0.2-0.1,0.3-0.1,0.5-0.1
			c0.2,0.1,0.3,0.2,0.4,0.3c0.1,0.1,0.1,0.2,0.1,0.3c0,0.1,0,0.2-0.1,0.3c0,0.1-0.1,0.2-0.2,0.3C66.1,23,66,23.1,66,23.1
			c0.1-0.1,0-0.1-0.2-0.1c-0.1,0-0.2-0.1-0.4-0.1c-0.1-0.1-0.2-0.2-0.3-0.3c-0.1-0.1-0.2-0.2-0.2-0.4c-0.1-0.1-0.1-0.3-0.1-0.4
			c0-0.2,0-0.3,0.1-0.5s0.1-0.3,0.3-0.4c0.1-0.1,0.3-0.3,0.5-0.4s0.3-0.1,0.5-0.1s0.3,0,0.5,0s0.3,0.1,0.5,0.2
			c0.1,0.1,0.3,0.2,0.4,0.4c0.1,0.2,0.2,0.4,0.2,0.6s0,0.4-0.1,0.6c0.1,0,0.3,0,0.4,0.1c0.2,0.1,0.3,0.1,0.3,0.2
			c0.1,0.2,0.1,0.3,0.1,0.5s-0.1,0.3-0.1,0.5l0.7-0.4l-2-3.3v-0.1v-0.1v-0.1v-0.1v-0.1c0,0,0,0,0-0.1l0,0l0,0l0,0h0.1
			c0,0,0.1,0,0.1,0.1v-0.1l2.9,4.7c0,0,0,0,0,0.1c0,0,0,0,0,0.1l0,0l0,0v0.1v0.1c0,0,0,0.1,0,0.2s0,0.1,0,0.2s0,0.2-0.1,0.2
			L69.5,23.7z"/>
		<path class="st0" d="M71.7,28.9l-4.9,2c0-0.2,0.1-0.3,0.1-0.4s0-0.2,0.1-0.2c0-0.1,0.1-0.1,0.1-0.2s0.1-0.1,0.1-0.2
			c0.5-0.2,0.9-0.3,1.2-0.5c0.2-0.1,0.3-0.1,0.5-0.2c0.1-0.1,0.3-0.1,0.4-0.2c0.1,0,0.2-0.1,0.3-0.1s0.1,0,0.1,0s0.1-0.1,0.2-0.1
			c0.1-0.1,0.1-0.1,0.2-0.2s0.1-0.1,0.2-0.2s0.1-0.1,0.1-0.2l-2.2-0.9v-1c0.1,0,0.2,0.1,0.2,0.1s0.1,0,0.1,0.1h0.1h0.1
			c0.1,0,0.1,0,0.2,0s0.1,0,0.2,0c0,0,0.1,0,0.1-0.1l0.1-0.1l0.1-0.1v-0.1c0,0,0-0.1-0.1-0.1l-0.1-0.1c0,0,0,0-0.1-0.1
			c0,0,0,0-0.1-0.1s-0.1-0.1-0.1-0.2s0-0.1,0-0.2s0-0.1,0.1-0.2c0-0.1,0.1-0.1,0.1-0.2s0.1-0.1,0.2-0.1c0.2-0.1,0.4-0.1,0.7,0
			c0.2,0.1,0.5,0.2,0.7,0.3c0.2,0.2,0.4,0.3,0.6,0.5s0.3,0.4,0.3,0.5c0.1,0.2,0.1,0.4,0.1,0.5c0,0.2,0,0.4,0,0.6s-0.1,0.4-0.2,0.5
			c-0.1,0.2-0.2,0.3-0.3,0.5c0.1-0.1,0.3-0.1,0.4-0.2s0.3-0.1,0.5-0.2s0.3-0.1,0.5-0.2s0.4-0.1,0.6-0.2L73.1,28L73,28.1
			c-0.1,0.1-0.2,0.1-0.2,0.2c0,0-0.1,0.1-0.1,0.2l0.1,0.3l0.1,0.2l-0.4,0.9L71.7,28.9z M70,26c0,0.2,0,0.3-0.1,0.5s-0.2,0.3-0.3,0.4
			l1.2,0.5c0.1-0.2,0.1-0.4,0-0.7C70.6,26.3,70.3,26.1,70,26z"/>
		<path class="st0" d="M67,29.9c0.1,0,0.1,0,0.2,0c0,0,0.1,0,0.2-0.1c0.1,0,0.1,0,0.2-0.1c0.1,0,0.1-0.1,0.2-0.1l0.1,0.1
			c0,0.1,0,0.1,0,0.2s-0.1,0.2-0.2,0.2c-0.1,0.1-0.1,0.2-0.2,0.2c-0.1,0.1-0.1,0.1-0.2,0.1s-0.1,0.1-0.2,0.1s-0.1,0-0.2,0.1
			c0,0.1-0.1,0.3-0.2,0.4c-0.1,0.2-0.2,0.3-0.3,0.5c-0.1,0.2-0.2,0.3-0.4,0.5c-0.1,0.1-0.3,0.2-0.4,0.2l-0.2-0.1v-0.2
			c0.1-0.1,0.1-0.2,0.2-0.3c0.1-0.1,0.1-0.3,0.2-0.4s0.1-0.3,0.2-0.4s0.1-0.3,0.1-0.4c-0.1,0-0.1-0.1-0.2-0.1s-0.1-0.1-0.2-0.1
			c-0.1-0.1-0.1-0.1-0.2-0.2s-0.1-0.2-0.1-0.3c0-0.1-0.1-0.2-0.1-0.4c0-0.1,0-0.3,0-0.4s0.1-0.2,0.2-0.3c0.1-0.1,0.2-0.2,0.3-0.2
			c0.1,0,0.3-0.1,0.4,0c0.1,0,0.2,0.1,0.3,0.1c0.1,0.1,0.2,0.2,0.3,0.3c0.1,0.1,0.1,0.2,0.2,0.3c0,0.1,0,0.2,0,0.3
			c0,0.1,0,0.2,0,0.3L67,29.9z M66.4,29.4v-0.1c0,0,0-0.1-0.1-0.1c0,0,0-0.1-0.1-0.1h-0.1c0,0-0.1,0-0.1,0.1c0,0,0,0.1,0,0.2
			c0,0,0,0.1,0.1,0.1c0,0.1,0.1,0.1,0.1,0.2l0.1,0.1h0.1c0,0,0,0,0.1-0.1v-0.1C66.4,29.6,66.4,29.5,66.4,29.4
			C66.4,29.5,66.4,29.5,66.4,29.4z"/>
		<path class="st0" d="M67.8,32.5c0-0.1,0-0.2,0-0.3s0-0.2,0.1-0.2c0-0.1,0.1-0.1,0.2-0.2s0.1-0.1,0.2-0.1c0.2,0,0.3,0,0.5,0.1
			c0.1,0.1,0.2,0.2,0.3,0.4c0,0.2,0,0.3-0.1,0.5S68.8,33,68.6,33c-0.2,0-0.3,0-0.5-0.1C67.9,32.8,67.8,32.6,67.8,32.5z M72.9,33.4
			l-5.1,1.2c0-0.1,0.1-0.2,0.1-0.2v-0.1c0,0,0.1-0.1,0.1-0.2c0.1-0.1,0.2-0.1,0.2-0.2c0.1-0.1,0.2-0.2,0.3-0.2
			c0.1-0.1,0.2-0.2,0.3-0.3c0.1-0.1,0.2-0.2,0.3-0.3c0.2-0.2,0.3-0.5,0.4-0.8s0.1-0.7,0-1.1l0.8-1c0.5,0.4,0.9,0.8,1.3,1.2
			c0.4,0.4,0.7,0.9,1,1.4h0.1l-0.7-3l0.5-0.9l1.2,4.9l-0.5,0.9L72.9,33.4z M71.6,32.9c-0.2-0.3-0.4-0.5-0.6-0.7s-0.4-0.4-0.7-0.7
			c-0.1,0.4-0.2,0.7-0.3,1c-0.2,0.3-0.4,0.6-0.6,0.9L71.6,32.9z"/>
		<path class="st0" d="M68.1,38.6L68.1,38.6L68.1,38.6L68.1,38.6C68.1,38.5,68.2,38.5,68.1,38.6c0.1-0.1,0.1-0.2,0.2-0.2l0.1-0.1
			l0.1-0.1l0.1-0.1l0.1-0.1l5.2-0.5c-0.1,0.1-0.2,0.3-0.3,0.4c-0.1,0.1-0.2,0.2-0.2,0.3c-0.1,0.1-0.1,0.1-0.1,0.1l-4.9,0.4
			C68.2,38.8,68.1,38.7,68.1,38.6C68.1,38.7,68.1,38.6,68.1,38.6z"/>
	</g>
	<g>
		<path class="st0" d="M15.8,58.4L14,59.7l-0.1-0.1c-0.1-0.1-0.1-0.1-0.2-0.2c-0.1-0.1-0.1-0.2-0.2-0.3l0.7-0.5l0.1-0.1
			c0-0.1,0.1-0.1,0.1-0.2c0-0.1,0-0.1,0-0.2c0-0.1,0-0.1,0-0.1c-0.1-0.1-0.2-0.2-0.2-0.2c-0.1,0-0.1,0-0.2,0h-0.1h-0.1
			c-0.1,0-0.1,0-0.1,0s-0.1,0-0.2,0c-0.1,0-0.2,0-0.3,0s-0.2-0.1-0.3-0.1s-0.2-0.1-0.2-0.2c-0.1-0.1-0.1-0.2-0.1-0.4
			c0-0.1,0-0.3,0.1-0.4c0.1-0.1,0.1-0.3,0.2-0.4c0.1-0.1,0.2-0.2,0.2-0.2l0.7,0.1l0,0l0,0c-0.1,0.1-0.1,0.1-0.2,0.2
			c-0.1,0.1-0.1,0.2-0.1,0.2c0,0.1-0.1,0.1-0.1,0.2c0,0.1,0,0.1,0,0.1c0.1,0.1,0.1,0.1,0.2,0.1c0.1,0,0.1,0,0.2,0
			c0.1-0.1,0.2-0.1,0.2-0.2c0-0.1,0.1-0.1,0.1-0.2c0-0.1,0-0.1-0.1-0.2c0-0.1-0.1-0.1-0.1-0.2l-0.1-0.1L13.7,56l-0.1-0.1l-0.1-0.1
			c0-0.1-0.1-0.2-0.1-0.3s0-0.2,0.1-0.3c0-0.1,0-0.2,0-0.4s0-0.5-0.1-0.9l3.4,4.7l-0.2,1L15.8,58.4z M14.6,56.8c0,0.2,0,0.3-0.1,0.5
			c0.1,0,0.2,0,0.3,0.1s0.1,0.1,0.2,0.2c0,0.1,0.1,0.2,0.1,0.2c0,0.1,0,0.2,0,0.3l0.3-0.2L14.6,56.8z"/>
		<path class="st0" d="M13.2,59c-0.1,0.1-0.2,0.1-0.4,0.2c-0.1,0-0.3,0-0.4,0c-0.1,0-0.3-0.1-0.4-0.1c-0.1-0.1-0.2-0.1-0.3-0.2
			c-0.1-0.1-0.1-0.1-0.1-0.2c0-0.1-0.1-0.2-0.1-0.3s0-0.2,0-0.3s0.1-0.2,0.2-0.2c0.2-0.1,0.4-0.2,0.6-0.2c0.2,0,0.4,0,0.6,0.1
			c0.2,0.1,0.4,0.2,0.5,0.3c0.2,0.1,0.3,0.3,0.4,0.4c0.1,0.2,0.3,0.3,0.3,0.5c0.1,0.2,0.1,0.3,0.1,0.5s0,0.3-0.1,0.5
			s-0.2,0.3-0.4,0.5c-0.2,0.1-0.3,0.2-0.5,0.2s-0.4,0-0.5,0c-0.2,0-0.4-0.1-0.5-0.1c-0.2-0.1-0.3-0.1-0.5-0.2v0.1
			c0.1,0.4,0.1,0.7,0.1,0.9s0,0.5,0,0.6c0,0.2,0,0.4,0,0.5s0,0.4-0.1,0.6l-0.5,0.6c0-0.3,0-0.6,0-0.8s0-0.5,0-0.7s-0.1-0.4-0.1-0.6
			c0-0.2-0.1-0.3-0.1-0.5c-0.1-0.3-0.2-0.7-0.4-1s-0.3-0.7-0.5-1.1l0.7-1.5c0,0.3,0.1,0.6,0.1,0.7c0,0.1,0.1,0.3,0.2,0.4
			c0.1,0.1,0.1,0.2,0.2,0.3c0.1,0.1,0.2,0.2,0.2,0.3c0.1,0.1,0.2,0.2,0.4,0.3s0.3,0.1,0.5,0.2c0.2,0,0.4,0,0.5,0
			c0.2,0,0.3-0.1,0.5-0.2c0.1-0.1,0.1-0.1,0.1-0.2c0-0.1-0.1-0.1-0.1-0.2C13.4,59.1,13.4,59.1,13.2,59C13.4,59.1,13.3,59.1,13.2,59
			C13.3,59,13.3,59,13.2,59C13.3,59,13.2,59,13.2,59z"/>
		<path class="st0" d="M16.9,59.7l-4,3.5c0,0,0-0.1,0-0.2c0-0.1,0-0.2,0-0.3s0-0.3,0-0.4l2.9-2.6c0.2-0.2,0.4-0.4,0.4-0.6
			c0.1-0.2,0-0.4-0.2-0.6l0.1-1c0.1,0.1,0.1,0.1,0.2,0.2l0.1,0.1c0,0,0,0.1,0.1,0.1c0,0,0,0,0.1,0.1c0.1,0.2,0.2,0.3,0.3,0.5
			c0,0.2,0,0.3,0,0.5c0-0.1,0.1-0.1,0.1-0.2c0-0.1,0.1-0.1,0.2-0.2c0.1-0.1,0.1-0.2,0.2-0.3s0.2-0.2,0.3-0.4v0.6
			c-0.1,0.1-0.1,0.1-0.1,0.2v0.1v0.1V59l0.5,0.6v1L16.9,59.7z"/>
		<path class="st0" d="M18.7,60L18.7,60c0,0.1-0.1,0.1-0.1,0.2v0.1v0.1l0.7,0.7v1l-1-1l-3.7,3.8c0-0.1,0-0.2,0-0.2
			c0-0.1,0-0.1,0-0.2s0-0.1,0-0.2v-0.1v-0.1l0,0l0,0V64c0,0,0-0.1,0.1-0.1l3.2-3.2L17.2,60v-1l0.9,0.9c0-0.1,0-0.2,0-0.4
			c0-0.1,0.1-0.2,0.2-0.3c0.2-0.2,0.4-0.3,0.6-0.3c0.2-0.1,0.5-0.1,0.8,0c0.3,0,0.5,0.1,0.7,0.2c0.2,0.1,0.4,0.2,0.6,0.4
			s0.4,0.5,0.6,0.7c0.2,0.3,0.3,0.5,0.4,0.8s0.2,0.6,0.2,0.9c0,0.3,0.1,0.6,0.1,0.9L22,63.5c-0.1-0.6-0.2-1.1-0.3-1.5
			c-0.1-0.4-0.3-0.8-0.4-1c-0.2-0.3-0.3-0.5-0.5-0.6c-0.2-0.2-0.4-0.3-0.5-0.3C20.1,60,20,60,19.8,60s-0.3,0-0.4,0s-0.2,0-0.3,0.1
			C18.8,59.9,18.7,60,18.7,60z"/>
		<path class="st0" d="M22.2,64.3L19,68.4c-0.1-0.2-0.1-0.3-0.1-0.4s0-0.2,0-0.2c0-0.1,0-0.1,0-0.2s0-0.1,0-0.2
			c0.3-0.4,0.6-0.7,0.8-1c0.1-0.1,0.2-0.2,0.3-0.4c0.1-0.1,0.2-0.2,0.3-0.3c0.1-0.1,0.1-0.2,0.2-0.2c0-0.1,0.1-0.1,0.1-0.1
			s0.1-0.1,0.1-0.2s0-0.2,0.1-0.3c0-0.1,0-0.2,0-0.3c0-0.1,0-0.2,0-0.2l-2.4,0.3l-0.5-0.9c0.1,0,0.2,0,0.3,0c0.1,0,0.1,0,0.1,0h0.1
			h0.1c0.1,0,0.1,0,0.2-0.1c0.1,0,0.1-0.1,0.1-0.1l0.1-0.1c0,0,0-0.1,0.1-0.1v-0.1c0,0,0-0.1-0.1-0.1l-0.1-0.1c0,0-0.1,0-0.2,0h-0.1
			h-0.1c-0.1,0-0.1-0.1-0.2-0.1s-0.1-0.1-0.1-0.2c0-0.1,0-0.1-0.1-0.2c0-0.1,0-0.1,0-0.2c0-0.1,0-0.1,0.1-0.2
			c0.1-0.2,0.3-0.3,0.6-0.3c0.2-0.1,0.5-0.1,0.8,0c0.3,0,0.5,0.1,0.8,0.2c0.2,0.1,0.4,0.2,0.6,0.3s0.3,0.3,0.4,0.4
			c0.1,0.2,0.2,0.3,0.2,0.5c0.1,0.2,0.1,0.4,0.1,0.6c0,0.2,0,0.4,0,0.6c0.1-0.1,0.2-0.3,0.3-0.4c0.1-0.1,0.2-0.3,0.3-0.4
			c0.1-0.1,0.2-0.3,0.3-0.4c0.1-0.1,0.2-0.3,0.4-0.5l0.2,0.6v0.1C23,63.6,23,63.7,23,63.8s0,0.1,0.1,0.2l0.2,0.2l0.2,0.2l0.1,1
			L22.2,64.3z M19.2,62.7c0.1,0.1,0.2,0.3,0.2,0.5s0,0.4-0.1,0.5l1.3-0.1c0-0.2-0.1-0.4-0.3-0.6C19.9,62.7,19.5,62.6,19.2,62.7z"/>
		<path class="st0" d="M22.2,64.4l-0.3-1l6,3.2l0.3,1L22.2,64.4z M23.3,70.2c-0.3-0.2-0.5-0.4-0.7-0.6c-0.2-0.3-0.3-0.6-0.4-0.9
			s-0.1-0.7-0.2-1c0-0.4,0-0.7,0-1.1s0.1-0.7,0.1-1.1c0.1-0.3,0.1-0.7,0.2-0.9l0.4,0.5c0,0.2,0,0.5-0.1,0.8c0,0.3,0,0.5,0,0.8
			s0,0.5,0.1,0.8c0,0.3,0.1,0.5,0.2,0.8c0.1,0.2,0.2,0.5,0.4,0.7c0.2,0.2,0.3,0.4,0.6,0.5c0.1,0.1,0.3,0.1,0.4,0.1
			c0.2,0,0.3,0,0.5,0s0.3-0.1,0.5-0.2c0.1-0.1,0.3-0.2,0.3-0.3c0.1-0.1,0.1-0.3,0.1-0.4c0-0.2,0-0.3,0-0.4s-0.1-0.3-0.2-0.4
			s-0.2-0.2-0.3-0.3h-0.1c0,0,0,0-0.1,0c0,0.1,0,0.2,0,0.3c0,0.1-0.1,0.2-0.1,0.2c-0.1,0.3-0.3,0.4-0.5,0.4s-0.4,0-0.7-0.1
			c-0.1-0.1-0.3-0.2-0.3-0.3c-0.1-0.1-0.1-0.2-0.2-0.4c0-0.1,0-0.3,0-0.4s0.1-0.3,0.1-0.4c0.1-0.2,0.2-0.3,0.3-0.4
			c0.1-0.1,0.3-0.1,0.4-0.2c0.2,0,0.3,0,0.5,0s0.3,0.1,0.5,0.2c0.3,0.1,0.5,0.3,0.7,0.6c0.2,0.2,0.3,0.5,0.4,0.8s0.1,0.6,0.1,0.9
			s-0.2,0.6-0.4,0.9c-0.1,0.2-0.3,0.4-0.5,0.6c-0.2,0.1-0.4,0.2-0.7,0.3c-0.2,0.1-0.5,0.1-0.7,0C23.8,70.4,23.5,70.3,23.3,70.2z"/>
		<path class="st0" d="M26.4,70.2l0.3-0.8l2.6,1L29,71.1L26.4,70.2z"/>
		<path class="st0" d="M30.3,73.5c-0.1,0-0.2-0.1-0.3-0.1c-0.1-0.1-0.2-0.1-0.3-0.2c-0.1-0.1-0.2-0.2-0.2-0.3c0-0.1-0.1-0.2,0-0.4
			c0-0.2,0.1-0.3,0.2-0.4s0.2-0.2,0.4-0.3c0.1-0.1,0.3-0.1,0.4-0.1c0.2,0,0.3,0,0.4,0c0.2,0,0.3,0.1,0.5,0.2s0.3,0.2,0.4,0.4
			c0.1-0.1,0.2-0.1,0.2-0.2c0.1-0.1,0.1-0.2,0.1-0.3c0-0.1,0-0.2,0-0.3c0-0.1-0.1-0.3-0.2-0.4c-0.1-0.2-0.2-0.3-0.3-0.5
			c-0.1-0.2-0.2-0.3-0.3-0.5c-0.1-0.1-0.1-0.2-0.2-0.3c-0.1-0.1-0.1-0.2-0.2-0.3c-0.1-0.2-0.2-0.3-0.3-0.5c-0.1-0.2-0.1-0.3-0.2-0.5
			c0-0.1-0.1-0.3,0-0.4c0-0.1,0.1-0.2,0.1-0.3c0.1-0.1,0.1-0.1,0.2-0.2s0.2-0.1,0.3-0.1c0.1,0,0.2,0,0.3,0c0.2,0,0.3,0.2,0.4,0.3
			c0.1,0.2,0.1,0.3,0.1,0.5c0,0.1,0,0.1-0.1,0.2c0,0,0,0.1-0.1,0.2c0.1,0.2,0.3,0.5,0.5,0.7c0.2,0.3,0.3,0.5,0.4,0.8
			c0.1,0.3,0.2,0.6,0.3,0.9s0,0.6,0,0.9c-0.1,0.3-0.2,0.5-0.4,0.7s-0.4,0.4-0.7,0.5c-0.2,0.1-0.5,0.2-0.8,0.3
			C30.8,73.6,30.5,73.6,30.3,73.5z"/>
		<path class="st0" d="M35.5,70.8c-0.2-0.1-0.3-0.2-0.5-0.3c-0.2-0.1-0.4-0.2-0.5-0.4c-0.2-0.2-0.3-0.3-0.4-0.5
			C34,69.4,34,69.2,34,69c0-0.1,0-0.2,0.1-0.2c0-0.1,0.1-0.2,0.1-0.2c0.1-0.1,0.1-0.1,0.2-0.2c0.1,0,0.2-0.1,0.3,0
			c0.2,0,0.3,0.1,0.4,0.2c0.1,0.1,0.1,0.2,0.1,0.3c0,0.1,0,0.2-0.1,0.3c-0.1,0.1-0.1,0.2-0.2,0.3l0.1,0.1c0.1,0,0.1,0.1,0.2,0.1
			c0.1,0,0.2,0.1,0.2,0.1c0.1,0,0.1,0,0.1,0.1c0.6,0.2,1.1,0.5,1.4,0.7c0.4,0.3,0.7,0.5,0.8,0.8c0.2,0.3,0.3,0.5,0.3,0.8
			s0,0.5-0.1,0.7s-0.2,0.4-0.4,0.6s-0.4,0.4-0.6,0.5c-0.2,0.1-0.4,0.2-0.7,0.3c-0.2,0.1-0.4,0.1-0.6,0h-0.2c0.1-0.2,0.1-0.5,0.2-0.7
			c0.1-0.2,0.1-0.4,0.1-0.6c0-0.1,0-0.3,0-0.4s-0.1-0.2-0.1-0.3c-0.1-0.1-0.1-0.2-0.2-0.2C35.3,72,35.2,72,35.1,72s-0.2,0-0.3,0
			s-0.2,0-0.2,0.1c-0.1,0.1-0.1,0.1-0.2,0.2c-0.1,0.1-0.1,0.2-0.1,0.4c0,0.1,0,0.2,0.1,0.3c0.2,0,0.4,0.1,0.5,0.2s0.1,0.3,0.1,0.4
			s0,0.1-0.1,0.2c0,0.1-0.1,0.1-0.1,0.2c0.3,0,0.2,0,0.1,0.1c-0.1,0-0.2,0-0.2,0c-0.2,0-0.3-0.1-0.5-0.2c-0.1-0.1-0.2-0.2-0.3-0.3
			c-0.1-0.1-0.1-0.3-0.2-0.4c0-0.2,0-0.3,0-0.4c0-0.3,0.1-0.5,0.2-0.7c0.1-0.2,0.2-0.4,0.4-0.5s0.3-0.2,0.5-0.3
			c0.2-0.1,0.4-0.1,0.7-0.1c0.2,0,0.4,0.1,0.6,0.2c0.2,0.1,0.3,0.2,0.4,0.4c0.1,0.2,0.2,0.3,0.3,0.5s0.1,0.4,0.1,0.6V73
			c0.2-0.1,0.3-0.2,0.4-0.4c0.1-0.1,0.2-0.3,0.2-0.4s0-0.3-0.1-0.4s-0.2-0.2-0.4-0.3L35.5,70.8z"/>
		<path class="st0" d="M40.6,71c-0.2,0-0.3-0.1-0.5-0.2s-0.4-0.2-0.6-0.3c-0.2-0.1-0.3-0.3-0.5-0.4c-0.1-0.2-0.2-0.4-0.2-0.6
			c0-0.1,0-0.2,0-0.3c0-0.1,0.1-0.2,0.1-0.3c0-0.1,0.1-0.1,0.2-0.2c0.1-0.1,0.2-0.1,0.3-0.1c0.2,0,0.3,0,0.4,0.1
			c0.1,0.1,0.2,0.2,0.2,0.3c0,0.1,0,0.2,0,0.3c0,0.1-0.1,0.2-0.1,0.3l0.1,0.1c0.1,0,0.1,0.1,0.2,0.1c0.1,0,0.2,0,0.2,0.1
			c0.1,0,0.1,0,0.2,0c0.6,0.1,1.1,0.3,1.5,0.5s0.7,0.4,0.9,0.6s0.4,0.5,0.4,0.7c0.1,0.3,0.1,0.5,0,0.8c-0.1,0.2-0.1,0.5-0.3,0.7
			c-0.1,0.2-0.3,0.4-0.5,0.6s-0.4,0.3-0.6,0.4c-0.2,0.1-0.4,0.1-0.6,0.1h-0.2c0-0.3,0.1-0.5,0.1-0.7s0-0.4,0-0.6
			c0-0.1,0-0.3-0.1-0.4c0-0.1-0.1-0.2-0.2-0.3c-0.1-0.1-0.1-0.1-0.2-0.2c-0.1,0-0.2-0.1-0.3-0.1s-0.2,0-0.3,0S40,72.1,40,72.1
			c-0.1,0.1-0.1,0.2-0.2,0.3c0,0.1-0.1,0.3,0,0.4c0,0.1,0,0.2,0.1,0.3c0.2,0,0.4,0,0.5,0.1s0.2,0.3,0.2,0.4s0,0.2,0,0.2
			c0,0.1-0.1,0.1-0.1,0.2s-0.1,0.1-0.2,0.2c-0.1,0-0.2,0.1-0.2,0.1c-0.2,0-0.3,0-0.5-0.1c-0.1-0.1-0.3-0.2-0.3-0.3
			c-0.1-0.1-0.2-0.2-0.2-0.4C39,73.4,39,73.2,39,73.1c0-0.3,0-0.5,0.1-0.7s0.2-0.4,0.3-0.6s0.3-0.3,0.5-0.4s0.4-0.2,0.6-0.2
			c0.2,0,0.4,0,0.6,0.1c0.2,0.1,0.4,0.2,0.5,0.3c0.1,0.1,0.3,0.3,0.4,0.5c0.1,0.2,0.1,0.4,0.1,0.6v0.1c0.1-0.1,0.2-0.3,0.3-0.4
			c0.1-0.2,0.1-0.3,0.1-0.4s-0.1-0.3-0.1-0.4c-0.1-0.1-0.2-0.2-0.5-0.3L40.6,71z"/>
		<path class="st0" d="M45.6,70.4c-0.2,0-0.4-0.1-0.6-0.1c-0.2-0.1-0.4-0.1-0.6-0.2c-0.2-0.1-0.4-0.2-0.5-0.4
			c-0.2-0.1-0.3-0.3-0.3-0.5c0-0.1,0-0.2,0-0.3c0-0.1,0-0.2,0.1-0.3c0-0.1,0.1-0.2,0.2-0.2c0.1-0.1,0.2-0.1,0.3-0.1
			c0.2,0,0.3,0,0.5,0c0.1,0.1,0.2,0.1,0.2,0.2s0.1,0.2,0,0.3c0,0.1,0,0.2-0.1,0.3l0.1,0.1c0.1,0,0.2,0,0.2,0c0.1,0,0.2,0,0.2,0
			c0.1,0,0.1,0,0.2,0c0.6,0,1.2,0.1,1.6,0.2c0.4,0.1,0.8,0.3,1,0.5c0.3,0.2,0.4,0.4,0.5,0.6s0.2,0.5,0.1,0.7c0,0.2-0.1,0.5-0.2,0.7
			c-0.1,0.2-0.2,0.4-0.4,0.6s-0.3,0.3-0.5,0.5c-0.2,0.1-0.4,0.2-0.6,0.2h-0.2c0-0.3,0-0.5,0-0.7s0-0.4,0-0.6c0-0.1-0.1-0.3-0.1-0.4
			c-0.1-0.1-0.1-0.2-0.2-0.3c-0.1-0.1-0.2-0.1-0.3-0.1s-0.2,0-0.3,0s-0.2,0-0.3,0.1c-0.1,0-0.1,0.1-0.2,0.2
			c-0.1,0.1-0.1,0.2-0.1,0.3c0,0.1,0,0.3,0,0.4s0.1,0.2,0.1,0.2c0.2-0.1,0.4,0,0.6,0.1c0.1,0.1,0.2,0.2,0.2,0.4c0,0.1,0,0.1,0,0.2
			s0,0.2-0.1,0.2c0,0.1-0.1,0.1-0.1,0.2c-0.1,0.1-0.1,0.1-0.2,0.1c-0.2,0-0.3,0-0.5,0c-0.1,0-0.3-0.1-0.4-0.2
			c-0.1-0.1-0.2-0.2-0.3-0.3c-0.1-0.1-0.1-0.3-0.2-0.4c-0.1-0.3-0.1-0.5,0-0.7c0-0.2,0.1-0.4,0.2-0.6c0.1-0.2,0.2-0.3,0.4-0.5
			C45.2,70.7,45.4,70.6,45.6,70.4c0.2,0.1,0.4,0.1,0.6,0.1c0.2,0.1,0.4,0.1,0.5,0.3c0.2,0.1,0.3,0.3,0.4,0.4
			c0.1,0.2,0.2,0.4,0.2,0.5v0.1c0.1-0.2,0.2-0.3,0.2-0.5c0.1-0.2,0.1-0.3,0-0.5c0-0.1-0.1-0.3-0.2-0.4c-0.1-0.1-0.3-0.2-0.5-0.2
			L45.6,70.4z"/>
		<path class="st0" d="M52,67c0.1-0.1,0.2-0.2,0.3-0.5c0.1-0.1,0.1-0.2,0.1-0.4c0-0.1,0.1-0.2,0.1-0.4c0.1,0,0.2,0.1,0.3,0.1
			s0.2,0,0.2,0.1c0.1,0,0.2,0.1,0.3,0.1s0.2,0.1,0.3,0.1c0.1,0.1,0.2,0.1,0.3,0.2s0.2,0.2,0.2,0.3c0.1,0.1,0.1,0.3,0.1,0.4
			s0,0.3,0,0.4s-0.1,0.3-0.1,0.4c-0.1,0.1-0.1,0.3-0.2,0.4c0.3,0,0.5,0.1,0.8,0.1c0.3,0.1,0.5,0.2,0.7,0.3l-2.2-4.4l0.6,0.1v0.1
			c0.1,0.2,0.1,0.3,0.2,0.4c0,0.1,0.1,0.1,0.1,0.1s0.1,0,0.2-0.1c0.1,0,0.1-0.1,0.2-0.1c0.1,0,0.2-0.1,0.3-0.1l1,0.3l-1.3,0.6
			l2.3,4.7c-0.1,0-0.2-0.1-0.3-0.1S56.4,70,56.3,70c-0.1,0-0.1-0.1-0.1-0.1l-0.1-0.1c-0.5-0.4-0.9-0.6-1.5-0.7
			c-0.5-0.1-1.1,0-1.7,0.2l-1.6-0.7c0.2-0.1,0.4-0.1,0.5-0.1s0.2-0.1,0.2-0.1c0.1-0.1,0.2-0.1,0.4-0.2s0.3-0.2,0.4-0.4
			c0.1-0.1,0.2-0.3,0.3-0.4c0.1-0.2,0.1-0.3,0-0.4s-0.2-0.2-0.3-0.3c-0.1,0.3-0.3,0.6-0.4,0.8c-0.2,0.3-0.4,0.5-0.7,0.6
			c-0.1,0-0.2,0.1-0.3,0.1s-0.2,0-0.3,0s-0.2-0.1-0.3-0.1c0.3-0.1,0.2-0.2,0.2-0.3c-0.1-0.2-0.1-0.3-0.1-0.5s0.2-0.3,0.3-0.4
			s0.3-0.1,0.4-0.1C51.8,66.8,51.9,66.9,52,67z"/>
		<path class="st0" d="M55.4,68.5L55.4,68.5v-0.2v-0.1v-0.1V68c0,0,0,0,0-0.1l0,0l0,0l0,0c0,0,0,0,0.1,0c0,0,0.1,0,0.1,0.1l1.9,3.2
			c-0.2,0-0.3,0-0.4,0c-0.1,0-0.2,0-0.2-0.1c-0.1,0-0.1,0-0.2-0.1c0,0-0.1,0-0.2-0.1c-0.1,0-0.2,0-0.3-0.1c-0.1,0-0.2,0-0.4,0.1
			c-0.1,0.1-0.3,0.1-0.4,0.2c-0.2,0.1-0.3,0.2-0.5,0.3c-0.2,0.1-0.3,0.2-0.5,0.3c-0.2,0.1-0.3,0.2-0.5,0.2c0.1,0.1-0.1,0.1-0.2,0.2
			c-0.2,0-0.3,0-0.5,0s-0.3-0.1-0.5-0.2c-0.1-0.1-0.3-0.3-0.4-0.5c-0.1-0.1-0.2-0.3-0.2-0.5S52,70.5,52,70.3l0.6,0.1
			c0,0.1,0,0.1,0,0.1v0.1c0,0,0,0.1,0.1,0.1v0.1c0.1,0.1,0.2,0.2,0.3,0.3c0.1,0.1,0.2,0.1,0.4,0.1c0.1,0,0.3-0.1,0.4-0.1
			c0.2-0.1,0.3-0.2,0.5-0.3c0.2-0.1,0.4-0.2,0.6-0.3c0.2-0.1,0.4-0.2,0.5-0.3c0.2-0.1,0.4-0.1,0.5-0.1c0.2,0,0.4,0,0.5,0.1
			L55.4,68.5z"/>
		<path class="st0" d="M56.1,64.7l2.8,4.4c0,0-0.1,0-0.2,0c-0.1,0-0.2,0-0.3,0s-0.3,0-0.4-0.1l-2.5-3.9L55,65.4l-1.1-0.2l1.2-0.8
			c-0.3-0.2-0.5-0.4-0.8-0.5s-0.5-0.2-0.8-0.2s-0.6,0.1-0.9,0.2c-0.3,0.1-0.6,0.2-0.9,0.4c0,0-0.1,0.1-0.3,0.2
			c-0.1,0.1-0.2,0.2-0.4,0.3c-0.1,0.1-0.2,0.2-0.3,0.3c-0.1,0.1-0.1,0.2,0,0.3c0,0,0.1,0.1,0.1,0c0.1,0,0.1-0.1,0.2-0.1
			c0.1-0.1,0.2-0.1,0.4-0.2c0.1-0.1,0.3-0.2,0.4-0.2c0.2-0.1,0.3-0.2,0.5-0.2c0.2-0.1,0.3-0.1,0.5-0.1s0.3,0,0.5,0.1
			s0.3,0.2,0.4,0.4c0,0,0.1,0.1,0.1,0.2s0.1,0.1,0.1,0.2L53.1,66c0.1-0.2,0.1-0.3,0.1-0.4s0-0.1,0-0.2l-0.1-0.1
			c-0.1,0-0.1,0-0.3,0.1c-0.1,0-0.2,0.1-0.4,0.2c-0.1,0.1-0.3,0.2-0.4,0.2c-0.1,0.1-0.3,0.1-0.5,0.2c0,0-0.1,0-0.3,0s-0.3,0-0.5-0.1
			c-0.1-0.1-0.3-0.2-0.4-0.4c-0.1-0.2-0.1-0.3,0-0.5s0.2-0.4,0.3-0.6s0.3-0.4,0.5-0.5c0.2-0.2,0.3-0.3,0.4-0.4
			c0.2-0.1,0.4-0.2,0.6-0.3c0.2-0.1,0.4-0.1,0.6-0.2c0.3-0.1,0.6-0.1,0.8-0.1c0.3,0,0.5,0.1,0.8,0.2c0.2,0.1,0.5,0.2,0.7,0.4
			c0.2,0.1,0.4,0.3,0.6,0.5l0.8-0.5l1,0.2L56.1,64.7z"/>
		<path class="st0" d="M59.5,62.2c0.1,0,0.2,0.1,0.3,0.1c0.1,0.1,0.2,0.1,0.3,0.2c0.1,0.1,0.2,0.3,0.2,0.5s0,0.4,0,0.5
			c0,0.2,0,0.4-0.1,0.6c0,0.2-0.1,0.4-0.1,0.6c-0.1,0.2-0.1,0.4-0.2,0.6c-0.1,0.2-0.1,0.4-0.1,0.5c-0.1,0.3,0,0.5,0,0.6
			c0.1,0.1,0.2,0.1,0.3,0s0.3-0.3,0.4-0.4c0.1-0.2,0.2-0.3,0.3-0.5c0,0,0,0,0-0.1c0,0,0-0.1,0.1-0.1v-0.1c0,0,0,0,0-0.1h-0.1h-0.1
			c-0.1,0-0.1,0-0.2-0.1c-0.1,0-0.1-0.1-0.1-0.1c-0.1-0.1-0.1-0.1-0.1-0.2s0-0.2,0-0.3c0-0.1,0-0.2,0.1-0.2c0-0.1,0.1-0.1,0.2-0.2
			c0.1-0.1,0.2-0.1,0.3-0.1s0.2,0,0.3,0s0.2,0,0.3,0.1c0.1,0,0.2,0.1,0.2,0.2c0.1,0.1,0.2,0.3,0.2,0.4c0,0.2,0,0.3,0,0.5
			s-0.1,0.3-0.2,0.5c-0.1,0.2-0.2,0.3-0.3,0.5s-0.2,0.3-0.3,0.4s-0.2,0.2-0.3,0.3c-0.1,0.1-0.2,0.2-0.4,0.2
			c-0.1,0.1-0.3,0.1-0.4,0.1c-0.1,0-0.3,0-0.4-0.1c-0.1-0.1-0.3-0.2-0.4-0.3c-0.2-0.2-0.2-0.4-0.3-0.6c0-0.2,0-0.4,0-0.5
			s0-0.2,0.1-0.2c0-0.1,0-0.1,0-0.2l0,0l0,0c-0.1,0.1-0.2,0.1-0.3,0.1c-0.2,0.1-0.4,0-0.6,0c-0.2-0.1-0.3-0.2-0.5-0.3
			c-0.1-0.1-0.2-0.3-0.2-0.5c-0.1-0.2-0.1-0.4-0.1-0.6l-0.8,0.6l-1-0.1l2.8-2.2h0.4c0-0.1,0-0.1,0-0.1s0-0.1-0.1-0.1
			c-0.1-0.1-0.2-0.2-0.3-0.2s-0.2,0-0.3,0.2c-0.2,0.2-0.4,0.4-0.6,0.6c-0.2,0.2-0.4,0.4-0.6,0.5c-0.3,0.2-0.5,0.3-0.8,0.3
			s-0.5,0-0.7,0c-0.2-0.1-0.4-0.2-0.5-0.4s-0.2-0.4-0.1-0.7l0.5-0.2c0,0.1,0,0.2,0,0.3s0,0.1,0.1,0.2c0.1,0.1,0.2,0.2,0.3,0.2
			s0.2,0,0.3,0s0.2-0.1,0.3-0.2c0.1,0,0.1-0.1,0.2-0.1c0,0,0.1-0.1,0.2-0.1c0.2-0.1,0.3-0.3,0.5-0.4c0.1-0.1,0.3-0.3,0.5-0.4
			c0.2-0.1,0.3-0.2,0.5-0.3C57.9,61,58,61,58.2,61s0.3,0.1,0.5,0.1c0.2,0.1,0.3,0.2,0.4,0.3l0.7-0.5c0,0,0.1,0.1,0.2,0.1
			c0.1,0,0.2,0.1,0.3,0.1s0.2,0.1,0.4,0.1L59.5,62.2z M58.8,63.9c-0.1,0-0.2,0-0.3-0.1c-0.1,0-0.2,0-0.2-0.1c0,0.1-0.1,0.2,0,0.4
			c0,0.1,0,0.2,0.1,0.3c0.1,0.1,0.2,0.2,0.3,0.2s0.2,0,0.4-0.1l0.1-0.1l0.1-0.1l0.1-0.1v-0.1c0,0-0.1,0-0.2,0
			C59,64,58.9,64,58.8,63.9z M58.6,62.9L58.6,62.9C58.5,63,58.5,63,58.4,63l-0.1,0.1v0.1c0.2,0,0.3,0.1,0.5,0.1s0.3,0.1,0.5,0.1
			c0.1-0.2,0-0.4-0.1-0.5C59.1,62.7,58.9,62.7,58.6,62.9z"/>
		<path class="st0" d="M61,60.7l3.7,3.8c0,0-0.1,0-0.2,0.1c-0.1,0-0.2,0-0.3,0c-0.1,0-0.3,0-0.4,0l-2.7-2.8
			c-0.2-0.2-0.4-0.3-0.6-0.4c-0.2,0-0.4,0-0.5,0.3l-1-0.1c0.1-0.1,0.1-0.1,0.2-0.2l0.1-0.1l0.1-0.1c0,0,0,0,0.1-0.1
			c0.2-0.2,0.3-0.2,0.5-0.3c0.2,0,0.3,0,0.5,0c-0.1,0-0.1-0.1-0.2-0.1c-0.1,0-0.1-0.1-0.2-0.2c-0.1-0.1-0.2-0.1-0.3-0.2
			c-0.1-0.1-0.2-0.2-0.4-0.3l0.6-0.1c0.1,0.1,0.1,0.1,0.2,0.1h0.1h0.1h0.1l0.6-0.5h1L61,60.7z"/>
		<path class="st0" d="M61.3,60.6l-1,0.1l4.1-5.1l1.1-0.1l-2.3,2.9l1.4,1.1c0-0.2,0-0.3-0.1-0.5c0-0.2,0-0.3,0-0.5s0-0.4,0-0.6
			c0-0.2,0-0.4,0.1-0.7l1.2-0.3c0.1,0.4,0.2,0.8,0.4,1.2c0.2,0.4,0.4,0.7,0.7,0.9c0.2,0.2,0.5,0.3,0.7,0.5c0.3,0.1,0.6,0.3,1,0.4
			L68,60.2c-0.2,0-0.4-0.1-0.5-0.2c-0.2-0.1-0.4-0.2-0.5-0.3c-0.2-0.1-0.4-0.2-0.5-0.3c-0.2-0.1-0.3-0.2-0.4-0.3s-0.2-0.2-0.3-0.3
			c-0.1-0.1-0.2-0.2-0.3-0.4c0,0.2,0,0.3,0,0.5s0.1,0.4,0.1,0.6c0.1,0.2,0.1,0.4,0.2,0.6c0.1,0.2,0.2,0.4,0.3,0.5l-1,0.2
			c-0.2-0.1-0.3-0.1-0.5-0.2c-0.2,0-0.3,0-0.5,0.1c-0.1,0.1-0.3,0.1-0.4,0.2c-0.1,0.1-0.3,0.2-0.4,0.4l-1.1-0.2
			c0-0.4,0.1-0.8,0.2-1.2c0.1-0.4,0.1-0.8,0.2-1.1L61.3,60.6z M63.4,59.5c-0.1,0.3-0.2,0.7-0.2,1c0.2-0.1,0.4-0.1,0.5-0.2
			c0.2,0,0.4-0.1,0.5-0.1L63.4,59.5z"/>
	</g>
	<path class="st3" d="M63.9,28.7c-1.4-3.2-3.3-6.1-5.8-8.5c-2.5-2.5-5.3-4.4-8.5-5.8c-3.3-1.4-6.8-2.1-10.4-2.1S32,13,28.7,14.4
		c-3.2,1.4-6.1,3.3-8.5,5.8c-2.5,2.5-4.4,5.3-5.8,8.5c-1.4,3.3-2.1,6.8-2.1,10.4c0,0.5,0,1,0,1.5c0.2,3.1,0.9,6.1,2.1,8.9
		c1.4,3.2,3.3,6.1,5.8,8.5c2.5,2.5,5.3,4.4,8.5,5.8c0.2,0.1,0.4,0.2,0.6,0.3c0.1,0,0.2,0.1,0.3,0.1c0.1,0,0.1,0,0.2,0.1
		c0,0,0,0,0.1,0s0.1,0.1,0.2,0.1h0.1c0.1,0,0.1,0,0.2,0.1c0.3,0.1,0.5,0.2,0.8,0.3c0.1,0,0.1,0,0.2,0.1c0.1,0,0.2,0,0.2,0.1
		c0.1,0,0.2,0.1,0.3,0.1c0.1,0,0.2,0,0.3,0.1c0,0,0,0,0.1,0s0.1,0,0.2,0h0.1c0.1,0,0.1,0,0.2,0h0.1c0.1,0,0.1,0,0.2,0h0.1h0.1
		c0.1,0,0.1,0,0.2,0c0.1,0,0.1,0,0.2,0h0.1c0.1,0,0.1,0,0.2,0c0.1,0,0.2,0,0.3,0.1c0.1,0,0.1,0,0.2,0h0.2c0.1,0,0.1,0,0.2,0l0,0
		c0.1,0,0.1,0,0.2,0c0.1,0,0.1,0,0.2,0l0,0c0.1,0,0.2,0,0.3,0l0,0c0.1,0,0.2,0,0.3,0s0.2,0,0.3,0s0.2,0,0.3,0s0.1,0,0.2,0
		c0.1,0,0.3,0,0.4,0c0.1,0,0.1,0,0.2,0h0.1c0.1,0,0.2,0,0.3,0s0.1,0,0.2,0H38c0.1,0,0.2,0,0.2,0c0.1,0,0.2,0,0.2,0
		c0.2,0,0.3,0,0.5,0c0.1,0,0.2,0,0.3,0l0,0c0,0,0,0,0-0.1c0,0,0,0,0,0.1l0,0c3.3,0,6.4-0.6,9.4-1.7c0.1,0,0.2-0.1,0.3-0.1
		c0.2-0.1,0.4-0.2,0.6-0.3c3.2-1.4,6.1-3.3,8.5-5.8c2.5-2.5,4.4-5.3,5.8-8.5c1.2-2.8,1.9-5.8,2.1-8.9c0-0.5,0-1,0-1.5
		C66,35.5,65.3,32,63.9,28.7z M65,39.4C65,39.5,65,39.5,65,39.4L65,39.4c0,0.2,0,0.3,0,0.4c0,0.1,0,0.1,0,0.2c0,0.1,0,0.1,0,0.2v0.1
		v0.1c0,0.1,0,0.1,0,0.2c-0.2,3-0.8,5.9-2,8.6c-1.3,3.1-3.2,5.8-5.6,8.2s-5.1,4.2-8.2,5.6c-0.2,0.1-0.4,0.2-0.6,0.2
		c-0.1,0-0.2,0.1-0.3,0.1s-0.1,0-0.2,0.1H48l0,0c-0.1,0-0.2,0.1-0.2,0.1l0,0c-0.1,0-0.1,0-0.2,0.1c-0.1,0-0.1,0-0.2,0.1l0,0l0,0
		c0,0,0,0-0.1,0s-0.1,0-0.2,0.1H47h-0.1l0,0h-0.1l0,0h-0.1l0,0h-0.1l0,0c-0.1,0-0.2,0-0.2,0.1l0,0h-0.1l0,0h-0.1
		c-0.1,0-0.2,0.1-0.3,0.1h-0.1c-0.1,0-0.2,0-0.3,0.1l0,0c-0.1,0-0.2,0-0.2,0.1h-0.1c-0.1,0-0.1,0-0.2,0h-0.1l0,0
		c-0.1,0-0.2,0-0.3,0.1h-0.1l0,0c0,0,0,0-0.1,0c0,0,0,0-0.1,0h-0.1c0,0,0,0-0.1,0l0,0c-0.1,0-0.2,0-0.3,0l0,0l0,0l0,0c0,0,0,0-0.1,0
		s-0.1,0-0.2,0h-0.1h-0.1h-0.1c-0.1,0-0.2,0-0.3,0c0,0,0,0-0.1,0s-0.1,0-0.2,0l0,0c-0.1,0-0.2,0-0.3,0c0,0,0,0-0.1,0s-0.1,0-0.2,0
		c-0.1,0-0.2,0-0.3,0s-0.2,0-0.2,0s0,0-0.1,0c0,0,0,0-0.1,0h-0.1l0,0c-0.1,0-0.1,0-0.2,0h-0.1c0,0,0,0-0.1,0c0,0,0,0-0.1,0l0,0h-0.1
		l0,0h-0.1h-0.1l0,0h-0.1l0,0c0,0,0,0-0.1,0h-0.1c-0.1,0-0.1,0-0.2,0c-0.1,0-0.2,0-0.3,0s-0.2,0-0.3,0h-0.1c-0.1,0-0.2,0-0.3,0l0,0
		h-0.1h-0.1h-0.1c-0.1,0-0.2,0-0.3,0c-0.2,0-0.4,0-0.6,0c-0.1,0-0.1,0-0.2,0h-0.1c-0.1,0-0.2,0-0.3,0s-0.2,0-0.2,0h-0.1l0,0
		c-0.1,0-0.1,0-0.2,0c-0.1,0-0.1,0-0.2,0h-0.1c0,0,0,0-0.1,0h-0.1l0,0c-0.1,0-0.1,0-0.2,0l0,0c0,0,0,0-0.1,0h-0.1l0,0h-0.1l0,0
		c-0.2,0-0.4-0.1-0.7-0.1h-0.1c0,0,0,0-0.1,0l0,0c-0.3-0.1-0.6-0.1-0.9-0.2c-0.1,0-0.2,0-0.3-0.1l0,0c-0.1,0-0.2,0-0.2-0.1l0,0h-0.1
		c0,0,0,0-0.1,0H33c-0.1,0-0.3-0.1-0.4-0.1h-0.1c0,0,0,0-0.1,0l0,0l0,0c0,0,0,0-0.1,0l0,0c-0.1,0-0.1,0-0.2,0l0,0c0,0,0,0-0.1,0
		c0,0.3,0,0.3-0.1,0.3s-0.1,0-0.2-0.1c-0.1,0-0.2-0.1-0.3-0.1c0,0,0,0-0.1,0l0,0l0,0h-0.1c0,0,0,0-0.1,0c-0.2-0.1-0.4-0.1-0.5-0.2
		c-0.1,0-0.2-0.1-0.2-0.1l0,0c0,0-0.1,0-0.1-0.1c-0.1-0.1-0.3-0.1-0.4-0.2c-0.2-0.1-0.4-0.2-0.6-0.2c-0.1,0-0.1-0.1-0.2-0.1
		s-0.1,0-0.2-0.1c-0.1,0-0.1-0.1-0.2-0.1s-0.1-0.1-0.2-0.1s-0.2-0.1-0.2-0.1s-0.1,0-0.1-0.1c-0.1,0-0.1-0.1-0.2-0.1
		s-0.1-0.1-0.2-0.1c-0.1-0.1-0.2-0.1-0.4-0.2c-0.1,0-0.1-0.1-0.2-0.1C27,62,27,62,26.9,62s-0.1-0.1-0.2-0.1c0,0-0.1,0-0.1-0.1
		c0,0-0.1,0-0.1-0.1c-0.1,0-0.2-0.1-0.2-0.1c-0.1,0-0.2-0.1-0.2-0.1c-0.2-0.1-0.4-0.2-0.5-0.3s-0.2-0.1-0.2-0.2l0,0
		c-0.1,0-0.2-0.1-0.2-0.1c-0.2-0.1-0.4-0.3-0.6-0.4c-0.1-0.1-0.2-0.1-0.2-0.2l0,0c-0.1,0-0.1-0.1-0.2-0.1c-0.2-0.1-0.3-0.2-0.5-0.3
		c-0.1,0-0.1-0.1-0.2-0.1s-0.1-0.1-0.2-0.1c-0.1-0.1-0.2-0.2-0.3-0.3l-0.1-0.1c-0.1-0.1-0.2-0.1-0.2-0.2c-0.1-0.1-0.1-0.1-0.2-0.2
		c-0.1-0.1-0.1-0.1-0.2-0.2l0,0c-0.1-0.1-0.1-0.1-0.2-0.2c0,0,0,0-0.1-0.1l-0.1-0.1l-0.1-0.1c-0.1-0.1-0.1-0.1-0.2-0.2
		c-0.2-0.1-0.3-0.3-0.5-0.4c-0.1-0.1-0.3-0.3-0.4-0.5c-0.1-0.1-0.1-0.2-0.2-0.2c-0.1-0.1-0.2-0.3-0.3-0.4l-0.1-0.1
		c-0.1-0.1-0.1-0.2-0.2-0.2c-0.1-0.1-0.1-0.1-0.2-0.2c0-0.1-0.1-0.1-0.1-0.2l-0.1-0.1l0,0c0-0.1-0.1-0.1-0.1-0.2l0,0
		c-0.1-0.1-0.1-0.2-0.2-0.2c-0.1-0.1-0.1-0.2-0.2-0.2l0,0c-0.1-0.1-0.1-0.2-0.2-0.2c-0.1-0.1-0.1-0.2-0.2-0.3s-0.1-0.2-0.2-0.3
		s-0.1-0.2-0.2-0.3s-0.1-0.2-0.2-0.3s-0.1-0.2-0.2-0.3s-0.1-0.2-0.2-0.3s-0.1-0.2-0.2-0.3s-0.2-0.3-0.2-0.4
		c-0.1-0.1-0.1-0.2-0.2-0.3l0,0c0-0.1-0.1-0.1-0.1-0.2c0-0.1-0.1-0.1-0.1-0.2c0,0,0,0,0-0.1c-0.1-0.2-0.2-0.3-0.3-0.5
		c0,0,0-0.1-0.1-0.1c-0.1-0.1-0.1-0.3-0.2-0.4c0-0.1-0.1-0.1-0.1-0.2c0-0.1-0.1-0.2-0.1-0.2l0,0c0-0.1-0.1-0.1-0.1-0.2v-0.1v-0.1
		c-0.1-0.2-0.2-0.5-0.3-0.7c-1.2-2.7-1.8-5.6-2-8.6v-0.1v-0.1l0,0l0,0l0,0l0,0v-0.1l0,0l0,0l0,0c0-0.1,0-0.1,0-0.2l0,0l0,0
		c0-0.1,0-0.1,0-0.2c0-0.2,0-0.4,0-0.6c0-3.5,0.7-6.9,2-10.1c1.3-3.1,3.2-5.8,5.6-8.2s5.1-4.2,8.2-5.6c3.2-1.3,6.6-2,10.1-2
		s6.9,0.7,10.1,2c3.1,1.3,5.8,3.2,8.2,5.6s4.2,5.1,5.6,8.2c1.3,3.2,2,6.6,2,10.1C65,39.3,65,39.3,65,39.4z"/>
	<path class="st4" d="M28.8,73.5c0.1,0,0.2,0.1,0.3,0.1l0,0C29,73.5,28.9,73.5,28.8,73.5z"/>
	<path class="st4" d="M38.7,75.3L38.7,75.3L38.7,75.3L38.7,75.3C38.6,75.3,38.6,75.3,38.7,75.3z"/>
	<path class="st5" d="M65,39.2c0,0.5,0,1,0,1.5c-0.2,3-0.8,5.9-2,8.6c-1.3,3.1-3.2,5.8-5.6,8.2s-5.1,4.2-8.2,5.6
		c-0.2,0.1-0.4,0.2-0.6,0.2c-0.1,0-0.2,0.1-0.3,0.1c-2.9,1.1-6,1.7-9.1,1.7h-0.1c-0.1,0-0.2,0-0.3,0c-3.2,0-6.3-0.6-9.2-1.8
		c-0.2-0.1-0.4-0.2-0.6-0.2c-3.1-1.3-5.8-3.2-8.2-5.6c-2.4-2.4-4.2-5.1-5.6-8.2c-1.2-2.7-1.8-5.6-2-8.6c0-0.5,0-1,0-1.5
		c0-3.5,0.7-6.9,2-10.1c1.3-3.1,3.2-5.8,5.6-8.2s5.1-4.2,8.2-5.6c3.2-1.3,6.6-2,10.1-2s6.9,0.7,10.1,2c3.1,1.3,5.8,3.2,8.2,5.6
		s4.2,5.1,5.6,8.2C64.4,32.3,65,35.7,65,39.2z"/>
	<path class="st6" d="M30.2,47.9c0,0,0.2,0,0.5,0s1.3,0,0.9-0.1c0.8,0.1,1.4,0.1,0.5,0c0.9,0.2,1.2,0.2,0.6,0c0.7,0.2,0.7,0.2,0.6,0
		c0.1,0.2,0.1,0.2,0.4,0c-0.3,0.2-0.2,0.2,0.4,0c-0.7,0.2-0.5,0.2,0.4,0.1c-0.9,0.1-0.5,0.1,0.4,0c-0.7,0.1,0.1,0,0.4,0
		c-0.2,0-0.1,0,0,0s0.5,0,0.5,0c0.4,0,1.1,0.1,0.6,0c0.5,0.1,1,0.2,0.4,0c0.7,0.2,1,0.4,0.8,0.2c0.3,0.2,0.4,0.2,0.8,0.1
		C38,48.1,38.2,48.1,39,48c-0.6,0.1,0,0,0.6-0.1c-0.5,0.1-0.1,0,0.2,0c-0.3,0,0.5,0,0.4,0c0.1,0,0.5,0.1,0.2,0c0.4,0.1,1,0.3,0.4,0
		c0.6,0.2,0.9,0.3,0.3,0c0.6,0.3,0.9,0.4,0.5,0c0.4,0.4,0.5,0.5,0.3,0c0.2,0.4,0.3,0.4,0.4,0c-0.1,0.4,0.1,0.4,0.8,0
		c-0.4,0.4,0.3,0.2,0.7,0c-0.4,0.2,0.3,0,0.6,0s0.6,0,0.6,0h0.6h0.8l0.8-0.1l1.3,0.3L49,48l-2.1,0.3h-0.2h-1.5c0,0-0.2,0-0.3,0.1
		c-0.2,0-0.3,0.1-0.3,0.1s-0.5,0-0.4,0c-0.5,0-1,0-0.4,0c-0.6,0-1.2,0.1-0.6,0c-0.7,0.1-0.8,0.1-0.4,0.1c-0.5,0-0.5,0-0.3,0.1
		c-0.2,0-0.3,0-0.5-0.1c0.2,0-0.2,0-1-0.1c0.6,0.1-0.1,0-0.5-0.1c0.2,0,0.1,0,0,0c-0.2,0-0.7,0-0.5,0c-0.5,0-1.2-0.1-0.6,0
		c-0.7-0.1-1-0.1-0.4,0c-0.7-0.1-0.9-0.1-0.4,0c-0.5-0.1-0.5-0.1-0.4,0c-0.2-0.1-0.2-0.1-0.4,0c0.2-0.2,0-0.1-0.6,0.1
		c0.6-0.2,0.3-0.2-0.5,0c0.5-0.2-0.1-0.1-0.5,0c0.4-0.1-0.5,0-0.5,0s-0.3-0.1-0.5-0.1s-0.4-0.1-0.1,0c-0.8-0.2-1.5-0.4-0.6-0.1
		c-0.9-0.3-1-0.3-0.3,0c-0.7-0.3-0.7-0.4-0.4,0c-0.3-0.4-0.3-0.4-0.4,0c0.1-0.3,0.1-0.3-0.3,0c0.4-0.3,0.3-0.3-0.6-0.1
		c0.8-0.2,0.2-0.2-0.6-0.1c0.8-0.1,0.7,0,0,0.1c0.7-0.1-0.1,0.1-0.4,0.1c0.2,0-0.2,0-0.3,0s-0.3,0-0.3,0L30,48.1h-0.6
		c0,0-0.1-0.1-0.2-0.1s-0.5-0.2-0.5-0.2l-0.3-0.4L30.2,47.9z"/>
	<path class="st6" d="M29.8,49.2l1.4-0.1h1.2l1.5-0.1l1.9,0.2h0.3l-1.3-0.4h-0.1h-1L33,48.7c0,0,0.1,0-0.7,0.1c-0.8,0.2-1.4,0-1.7,0
		c-0.2,0-0.8,0-0.8,0L29.6,49v0.5L29.8,49.2z"/>
	<path class="st6" d="M32.5,50.7c-0.4,0.6-0.2,0.5,0.5,0.2c-0.4,0.4,0,0.3,0.5,0.2c-0.4,0.2,0.4,0,0.5,0c-0.1,0,0.3,0.1,0.3,0.1h0.4
		c0,0,0.1-0.2,0.3,0s0.2,0.1,0.4,0.1c0.1,0,0.6,0,0.6,0h0.5c0,0,0.2-0.1,0.1-0.1c0.1,0,0.5,0.2,0.3,0.2c0.2,0,0.7-0.1,0.4-0.1
		c0.6-0.1,0.9-0.1,0.4-0.1c0.5-0.1,0.9-0.1,0.5-0.1c0.3,0,0.4-0.1,0.2-0.1c0.2,0.1,0.3,0.1,0.4,0.1c-0.1,0,0,0,0.4,0
		c-0.4,0-0.2-0.1,0.3-0.1c-0.5,0.1-0.3,0.1,0.2,0c-0.5,0.1-0.3,0,0.3,0c-0.4,0,0,0,0.3,0c-0.3,0-0.1-0.2,0.1-0.2
		c-0.2,0,0.1,0.2,0.2,0.2c-0.1,0,0.2,0,0.4-0.1c0.2,0,0.5-0.1,0.4-0.1c0.1,0,0.1,0.2,0,0.1c0.1,0,1.2,0.3,0.5,0.2
		c0.7,0.1,1,0.2,0.2,0c0.8,0.2,1,0.2,0.2,0c0.8,0.3,1.1,0.4,0.5,0.2c0.5,0.1,0.5,0.1,0.2-0.2c0.4,0.3,0.4,0.3,0.3-0.2
		c0.1,0.5,0.2,0.5,0.5,0c-0.3,0.5-0.2,0.4,0.6,0c-0.7,0.4-0.3,0.3,0.5,0c-0.7,0.3-0.4,0.2,0.2,0c-0.6,0.2,0,0.1,0.4,0
		c0,0.1,0.4,0,0.4,0s-0.2,0.1,0.1,0c0.2-0.1,0.3-0.2,0.4-0.2c0.1-0.1,0.2-0.1,0.2-0.1c0.1,0-1,0,0.3,0s1.8,0,1.8,0H49l-2,0.7
		c0,0-0.3,0-0.6,0.1c-0.3,0-1.3,0.1-1.1,0.2c-0.7,0-1.5,0-0.7,0.1c-0.8-0.2-1-0.2-0.5,0.1c-0.6-0.3-0.6-0.3-0.4,0
		c-0.3-0.4-0.3-0.3-0.5,0.2c0.2-0.5,0.1-0.5-0.4-0.1c0.5-0.4,0.4-0.4-0.5,0c0.7-0.3,0.2-0.2-0.5,0c0.7-0.2,0.2-0.1-0.3,0
		c0.3-0.1-0.4,0-0.6-0.1c-0.2,0-0.3,0-0.4,0c-0.1,0-0.2,0-0.2,0c-0.1,0-0.5-0.1-0.4,0c-0.4-0.1-0.7-0.2-0.3,0
		c-0.4-0.2-0.6-0.3-0.3,0.1c-0.5-0.3-0.6-0.4-0.3,0.1c-0.3-0.5-0.4-0.5-0.2,0c-0.2-0.5-0.3-0.5-0.2,0c-0.1-0.5-0.2-0.5-0.4,0.1
		c0-0.5-0.2-0.4-0.6-0.1c0.3-0.4-0.1-0.3-0.5-0.1c0.2-0.2-0.2-0.1-0.4,0c0.2-0.1-0.3-0.2-0.4-0.2c0,0-0.2,0-0.4,0s-0.4,0-0.4,0
		s-0.4,0.1-0.7,0.1c-0.4,0.1-0.7,0.1-0.7,0.1s0.5,0-0.2,0c-0.5,0-1.3-0.1-0.8,0.1c-0.6,0-0.8,0-0.1,0.2c-0.6-0.3-0.9-0.3-0.7,0.2
		c-0.4-0.5-0.6-0.4-1,0.2c0.2-0.6,0-0.4-0.5,0c0.5-0.4,0.8-0.8,0.3-0.7c0.6-0.3,0.7-0.3,0.3-0.7c0.4,0.3,0.4,0.3,0.6-0.3
		C31.9,51.6,32.1,51.3,32.5,50.7z"/>
	<path class="st6" d="M33.6,52.7h1.3H36h0.1c0,0,0.4,0.2,0.5,0.2s0.7-0.2,0.7-0.2l0.4,0.1l1.1-0.1c0,0,0.1,0,0.4,0
		c0.3,0-0.2,0.1,0.4,0c0.8,0.1,1.6,0.3,0.6-0.1c1.1,0.3,1.2,0.4,0.2,0.1c1,0.3,1.1,0.3,0.5,0.1c0.6,0.2,0.7,0.3,0.5-0.1
		c0.1,0.4,0.2,0.4,0.3,0c-0.1,0.4-0.1,0.4,0.3,0c-0.4,0.4-0.4,0.4,0.3,0c-0.7,0.4-0.6,0.3,0.4,0c-1,0.3-0.6,0.2,0.4,0
		c-1,0.2-0.1,0.2,0.5,0c-0.3,0,0.2-0.1,0.3-0.2c0.1-0.1,0.2-0.1,0.2-0.1c0.1,0,0.4,0.2,0.7,0.2c0.3,0.1,0.6,0.2,0.8,0.1
		c0.1,0.1,0.4,0,0.6,0c0.2,0,0.3,0,0.3,0h1.4c0,0-0.2,0-0.4,0.1c-0.3,0-0.6,0.1-1,0.2c-0.4,0.1-1.1,0.8-1.2,0.2
		c-0.3,0.7-0.6,0.6-1,0.2c0.1,0.3,0,0.3-0.1,0.3s-0.6-0.2-0.3-0.3c-0.2,0.1-0.4,0-0.1,0.1c-0.5-0.1-1.4-0.3-0.5,0
		c-1-0.2-1.4-0.3-0.4,0.2c-1-0.4-1-0.4-0.1-0.1c-0.9-0.4-0.9-0.4-0.3,0.4c-0.6-0.7-0.7-0.8-0.4-0.4c-0.3-0.4-0.3-0.4-0.4,0.4
		c0.1-0.8,0.1-0.8-0.3-0.4c0.4-0.4,0.4-0.4-0.1,0.1c0.5-0.5,0.5-0.5-0.5-0.2c0.9-0.3,0.6-0.2-0.4-0.1c1-0.1,0.7-0.1-0.2,0
		c0.9-0.1-0.2,0-0.5,0c-0.2,0-0.5,0-0.5,0s-0.3,0.1-0.5,0.2c-0.2,0.1-0.5,0.3-0.4,0.2c0,0.1-0.1,0-0.2,0c-0.1,0-0.3-0.1-0.5-0.1
		s-0.3-0.1-0.5-0.1c-0.1,0-0.2,0-0.2-0.1c0,0-0.1,0-0.3,0c-0.1,0-0.3,0.1-0.3,0c-0.1,0.1-0.2,0.3-0.3,0.1c-0.1,0.3-0.2,0.4-0.3,0.1
		c0,0.3-0.1,0.1-0.2,0c-0.1,0.1-0.2,0-0.4,0c-0.3,0-0.5,0-0.5,0s0.1,0-0.3,0c-0.4,0-0.6,0-0.6,0l0.3-0.5l0.4-0.1L33.6,52.7z"/>
	<path class="st7" d="M65,39.8c0,0.3,0,0.5,0,0.8c-0.2,3-0.8,5.9-2,8.6c-1.3,3.1-3.2,5.8-5.6,8.2s-5.1,4.2-8.2,5.6
		c-0.2,0.1-0.4,0.2-0.6,0.2c-0.1,0-0.2,0.1-0.3,0.1c-2.7,1-5.5,1.6-8.3,1.7C42.5,52.4,52.4,42.4,65,39.8z"/>
	<path class="st8" d="M66,40.7L66,40.7"/>
	<path class="st8" d="M12.4,40.7C12.4,40.7,12.3,40.7,12.4,40.7"/>
	<path class="st7" d="M38.9,65c-3.2,0-6.3-0.6-9.2-1.8c-0.2-0.1-0.4-0.2-0.6-0.2c-3.1-1.3-5.8-3.2-8.2-5.6c-2.4-2.4-4.2-5.1-5.6-8.2
		c-1.2-2.7-1.8-5.6-2-8.6c0-0.3,0-0.6,0-0.9C26.2,42.1,36.4,52.2,38.9,65z"/>
	<g>
		<path class="st3" d="M19.8,56.9v-8.5c0,0-0.1-1.6,1.9-1.7c0,0,1-1.9,2.9,0c0,0,1.3-0.1,1.4,1.4v2h-2.3v-0.5c0-0.2-0.2-0.4-0.4-0.4
			h-0.9c-0.2,0-0.4,0.2-0.4,0.4v9L19.8,56.9z"/>
		<g>
			<polygon class="st9" points="22.8,57.1 23.7,50.2 24.9,50.2 23.9,57.5 			"/>
			<polygon class="st10" points="25.8,57.9 26.9,57.9 26.1,50.2 25.1,50.2 			"/>
			<polygon class="st11" points="23.9,57.5 25.8,57.9 25.1,50.2 24.9,50.2 			"/>
		</g>
		<rect x="23.7" y="50.1" class="st12" width="2.4" height="0.1"/>
	</g>
	<path class="st13" d="M35.6,51.7l0.4,0.1l0.1,0.3v0.2v0.1L36,52.7l-0.3,0.1L35.6,53l-0.1,0.1c0,0,0,0.1,0,0.2s0,0.3,0,0.3l0.3,0.2
		H36l0.1,0.1V54v0.1c0,0,0,0.1,0,0.2s0,0.1,0,0.1h0.4h0.4v0.1c0,0,0,0.1,0,0.2s0,0.2,0,0.2h0.2h0.3l0.1,0.1h0.2l0.2,0.1l0.1,0.4h0.4
		c0,0,0.5,0,0.6,0s0.4-0.1,0.4-0.1l0.1-0.1l0.3,0.4v0.2h0.3l1,0.1l0.6-0.5l0.4-0.1v-0.3l0.4-0.1l0.1-0.4l0.3-0.1l0.1-0.4V54
		l-0.2-0.2c0,0,0-0.2,0-0.3s0-0.2,0-0.2L42.2,53l-2.6-1.2c0,0-1.1-0.9-0.7-1.8s1.7-1.3,1.6-1.9l-0.1-0.9l0.5-0.1l0.4-0.7l0.2-0.6
		l0.1-0.2c0,0,0.1,0,0.2,0s0.4-0.1,0.4-0.1V45l0.1-0.3l0.4-0.3l0.1-0.7l0.3-0.3l0.3-0.6l-0.1-0.3l0.3-0.3v-0.8c0,0-1.4,2.6-2.9,3.6
		l-0.8,0.2l-0.2,0.6l-0.1,0.3H39c0,0-0.1-0.1-0.1-0.2s0-0.3,0-0.3v-0.4v-0.1h-0.4l-0.3,0.1l0.2-0.6l-1,0.1l0.1-0.6h-0.3l0.1-0.6
		c0,0-1.4,0.3-1.8,0.7c0,0-0.4-1.4,0.1-1.9c0,0-1.4,0.4-1.6,1.5l-0.4,1.3l-0.1,1.1V47l0.4,0.3l0.3,0.3l0.1,0.1V48h-0.6
		c-0.4,0-0.7,0.3-0.7,0.7v0.4l0-0.1c0.1,0,0.1-0.1,0.2-0.1c0.1,0,0.3,0,0.5,0.2c0.2,0.3,0.4,0.5,0.4,0.5v0.3h0.2l0.1,0.3l0.1,0.2
		l-0.1,0.2l0.3,0.1l0.6,0.2L35.1,51l0.1,0.6l0.3,0.1L35.6,51.7z"/>
	<g>
		
			<linearGradient id="SVGID_1_" gradientUnits="userSpaceOnUse" x1="38.512" y1="66.6811" x2="38.7279" y2="66.4412" gradientTransform="matrix(1 0 0 -1 0 80)">
			<stop  offset="0" style="stop-color:#E9F0F0"/>
			<stop  offset="0" style="stop-color:#A93124"/>
			<stop  offset="1" style="stop-color:#8F281D"/>
		</linearGradient>
		<path class="st14" d="M38.4,14L38.4,14c0-0.1,0-0.1-0.1-0.2c-0.1-0.1-0.2-0.1-0.3-0.1l0.7-0.6c0,0,0.4-0.3,0.5,0.1L38.4,14z"/>
		<g>
			<path class="st15" d="M39.3,29.4c-0.3-0.5-0.2-2.1-0.2-2.1c0.3-1.2,1.6-1.8,2.4-1.9c0.8-0.1,0.6,0.4,0.6,0.4l-0.2,0.4
				c-0.2,0.6,0.3,0.9,0.5,1.1c0.3,0.2,0.8,0,1.1-0.6c0.4-0.6-0.5-1.3-0.5-1.3s-0.6-0.5-1.9-0.4c-1.3,0.1-2.4,1.9-2.4,1.9l-0.2-3.4
				L38,23.6l0.1,3.1l-0.5-0.6c-0.9-1.1-2.4-1.3-2.4-1.3s-1.5-0.3-1.6,1s1.3,1,1.6,0.9s0.6-1.1,0.6-1.1s1.7,0.7,2,1.9
				c0.3,1.2-0.2,2.3-0.2,2.3l-0.3,1.3c0,0,1.4,0.4,1.5,0.4s1.2-0.3,1.2-0.3L39.3,29.4z"/>
			<path class="st0" d="M42.5,17.9l-1.1,5.6l-2.1,0.6h-0.1l-0.5,0.1l-0.3,0.1h-0.1l-2.8-0.6l-0.8-0.2l-0.9-5.6c0,0,0.3-0.1,0.7-0.3
				l0,0c0.8-0.4,2.3-1.2,3.7-2.4c0,0,0.5,0.4,1.3,0.9C40.4,16.9,41.9,17.8,42.5,17.9z"/>
			
				<linearGradient id="SVGID_2_" gradientUnits="userSpaceOnUse" x1="36.2126" y1="64.2054" x2="35.9086" y2="64.6293" gradientTransform="matrix(1 0 0 -1 0 80)">
				<stop  offset="0" style="stop-color:#E9F0F0"/>
				<stop  offset="1.198083e-07" style="stop-color:#C2C1C1"/>
				<stop  offset="0.1473" style="stop-color:#CECECD"/>
				<stop  offset="0.3799" style="stop-color:#DDDCDC"/>
				<stop  offset="0.6432" style="stop-color:#E6E5E5"/>
				<stop  offset="1" style="stop-color:#E9E8E8"/>
			</linearGradient>
			<path class="st16" d="M38.4,14L38.4,14L38.4,14c0,0.1-0.1,0.2-0.1,0.2s0,0-0.1,0.1c-0.5,0.4-1.7,1.4-2.6,1.9
				c-1.3,0.7-1.8,1.1-2,0.9c0,0-0.2-0.2,0-0.4c0.1-0.1,0.2-0.1,0.3-0.2c0,0,1.8-0.5,4-2.6l0.1-0.1l0,0c0.1,0,0.2,0,0.3,0.1
				C38.4,13.8,38.4,13.9,38.4,14z"/>
			
				<linearGradient id="SVGID_3_" gradientUnits="userSpaceOnUse" x1="38.2616" y1="64.3965" x2="43.1203" y2="64.3965" gradientTransform="matrix(1 0 0 -1 0 80)">
				<stop  offset="0" style="stop-color:#E9F0F0"/>
				<stop  offset="1.198083e-07" style="stop-color:#C2C1C1"/>
				<stop  offset="1" style="stop-color:#E9E8E8"/>
			</linearGradient>
			<path class="st17" d="M43,17.3c-0.3,0.2-0.8-0.2-2-0.9c-1-0.5-2.2-1.6-2.7-2c-0.1,0-0.1-0.1-0.1-0.2v-0.1c0,0,0-0.1,0.1-0.1
				c0,0,0,0,0.1-0.1s0.2,0,0.3,0c2.2,2.1,4,2.6,4,2.6C43.4,16.9,43,17.3,43,17.3z"/>
			<polygon class="st18" points="43.7,17.8 42.5,22.7 41.4,23.5 42.5,17.9 			"/>
			<path class="st15" d="M46,16.9c0.2,0.3,0.2,0.7,0,0.9c-0.2,0.2-0.5,0.5-0.9,0.6c-0.7,0.1-1.4-0.6-1.4-0.6l-1.2,0.1
				c-0.6-0.1-2-1.1-3.1-1.8c-0.7-0.5-1.3-0.9-1.3-0.9c-1.5,1.2-2.9,2-3.7,2.4l0,0c-0.4,0.2-0.7,0.3-0.7,0.3s-0.3,0.3-0.8,0.3
				s-0.8-0.4-0.7-1.1c0.1-0.8,1.4-0.5,1.4-0.5c-0.2,0.2,0,0.4,0,0.4c0.3,0.2,0.8-0.2,2-0.9c1-0.5,2.1-1.5,2.6-1.9v0.1
				c0,0.1,0,0.1,0.1,0.2c0.5,0.4,1.7,1.4,2.7,2c1.3,0.7,1.8,1.1,2,0.9c0,0,0.3-0.4-0.3-0.6c0,0-1.8-0.5-4-2.6
				c-0.1-0.1-0.2-0.1-0.3,0v-0.1l0.9-0.8l3.2,2.1l2.6,1.4C45.6,16.6,45.8,16.7,46,16.9z"/>
			<line class="st19" x1="38.1" y1="15.2" x2="38.3" y2="24.3"/>
			<line class="st20" x1="39.3" y1="24.1" x2="39.4" y2="16.1"/>
			<line class="st21" x1="35.4" y1="23.7" x2="34.3" y2="17.6"/>
		</g>
	</g>
	<g>
		
			<linearGradient id="SVGID_4_" gradientUnits="userSpaceOnUse" x1="51.7794" y1="28.272" x2="54.962" y2="24.859" gradientTransform="matrix(1 0 0 -1 0 80)">
			<stop  offset="0" style="stop-color:#B98E32"/>
			<stop  offset="0.7241" style="stop-color:#E0B53A"/>
			<stop  offset="1" style="stop-color:#E0B53A"/>
		</linearGradient>
		<path class="st22" d="M60.5,47.5L49.5,58c0,0-0.4,0.1,0.1,0.8s0.1,1.1,0.1,1.1s-2.8,2.9-4.1,3.1c-1.3,0.2-3-2.1-3-2.1
			c-0.1-0.5,0.3-0.8,0.3-0.8l0.2-0.2l2.7-2.5l0,0l0.5-0.4c0.8-0.7,1.4,0.1,1.4,0.1c0.6,0.3,1.1-0.2,1.1-0.2l10.4-10.6l0,0l0,0l0,0
			c0-1.6,0.4-1.9,0.9-2.3l0,0c0.1-0.1,0.2-0.2,0.3-0.3c0.6-0.8,1-0.4,1-0.4l1.9,1.7C63.7,46.6,60.5,47.5,60.5,47.5z"/>
		
			<radialGradient id="SVGID_5_" cx="45.1208" cy="20.1733" r="2.9289" gradientTransform="matrix(1 0 0 -1 0 80)" gradientUnits="userSpaceOnUse">
			<stop  offset="0" style="stop-color:#F9F9FA"/>
			<stop  offset="0.5553" style="stop-color:#FFFFFF"/>
			<stop  offset="1" style="stop-color:#FFFFFF;stop-opacity:0"/>
		</radialGradient>
		<path class="st23" d="M48.2,59.3c0,0-0.2,0.2-0.2,0.3s-0.2,0.1-0.3,0.1s-0.2,0.1-0.2,0.1l-0.1,0.1l-0.2,0.3l-0.1,0.2L47,60.5
			l-0.2,0.1l-0.2,0.1l-0.2,0.2h-0.2L46.1,61l0.1,0l-0.1,0.1H46v0.1h-0.1v0.1l-0.2,0.1l-0.1,0.1l-0.1,0.1v0.1l-0.4,0.1L45,61.9
			l-0.2-0.1l-0.1,0.1l-0.1-0.1c0,0-0.1,0.1-0.2,0.1s0-0.1,0-0.1h-0.1v-0.1l-0.1,0.1v-0.1H44l0.1-0.1h-0.2c0,0-0.1-0.1,0-0.2
			c0.1-0.1-0.2,0-0.2,0l0.1-0.1h-0.1l0.1-0.1h-0.1V61h-0.1v-0.2h-0.1v-0.1l-0.1-0.1v-0.1l-0.1-0.1v-0.3h-0.1l0.1-0.1v0l0.1-0.2
			l2.7-2.5l0,0h0.1l0.1-0.1l0.4,0.2l0.2,0.1h0.3l0.1,0.4L47,58.1l-0.1,0.1l-0.2,0.1l-0.1,0.1l-0.3,0.2l-0.2,0.2L46,59.2v0.4h0.1
			l0.2-0.1l0.3-0.1l0.1-0.1l0.3-0.2l0.1-0.1l0.1-0.1v-0.1h0.2l0.1-0.2l0.3-0.1l0.1-0.1H48l0.1,0.2l0.1,0.2l0.1,0.3L48.2,59.3z"/>
		<path class="st24" d="M61.3,45.4c0,0-1,1.5-2.1,1.1l0,0c0-1.6,0.4-1.9,0.9-2.3l0,0L61.3,45.4z"/>
	</g>
	<g>
		<path class="st25" d="M41.6,29.6C40,30.4,40,31.4,40,31.4V38c-0.4,0.1-0.7,0.2-1,0.4v-7.8C39,30.7,39.6,29.7,41.6,29.6z"/>
		<line class="st26" x1="50" y1="38.8" x2="50" y2="38.8"/>
		<path class="st27" d="M50.2,39c-0.1,0.4-0.5,0.5-1,0.6c-0.6,0.1-3.4-0.6-6.3-0.8c-2.5-0.2-3.5,0.6-3.8,0.9v-0.6
			c0.3-0.3,1.3-1,3.9-0.7c3.4,0.3,5.4,0.9,6.3,0.9c0.8,0,0.8-0.5,0.8-0.5c0.1,0,0.2,0,0.2-0.1C50.2,38.8,50.2,39,50.2,39z"/>
		<path class="st28" d="M50.1,39.5c-0.1,0.3-0.6,0.4-1,0.5c-0.6,0.1-3.4-0.6-6.3-0.8c-2.5-0.2-3.5,0.6-3.8,0.9v-0.3
			c0.3-0.3,1.4-1.1,3.8-0.9c3,0.3,5.8,0.9,6.3,0.8c0.5-0.1,0.9-0.2,1-0.6C50.2,39.2,50.2,39.4,50.1,39.5z"/>
		<path class="st26" d="M50.2,39L50.2,39"/>
		<path class="st29" d="M39,34.5v3.9l-1-0.1v-8c0.6,0.2,1,0.3,1,0.3V34.5z"/>
		<path class="st30" d="M38,30.3v8h-0.2c-1.1-0.3-2.2-0.5-3.3-0.8c-0.9-0.3-1.9-0.6-2.3-1.6c-0.1-0.2-0.1-0.5-0.2-0.6
			c-0.1-0.1-0.4-0.1-0.6-0.1s-0.4-0.1-0.5-0.1l0,0c-0.7-0.5-1.2-1.3-1.2-2.1c0-1,0.4-2.1,0.7-3.1c1.3,0.1,3.3,0.1,4.4,0
			C35.8,29.7,37.1,30,38,30.3z"/>
		
			<linearGradient id="SVGID_6_" gradientUnits="userSpaceOnUse" x1="43.4" y1="40.4997" x2="43.4" y2="39.278" gradientTransform="matrix(1 0 0 -1 0 80)">
			<stop  offset="0" style="stop-color:#F3F3F3"/>
			<stop  offset="0.3165" style="stop-color:#F1F0EF"/>
			<stop  offset="0.4555" style="stop-color:#ECE6E4"/>
			<stop  offset="0.5597" style="stop-color:#E4D9D3"/>
			<stop  offset="0.6466" style="stop-color:#DBC7BD"/>
			<stop  offset="0.7228" style="stop-color:#D0B1A3"/>
			<stop  offset="0.7914" style="stop-color:#C29886"/>
			<stop  offset="0.8543" style="stop-color:#B37D68"/>
			<stop  offset="0.9128" style="stop-color:#A3624B"/>
			<stop  offset="0.9657" style="stop-color:#92452E"/>
			<stop  offset="1" style="stop-color:#862F1D"/>
		</linearGradient>
		<path class="st31" d="M47.8,40.2L39,40.7v-0.3c0.3-0.3,1.4-1.1,3.8-0.9C44.7,39.7,46.6,40,47.8,40.2z"/>
		<path class="st32" d="M49.9,40.1L49.9,40.1c-0.2,0.1-0.5,0.2-0.8,0.2c-0.2,0-0.7,0-1.4-0.1l0,0c-1.2-0.2-3.1-0.5-5-0.7
			c-2.5-0.2-3.5,0.6-3.8,0.9V40c0.3-0.3,1.4-1.1,3.8-0.9c3,0.3,5.8,0.9,6.3,0.8c0.4-0.1,0.8-0.2,1-0.5C50.2,39.8,50.1,40,49.9,40.1z
			"/>
		<path class="st33" d="M50.1,39.5c0.1-0.1,0.1-0.3,0-0.5c0-0.1,0-0.2,0-0.3l0,0c0.1-0.1,0-0.3,0-0.3L48,29.9l1.2-0.1l0.1,0.2
			l3.1,9.9L50,40C50.1,40,50.2,39.8,50.1,39.5z"/>
		<line class="st26" x1="48" y1="29.9" x2="48" y2="29.9"/>
		<path class="st34" d="M33.1,38.1c-0.4,0.1-0.8,0.1-1.1,0.2c0,0,0,0-0.1,0l0,0c0,0,0,0-0.1,0c-0.7,0.1-4,0.5-4.8-0.7
			c-0.4-0.7-0.6-1.5-0.6-2.1l0,0l2-5.3l0.5-0.3c0,0,0,0,0.1,0c-0.1,0.3-0.1,0.6-0.2,0.9l0,0c0,0.1-0.1,0.2-0.1,0.3
			c-0.1,0.4-0.2,0.8-0.2,1.2l0,0v0.1l0,0l-0.3,1c0,0-0.4,1.1-0.7,1.9c-0.3,0.8-0.3,1.8,0.2,2.4s2,0.3,3.9,0.4
			C32.1,37.9,32.6,38,33.1,38.1z"/>
		<path class="st35" d="M31.8,38.3c-1.7,0.3-3.3,0.5-4.6,0.2c-0.7-0.2-1.2-0.4-1.6-0.6l0.9-2.4c0,0.6,0.1,1.4,0.6,2.1
			C27.8,38.7,31.1,38.4,31.8,38.3z"/>
		<path class="st30" d="M38,40.3v0.4h-0.4l-12.7-0.4h-0.3l0.4-1.1v-0.1c0.1,0.1,0.2,0.1,0.3,0.2l0,0c1.2,0.4,3.3,0.8,5.7,0.7l0,0
			l0,0l0,0c1.2-0.2,2.4-0.4,3.6-0.5c0.8,0,1.5,0,1.9,0.1l0,0C37.7,39.9,38,40.3,38,40.3z"/>
		<path class="st36" d="M29.5,29.9l-0.8,2.4c0,0,0,0,0-0.1l0,0c0-0.4,0-0.8,0.2-1.2c0-0.1,0.1-0.2,0.1-0.3l0,0
			c0.1-0.3,0.1-0.5,0.2-0.9C29.2,29.8,29.3,29.8,29.5,29.9C29.4,29.8,29.4,29.9,29.5,29.9z"/>
		<path class="st28" d="M50,38.8c0,0,0,0.5-0.8,0.5s-2.9-0.6-6.3-0.9c-2.6-0.2-3.6,0.4-3.9,0.7v-0.7c0.2-0.2,0.6-0.3,1-0.4
			c1.7-0.4,4.7-0.2,7.5,0.4C48.9,38.8,49.6,38.8,50,38.8z"/>
		<line class="st37" x1="39" y1="40.8" x2="39" y2="40.7"/>
		<path class="st38" d="M38,38.3v0.4l0,0l0,0c-0.2-0.2-0.8-0.8-3-0.8l0,0c-1-0.3-2-0.5-2.6-0.7c-1.7-0.6-3-1.1-3.4-2.4
			c-0.2-0.8-0.4-1.3-0.3-2.4l0,0l0,0c0,0.6,0.2,1.3,0.5,1.8c0.3,0.6,1,0.8,1.6,1l0,0l0,0c0.2,0,0.4,0.1,0.5,0.1c0.2,0,0.4,0,0.6,0.1
			c0.2,0.1,0.2,0.5,0.2,0.6c0.4,0.9,1.4,1.3,2.3,1.6c1.1,0.3,2.2,0.5,3.3,0.8L38,38.3z"/>
		<path class="st26" d="M32.3,35.1"/>
		<path class="st39" d="M30.8,35.1L30.8,35.1c-0.7-0.1-1.3-0.4-1.7-1c-0.3-0.5-0.5-1.2-0.5-1.8l0,0l0.8-2.4c0.2,0,0.5,0,0.8,0
			c-0.4,1-0.7,2-0.7,3.1C29.6,33.7,30.1,34.6,30.8,35.1z"/>
		<path class="st40" d="M34.9,37.9c-0.1,0-0.1,0-0.2,0c-0.5,0-1.1,0.1-1.6,0.2c-0.5-0.1-1-0.1-1.4-0.2c-1.9-0.1-3.5,0.2-3.9-0.4
			s-0.5-1.6-0.2-2.4c0.3-0.8,0.7-1.9,0.7-1.9l0.3-1c-0.1,1.1,0.1,1.6,0.3,2.4c0.4,1.4,1.7,1.9,3.4,2.4C33,37.4,34,37.6,34.9,37.9z"
			/>
		
			<linearGradient id="SVGID_7_" gradientUnits="userSpaceOnUse" x1="31.6" y1="39.6627" x2="31.6" y2="41.1225" gradientTransform="matrix(1 0 0 -1 0 80)">
			<stop  offset="0" style="stop-color:#F3F3F3"/>
			<stop  offset="0.2468" style="stop-color:#E9E9E9"/>
			<stop  offset="0.6539" style="stop-color:#D2D1D1"/>
			<stop  offset="1" style="stop-color:#BBBBBB"/>
		</linearGradient>
		<path class="st41" d="M38,39.7v0.6c0,0-0.3-0.4-1.3-0.7l0,0c-0.5-0.1-1.1-0.2-1.9-0.1c-1.2,0.1-2.5,0.3-3.6,0.5l0,0l0,0l0,0
			c-2.4,0.1-4.5-0.3-5.7-0.7l0,0c-0.1-0.1-0.2-0.2-0.3-0.2V39v-0.1c1.3,0.4,4.3,1.2,7.6,0.6C36,38.9,37.5,39.5,38,39.7z"/>
		
			<linearGradient id="SVGID_8_" gradientUnits="userSpaceOnUse" x1="31.55" y1="40.2917" x2="31.55" y2="42.2365" gradientTransform="matrix(1 0 0 -1 0 80)">
			<stop  offset="0" style="stop-color:#F3F3F3"/>
			<stop  offset="0.2468" style="stop-color:#E9E9E9"/>
			<stop  offset="0.6539" style="stop-color:#D2D1D1"/>
			<stop  offset="1" style="stop-color:#BBBBBB"/>
		</linearGradient>
		<path class="st42" d="M38,38.7v1c-0.5-0.2-2-0.8-5.3-0.2s-6.3-0.2-7.6-0.6v-0.1v-0.1v-0.1v-0.1v-0.1v-0.1l0,0l0.1-0.2V38l0,0v-0.1
			v-0.1c0.4,0.2,0.9,0.5,1.6,0.6c1.3,0.4,2.9,0.1,4.6-0.2c0,0,0,0,0.1,0l0,0h0.1c0.4-0.1,0.8-0.1,1.1-0.2c0.5-0.1,1.1-0.1,1.6-0.2
			c0.1,0,0.1,0,0.2,0l0,0C37.1,37.8,37.8,38.5,38,38.7L38,38.7L38,38.7L38,38.7L38,38.7z"/>
		<line class="st26" x1="41.6" y1="29.6" x2="41.6" y2="29.6"/>
		<path class="st43" d="M53.3,40.5L39,41.2l-14.5-0.4l0.3-0.5l12.7,0.4H39l0,0l8.8-0.5l0,0c0.7,0.1,1.2,0.2,1.4,0.1
			c0.3-0.1,0.6-0.1,0.8-0.2l0,0l2.4-0.1l-1-3.4L50,32.5L49.2,30l0.4-0.2l0.9,2.7l1.4,4.1L53.3,40.5z"/>
		<path class="st44" d="M50.2,38.7L50.2,38.7c0,0-0.1,0.1-0.2,0.1c-0.3,0-1,0-2.5-0.3c-2.8-0.7-5.8-0.8-7.5-0.4v-6.6
			c0,0,0-1,1.6-1.8l0,0c0.5,0,1.1,0,1.8,0.2C46.8,30.6,48,30,48,30l0,0l0.7,2.7l1,4.1l0.5,1.8C50.2,38.4,50.3,38.6,50.2,38.7z"/>
		<path class="st29" d="M39,38.4l0.1,2.3h-0.2h-1v-2l0,0l0,0l0,0l0,0l0.1-0.4L39,38.4z"/>
		<path class="st45" d="M25.5,38c1.4,0.4,4.2,1.1,7.4,0.6c2.9-0.5,4.4-0.1,5,0.1"/>
		<path class="st45" d="M25.4,38.3c1.3,0.4,4.2,1.1,7.5,0.6c3-0.5,4.5-0.1,5.1,0.1"/>
		<path class="st45" d="M25.3,38.6c1.3,0.4,4.3,1.2,7.5,0.6c3.2-0.5,4.7-0.1,5.2,0.2"/>
		<path class="st46" d="M36.7,39.7c-0.9-0.1-2.1-0.2-4,0.2c-0.5,0.1-1,0.1-1.6,0.2l0,0"/>
	</g>
	<polygon class="st0" points="7,44.8 8.7,42.5 9.5,45.3 12.1,46.2 9.8,47.8 9.7,50.6 7.5,48.8 4.7,49.6 5.8,47 4.1,44.6 	"/>
	<polygon class="st0" points="69.4,44.8 71.1,42.5 71.9,45.3 74.5,46.2 72.2,47.8 72.1,50.6 69.9,48.8 67.1,49.6 68.2,47 66.5,44.6 
			"/>
</g>
</svg>
