<?xml version="1.0" encoding="utf-8"?>
<!-- Generator: Adobe Illustrator 24.0.0, SVG Export Plug-In . SVG Version: 6.00 Build 0)  -->
<svg version="1.1" id="Layer_1" xmlns="http://www.w3.org/2000/svg" xmlns:xlink="http://www.w3.org/1999/xlink" x="0px" y="0px"
	 viewBox="0 0 394.92 78.32" style="enable-background:new 0 0 394.92 78.32;" xml:space="preserve">
<style type="text/css">
	.st0{fill:#FFFFFF;}
	.st1{fill:#079558;}
	.st2{fill:#ECE95C;}
</style>
<g>
	<g>
		<path class="st0" d="M121.76,63.62h-8.73V60.5c-0.28-1.15-0.72-2.17-1.32-3.05c-0.6-0.88-1.31-1.6-2.11-2.18
			c-0.81-0.58-1.67-1.02-2.6-1.32c-0.92-0.3-1.83-0.45-2.7-0.45c-1.06,0-2.19,0.19-3.4,0.55h-8.73V32.78h8.73v12.2
			c0.88-0.14,1.89-0.21,3.05-0.21c3.23,0,6.26,0.79,9.08,2.36v-17.6c-0.32-0.18-0.65-0.28-0.97-0.28c-0.14,0-0.35,0.05-0.62,0.14
			v8.32h-8.73V25.78l0.69-0.83c0.32-0.37,0.75-0.81,1.28-1.32c0.53-0.51,1.16-0.99,1.9-1.46c0.74-0.46,1.55-0.85,2.45-1.18
			c0.9-0.32,1.88-0.49,2.94-0.49c1.98,0,3.85,0.53,5.63,1.59c1.77,1.06,3.16,2.66,4.18,4.78V63.62z"/>
		<path class="st0" d="M136.24,47.89V29.25h-13.17v-8.73h36.03v8.73h-14.14v8.66l0.96-0.07c2.34,0,4.41,0.74,6.2,2.22
			c1.79,1.48,2.96,3.42,3.51,5.82v14.07c-3.97,2.59-8.11,3.88-12.4,3.88c-3.33,0-6.53-0.69-9.6-2.08c-3.07-1.39-5.72-3.46-7.93-6.24
			V31.95h8.73v20.03c2.77,2.08,5.71,3.12,8.8,3.12c1.2,0,2.43-0.18,3.67-0.55V47.2c-0.36-0.37-0.71-0.55-1.07-0.55
			c-0.31,0-0.6,0.14-0.87,0.42v0.83H136.24z"/>
		<path class="st0" d="M169.02,29.25v34.37h-8.73V29.25h-2.63v-8.73h2.63v-1.39c0-1.75,0.34-3.46,1.03-5.13s1.65-3.13,2.89-4.4
			c1.24-1.27,2.7-2.3,4.37-3.08c1.68-0.78,3.53-1.18,5.57-1.18c2.22,0,4.3,0.47,6.24,1.42c1.94,0.95,3.6,2.3,4.99,4.05l-6.79,5.61
			c-0.51-0.74-1.17-1.29-1.97-1.66c-0.81-0.37-1.61-0.55-2.39-0.55c-1.43,0-2.66,0.51-3.67,1.52c-1.02,1.02-1.52,2.29-1.52,3.81
			v0.97h2.7v8.73H169.02z"/>
		<path class="st0" d="M203.39,29.25v34.37h-8.73V53.3c-1.02-1.58-2.22-2.74-3.6-3.47c-1.39-0.74-2.84-1.11-4.37-1.11
			c-1.71,0-3.37,0.46-4.99,1.39v1.59h4.5v8.73h-13.24V46.29c1.99-2.26,4.27-3.9,6.86-4.92c0.14-0.74,0.21-1.48,0.21-2.22
			c0-3.6-1.29-6.91-3.88-9.91h-5.82v-8.73h35.69v8.73H203.39z M194.66,41.86V29.25h-8.25c1.48,3.33,2.22,6.65,2.22,9.98v0.9
			c1.06,0.09,2.09,0.29,3.08,0.59C192.71,41.02,193.69,41.4,194.66,41.86z"/>
		<path class="st0" d="M236.51,29.25v34.37h-8.73V48.24l-0.48-0.76c-0.83-1.15-1.85-2.03-3.05-2.63c-1.2-0.6-2.45-0.9-3.74-0.9
			c-1.39,0-2.87,0.42-4.43,1.25v1.66h4.5v8.73h-13.24V41.44c1.71-2.08,3.72-3.64,6.03-4.68c2.31-1.04,4.71-1.56,7.21-1.56
			c2.45,0,4.85,0.51,7.21,1.52v-7.48h-23.07v-8.73h34.44v8.73H236.51z"/>
		<path class="st0" d="M280.17,29.25v34.37h-8.73V40.13c-1.16,1.62-2.21,3.3-3.15,5.06c-0.95,1.76-1.79,3.6-2.53,5.54l-7.97-3.26
			c0.46-1.15,0.94-2.27,1.42-3.36c0.48-1.08,1.03-2.16,1.63-3.22h-6.24V26.68c1.62-2.08,3.53-3.63,5.75-4.64
			c2.22-1.02,4.53-1.52,6.93-1.52c1.43,0,2.82,0.19,4.16,0.55v-0.55h11.36v8.73H280.17z M266.03,32.16l2.36-2.63
			c-0.55-0.18-1.18-0.28-1.87-0.28c-1.39,0-2.66,0.37-3.81,1.11v1.8H266.03z"/>
		<path class="st0" d="M284.05,29.25h-2.63v-8.73h17.19v8.73h-5.68v6.58c1.99,2.96,2.98,6.12,2.98,9.49v16.01
			c-2.8,4.76-6.87,7.69-12.2,8.8l-1.8-8.59c2.08-0.37,3.83-1.41,5.27-3.12v-12.2c0-1.75-0.22-3.15-0.66-4.19
			c-0.44-1.04-1.26-2.02-2.46-2.94V29.25z"/>
		<path class="st0" d="M308.58,29.25v34.37h-8.73V29.25h-2.63v-8.73h14.07v8.73H308.58z"/>
		<path class="st0" d="M321.26,29.25v32.5c0.69,0.88,1.49,1.58,2.39,2.11c0.9,0.53,1.91,0.75,3.01,0.66l0.9-0.07l0.83,8.52h-1.8
			c-1.39,0-2.78-0.19-4.19-0.55c-1.41-0.37-2.74-0.95-3.98-1.73c-1.25-0.79-2.38-1.78-3.4-2.98c-1.02-1.2-1.85-2.61-2.49-4.23V29.25
			h-2.63v-8.73h14v8.73H321.26z"/>
		<path class="st0" d="M354.31,29.25v34.37h-8.73V48.24l-0.48-0.76c-0.83-1.15-1.85-2.03-3.05-2.63c-1.2-0.6-2.45-0.9-3.74-0.9
			c-1.39,0-2.87,0.42-4.43,1.25v1.66h4.5v8.73h-13.24V41.44c1.71-2.08,3.72-3.64,6.03-4.68c2.31-1.04,4.71-1.56,7.21-1.56
			c2.45,0,4.85,0.51,7.21,1.52v-7.48H322.5v-8.73h34.44v8.73H354.31z"/>
		<path class="st0" d="M392.28,29.25v34.37h-8.73V48.44c-1.11,0.65-1.66,1.69-1.66,3.12l-8.73-0.14v-0.42
			c0-1.02,0.14-2.01,0.42-2.98c-0.14-1.2-0.62-2.16-1.46-2.88c-0.83-0.72-1.76-1.07-2.77-1.07c-0.79,0-1.55,0.23-2.29,0.69v2.22h4.5
			v8.59h-13.3v-14c1.29-2.08,2.92-3.64,4.88-4.68c1.96-1.04,4.05-1.56,6.27-1.56c1.94,0,3.8,0.43,5.58,1.28
			c1.78,0.86,3.34,2.14,4.68,3.85c1.2-0.65,2.49-1.08,3.88-1.32v-9.91h-27.93v-8.73h39.29v8.73H392.28z"/>
	</g>
	<g>
		<path class="st1" d="M78.32,39.17c-0.02,21.68-17.56,39.12-39.07,39.15C17.47,78.34-0.04,60.81,0,39.07
			C0.04,17.57,17.33,0.31,38.55,0C60.69-0.31,78.34,17.54,78.32,39.17z M6.57,40.09c0.15,0.08,0.23-0.05,0.32-0.12
			c0.53-0.38,1.09-0.74,1.58-1.16c0.35-0.3,0.58-0.24,0.91,0.02c0.59,0.47,1.22,0.9,1.87,1.37c0.05-0.22-0.04-0.34-0.08-0.47
			c-0.21-0.68-0.43-1.36-0.66-2.03c-0.07-0.21-0.05-0.32,0.14-0.45c0.56-0.39,1.11-0.8,1.66-1.2c0.14-0.1,0.31-0.18,0.42-0.38
			c-0.85,0-1.65-0.02-2.44,0.01c-0.35,0.01-0.5-0.11-0.6-0.43c-0.22-0.78-0.49-1.55-0.77-2.43c-0.29,0.9-0.56,1.68-0.8,2.47
			c-0.09,0.29-0.22,0.4-0.54,0.39c-0.82-0.03-1.63-0.01-2.45-0.01c0.64,0.57,1.3,1.06,1.97,1.53c0.24,0.17,0.3,0.32,0.2,0.6
			C7.04,38.55,6.81,39.33,6.57,40.09c0,0.01-0.01,0.02-0.02,0.04c0,0,0.01,0.01,0.01,0.02C6.57,40.13,6.57,40.11,6.57,40.09z
			 M23.96,65.43c-0.02-0.02-0.03-0.03-0.05-0.05c-0.01-0.16-0.01-0.31-0.03-0.47c-0.07-0.66-0.51-0.98-1.13-0.75
			c-0.31,0.11-0.38,0.08-0.46-0.25c-0.25-1.08-1.23-1.47-2.18-0.9c-0.49,0.3-0.79,0.74-0.94,1.28c-0.25,0.9,0.37,1.91,1.24,2.08
			c0.33,0.06,0.64,0.03,0.83-0.28c0.21-0.36,0.31-0.75,0.08-1.13c-0.14-0.23-0.38-0.34-0.66-0.32c-0.28,0.02-0.47,0.17-0.59,0.43
			c-0.04,0.1,0,0.23-0.12,0.3c-0.27-0.25-0.38-0.54-0.26-0.89c0.14-0.39,0.42-0.64,0.84-0.71c0.86-0.13,1.47,0.46,1.5,1.43
			c0,0.17-0.16,0.42,0.08,0.49c0.26,0.08,0.24-0.22,0.33-0.36c0.29-0.43,0.73-0.44,0.99,0.01c0.21,0.35,0.18,0.7-0.05,1.04
			c-0.51,0.77-0.99,1.57-1.53,2.31c-0.34,0.46-0.38,0.88-0.14,1.37c0.14-0.06,0.18-0.19,0.25-0.29c1.06-1.61,2.11-3.21,3.15-4.83
			c0.18-0.27,0.3-0.34,0.58-0.13c0.29,0.22,0.6,0.44,0.94,0.58c0.02-0.64-0.28-1.03-0.82-1.29c-0.2-0.1-0.39-0.24-0.57-0.37
			c-1.58-1.2-3.5-1.93-4.83-3.48c-0.37-0.44-0.42-0.51-0.15-1.03c0.08-0.15,0.25-0.29,0.11-0.52c-0.53,0.46-0.91,1.06-1.41,1.63
			c0.17-1.22,0.1-1.53-0.66-2.08C17.93,58,18,57.79,18.25,57.52c0.18-0.19,0.28-0.41,0.17-0.72c-0.74,0.63-1.45,1.23-2.16,1.84
			c0.16-0.63,0.33-1.19,0.46-1.77c0.09-0.38-0.01-0.65-0.35-0.87c-0.45-0.29-0.94-0.37-1.52-0.32c0.34-0.62,0.48-1.25,0.06-1.78
			c-0.58-0.73-0.9-1.57-1.2-2.42c-0.69-1.94-1.82-3.72-2.03-5.82c-0.04-0.44,0.29-0.81,0.72-0.69c1.01,0.28,1.7,0.88,1.9,1.97
			c0.12,0.68,0.07,1.33-0.18,1.97c-0.18,0.45-0.38,0.89-0.57,1.35c0.19,0.06,0.29-0.05,0.38-0.19c0.54-0.87,0.94-1.79,1.01-2.82
			c0.11-1.43-0.47-2.45-1.68-2.97c-0.84-0.36-1.23-0.24-1.58,0.44c-0.02,0.05-0.07,0.08-0.15,0.17c-0.12-0.52-0.22-1-0.33-1.5
			c-0.39,0.39-0.61,0.78-0.4,1.29c0.13,0.31-0.01,0.37-0.29,0.43c-1.6,0.34-3.19,0.73-4.8,1.04C5.14,46.24,4.84,46.51,4.67,47
			c0.1,0.05,0.19,0.01,0.29-0.01c1.88-0.41,3.75-0.82,5.63-1.24c0.31-0.07,0.47-0.02,0.51,0.33c0.09,0.81,0.25,1.61,0.62,2.36
			c0.21,0.42,0.35,0.87,0.54,1.3c0.68,1.58,1.11,3.28,2.2,4.67c0.19,0.24,0.15,0.54,0.04,0.82c-0.06,0.17-0.13,0.25-0.34,0.15
			c-0.34-0.18-0.72-0.15-1.09-0.11c-0.5,0.05-0.89,0.46-0.91,0.92c-0.02,0.41,0.29,0.78,0.82,0.81c0.46,0.03,0.49,0.18,0.41,0.58
			c-0.09,0.45,0.24,0.91,0.63,0.99c0.39,0.09,0.84-0.19,1.01-0.62c0.1-0.26,0.11-0.53,0.12-0.8c0.02-0.38,0.11-0.44,0.47-0.31
			c0.28,0.11,0.47,0.31,0.44,0.61c-0.05,0.67-0.22,1.28-0.82,1.7c-0.85,0.6-1.67,1.25-2.54,1.82c-0.47,0.31-0.61,0.7-0.57,1.25
			c0.17-0.12,0.32-0.22,0.46-0.33c1.51-1.12,3.02-2.23,4.53-3.36c0.21-0.16,0.32-0.16,0.47,0.06c0.16,0.25,0.35,0.48,0.53,0.72
			c0.03,0.04,0.09,0.17,0.14,0.09c0.2-0.32,0.22,0.02,0.25,0.08c0.24,0.45,0.13,1.01-0.28,1.45c-0.98,1.05-1.95,2.12-2.96,3.14
			c-0.37,0.37-0.35,0.75-0.25,1.21c0.08-0.03,0.1-0.11,0.14-0.16c1.37-1.45,2.74-2.9,4.09-4.36c0.27-0.3,0.41-0.26,0.69-0.02
			c0.4,0.33,0.63,0.82,1.1,1.1c1.16,0.72,2.29,1.49,3.44,2.23c0.22,0.14,0.26,0.25,0.1,0.46C24.37,64.83,24.22,65.17,23.96,65.43z
			 M20.22,14.93c-0.73-0.18-1.46-0.37-2.21-0.45c-0.69-0.07-0.86,0.04-1.17,0.65c-0.3,0.6-0.3,1.22-0.16,1.87
			c-1.2-0.43-1.74-0.32-2.65,0.49c-0.38,0.34-0.7,0.7-0.93,1.2c-0.36,0.78-0.92,1.47-1.4,2.19c-0.93,1.43-1.87,2.86-2.84,4.34
			c0.42-0.07,0.35,0.11,0.24,0.33c-0.18,0.4-0.87,0.51-1.17,0.14c-0.76-0.94-1.13-1.98-0.67-3.18c0.44-1.16,1.26-1.98,2.33-2.57
			c0.39-0.21,0.77-0.44,1.2-0.69c-0.39-0.11-0.4-0.11-0.59-0.04c-1.3,0.5-2.45,1.21-3.33,2.31c-1.18,1.49-1.24,3.06-0.15,4.55
			c0.41,0.57,0.82,0.69,1.48,0.45c0.15-0.06,0.3-0.16,0.52-0.12c-0.25,0.6-0.5,1.18-0.76,1.79c0.72-0.12,1.25-0.38,1.4-1.11
			c0.06-0.33,0.24-0.32,0.52-0.19c1.96,0.87,3.95,1.69,5.9,2.6c0.65,0.3,1.12,0.13,1.69-0.21c-1.13-0.49-2.21-0.96-3.29-1.43
			c-1.33-0.58-2.66-1.16-3.99-1.75c-0.13-0.06-0.37-0.08-0.25-0.34c0.34-0.72,0.56-1.49,1-2.16c0.97-1.49,1.95-2.98,2.92-4.47
			c0.33-0.51,0.66-1.03,1.16-1.41c0.38-0.29,0.77-0.33,1.21-0.2c0.2,0.06,0.25,0.14,0.18,0.37c-0.17,0.54-0.13,1.1,0.06,1.64
			c0.18,0.52,0.75,0.88,1.27,0.82c0.44-0.05,0.77-0.41,0.87-0.98c0.03-0.18,0.05-0.38,0.01-0.55c-0.05-0.25,0.01-0.31,0.25-0.25
			c0.1,0.03,0.2,0.04,0.29,0.05c0.57,0.04,1.16-0.37,1.27-0.87c0.11-0.51-0.27-1.07-0.85-1.27c-0.21-0.07-0.42-0.08-0.63-0.07
			c-0.21,0-0.43,0.01-0.64,0.03c-0.2,0.02-0.29-0.06-0.31-0.25c-0.04-0.4,0.26-0.89,0.65-0.94c0.83-0.09,1.64-0.01,2.25,0.65
			c0.99,1.07,1.98,2.13,2.91,3.25c0.45,0.54,0.96,0.43,1.6,0.46c-0.92-1-1.77-1.92-2.62-2.84c-0.96-1.04-1.91-2.07-2.87-3.11
			c-0.1-0.11-0.28-0.22-0.05-0.37c1.04-0.68,2.01-0.49,2.61,0.47c0.92,1.46,1.89,2.88,2.77,4.37c0.37,0.63,0.84,0.95,1.54,0.99
			c0.02-0.1-0.06-0.17-0.11-0.25c-0.57-0.9-1.15-1.8-1.72-2.7c-0.85-1.33-1.71-2.66-2.56-3.99c-0.08-0.13-0.26-0.25-0.01-0.41
			c0.56-0.36,1.09-0.81,1.67-1.09c1.47-0.71,3.01-1.28,4.52-1.91c0.08-0.03,0.17-0.09,0.25,0.04c0.15,0.21,0.54,1.37,0.53,1.64
			c-1.34-1.01-2.09-0.49-2.24,0.79c-0.21-0.08-0.42-0.18-0.63-0.24c-0.81-0.25-1.64,0.02-2.05,0.65c-0.54,0.84-0.36,2.15,0.4,3.02
			c0.63,0.72,1.69,0.89,2.62,0.43c0.45-0.22,0.8-0.56,0.78-1.08c-0.02-0.53-0.38-0.88-0.84-1.1c-0.39-0.19-0.83-0.06-1.1,0.29
			c-0.26,0.33-0.24,0.75,0.04,1.1c0.06,0.08,0.2,0.12,0.18,0.26c-0.68,0.11-1.12-0.12-1.32-0.7c-0.25-0.7,0.1-1.5,0.78-1.83
			c0.8-0.39,1.46-0.08,2.09,0.41c0.1,0.08,0.17,0.25,0.35,0.1c0.17-0.14,0.04-0.24-0.02-0.36c-0.06-0.1-0.12-0.2-0.16-0.3
			c-0.21-0.53,0.05-0.94,0.63-0.98c0.52-0.04,0.95,0.26,1.18,0.81c0.48,1.16,1,2.3,1.42,3.47c0.23,0.66,0.72,0.78,1.32,0.96
			c-0.07-0.19-0.12-0.32-0.17-0.45c-0.96-2.31-1.92-4.63-2.89-6.94c-0.13-0.3-0.11-0.44,0.22-0.56c0.48-0.17,0.95-0.39,1.5-0.62
			c-0.36-0.15-0.61-0.24-0.85-0.35c-0.17-0.07-0.31-0.07-0.49,0c-2.69,1.12-5.39,2.24-8.08,3.36c-0.06,0.03-0.12,0.06-0.17,0.09
			c0.05,0.14,0.25,0.08,0.27,0.22c-0.26,0.35-0.54,0.29-0.82,0.08c-0.17-0.13-0.34-0.26-0.48-0.42c-0.13-0.15-0.27-0.19-0.5-0.12
			c0.49,0.71,0.97,1.41,1.49,2.16c-0.3-0.02-0.43-0.17-0.58-0.25c-0.59-0.31-1.27-0.26-1.77,0.19c-0.31,0.28-0.6,0.22-0.88-0.01
			c-0.28-0.23-0.59-0.29-1.02-0.19c0.94,0.88,1.83,1.73,2.72,2.57C20.26,14.88,20.24,14.9,20.22,14.93z M46.26,73.97l0.01,0.01
			L46.26,73.97c-0.29-2.07-0.59-4.14-0.89-6.21c-0.02-0.12-0.11-0.31,0.08-0.31c0.62-0.01,1.25-0.47,1.87,0.03
			c0.21,0.17,0.51,0.16,0.78,0.13c0.31-0.03,0.63-0.05,0.94-0.04c0.46,0.02,0.81,0.24,1.07,0.62c0.14,0.19,0.21,0.34-0.12,0.4
			c-0.22,0.04-0.42,0.17-0.6,0.31c-0.51,0.4-0.59,0.96-0.23,1.51c0.32,0.48,0.87,0.59,1.42,0.29c0.29-0.16,0.46-0.41,0.6-0.7
			c0.05-0.1,0.07-0.23,0.23-0.19c0.72,0.16,1.42,0.34,1.9,0.98c0.17,0.23,0.3,0.58,0.72,0.62c-0.05-0.13-0.07-0.23-0.11-0.32
			c-0.7-1.79-1.4-3.58-2.12-5.35c-0.15-0.37-0.05-0.49,0.28-0.6c0.36-0.12,0.76-0.22,1.05-0.45c1.07-0.83,2.22-1.54,3.31-2.33
			c0.15-0.11,0.24-0.1,0.34,0.06c0.53,0.79,1.06,1.58,1.6,2.37c-0.02,0.02-0.05,0.05-0.07,0.07c-0.12-0.05-0.24-0.09-0.36-0.14
			c-0.6-0.25-1.2-0.47-1.86-0.32c-0.66,0.16-1.12,0.55-1.28,1.23c-0.15,0.63,0.11,1.12,0.58,1.5c0.48,0.39,1.3,0.19,1.68-0.39
			c0.26-0.41,0.05-0.89-0.5-1.22c-0.13-0.07-0.3-0.09-0.4-0.25c0.46-0.39,0.98-0.38,1.49-0.21c1.14,0.37,2.09,1.03,2.82,1.98
			c0.11,0.15,0.21,0.31,0.43,0.29c0.01-0.13-0.09-0.21-0.15-0.29c-0.97-1.42-1.95-2.84-2.93-4.26c-0.21-0.3-0.61-0.61-0.55-0.92
			c0.06-0.31,0.56-0.44,0.84-0.66c0.11-0.09,0.32-0.12,0.3-0.31c-0.04-0.26,0.18-0.34,0.32-0.43c0.15-0.09,0.23,0.12,0.32,0.21
			c1.14,1.19,2.3,2.38,3.4,3.6c0.36,0.4,0.74,0.43,1.2,0.37c-0.04-0.2-0.18-0.28-0.28-0.39c-1.29-1.37-2.59-2.73-3.88-4.1
			c-0.08-0.08-0.28-0.18-0.15-0.3c0.32-0.32,0.58-0.8,1.03-0.85c0.61-0.06,0.96-0.38,1.33-0.8c0.58-0.66,1.65-0.41,1.93,0.43
			c0.08,0.23,0.15,0.46,0.2,0.7c0.13,0.59-0.04,0.77-0.63,0.69c-0.06-0.01-0.11-0.02-0.17-0.04c-0.19-0.07-0.26-0.01-0.24,0.19
			c0.02,0.22,0.11,0.34,0.34,0.35c0.24,0.01,0.48,0.04,0.73,0.04c0.93,0.02,1.3-0.47,1.05-1.36c-0.14-0.52-0.38-1.02-0.45-1.56
			c-0.04-0.3-0.03-0.59,0.29-0.74c0.33-0.16,0.67-0.32,1.04-0.04c0.6,0.46,1.23,0.87,1.81,1.36c0.42,0.36,0.86,0.36,1.4,0.25
			c-0.2-0.16-0.35-0.28-0.5-0.4c-1.51-1.12-3.01-2.25-4.53-3.37c-0.2-0.15-0.21-0.25-0.06-0.44c0.25-0.3,0.47-0.62,0.72-0.96
			c-0.55-0.05-0.95,0.07-1.24,0.49c-0.2,0.3-0.4,0.61-0.63,0.89c-1.28,1.55-2.19,3.42-3.86,4.64c-0.34,0.25-0.84,0.17-0.95-0.24
			c-0.24-0.9-0.2-1.76,0.49-2.47c0.54-0.56,1.19-0.93,1.96-1.05c0.51-0.08,1.03-0.15,1.58-0.24c-0.14-0.13-0.25-0.19-0.38-0.19
			c-1.34-0.04-2.61,0.18-3.71,1.02c-0.84,0.65-1.14,1.5-1,2.53c0.13,0.94,0.3,1.09,1.26,1.14c0.03,0,0.07,0.03,0.14,0.07
			c-0.57,0.47-1,1.04-1.6,1.44c-0.64,0.43-1.25,0.89-1.9,1.3c-1.04,0.66-1.96,1.52-3.15,1.94c-1.2,0.43-2.38,0.94-3.58,1.4
			c-0.61,0.23-1.19,0.57-1.84,0.68c-1.46,0.24-2.93,0.43-4.4,0.63c-0.62,0.09-1.24,0.26-1.86,0.23c-1.55-0.07-3.1-0.24-4.64-0.36
			c-0.67-0.05-1.35-0.1-2.07-0.15c0.18,0.38,0.51,0.58,0.64,0.92c0.14,0.36,0.41,0.57,0.76,0.7c0.27,0.1,0.54,0.19,0.79,0.32
			c0.47,0.23,0.73,0.62,0.8,1.14c0.03,0.22-0.03,0.32-0.27,0.26c-0.24-0.06-0.48-0.05-0.72,0c-0.59,0.14-0.94,0.61-0.86,1.19
			c0.07,0.6,0.48,0.95,1.1,0.95c0.33,0,0.62-0.13,0.85-0.34c0.21-0.2,0.36-0.12,0.54,0.03c0.61,0.49,1.04,1.08,1.15,1.88
			c0.03,0.2,0.04,0.43,0.31,0.56c0.04-0.5,0.07-0.96,0.11-1.42c0.12-1.58,0.24-3.15,0.37-4.73c0.01-0.12-0.05-0.34,0.16-0.33
			c0.56,0.02,1.15-0.02,1.68,0.19c0.35,0.14,0.69,0.26,1.07,0.25c0.33-0.01,0.65,0.04,0.96,0.16c0.25,0.09,0.32,0.18,0.1,0.41
			c-0.29,0.29-0.56,0.61-0.83,0.92c-0.64,0.75-0.64,0.76,0.08,1.42c0.15,0.14,0.26,0.33,0.53,0.3c1.33-0.16,2.24,0.55,3.02,1.51
			C45.83,73.54,45.95,73.84,46.26,73.97z M47.01,16.91c0.87-2.61,1.73-5.17,2.58-7.74c0.1-0.29,0.19-0.35,0.5-0.27
			c1.77,0.48,3.31,1.45,4.92,2.26c0.13,0.06,0.37,0.07,0.25,0.34c-0.1,0.23-0.22,0.31-0.49,0.26c-1.63-0.29-3.26-0.23-4.9-0.05
			c-0.19,0.02-0.27,0.07-0.23,0.29c0.08,0.42,0.14,0.84,0.19,1.27c0.02,0.21,0.11,0.33,0.28,0.44c0.6,0.39,1.03,0.93,1.39,1.54
			c0.43,0.74,0.59,1.53,0.57,2.38c-0.01,0.47-0.05,0.95,0.15,1.47c0.11-0.18,0.18-0.3,0.25-0.42c1.14-2.18,2.28-4.37,3.42-6.55
			c0.07-0.13,0.1-0.42,0.3-0.33c0.28,0.14,0.76,0.14,0.77,0.56c0.01,0.48,0.22,0.8,0.55,1.1c0.15,0.13,0.29,0.27,0.42,0.43
			c0.5,0.6,0.32,1.97-0.32,2.19c-0.55,0.19-1.12,0.33-1.71,0.34c-0.42,0-0.58-0.17-0.53-0.58c0.03-0.26,0.12-0.52,0.19-0.81
			c-0.24,0.07-0.59-0.2-0.72,0.21c-0.15,0.49-0.22,1-0.19,1.52c0.04,0.72,0.63,1.2,1.33,1.08c0.41-0.07,0.8-0.18,1.21-0.27
			c0.36-0.08,0.72-0.17,1.09-0.21c0.39-0.04,0.79-0.01,0.97,0.44c0.18,0.46,0.32,0.91-0.08,1.35c-0.65,0.72-1.23,1.51-1.91,2.19
			c-0.51,0.51-0.45,1.07-0.39,1.74c1.62-1.89,3.19-3.73,4.77-5.57c0.23-0.27,0.45-0.76,0.72-0.72c0.38,0.06,0.69,0.46,0.95,0.8
			c0.05,0.07,0.1,0.14,0.15,0.21c1.29,1.85,2.61,3.67,3.85,5.54c0.71,1.06,0.61,2.21-0.73,2.81c-1.65,0.74-3.28,1.53-4.94,2.24
			c-0.61,0.26-0.72,0.74-0.91,1.3c0.15-0.07,0.25-0.1,0.34-0.14c2.37-1.09,4.74-2.17,7.1-3.27c0.34-0.16,0.46-0.07,0.58,0.24
			c0.19,0.47,0.42,0.92,0.64,1.4c0.48-0.89,0.49-0.94,0.17-1.65c-0.28-0.61-0.26-0.7,0.26-1.15c0.09-0.07,0.18-0.14,0.27-0.21
			c0.15-0.11,0.24-0.24,0.17-0.45c-0.87,0.34-1.64,0.88-2.49,1.25c0.31-0.24,0.39-0.66,0.78-0.84c0.21-0.1,0.15-1.05-0.02-1.28
			c-1.3-1.86-2.57-3.73-3.9-5.56c-0.53-0.74-1-1.49-1.78-2.09c-1.98-1.5-3.81-3.21-5.71-4.83c-0.08-0.07-0.22-0.23-0.26-0.18
			c-0.22,0.34-0.4,0.02-0.53-0.05c-1.8-0.92-3.59-1.86-5.38-2.79c-0.12-0.06-0.27-0.25-0.38-0.09c-0.18,0.24-0.33,0.05-0.45,0
			c-0.2-0.09-0.01-0.21,0.03-0.31c0.44-1.02,0.18-1.84-0.77-2.42c-0.32-0.19-0.66-0.33-1.02-0.43c-0.79-0.23-1.59-0.44-2.37-0.7
			c-0.92-0.31-1.07-0.98-0.4-1.66c0.16-0.16-0.01-0.22-0.04-0.32c-0.03-0.09-0.09-0.11-0.19-0.04c-0.98,0.62-1.06,1.81-0.17,2.59
			c0.53,0.46,1.17,0.7,1.82,0.92c0.67,0.23,1.35,0.45,2.01,0.7c0.28,0.11,0.5,0.34,0.49,0.69c-0.01,0.26-0.09,0.52-0.33,0.6
			C48.89,7.72,48.56,7.6,48.4,7.4c-0.26-0.33-0.6-0.35-0.94-0.4c-0.51-0.07-0.71-0.23-0.78-0.74c-0.04-0.3-0.18-0.48-0.46-0.61
			c-0.21,1.42-0.28,2.8-0.34,4.2c-0.07-0.14-0.11-0.28-0.15-0.43c-0.14-0.56-0.35-1.08-0.68-1.56c-1.43-2.04-4.13-1.69-5.46,0.27
			c-0.16,0.24-0.12,0.49,0.02,0.72c0.15,0.25,0.38,0.33,0.66,0.28c0.21-0.04,0.41-0.1,0.62-0.14c0.41-0.07,0.65,0.13,0.68,0.55
			c0.03,0.42-0.13,0.74-0.46,1c-0.17,0.13-0.38,0.23-0.51,0.45c0.23,0.13,0.46,0.22,0.66,0.36c0.3,0.21,0.53,0.18,0.82-0.06
			c0.82-0.66,1.67-1.29,2.51-1.93c0.12-0.09,0.25-0.27,0.38-0.05c0.33,0.52,0.65,1.05,0.55,1.71c-0.18,1.14-0.33,2.29-0.58,3.41
			c-0.17,0.73,0.26,1.09,0.64,1.54c0.04-0.06,0.07-0.08,0.07-0.1c0.35-2.55,0.7-5.11,1.05-7.66c0.06-0.43,0.39-0.61,0.71-0.33
			c0.3,0.27,0.64,0.36,0.99,0.45c0.39,0.1,0.42,0.27,0.3,0.63c-0.68,2.01-1.3,4.04-2.04,6.03C46.39,15.74,46.54,16.29,47.01,16.91z
			 M39.1,17.43c-11.86-0.04-21.62,9.71-21.67,21.66c-0.05,11.93,9.63,21.72,21.52,21.81C51,60.99,60.71,51.29,60.9,39.51
			C61.09,27.33,51.16,17.36,39.1,17.43z M18.91,23.09c0,0.04,0,0.07,0,0.11c-0.94,0.18-1.54,0.78-2.01,1.55
			c-0.17,0.28-0.31,0.58-0.46,0.87c-0.17,0.33-0.36,0.65-0.63,0.91c-0.52,0.5-1.07,0.61-1.72,0.3c-0.57-0.27-1.06-0.64-1.34-1.21
			c-0.17-0.35-0.42-0.29-0.63-0.16c-0.23,0.15-0.04,0.4,0.07,0.5c0.47,0.41,0.86,0.91,1.38,1.26c1.51,1.02,2.81,0.77,3.77-0.78
			c0.38-0.6,0.65-1.26,0.99-1.89c0.49-0.9,0.95-1.1,1.93-0.83c0.31,0.08,0.58,0.05,0.86-0.16c-0.07-0.06-0.12-0.11-0.17-0.15
			c-1.79-1.17-3.57-2.35-5.36-3.51c-0.94-0.61-2.08-0.19-2.36,0.9c-0.31,1.21-0.12,2.39,0.52,3.46c0.35,0.59,0.94,0.93,1.66,0.88
			c0.59-0.04,0.91-0.49,1.12-0.99c0.17-0.39,0.06-0.72-0.26-0.99c-0.53-0.45-1.01-0.34-1.51,0.37c-0.58-0.84-0.67-1.74-0.49-2.69
			c0.01-0.05,0.05-0.1,0.08-0.15c0.13-0.24,0.32-0.31,0.57-0.17c0.23,0.13,0.46,0.28,0.69,0.43C16.72,21.66,17.82,22.37,18.91,23.09
			z M62.44,17.81c-0.19,0.24-0.35,0.45-0.51,0.67c-0.84,1.17-1.73,2.3-2.19,3.69c-0.56,1.67-0.1,3.32,1.22,4.13
			c1.17,0.73,2.4,0.67,3.56-0.01c1.11-0.65,1.38-1.81,1.63-2.96c0.05-0.23-0.08-0.31-0.33-0.28c-0.56,0.07-1.11-0.01-1.65-0.16
			c-0.23-0.06-0.46-0.13-0.61-0.39c0.17-0.02,0.31-0.02,0.45-0.05c0.4-0.09,0.72-0.29,0.81-0.72c0.11-0.54-0.13-0.95-0.54-1.26
			c-0.37-0.29-0.79-0.3-1.21-0.1c-0.83,0.4-1.18,1.33-0.77,2.21c0.47,1,1.2,1.68,2.37,1.76c0.5,0.03,0.53,0.16,0.24,0.56
			c-1.07,1.5-3.16,0.8-3.77-0.35c-0.43-0.82-0.55-1.67-0.39-2.56c0.24-1.28,0.86-2.37,1.64-3.39
			C62.61,18.34,62.68,18.12,62.44,17.81z M65.5,35.6c-0.01,0.03-0.01,0.06-0.02,0.09c0.62,0.45,1.23,0.92,1.87,1.34
			c0.36,0.24,0.43,0.46,0.27,0.87c-0.28,0.72-0.48,1.46-0.72,2.19c0.72-0.43,1.37-0.88,2-1.37c0.27-0.21,0.47-0.24,0.76-0.01
			c0.63,0.5,1.3,0.95,2.04,1.49c-0.27-0.86-0.5-1.62-0.77-2.36c-0.13-0.35-0.09-0.55,0.24-0.77c0.66-0.44,1.28-0.92,1.92-1.39
			c-0.85-0.08-1.66-0.09-2.48-0.07c-0.29,0.01-0.43-0.07-0.51-0.36c-0.24-0.79-0.51-1.58-0.81-2.49c-0.3,0.93-0.57,1.73-0.82,2.54
			c-0.07,0.22-0.16,0.31-0.41,0.31C67.2,35.58,66.35,35.6,65.5,35.6z M75.16,45.22c-1.55,0.11-2.61,1.12-3.72,2.12
			c-0.09-0.34-0.17-0.62-0.24-0.9c-0.17-0.69-0.55-1.21-1.27-1.35c-0.73-0.15-1.35,0.09-1.84,0.66c-0.15,0.17-0.27,0.37-0.39,0.56
			c-0.13,0.2-0.34,0.27-0.51,0.2c-0.15-0.06-0.01-0.25,0.02-0.38c0.25-0.97,0.5-1.95,0.77-2.96c-0.51,0.19-0.86,0.42-0.95,0.99
			c-0.11,0.69-0.34,1.35-0.52,2.03c-0.3,1.15-0.6,2.3-0.92,3.5c0.53-0.19,0.89-0.44,0.96-1c0.04-0.35,0.18-0.69,0.26-1.04
			c0.05-0.25,0.2-0.4,0.4-0.52c0.19-0.12,0.27-0.08,0.3,0.15c0.04,0.37,0.09,0.74,0.27,1.07c0.2,0.38,0.65,0.59,1,0.47
			c0.34-0.12,0.56-0.54,0.48-0.95c-0.08-0.42-0.3-0.77-0.66-1.01c-0.13-0.08-0.23-0.15-0.2-0.33c0.06-0.43,0.47-0.89,0.88-0.95
			c0.43-0.06,0.76,0.18,0.94,0.7c0.26,0.73,0.24,1.45-0.08,2.16c-0.18,0.42-0.47,0.77-0.84,1.19c0.64-0.08,1.17-0.15,1.7-0.22
			c0.13-0.02,0.18-0.13,0.23-0.23C72.15,47.48,73.51,46.22,75.16,45.22z M7.14,54.9c0.07-0.01,0.12-0.01,0.15-0.03
			c1.58-0.64,3.15-1.31,4.75-1.92c0.6-0.23,0.98-1.13,0.5-1.76c-0.69-0.91-1.65-1.39-2.8-1.32c-1.02,0.06-1.48,1.01-0.94,1.81
			C9.02,52,9.35,52.08,9.73,51.9c0.38-0.19,0.5-0.44,0.36-0.83c-0.1-0.25,0-0.28,0.2-0.25c0.62,0.08,1.14,0.37,1.58,0.79
			c0.33,0.31,0.26,0.56-0.16,0.74c-0.69,0.29-1.39,0.58-2.1,0.85c-0.38,0.15-0.74,0.35-1.24,0.45c0.28-0.71,0.2-1.36-0.1-1.99
			c-0.19-0.4-0.42-0.78-0.58-1.19c-0.3-0.79-0.04-1.36,0.73-1.7c0.36-0.16,0.73-0.25,1.12-0.21c0.24,0.03,0.36-0.07,0.38-0.28
			c0.02-0.27-0.21-0.17-0.33-0.17c-0.5,0.02-0.99,0.11-1.46,0.29c-1.06,0.41-1.54,1.14-1.38,2.08c0.07,0.41,0.23,0.79,0.43,1.15
			c0.2,0.37,0.43,0.74,0.6,1.13c0.3,0.67,0.22,1-0.32,1.47C7.27,54.41,7.15,54.6,7.14,54.9z M38.61,14.52
			c-1.15-0.07-1.6-0.78-1.9-1.61c-0.78-2.16,0.26-5.49,2.88-6.02c-0.72-0.88-1.16-0.94-2.07-0.28c-0.59,0.43-0.98,1.02-1.31,1.66
			c-0.98,1.92-0.73,4.51,0.59,6.04c0.43,0.5,0.96,0.79,1.62,0.85c0.93,0.08,1.7-0.64,1.63-1.5c-0.05-0.58-0.51-0.98-1.06-0.92
			c-0.69,0.07-1,0.43-0.92,1.07C38.11,14.1,38.29,14.29,38.61,14.52z M66.36,53.47c0.81,0,1.53-0.66,1.52-1.38
			c-0.01-0.75-0.76-1.47-1.55-1.47c-0.83-0.01-1.46,0.57-1.45,1.35C64.88,52.81,65.54,53.47,66.36,53.47z M72.93,52.36
			c-0.27-0.23-0.52-0.25-0.8-0.17c-1.06,0.27-2.12,0.55-3.15,0.93c-0.48,0.17-0.97,0.33-1.45,0.63c0.4,0.19,0.75,0.35,1.09,0.53
			c0.16,0.08,0.29,0.05,0.44-0.03C70.29,53.51,71.57,52.9,72.93,52.36z M26.78,71.61c-0.01-0.08-0.01-0.18-0.04-0.27
			c-0.1-0.39-0.6-0.72-1.03-0.66c-0.39,0.05-0.56,0.33-0.6,0.67c-0.05,0.46,0.25,0.66,0.66,0.74c0.31,0.06,0.28,0.23,0.16,0.43
			c-0.12,0.21-0.31,0.36-0.53,0.47c-0.22,0.11-0.45,0.18-0.69,0.21c-0.12,0.02-0.18,0.07-0.16,0.2c0.01,0.09,0.08,0.1,0.15,0.11
			C25.6,73.62,26.79,72.55,26.78,71.61z M50.92,16.33c0-0.48-0.35-0.87-0.8-0.88c-0.47-0.01-0.84,0.36-0.84,0.83
			c0,0.47,0.37,0.88,0.8,0.89C50.53,17.18,50.92,16.79,50.92,16.33z M43.6,73.98c0.35-0.01,0.63-0.3,0.63-0.66
			c0-0.38-0.32-0.69-0.72-0.69c-0.36,0-0.65,0.28-0.66,0.64C42.85,73.68,43.17,73.99,43.6,73.98z"/>
		<path class="st0" d="M47.01,16.91c-0.47-0.62-0.62-1.17-0.34-1.92c0.73-1.99,1.35-4.02,2.04-6.03c0.12-0.35,0.09-0.52-0.3-0.63
			c-0.35-0.09-0.69-0.18-0.99-0.45c-0.32-0.29-0.66-0.1-0.71,0.33c-0.35,2.55-0.7,5.11-1.05,7.66c0,0.02-0.03,0.04-0.07,0.1
			c-0.38-0.46-0.8-0.82-0.64-1.54c0.26-1.12,0.4-2.27,0.58-3.41c0.1-0.65-0.22-1.19-0.55-1.71c-0.14-0.22-0.27-0.04-0.38,0.05
			c-0.84,0.64-1.69,1.26-2.51,1.93c-0.29,0.24-0.52,0.27-0.82,0.06c-0.2-0.14-0.42-0.23-0.66-0.36c0.13-0.22,0.34-0.31,0.51-0.45
			c0.33-0.25,0.49-0.58,0.46-1C41.55,9.13,41.31,8.93,40.9,9c-0.21,0.04-0.42,0.09-0.62,0.14c-0.28,0.06-0.5-0.02-0.66-0.28
			c-0.15-0.24-0.19-0.49-0.02-0.72c1.33-1.96,4.03-2.31,5.46-0.27c0.33,0.47,0.54,1,0.68,1.56c0.04,0.15,0.08,0.29,0.15,0.43
			c0.06-1.4,0.13-2.78,0.34-4.2c0.28,0.14,0.42,0.32,0.46,0.61c0.06,0.5,0.26,0.67,0.78,0.74c0.35,0.05,0.68,0.06,0.94,0.4
			c0.16,0.2,0.5,0.32,0.78,0.23c0.24-0.08,0.33-0.34,0.33-0.6c0.01-0.35-0.21-0.58-0.49-0.69c-0.66-0.26-1.34-0.47-2.01-0.7
			c-0.65-0.22-1.29-0.46-1.82-0.92c-0.88-0.78-0.8-1.96,0.17-2.59c0.1-0.07,0.17-0.04,0.19,0.04c0.03,0.1,0.2,0.16,0.04,0.32
			c-0.68,0.68-0.52,1.35,0.4,1.66c0.78,0.26,1.58,0.47,2.37,0.7c0.36,0.1,0.7,0.24,1.02,0.43c0.95,0.57,1.21,1.4,0.77,2.42
			c-0.04,0.09-0.23,0.22-0.03,0.31c0.12,0.05,0.28,0.25,0.45,0c0.12-0.16,0.27,0.03,0.38,0.09c1.8,0.93,3.58,1.87,5.38,2.79
			c0.14,0.07,0.31,0.39,0.53,0.05c0.04-0.06,0.18,0.11,0.26,0.18c1.9,1.62,3.73,3.32,5.71,4.83c0.79,0.6,1.25,1.36,1.78,2.09
			c1.33,1.83,2.6,3.71,3.9,5.56c0.16,0.23,0.23,1.18,0.02,1.28c-0.39,0.18-0.47,0.6-0.78,0.84c0.85-0.37,1.62-0.91,2.49-1.25
			c0.07,0.21-0.02,0.34-0.17,0.45c-0.09,0.07-0.18,0.13-0.27,0.21c-0.52,0.45-0.54,0.54-0.26,1.15c0.32,0.71,0.32,0.76-0.17,1.65
			c-0.22-0.48-0.46-0.94-0.64-1.4c-0.12-0.31-0.24-0.4-0.58-0.24c-2.36,1.1-4.73,2.18-7.1,3.27c-0.09,0.04-0.18,0.08-0.34,0.14
			c0.19-0.56,0.31-1.04,0.91-1.3c1.66-0.71,3.29-1.5,4.94-2.24c1.34-0.61,1.44-1.75,0.73-2.81c-1.25-1.87-2.57-3.7-3.85-5.54
			c-0.05-0.07-0.1-0.14-0.15-0.21c-0.26-0.34-0.57-0.74-0.95-0.8c-0.26-0.04-0.49,0.45-0.72,0.72c-1.58,1.83-3.15,3.67-4.77,5.57
			c-0.06-0.67-0.12-1.23,0.39-1.74c0.68-0.68,1.27-1.47,1.91-2.19c0.4-0.44,0.26-0.9,0.08-1.35c-0.18-0.44-0.57-0.48-0.97-0.44
			c-0.37,0.04-0.73,0.13-1.09,0.21c-0.4,0.09-0.8,0.2-1.21,0.27c-0.71,0.12-1.29-0.36-1.33-1.08c-0.03-0.52,0.05-1.03,0.19-1.52
			c0.12-0.41,0.47-0.13,0.72-0.21c-0.07,0.29-0.15,0.55-0.19,0.81c-0.05,0.41,0.11,0.58,0.53,0.58c0.59-0.01,1.17-0.15,1.71-0.34
			c0.65-0.23,0.83-1.59,0.32-2.19c-0.13-0.15-0.27-0.29-0.42-0.43c-0.33-0.3-0.54-0.62-0.55-1.1c-0.01-0.42-0.49-0.42-0.77-0.56
			c-0.2-0.09-0.23,0.19-0.3,0.33c-1.15,2.18-2.28,4.37-3.42,6.55c-0.06,0.12-0.14,0.24-0.25,0.42c-0.2-0.52-0.16-1-0.15-1.47
			c0.02-0.84-0.13-1.64-0.57-2.38c-0.36-0.61-0.79-1.15-1.39-1.54c-0.17-0.11-0.26-0.24-0.28-0.44c-0.05-0.42-0.1-0.85-0.19-1.27
			c-0.05-0.22,0.03-0.27,0.23-0.29c1.63-0.19,3.27-0.24,4.9,0.05c0.27,0.05,0.39-0.03,0.49-0.26c0.12-0.28-0.13-0.28-0.25-0.34
			c-1.61-0.82-3.15-1.79-4.92-2.26c-0.32-0.09-0.41-0.03-0.5,0.27C48.74,11.74,47.88,14.3,47.01,16.91z M50.94,12.94
			c0.95,1.14,1.46,2.39,1.57,3.82c0.66-1.27,1.33-2.54,1.99-3.81C53.83,12.71,52.2,12.71,50.94,12.94z M58.35,15.96
			c0.09,0.05,0.13,0.08,0.16,0.08c0.1,0.02,0.2,0.03,0.3,0.04c0.84,0.08,1.02,0.27,1.05,1.12c0.01,0.35,0,0.69,0,1.12
			c0.6-0.69,1.12-1.33,1.67-1.94c0.19-0.21,0.09-0.31-0.07-0.44c-0.58-0.49-1.15-0.98-1.72-1.47c-0.25-0.21-0.48-0.47-0.82-0.64
			C58.96,14.62,59.07,15.38,58.35,15.96z M42.16,9.77c0.65-0.49,1.24-0.96,1.86-1.38c0.27-0.19,0.18-0.32,0.01-0.49
			c-0.61-0.61-1.86-0.64-2.55-0.05c-0.11,0.09-0.24,0.18-0.28,0.35C41.95,8.45,42.17,9,42.16,9.77z"/>
		<path class="st0" d="M58.37,64.77c-0.53-0.79-1.07-1.58-1.6-2.37c-0.11-0.16-0.2-0.16-0.34-0.06c-1.09,0.79-2.24,1.5-3.31,2.33
			c-0.29,0.23-0.69,0.33-1.05,0.45c-0.33,0.11-0.43,0.23-0.28,0.6c0.73,1.78,1.42,3.57,2.12,5.35c0.04,0.09,0.06,0.18,0.11,0.32
			c-0.42-0.04-0.55-0.39-0.72-0.62c-0.48-0.65-1.18-0.83-1.9-0.98c-0.16-0.04-0.18,0.09-0.23,0.19c-0.14,0.29-0.31,0.54-0.6,0.7
			c-0.55,0.31-1.1,0.2-1.42-0.29c-0.36-0.55-0.28-1.11,0.23-1.51c0.18-0.14,0.38-0.27,0.6-0.31c0.33-0.06,0.26-0.2,0.12-0.4
			c-0.26-0.37-0.61-0.6-1.07-0.62c-0.31-0.01-0.63,0.01-0.94,0.04c-0.28,0.02-0.57,0.04-0.78-0.13c-0.63-0.49-1.25-0.04-1.87-0.03
			c-0.19,0-0.1,0.2-0.08,0.31c0.3,2.07,0.6,4.14,0.9,6.21l0,0c-0.31-0.12-0.43-0.43-0.62-0.67c-0.78-0.96-1.68-1.67-3.02-1.51
			c-0.27,0.03-0.38-0.16-0.53-0.3c-0.72-0.67-0.72-0.67-0.08-1.42c0.27-0.32,0.53-0.63,0.83-0.92c0.22-0.22,0.15-0.32-0.1-0.41
			c-0.31-0.11-0.63-0.17-0.96-0.16c-0.38,0.01-0.72-0.11-1.07-0.25c-0.53-0.21-1.12-0.17-1.68-0.19c-0.21-0.01-0.15,0.21-0.16,0.33
			c-0.13,1.58-0.25,3.15-0.37,4.73c-0.04,0.46-0.07,0.93-0.11,1.42c-0.27-0.13-0.28-0.36-0.31-0.56c-0.11-0.8-0.54-1.39-1.15-1.88
			c-0.19-0.15-0.33-0.22-0.54-0.03c-0.23,0.21-0.52,0.34-0.85,0.34c-0.62,0-1.03-0.36-1.1-0.95c-0.07-0.58,0.27-1.05,0.86-1.19
			c0.24-0.06,0.48-0.06,0.72,0c0.24,0.06,0.3-0.04,0.27-0.26c-0.07-0.52-0.33-0.91-0.8-1.14c-0.25-0.13-0.52-0.22-0.79-0.32
			c-0.35-0.13-0.63-0.34-0.76-0.7c-0.13-0.34-0.46-0.53-0.64-0.92c0.72,0.05,1.4,0.09,2.07,0.15c1.55,0.12,3.09,0.29,4.64,0.36
			c0.62,0.03,1.24-0.14,1.86-0.23c1.47-0.21,2.94-0.4,4.4-0.63c0.65-0.1,1.23-0.45,1.84-0.68c1.2-0.46,2.37-0.96,3.58-1.4
			c1.19-0.43,2.11-1.29,3.15-1.94c0.65-0.41,1.27-0.87,1.9-1.3c0.6-0.4,1.03-0.97,1.6-1.44c-0.08-0.04-0.11-0.06-0.14-0.07
			c-0.96-0.06-1.13-0.21-1.26-1.14c-0.14-1.03,0.17-1.88,1-2.53c1.1-0.85,2.37-1.06,3.71-1.02c0.13,0,0.24,0.06,0.38,0.19
			c-0.55,0.08-1.07,0.15-1.58,0.24c-0.77,0.13-1.42,0.5-1.96,1.05c-0.69,0.72-0.74,1.57-0.49,2.47c0.11,0.41,0.61,0.49,0.95,0.24
			c1.68-1.23,2.58-3.09,3.86-4.64c0.23-0.28,0.42-0.59,0.63-0.89c0.28-0.42,0.69-0.55,1.24-0.49c-0.25,0.34-0.47,0.66-0.72,0.96
			c-0.15,0.18-0.15,0.29,0.06,0.44c1.51,1.11,3.02,2.24,4.53,3.37c0.16,0.12,0.31,0.24,0.5,0.4c-0.55,0.11-0.98,0.11-1.4-0.25
			c-0.57-0.49-1.21-0.9-1.81-1.36c-0.36-0.28-0.7-0.12-1.04,0.04c-0.31,0.15-0.33,0.44-0.29,0.74c0.07,0.54,0.31,1.04,0.45,1.56
			c0.25,0.89-0.12,1.38-1.05,1.36c-0.24,0-0.48-0.03-0.73-0.04c-0.23-0.01-0.32-0.13-0.34-0.35c-0.02-0.2,0.05-0.26,0.24-0.19
			c0.05,0.02,0.11,0.03,0.17,0.04c0.59,0.09,0.76-0.09,0.63-0.69c-0.05-0.24-0.12-0.47-0.2-0.7c-0.27-0.84-1.34-1.09-1.93-0.43
			c-0.37,0.42-0.72,0.74-1.33,0.8c-0.46,0.04-0.72,0.53-1.03,0.85c-0.12,0.12,0.08,0.22,0.15,0.3c1.29,1.37,2.59,2.73,3.88,4.1
			c0.1,0.11,0.25,0.19,0.28,0.39c-0.47,0.06-0.84,0.03-1.2-0.37c-1.1-1.23-2.26-2.41-3.4-3.6c-0.09-0.09-0.17-0.3-0.32-0.21
			c-0.14,0.08-0.36,0.16-0.32,0.43c0.03,0.19-0.19,0.22-0.3,0.31c-0.29,0.23-0.79,0.36-0.84,0.66c-0.06,0.3,0.35,0.61,0.55,0.92
			c0.97,1.42,1.95,2.84,2.93,4.26c0.06,0.09,0.16,0.16,0.15,0.29c-0.23,0.02-0.32-0.14-0.43-0.29c-0.74-0.95-1.68-1.61-2.82-1.98
			c-0.51-0.17-1.03-0.17-1.49,0.21c0.1,0.16,0.27,0.17,0.4,0.25c0.56,0.32,0.76,0.81,0.5,1.22c-0.37,0.58-1.19,0.78-1.68,0.39
			c-0.47-0.38-0.73-0.88-0.58-1.5c0.16-0.68,0.62-1.07,1.28-1.23c0.66-0.16,1.27,0.06,1.86,0.32c0.12,0.05,0.24,0.09,0.36,0.14
			c0.03,0.05,0.09,0.09,0.13,0.05C58.48,64.83,58.41,64.8,58.37,64.77z M42.38,67.9c0.56,0.32,0.95,0.65,1.36,0.95
			c0.29,0.21,0.39,0.39,0.09,0.69c-0.27,0.27-0.49,0.59-0.71,0.91c-0.32,0.46-0.31,0.46,0.2,0.61c0.2,0.06,0.4,0.15,0.59,0.24
			c0.54,0.23,0.95,0.65,1.44,1.09c-0.23-1.61-0.45-3.13-0.67-4.64c-0.02-0.14-0.09-0.19-0.23-0.17
			C43.81,67.68,43.15,67.78,42.38,67.9z M52.56,69.63c0.03-0.02,0.06-0.04,0.09-0.07c-0.51-1.29-1.02-2.57-1.53-3.86
			c-0.07-0.17-0.19-0.13-0.31-0.08c-0.39,0.16-0.79,0.32-1.18,0.48c-0.41,0.16-0.83,0.33-1.34,0.53c0.35,0.12,0.58,0.22,0.81,0.28
			c0.83,0.21,1.5,0.67,1.84,1.46C51.25,69.14,52,69.23,52.56,69.63z M35.45,67.85c-0.02,0.04-0.04,0.09-0.06,0.13
			c0.2,0.18,0.39,0.36,0.59,0.54c0.61,0.54,0.98,1.22,0.93,2.02c-0.05,0.87,0.63,1.28,0.98,1.9c0.15-1.38,0.26-2.73,0.36-4.09
			c0.01-0.14,0.05-0.28-0.18-0.3C37.2,67.99,36.32,67.92,35.45,67.85z M61.67,57.31c0.54,0,1.02-0.15,1.41,0.14
			c0.31,0.23,0.38,0.18,0.37-0.19c0-0.6,0.13-0.74,0.73-0.82c0.29-0.04,0.58-0.04,0.97-0.06c-0.61-0.45-1.13-0.84-1.65-1.23
			c-0.12-0.09-0.19-0.08-0.28,0.04C62.74,55.87,62.23,56.56,61.67,57.31z"/>
		<path class="st0" d="M20.28,14.85c-0.89-0.84-1.79-1.69-2.72-2.57c0.43-0.1,0.74-0.05,1.02,0.19c0.28,0.23,0.57,0.29,0.88,0.01
			c0.5-0.45,1.18-0.5,1.77-0.19c0.16,0.08,0.28,0.23,0.58,0.25c-0.52-0.75-1-1.45-1.49-2.16c0.23-0.07,0.36-0.04,0.5,0.12
			c0.14,0.16,0.31,0.29,0.48,0.42c0.28,0.21,0.57,0.27,0.82-0.08c-0.02-0.14-0.22-0.08-0.27-0.22c0.05-0.03,0.11-0.07,0.17-0.09
			c2.69-1.12,5.39-2.24,8.08-3.36c0.17-0.07,0.32-0.08,0.49,0c0.25,0.11,0.5,0.21,0.85,0.35c-0.56,0.23-1.02,0.45-1.5,0.62
			C29.62,8.26,29.6,8.4,29.73,8.7c0.97,2.31,1.93,4.62,2.89,6.94c0.05,0.13,0.1,0.26,0.17,0.45c-0.6-0.17-1.08-0.3-1.32-0.96
			c-0.42-1.18-0.94-2.32-1.42-3.47c-0.23-0.55-0.66-0.85-1.18-0.81c-0.57,0.04-0.84,0.45-0.63,0.98c0.04,0.1,0.1,0.2,0.16,0.3
			c0.07,0.12,0.19,0.22,0.02,0.36c-0.18,0.16-0.25-0.02-0.35-0.1c-0.63-0.49-1.28-0.8-2.09-0.41c-0.68,0.33-1.03,1.13-0.78,1.83
			c0.2,0.58,0.64,0.81,1.32,0.7c0.02-0.14-0.12-0.18-0.18-0.26c-0.28-0.35-0.29-0.77-0.04-1.1c0.27-0.35,0.71-0.48,1.1-0.29
			c0.46,0.22,0.83,0.57,0.84,1.1c0.02,0.52-0.33,0.86-0.78,1.08c-0.94,0.46-1.99,0.28-2.62-0.43c-0.76-0.87-0.94-2.18-0.4-3.02
			c0.4-0.63,1.24-0.9,2.05-0.65c0.21,0.07,0.42,0.16,0.63,0.24c0.14-1.28,0.9-1.8,2.24-0.79c0.01-0.27-0.38-1.43-0.53-1.64
			c-0.09-0.13-0.17-0.07-0.25-0.04c-1.51,0.63-3.05,1.2-4.52,1.91c-0.58,0.28-1.11,0.73-1.67,1.09c-0.26,0.16-0.07,0.29,0.01,0.41
			c0.85,1.33,1.71,2.66,2.56,3.99c0.58,0.9,1.15,1.8,1.72,2.7c0.05,0.08,0.13,0.15,0.11,0.25c-0.7-0.04-1.17-0.35-1.54-0.99
			c-0.88-1.48-1.85-2.91-2.77-4.37c-0.6-0.96-1.58-1.15-2.61-0.47c-0.23,0.15-0.05,0.26,0.05,0.37c0.95,1.04,1.91,2.08,2.87,3.11
			c0.85,0.92,1.7,1.84,2.62,2.84c-0.63-0.03-1.15,0.09-1.6-0.46c-0.93-1.12-1.92-2.18-2.91-3.25c-0.61-0.66-1.42-0.74-2.25-0.65
			c-0.39,0.04-0.69,0.54-0.65,0.94c0.02,0.19,0.11,0.27,0.31,0.25c0.21-0.02,0.43-0.03,0.64-0.03c0.21,0,0.43,0,0.63,0.07
			c0.58,0.2,0.96,0.76,0.85,1.27c-0.11,0.5-0.7,0.91-1.27,0.87c-0.1-0.01-0.2-0.02-0.29-0.05c-0.24-0.07-0.3,0-0.25,0.25
			c0.04,0.18,0.02,0.37-0.01,0.55c-0.1,0.57-0.43,0.93-0.87,0.98c-0.52,0.05-1.1-0.31-1.27-0.82c-0.18-0.54-0.23-1.09-0.06-1.64
			c0.07-0.23,0.02-0.31-0.18-0.37c-0.44-0.13-0.83-0.08-1.21,0.2c-0.5,0.38-0.82,0.9-1.16,1.41c-0.97,1.49-1.95,2.98-2.92,4.47
			c-0.44,0.67-0.65,1.45-1,2.16c-0.13,0.26,0.11,0.28,0.25,0.34c1.33,0.59,2.66,1.17,3.99,1.75c1.08,0.47,2.16,0.94,3.29,1.43
			c-0.56,0.34-1.03,0.52-1.69,0.21c-1.95-0.91-3.93-1.73-5.9-2.6c-0.28-0.12-0.46-0.13-0.52,0.19c-0.14,0.73-0.67,0.99-1.4,1.11
			c0.26-0.61,0.51-1.19,0.76-1.79c-0.23-0.04-0.37,0.07-0.52,0.12c-0.65,0.24-1.06,0.12-1.48-0.45c-1.08-1.49-1.03-3.07,0.15-4.55
			c0.88-1.1,2.03-1.81,3.33-2.31c0.2-0.08,0.2-0.07,0.59,0.04c-0.43,0.25-0.81,0.48-1.2,0.69c-1.07,0.59-1.89,1.41-2.33,2.57
			c-0.45,1.2-0.08,2.24,0.67,3.18c0.3,0.37,0.98,0.26,1.17-0.14c0.1-0.22,0.18-0.4-0.24-0.33c0.97-1.49,1.9-2.92,2.84-4.34
			c0.48-0.73,1.04-1.41,1.4-2.19c0.23-0.5,0.55-0.86,0.93-1.2c0.91-0.81,1.46-0.92,2.65-0.49c-0.14-0.65-0.14-1.28,0.16-1.87
			c0.31-0.61,0.48-0.72,1.17-0.65c0.75,0.08,1.48,0.27,2.21,0.45c0.04,0.02,0.09,0.05,0.13,0C20.35,14.91,20.3,14.88,20.28,14.85z"
			/>
		<path class="st0" d="M39.1,17.43c12.06-0.07,21.99,9.89,21.8,22.08C60.71,51.29,51,60.99,38.95,60.9
			c-11.88-0.09-21.56-9.88-21.52-21.81C17.48,27.14,27.23,17.39,39.1,17.43z M39.24,17.93c-11.7-0.09-21.21,9.49-21.31,21
			c-0.11,11.9,9.49,21.21,20.71,21.46c12.05,0.27,21.77-9.51,21.75-21.26C60.38,27.56,50.95,17.95,39.24,17.93z"/>
		<path class="st0" d="M23.96,65.43c0.26-0.27,0.41-0.61,0.64-0.9c0.16-0.21,0.13-0.32-0.1-0.46c-1.15-0.74-2.28-1.52-3.44-2.23
			c-0.47-0.29-0.69-0.77-1.1-1.1c-0.28-0.24-0.42-0.28-0.69,0.02c-1.35,1.47-2.73,2.91-4.09,4.36c-0.05,0.05-0.07,0.12-0.14,0.16
			c-0.1-0.46-0.12-0.84,0.25-1.21c1.01-1.02,1.98-2.09,2.96-3.14c0.41-0.44,0.52-1,0.28-1.45c-0.03-0.06-0.05-0.39-0.25-0.08
			c-0.05,0.09-0.11-0.04-0.14-0.09c-0.18-0.24-0.37-0.47-0.53-0.72c-0.14-0.23-0.26-0.22-0.47-0.06c-1.5,1.13-3.02,2.24-4.53,3.36
			c-0.15,0.11-0.29,0.21-0.46,0.33c-0.04-0.55,0.09-0.94,0.57-1.25c0.87-0.57,1.68-1.22,2.54-1.82c0.6-0.42,0.77-1.03,0.82-1.7
			c0.02-0.3-0.16-0.5-0.44-0.61c-0.35-0.14-0.45-0.07-0.47,0.31c-0.01,0.27-0.02,0.54-0.12,0.8c-0.17,0.43-0.63,0.7-1.01,0.62
			c-0.39-0.09-0.72-0.54-0.63-0.99c0.08-0.4,0.05-0.55-0.41-0.58c-0.53-0.04-0.84-0.41-0.82-0.81c0.02-0.46,0.41-0.87,0.91-0.92
			c0.37-0.04,0.75-0.06,1.09,0.11c0.21,0.11,0.28,0.02,0.34-0.15c0.11-0.28,0.15-0.57-0.04-0.82c-1.09-1.39-1.52-3.09-2.2-4.67
			c-0.18-0.43-0.33-0.88-0.54-1.3c-0.37-0.75-0.53-1.54-0.62-2.36c-0.04-0.35-0.21-0.39-0.51-0.33c-1.88,0.42-3.75,0.83-5.63,1.24
			C4.86,47.01,4.77,47.06,4.67,47c0.17-0.49,0.47-0.76,1.02-0.87c1.61-0.31,3.2-0.7,4.8-1.04c0.28-0.06,0.42-0.13,0.29-0.43
			c-0.21-0.51,0.01-0.9,0.4-1.29c0.11,0.51,0.22,0.98,0.33,1.5c0.08-0.09,0.13-0.12,0.15-0.17c0.35-0.67,0.74-0.79,1.58-0.44
			c1.21,0.52,1.79,1.54,1.68,2.97c-0.08,1.03-0.47,1.96-1.01,2.82c-0.09,0.14-0.19,0.25-0.38,0.19c0.19-0.45,0.39-0.89,0.57-1.35
			c0.26-0.64,0.31-1.29,0.18-1.97c-0.2-1.08-0.89-1.68-1.9-1.97c-0.43-0.12-0.76,0.25-0.72,0.69c0.21,2.11,1.34,3.89,2.03,5.82
			c0.3,0.85,0.62,1.69,1.2,2.42c0.42,0.53,0.28,1.16-0.06,1.78c0.58-0.06,1.06,0.03,1.52,0.32c0.34,0.22,0.44,0.49,0.35,0.87
			c-0.13,0.58-0.31,1.14-0.46,1.77c0.71-0.61,1.42-1.21,2.16-1.84c0.11,0.31,0.01,0.53-0.17,0.72C18,57.79,17.93,58,18.3,58.27
			c0.75,0.56,0.83,0.86,0.66,2.08c0.5-0.57,0.88-1.17,1.41-1.63c0.14,0.23-0.03,0.37-0.11,0.52c-0.28,0.53-0.23,0.6,0.15,1.03
			c1.33,1.56,3.25,2.29,4.83,3.48c0.18,0.14,0.37,0.28,0.57,0.37c0.53,0.26,0.84,0.65,0.82,1.29c-0.35-0.14-0.65-0.36-0.94-0.58
			c-0.28-0.21-0.4-0.15-0.58,0.13c-1.04,1.62-2.1,3.22-3.15,4.83c-0.07,0.1-0.1,0.23-0.25,0.29c-0.23-0.49-0.19-0.91,0.14-1.37
			c0.55-0.74,1.02-1.54,1.53-2.31c0.23-0.34,0.26-0.69,0.05-1.04c-0.26-0.45-0.7-0.44-0.99-0.01c-0.09,0.14-0.07,0.44-0.33,0.36
			c-0.24-0.08-0.07-0.33-0.08-0.49c-0.03-0.97-0.64-1.56-1.5-1.43c-0.42,0.06-0.7,0.32-0.84,0.71c-0.12,0.34-0.02,0.64,0.26,0.89
			c0.12-0.07,0.08-0.2,0.12-0.3c0.12-0.26,0.31-0.41,0.59-0.43c0.28-0.02,0.52,0.08,0.66,0.32c0.24,0.38,0.14,0.77-0.08,1.13
			c-0.19,0.31-0.5,0.35-0.83,0.28c-0.87-0.17-1.49-1.18-1.24-2.08c0.15-0.54,0.45-0.98,0.94-1.28c0.95-0.58,1.93-0.19,2.18,0.9
			c0.08,0.33,0.14,0.36,0.46,0.25c0.62-0.23,1.06,0.09,1.13,0.75c0.02,0.15,0.02,0.31,0.03,0.47c-0.01,0.03-0.01,0.06-0.02,0.09
			C23.91,65.46,23.93,65.45,23.96,65.43z"/>
		<path class="st0" d="M18.91,23.09c-1.09-0.71-2.19-1.43-3.29-2.14c-0.23-0.15-0.45-0.3-0.69-0.43c-0.24-0.14-0.44-0.07-0.57,0.17
			c-0.03,0.05-0.07,0.1-0.08,0.15c-0.18,0.95-0.09,1.85,0.49,2.69c0.5-0.71,0.98-0.81,1.51-0.37c0.32,0.27,0.43,0.6,0.26,0.99
			c-0.22,0.5-0.53,0.95-1.12,0.99c-0.71,0.05-1.3-0.29-1.66-0.88c-0.64-1.06-0.83-2.24-0.52-3.46c0.28-1.09,1.42-1.51,2.36-0.9
			c1.79,1.16,3.58,2.34,5.36,3.51c0.06,0.04,0.1,0.09,0.17,0.15c-0.28,0.2-0.55,0.24-0.86,0.16c-0.98-0.26-1.44-0.06-1.93,0.83
			c-0.34,0.62-0.61,1.29-0.99,1.89c-0.97,1.54-2.26,1.79-3.77,0.78c-0.52-0.35-0.92-0.85-1.38-1.26c-0.11-0.1-0.3-0.35-0.07-0.5
			c0.21-0.13,0.45-0.19,0.63,0.16c0.28,0.57,0.78,0.94,1.34,1.21c0.65,0.31,1.2,0.2,1.72-0.3c0.27-0.26,0.46-0.58,0.63-0.91
			c0.15-0.29,0.29-0.59,0.46-0.87c0.46-0.77,1.06-1.37,2.01-1.55C18.91,23.16,18.91,23.13,18.91,23.09z"/>
		<path class="st0" d="M62.44,17.81c0.24,0.31,0.17,0.53-0.03,0.8C61.63,19.62,61,20.72,60.76,22c-0.17,0.9-0.05,1.75,0.39,2.56
			c0.61,1.15,2.7,1.85,3.77,0.35c0.29-0.41,0.26-0.53-0.24-0.56c-1.18-0.08-1.91-0.76-2.37-1.76c-0.41-0.88-0.06-1.81,0.77-2.21
			c0.42-0.2,0.84-0.19,1.21,0.1c0.41,0.32,0.65,0.72,0.54,1.26c-0.09,0.43-0.41,0.63-0.81,0.72c-0.13,0.03-0.28,0.03-0.45,0.05
			c0.15,0.26,0.38,0.33,0.61,0.39c0.54,0.15,1.09,0.23,1.65,0.16c0.26-0.03,0.38,0.05,0.33,0.28c-0.24,1.15-0.51,2.31-1.63,2.96
			c-1.17,0.68-2.39,0.74-3.56,0.01c-1.31-0.82-1.77-2.46-1.22-4.13c0.46-1.39,1.35-2.53,2.19-3.69
			C62.09,18.26,62.25,18.05,62.44,17.81z"/>
		<path class="st0" d="M65.5,35.6c0.85,0,1.7-0.01,2.55,0.01c0.25,0.01,0.34-0.09,0.41-0.31c0.25-0.81,0.52-1.61,0.82-2.54
			c0.3,0.91,0.57,1.69,0.81,2.49c0.09,0.29,0.22,0.37,0.51,0.36c0.82-0.02,1.64-0.01,2.48,0.07c-0.64,0.47-1.26,0.96-1.92,1.39
			c-0.33,0.22-0.36,0.42-0.24,0.77c0.27,0.74,0.49,1.5,0.77,2.36c-0.74-0.53-1.41-0.98-2.04-1.49c-0.3-0.24-0.49-0.21-0.76,0.01
			c-0.63,0.48-1.28,0.94-2,1.37c0.23-0.73,0.44-1.47,0.72-2.19c0.16-0.41,0.09-0.63-0.27-0.87c-0.64-0.42-1.25-0.89-1.87-1.34
			C65.48,35.66,65.49,35.63,65.5,35.6z"/>
		<path class="st0" d="M6.57,40.1c0.24-0.77,0.47-1.55,0.73-2.32c0.1-0.28,0.04-0.43-0.2-0.6c-0.67-0.47-1.33-0.96-1.97-1.53
			c0.82,0,1.63-0.02,2.45,0.01c0.32,0.01,0.45-0.1,0.54-0.39c0.24-0.79,0.5-1.57,0.8-2.47c0.28,0.89,0.55,1.65,0.77,2.43
			c0.1,0.33,0.24,0.45,0.6,0.43c0.79-0.03,1.59-0.01,2.44-0.01c-0.11,0.21-0.28,0.28-0.42,0.38c-0.55,0.4-1.1,0.82-1.66,1.2
			c-0.19,0.13-0.22,0.24-0.14,0.45c0.23,0.67,0.45,1.35,0.66,2.03c0.04,0.13,0.13,0.26,0.08,0.47c-0.64-0.47-1.27-0.89-1.87-1.37
			c-0.33-0.26-0.56-0.31-0.91-0.02c-0.5,0.42-1.05,0.78-1.58,1.16C6.79,40.04,6.72,40.18,6.57,40.1L6.57,40.1z"/>
		<path class="st0" d="M75.16,45.22c-1.65,1-3.01,2.25-3.94,3.96c-0.05,0.1-0.09,0.21-0.23,0.23c-0.53,0.07-1.06,0.14-1.7,0.22
			c0.37-0.43,0.65-0.77,0.84-1.19c0.32-0.71,0.34-1.43,0.08-2.16c-0.18-0.52-0.51-0.75-0.94-0.7c-0.4,0.05-0.82,0.51-0.88,0.95
			c-0.03,0.18,0.07,0.25,0.2,0.33c0.37,0.24,0.58,0.58,0.66,1.01c0.08,0.41-0.14,0.83-0.48,0.95c-0.35,0.12-0.8-0.09-1-0.47
			c-0.17-0.34-0.23-0.7-0.27-1.07c-0.03-0.23-0.11-0.27-0.3-0.15c-0.2,0.12-0.35,0.27-0.4,0.52c-0.07,0.35-0.21,0.69-0.26,1.04
			c-0.07,0.56-0.43,0.81-0.96,1c0.31-1.19,0.61-2.34,0.92-3.5c0.18-0.67,0.41-1.34,0.52-2.03c0.09-0.57,0.44-0.8,0.95-0.99
			c-0.26,1.01-0.52,1.99-0.77,2.96c-0.03,0.13-0.17,0.31-0.02,0.38c0.18,0.07,0.39,0,0.51-0.2c0.12-0.19,0.25-0.39,0.39-0.56
			c0.48-0.56,1.11-0.8,1.84-0.66c0.72,0.15,1.1,0.66,1.27,1.35c0.07,0.28,0.15,0.57,0.24,0.9C72.56,46.35,73.61,45.33,75.16,45.22z"
			/>
		<path class="st0" d="M7.14,54.9c0.01-0.3,0.13-0.49,0.33-0.65c0.55-0.46,0.62-0.8,0.32-1.47c-0.17-0.39-0.39-0.76-0.6-1.13
			c-0.2-0.36-0.37-0.74-0.43-1.15c-0.16-0.94,0.32-1.67,1.38-2.08c0.47-0.18,0.96-0.27,1.46-0.29c0.12,0,0.35-0.1,0.33,0.17
			c-0.02,0.21-0.13,0.31-0.38,0.28c-0.39-0.05-0.76,0.05-1.12,0.21c-0.77,0.34-1.03,0.91-0.73,1.7c0.16,0.41,0.39,0.79,0.58,1.19
			c0.29,0.62,0.37,1.27,0.1,1.99c0.5-0.11,0.86-0.3,1.24-0.45c0.7-0.28,1.4-0.56,2.1-0.85c0.42-0.18,0.49-0.44,0.16-0.74
			c-0.44-0.41-0.96-0.7-1.58-0.79c-0.2-0.03-0.29,0-0.2,0.25c0.15,0.38,0.02,0.64-0.36,0.83C9.35,52.08,9.02,52,8.8,51.67
			c-0.54-0.8-0.08-1.74,0.94-1.81c1.15-0.07,2.11,0.41,2.8,1.32c0.48,0.64,0.1,1.53-0.5,1.76c-1.59,0.62-3.17,1.28-4.75,1.92
			C7.26,54.88,7.21,54.88,7.14,54.9z"/>
		<path class="st0" d="M38.61,14.52c-0.31-0.23-0.49-0.42-0.53-0.71c-0.08-0.64,0.23-1,0.92-1.07c0.54-0.06,1.01,0.35,1.06,0.92
			c0.07,0.86-0.71,1.58-1.63,1.5c-0.66-0.05-1.19-0.35-1.62-0.85c-1.32-1.53-1.57-4.12-0.59-6.04c0.33-0.64,0.72-1.23,1.31-1.66
			c0.91-0.66,1.35-0.6,2.07,0.28c-2.62,0.54-3.66,3.87-2.88,6.02C37.01,13.74,37.46,14.45,38.61,14.52z"/>
		<path class="st0" d="M66.36,53.47c-0.82,0-1.47-0.66-1.48-1.5c-0.01-0.77,0.62-1.35,1.45-1.35c0.79,0.01,1.54,0.72,1.55,1.47
			C67.89,52.81,67.16,53.46,66.36,53.47z M67.01,52.28c-0.02-0.12-0.05-0.36-0.12-0.59c-0.1-0.33-0.65-0.65-0.92-0.53
			c-0.37,0.17-0.36,0.52-0.29,0.85c0.07,0.32,0.24,0.61,0.52,0.8c0.18,0.13,0.38,0.23,0.59,0.11C67,52.81,67.01,52.6,67.01,52.28z"
			/>
		<path class="st0" d="M72.93,52.36c-1.36,0.54-2.64,1.15-3.87,1.87c-0.15,0.09-0.28,0.11-0.44,0.03c-0.34-0.17-0.69-0.33-1.09-0.53
			c0.48-0.3,0.97-0.45,1.45-0.63c1.03-0.37,2.09-0.65,3.15-0.93C72.42,52.11,72.66,52.13,72.93,52.36z"/>
		<path class="st0" d="M26.78,71.61c0,0.94-1.19,2.01-2.08,1.89c-0.08-0.01-0.14-0.02-0.15-0.11c-0.02-0.12,0.04-0.18,0.16-0.2
			c0.24-0.03,0.47-0.1,0.69-0.21c0.22-0.11,0.41-0.26,0.53-0.47c0.11-0.2,0.14-0.37-0.16-0.43c-0.4-0.08-0.71-0.28-0.66-0.74
			c0.04-0.34,0.21-0.63,0.6-0.67c0.43-0.05,0.93,0.28,1.03,0.66C26.77,71.43,26.77,71.53,26.78,71.61z"/>
		<path class="st0" d="M50.92,16.33c0,0.46-0.39,0.84-0.84,0.84c-0.43,0-0.8-0.41-0.8-0.89c0-0.47,0.37-0.84,0.84-0.83
			C50.56,15.46,50.92,15.85,50.92,16.33z"/>
		<path class="st0" d="M43.6,73.98c-0.43,0.01-0.75-0.3-0.74-0.71c0.01-0.36,0.3-0.64,0.66-0.64c0.4,0,0.72,0.3,0.72,0.69
			C44.23,73.69,43.95,73.98,43.6,73.98z"/>
		<path class="st0" d="M6.57,40.09c0,0.02,0,0.04,0,0.06c-0.01-0.01-0.02-0.02-0.01-0.02C6.56,40.12,6.57,40.11,6.57,40.09
			C6.57,40.1,6.57,40.09,6.57,40.09z"/>
		<polygon class="st0" points="46.27,73.97 46.27,73.98 46.26,73.97 		"/>
		<path class="st1" d="M50.94,12.94c1.26-0.23,2.88-0.22,3.56,0.01c-0.67,1.27-1.33,2.54-1.99,3.81
			C52.41,15.33,51.89,14.08,50.94,12.94z"/>
		<path class="st1" d="M58.35,15.96c0.72-0.58,0.61-1.34,0.57-2.12c0.35,0.17,0.57,0.43,0.82,0.64c0.58,0.48,1.15,0.98,1.72,1.47
			c0.16,0.13,0.25,0.24,0.07,0.44c-0.55,0.61-1.08,1.24-1.67,1.94c0-0.43,0.01-0.78,0-1.12c-0.02-0.85-0.21-1.04-1.05-1.12
			c-0.1-0.01-0.2-0.02-0.3-0.04C58.48,16.03,58.44,16,58.35,15.96z"/>
		<path class="st1" d="M42.16,9.77C42.17,9,41.95,8.45,41.2,8.2c0.04-0.17,0.17-0.26,0.28-0.35c0.69-0.59,1.94-0.56,2.55,0.05
			c0.17,0.17,0.26,0.3-0.01,0.49C43.4,8.82,42.81,9.28,42.16,9.77z"/>
		<path class="st1" d="M42.38,67.9c0.77-0.12,1.43-0.22,2.09-0.32c0.14-0.02,0.21,0.03,0.23,0.17c0.22,1.52,0.44,3.03,0.67,4.64
			c-0.49-0.45-0.9-0.87-1.44-1.09c-0.2-0.08-0.39-0.17-0.59-0.24c-0.52-0.16-0.53-0.16-0.2-0.61c0.22-0.31,0.44-0.64,0.71-0.91
			c0.3-0.3,0.2-0.48-0.09-0.69C43.33,68.54,42.94,68.21,42.38,67.9z"/>
		<path class="st1" d="M52.56,69.63c-0.56-0.4-1.31-0.49-1.64-1.26c-0.33-0.79-1-1.25-1.84-1.46c-0.23-0.06-0.46-0.15-0.81-0.28
			c0.51-0.2,0.93-0.37,1.34-0.53c0.4-0.16,0.79-0.32,1.18-0.48c0.13-0.05,0.25-0.09,0.31,0.08c0.51,1.29,1.02,2.57,1.53,3.86
			C52.62,69.59,52.59,69.61,52.56,69.63z"/>
		<path class="st1" d="M35.45,67.85c0.87,0.07,1.75,0.15,2.62,0.21c0.23,0.02,0.19,0.16,0.18,0.3c-0.1,1.36-0.21,2.72-0.36,4.09
			c-0.35-0.62-1.03-1.03-0.98-1.9c0.05-0.8-0.32-1.49-0.93-2.02c-0.2-0.18-0.39-0.36-0.59-0.54C35.41,67.94,35.43,67.89,35.45,67.85
			z"/>
		<path class="st1" d="M61.67,57.31c0.56-0.75,1.06-1.44,1.56-2.12c0.09-0.12,0.16-0.13,0.28-0.04c0.52,0.39,1.04,0.78,1.65,1.23
			c-0.39,0.02-0.68,0.03-0.97,0.06c-0.6,0.08-0.74,0.22-0.73,0.82c0,0.37-0.06,0.42-0.37,0.19C62.69,57.16,62.21,57.31,61.67,57.31z
			"/>
		<path class="st1" d="M58.37,64.77c0.03,0.04,0.11,0.07,0.06,0.12c-0.04,0.04-0.1,0-0.13-0.05C58.32,64.82,58.35,64.79,58.37,64.77
			z"/>
		<path class="st1" d="M20.28,14.85c0.02,0.02,0.07,0.06,0.07,0.07c-0.04,0.06-0.08,0.03-0.13,0C20.24,14.9,20.26,14.88,20.28,14.85
			z"/>
		<path class="st2" d="M39.24,17.93c11.71,0.01,21.14,9.62,21.16,21.2c0.02,11.75-9.71,21.53-21.75,21.26
			c-11.22-0.25-20.82-9.56-20.71-21.46C18.03,27.43,27.54,17.85,39.24,17.93z M39.16,58.84C39.16,58.84,39.16,58.83,39.16,58.84
			c0.94,0,1.88-0.01,2.82,0c0.33,0.01,0.36-0.08,0.23-0.37c-0.21-0.45-0.34-0.93-0.33-1.44c0-0.23,0.08-0.31,0.31-0.35
			c0.55-0.09,1.09-0.2,1.62-0.35c1.92-0.53,3.71-1.35,5.35-2.48c0.54-0.37,0.54-0.36,0.94,0.13c0.24,0.29,0.44,0.6,0.54,0.96
			c0.09,0.32,0.2,0.37,0.45,0.12c1.31-1.32,2.63-2.64,3.96-3.96c0.22-0.22,0.21-0.35-0.09-0.44c-0.45-0.13-0.81-0.4-1.17-0.69
			c-0.2-0.16-0.31-0.32-0.1-0.57c0.14-0.16,0.24-0.35,0.36-0.53c1.33-2.04,2.2-4.27,2.62-6.66c0.04-0.24,0.14-0.33,0.39-0.34
			c0.52-0.02,0.98,0.15,1.44,0.35c0.22,0.1,0.34,0.09,0.33-0.21c-0.01-1.91-0.01-3.82,0-5.73c0-0.3-0.11-0.28-0.33-0.19
			c-0.43,0.18-0.87,0.34-1.36,0.34c-0.29,0-0.44-0.07-0.49-0.38c-0.08-0.52-0.2-1.03-0.34-1.54c-0.53-2-1.4-3.84-2.59-5.52
			c-0.2-0.28-0.2-0.46,0.08-0.67c0.37-0.27,0.73-0.55,1.17-0.69c0.31-0.1,0.27-0.23,0.08-0.41c-0.16-0.16-0.32-0.32-0.49-0.48
			c-1.16-1.16-2.32-2.31-3.47-3.48c-0.23-0.24-0.37-0.23-0.45,0.1c-0.11,0.44-0.4,0.78-0.66,1.14c-0.19,0.27-0.37,0.3-0.66,0.09
			c-0.93-0.68-1.94-1.24-3-1.7c-1.29-0.55-2.6-1.01-3.99-1.21c-0.34-0.05-0.5-0.18-0.46-0.55c0.04-0.45,0.13-0.87,0.32-1.27
			c0.13-0.27,0.11-0.37-0.22-0.37c-1.88,0.01-3.76,0.01-5.64,0c-0.27,0-0.37,0.05-0.23,0.34c0.19,0.38,0.27,0.8,0.33,1.23
			c0.06,0.42-0.11,0.58-0.51,0.65c-2.55,0.44-4.87,1.43-6.98,2.92c-0.21,0.15-0.39,0.16-0.56-0.05c-0.3-0.36-0.6-0.73-0.72-1.2
			c-0.09-0.36-0.24-0.32-0.46-0.1c-1.32,1.32-2.64,2.64-3.96,3.96c-0.23,0.23-0.16,0.36,0.11,0.44c0.33,0.1,0.63,0.27,0.9,0.48
			c0.57,0.44,0.57,0.44,0.17,1.04c-1.42,2.1-2.35,4.4-2.79,6.9c-0.05,0.27-0.16,0.35-0.42,0.35c-0.5,0-0.96-0.11-1.4-0.33
			c-0.26-0.13-0.35-0.09-0.34,0.22c0.01,1.9,0.01,3.79,0,5.69c0,0.26,0.06,0.33,0.32,0.22c0.46-0.2,0.92-0.38,1.44-0.35
			c0.24,0.01,0.37,0.06,0.4,0.32c0.05,0.36,0.14,0.72,0.23,1.08c0.51,2.2,1.43,4.21,2.73,6.06c0.2,0.28,0.15,0.47-0.09,0.66
			c-0.34,0.26-0.68,0.51-1.1,0.64c-0.37,0.11-0.39,0.21-0.12,0.48c1.31,1.31,2.62,2.62,3.93,3.93c0.21,0.21,0.35,0.23,0.45-0.08
			c0.14-0.43,0.4-0.78,0.65-1.14c0.2-0.28,0.39-0.31,0.67-0.1c0.59,0.45,1.23,0.82,1.89,1.16c1.65,0.87,3.39,1.47,5.22,1.79
			c0.28,0.05,0.35,0.17,0.35,0.42c-0.01,0.47-0.11,0.9-0.31,1.32c-0.17,0.34-0.07,0.44,0.29,0.43
			C37.33,58.82,38.25,58.84,39.16,58.84z"/>
		<path class="st1" d="M23.96,65.43c-0.02,0.02-0.04,0.03-0.06,0.05c0.01-0.03,0.01-0.06,0.02-0.09
			C23.92,65.4,23.94,65.42,23.96,65.43z"/>
		<path class="st1" d="M67.01,52.28c0,0.32-0.02,0.54-0.21,0.64c-0.21,0.11-0.41,0.01-0.59-0.11c-0.28-0.2-0.45-0.48-0.52-0.8
			c-0.07-0.32-0.08-0.67,0.29-0.85c0.26-0.12,0.82,0.2,0.92,0.53C66.97,51.91,66.99,52.16,67.01,52.28z"/>
		<path class="st0" d="M39.16,58.84c-0.91,0-1.82-0.01-2.74,0.01c-0.36,0.01-0.46-0.09-0.29-0.43c0.2-0.41,0.31-0.85,0.31-1.32
			c0-0.26-0.07-0.37-0.35-0.42c-1.84-0.32-3.58-0.92-5.22-1.79c-0.65-0.34-1.3-0.71-1.89-1.16c-0.28-0.21-0.47-0.18-0.67,0.1
			c-0.26,0.36-0.52,0.71-0.65,1.14c-0.1,0.31-0.24,0.29-0.45,0.08c-1.3-1.31-2.62-2.62-3.93-3.93c-0.27-0.27-0.25-0.37,0.12-0.48
			c0.42-0.13,0.76-0.38,1.1-0.64c0.23-0.18,0.28-0.38,0.09-0.66c-1.29-1.85-2.22-3.86-2.73-6.06c-0.08-0.36-0.17-0.72-0.23-1.08
			c-0.04-0.26-0.17-0.3-0.4-0.32c-0.52-0.03-0.98,0.15-1.44,0.35c-0.26,0.11-0.32,0.04-0.32-0.22c0.01-1.9,0.01-3.79,0-5.69
			c0-0.3,0.09-0.34,0.34-0.22c0.44,0.22,0.9,0.33,1.4,0.33c0.26,0,0.37-0.08,0.42-0.35c0.44-2.5,1.38-4.8,2.79-6.9
			c0.4-0.6,0.4-0.6-0.17-1.04c-0.27-0.21-0.57-0.38-0.9-0.48c-0.28-0.08-0.35-0.21-0.11-0.44c1.32-1.32,2.64-2.64,3.96-3.96
			c0.22-0.22,0.37-0.25,0.46,0.1c0.12,0.47,0.42,0.83,0.72,1.2c0.17,0.21,0.35,0.2,0.56,0.05c2.11-1.49,4.43-2.48,6.98-2.92
			c0.39-0.07,0.56-0.23,0.51-0.65c-0.06-0.43-0.14-0.84-0.33-1.23c-0.15-0.29-0.04-0.34,0.23-0.34c1.88,0,3.76,0.01,5.64,0
			c0.33,0,0.35,0.1,0.22,0.37c-0.19,0.4-0.28,0.83-0.32,1.27c-0.03,0.38,0.13,0.51,0.46,0.55c1.39,0.2,2.7,0.67,3.99,1.21
			c1.07,0.45,2.07,1.02,3,1.7c0.29,0.21,0.47,0.18,0.66-0.09c0.26-0.36,0.55-0.69,0.66-1.14c0.09-0.34,0.22-0.34,0.45-0.1
			c1.15,1.16,2.31,2.32,3.47,3.48c0.16,0.16,0.32,0.32,0.49,0.48c0.19,0.18,0.23,0.32-0.08,0.41c-0.44,0.14-0.8,0.42-1.17,0.69
			c-0.28,0.2-0.28,0.38-0.08,0.67c1.19,1.68,2.07,3.52,2.59,5.52c0.13,0.51,0.25,1.02,0.34,1.54c0.05,0.31,0.2,0.38,0.49,0.38
			c0.49,0.01,0.92-0.16,1.36-0.34c0.22-0.09,0.33-0.11,0.33,0.19c-0.01,1.91-0.01,3.82,0,5.73c0,0.29-0.11,0.31-0.33,0.21
			c-0.46-0.2-0.92-0.37-1.44-0.35c-0.25,0.01-0.35,0.1-0.39,0.34c-0.43,2.4-1.3,4.62-2.62,6.66c-0.12,0.18-0.22,0.37-0.36,0.53
			c-0.21,0.24-0.1,0.41,0.1,0.57c0.36,0.28,0.72,0.56,1.17,0.69c0.3,0.09,0.31,0.22,0.09,0.44c-1.32,1.31-2.64,2.63-3.96,3.96
			c-0.25,0.25-0.36,0.2-0.45-0.12c-0.1-0.36-0.3-0.67-0.54-0.96c-0.4-0.49-0.41-0.5-0.94-0.13c-1.64,1.13-3.44,1.94-5.35,2.48
			c-0.53,0.15-1.08,0.26-1.62,0.35c-0.23,0.04-0.31,0.11-0.31,0.35c-0.01,0.51,0.12,0.99,0.33,1.44c0.13,0.28,0.1,0.37-0.23,0.37
			C41.04,58.82,40.1,58.83,39.16,58.84C39.16,58.83,39.16,58.84,39.16,58.84z M39.16,24.72c-8.06,0.1-14.21,6.32-14.42,13.99
			c-0.22,8.48,6.35,14.73,14.11,14.87c8.29,0.15,14.63-6.35,14.73-14.22C53.69,31.22,47.25,24.8,39.16,24.72z"/>
		<path class="st2" d="M39.16,24.72c8.08,0.08,14.53,6.5,14.42,14.64c-0.1,7.87-6.44,14.37-14.73,14.22
			c-7.75-0.14-14.33-6.4-14.11-14.87C24.95,31.04,31.1,24.82,39.16,24.72z M42.9,43.14c1.31-0.17,2.1,0.31,2.9,0.76
			c0.22,0.13,0.43,0.34,0.38,0.62c-0.05,0.29-0.35,0.26-0.56,0.3c-0.97,0.2-1.96,0.33-2.95,0.42c-0.26,0.02-0.52,0.07-0.64,0.35
			c-0.2,0.48-0.38,0.98-0.58,1.46c-0.09,0.21-0.08,0.41,0.08,0.56c0.79,0.77,1.69,1.23,2.85,1.04c1.32-0.22,2.64-0.42,3.92-0.78
			c0.86-0.24,1.74-0.46,2.5-0.96c0.64-0.43,0.65-0.88,0-1.33c-0.8-0.55-1.73-0.7-2.66-0.85c-0.25-0.04-0.52-0.03-0.73-0.19
			c-0.86-0.65-1.72-1.3-2.57-1.97c-1.38-1.09-2.82-2.11-4.24-3.15c-0.38-0.28-0.39-0.34,0.02-0.6c0.92-0.6,1.83-1.2,2.74-1.8
			c1.43-0.95,2.86-1.92,4.28-2.87c0.77-0.51,1.54-1.03,2.3-1.54c0.17-0.12,0.3-0.28,0.24-0.5c-0.04-0.18-0.16-0.31-0.34-0.35
			c-0.22-0.05-0.39,0.08-0.55,0.19c-0.68,0.44-1.35,0.89-2.02,1.34c-2.54,1.7-5.08,3.39-7.6,5.11c-0.24,0.16-0.37,0.11-0.55-0.02
			c-0.93-0.68-1.85-1.37-2.78-2.05c-2.03-1.48-4.07-2.95-6.1-4.44c-0.18-0.13-0.31-0.13-0.5-0.03c-0.79,0.43-1.57,0.86-2.37,1.27
			c-0.31,0.16-0.24,0.27,0,0.42c1.77,1.13,3.55,2.26,5.32,3.4c1.45,0.93,2.89,1.86,4.35,2.78c0.3,0.19,0.25,0.29-0.01,0.47
			c-1.08,0.71-2.15,1.43-3.22,2.14c-1.57,1.05-3.14,2.11-4.71,3.15c-0.26,0.17-0.29,0.29-0.06,0.51c0.66,0.62,1.31,1.26,1.96,1.89
			c0.96,0.93,1.92,1.86,2.88,2.79c0.13,0.12,0.24,0.3,0.46,0.11c0.83-0.73,1.67-1.46,2.51-2.18c0.21-0.18,0.22-0.3-0.02-0.5
			c-1.41-1.15-2.8-2.32-4.21-3.47c-0.27-0.22-0.16-0.34,0.04-0.47c1.73-1.17,3.47-2.33,5.2-3.5c0.23-0.16,0.42-0.16,0.66,0
			c0.87,0.58,1.76,1.15,2.65,1.71C41.79,42.79,42.41,43.26,42.9,43.14z M38.55,34.7c0.09-0.16,0.13-0.21,0.15-0.26
			c0.21-0.51,0.43-1.02,0.62-1.54c0.35-0.91,0.4-0.95,1.39-0.8c0.03,0,0.06,0.02,0.08,0.02c0.53,0.03,1.05,0.06,1.59,0.09
			c-0.01-0.19-0.12-0.25-0.2-0.32c-0.51-0.43-1.02-0.86-1.55-1.27c-0.24-0.18-0.28-0.35-0.17-0.61c0.27-0.65,0.53-1.32,0.79-1.98
			c0.03-0.08,0.08-0.16-0.04-0.24c-0.63,0.28-1.16,0.75-1.76,1.09c-0.59,0.33-0.58,0.32-1.08-0.12c-0.52-0.45-1.06-0.87-1.59-1.31
			c0.13,0.82,0.31,1.58,0.52,2.34c0.08,0.29,0.03,0.47-0.24,0.62c-0.56,0.33-1.11,0.69-1.66,1.04c-0.1,0.06-0.24,0.11-0.21,0.33
			c0.68-0.04,1.35,0.1,2.03,0.1c0.61,0,0.68,0.08,0.81,0.68C38.18,33.25,38.36,33.92,38.55,34.7z"/>
		<path class="st0" d="M42.9,43.14c-0.49,0.11-1.11-0.35-1.74-0.75c-0.89-0.56-1.77-1.13-2.65-1.71c-0.24-0.16-0.42-0.16-0.66,0
			c-1.73,1.17-3.47,2.33-5.2,3.5c-0.2,0.14-0.32,0.25-0.04,0.47c1.41,1.15,2.8,2.32,4.21,3.47c0.24,0.2,0.23,0.31,0.02,0.5
			c-0.84,0.72-1.68,1.45-2.51,2.18c-0.22,0.19-0.33,0.01-0.46-0.11c-0.96-0.93-1.92-1.86-2.88-2.79c-0.65-0.63-1.3-1.27-1.96-1.89
			c-0.24-0.22-0.2-0.34,0.06-0.51c1.58-1.04,3.14-2.1,4.71-3.15c1.07-0.72,2.14-1.44,3.22-2.14c0.27-0.17,0.31-0.28,0.01-0.47
			c-1.45-0.92-2.9-1.85-4.35-2.78c-1.77-1.13-3.54-2.27-5.32-3.4c-0.24-0.15-0.31-0.26,0-0.42c0.8-0.41,1.58-0.84,2.37-1.27
			c0.18-0.1,0.31-0.11,0.5,0.03c2.03,1.49,4.07,2.96,6.1,4.44c0.93,0.68,1.85,1.36,2.78,2.05c0.18,0.13,0.31,0.18,0.55,0.02
			c2.53-1.72,5.07-3.41,7.6-5.11c0.67-0.45,1.34-0.9,2.02-1.34c0.16-0.11,0.33-0.24,0.55-0.19c0.18,0.04,0.3,0.17,0.34,0.35
			c0.05,0.23-0.07,0.39-0.24,0.5c-0.76,0.52-1.53,1.03-2.3,1.54c-1.43,0.96-2.85,1.92-4.28,2.87c-0.91,0.61-1.82,1.21-2.74,1.8
			c-0.4,0.26-0.4,0.33-0.02,0.6c1.42,1.04,2.86,2.06,4.24,3.15c0.85,0.67,1.71,1.32,2.57,1.97c0.21,0.16,0.48,0.15,0.73,0.19
			c0.93,0.15,1.86,0.29,2.66,0.85c0.64,0.45,0.64,0.91,0,1.33c-0.76,0.5-1.64,0.72-2.5,0.96c-1.29,0.36-2.61,0.56-3.92,0.78
			c-1.16,0.19-2.05-0.27-2.85-1.04c-0.15-0.15-0.16-0.35-0.08-0.56c0.2-0.49,0.38-0.98,0.58-1.46c0.11-0.27,0.37-0.32,0.64-0.35
			c0.99-0.09,1.98-0.22,2.95-0.42c0.21-0.04,0.51-0.01,0.56-0.3c0.05-0.28-0.15-0.49-0.38-0.62C45.01,43.45,44.22,42.97,42.9,43.14z
			"/>
		<path class="st0" d="M38.55,34.7c-0.19-0.78-0.36-1.45-0.51-2.12c-0.14-0.6-0.2-0.67-0.81-0.68c-0.68,0-1.35-0.15-2.03-0.1
			c-0.03-0.22,0.11-0.26,0.21-0.33c0.55-0.35,1.1-0.71,1.66-1.04c0.27-0.16,0.32-0.33,0.24-0.62c-0.21-0.76-0.4-1.53-0.52-2.34
			c0.53,0.43,1.07,0.85,1.59,1.31c0.5,0.44,0.49,0.46,1.08,0.12c0.6-0.34,1.13-0.81,1.76-1.09c0.12,0.08,0.07,0.16,0.04,0.24
			c-0.26,0.66-0.52,1.32-0.79,1.98c-0.11,0.26-0.07,0.43,0.17,0.61c0.53,0.4,1.04,0.84,1.55,1.27c0.08,0.07,0.19,0.13,0.2,0.32
			c-0.53-0.03-1.06-0.06-1.59-0.09c-0.03,0-0.06-0.01-0.08-0.02c-0.99-0.15-1.04-0.12-1.39,0.8c-0.2,0.52-0.41,1.03-0.62,1.54
			C38.67,34.49,38.64,34.54,38.55,34.7z"/>
	</g>
</g>
</svg>
